<svg id="Layer_1" data-name="Layer 1" xmlns="http://www.w3.org/2000/svg" viewBox="0 0 1350 1080"><title>old</title><path d="M803.32,700c-8.41,9-17,17.87-25.39,26.88-10.69,11.47-22,22.2-33.51,32.85-10.75,10-21.24,20.35-28.88,33.1-3.27,5.46-4.88,11.45-5.81,17.74a64.09,64.09,0,0,0-.54,11.07A103.48,103.48,0,0,0,714,849.39c1,3.18.91,6.45.94,9.42.07,6.36.23,12.9-2.32,19.13-2.82,6.88-8.65,9.79-14.83,12.35-17.42,7.2-35.45,12.6-53.66,17.27a185.59,185.59,0,0,1-27.09,5c-8,.83-16,2.07-24.13,2.68-5.92.44-11.85.82-17.76,1.33-23.78,2.07-47.6,1.2-71.39,1.09a179.27,179.27,0,0,1-21.45-1.19c-12.09-1.51-24.15-3-35.88-6.63C431.81,905.34,424,895,420.27,880.93c-2.71-10.13-2-20.51-2-30.83A31.65,31.65,0,0,0,415.2,836c-4.78-9.85-9.82-19.52-16.65-28.22-8.58-10.92-19-19.07-32.26-23.33-.68-.22-1.32-.53-2-.78a1.8,1.8,0,0,1-1.06-1.64c-.14-1.18,1.07-1.57,1.39-1.59,6.58-.53,13.06-1.72,19.78-1.21,10,.77,20.2,3,30.17-.84a47.52,47.52,0,0,0,6.35-3.06" fill="none" stroke="#000" stroke-linecap="round" stroke-linejoin="round" stroke-width="2"/><path d="M380.38,799.83C388,809.48,394,820,397.14,832a69.59,69.59,0,0,1,2.25,24.12c-1.42,14.82-6.89,28.4-13.61,41.58-12.1,23.71-29.93,41.74-53.73,53.46-10.76,5.3-21,11-29.08,19.92a60.66,60.66,0,0,0-14.1,26.13,27.79,27.79,0,0,1-14.38,18.46,49.1,49.1,0,0,1-27.82,5.91c-11.54-1-22-4.77-30.61-13.21-6.93-6.76-13.91-13.36-19.73-21.17a63.91,63.91,0,0,1-12.75-30.87,58.39,58.39,0,0,0-8.39-23.08c-3.89-6.41-4-13.15-3.26-20.16a2.18,2.18,0,0,0-.18-1.34" fill="none" stroke="#000" stroke-linecap="round" stroke-linejoin="round" stroke-width="2"/><path d="M598.89,704.31c6.08.91,10.68,6.29,8.55,13.79a49.21,49.21,0,0,0-2.26,12c-.29,10,4.19,17.33,11.82,23.11,5.22,4,11,6.49,17.75,6.38a23.4,23.4,0,0,0,9-2.07c8.16-3.61,16.9-4.78,25.49-6.66a138.79,138.79,0,0,0,56.3-26.12A108.39,108.39,0,0,0,747,702.63c5.25-7.26,9.2-15.26,10.28-24.14A54.17,54.17,0,0,0,750,644.34c-3.56-6.17-7.6-12-13-16.77a30.2,30.2,0,0,0-14.71-6.85c-7.75-1.46-14.83.57-21.39,3.67-8,3.8-16.29,7.17-24.23,11.19-2.34,1.19-4.39,2.81-6.69,4" fill="none" stroke="#000" stroke-linecap="round" stroke-linejoin="round" stroke-width="2"/><path d="M621,733.8c5.31-1.92,10.83-2.5,16.41-3.08,10.17-1.05,20.36,0,30.5-.68,21.65-1.5,40.87-8.77,55.59-25.43,5.84-6.61,11.13-13.74,12.76-22.75,2.17-12,2-23.88-5.06-34.47-5.54-8.34-13.48-12.65-23.73-11.75-8.45.74-17.06,8-18.22,16.43-.47,3.41.23,7.61,3.47,10.36,3,2.56,6.09,4,10.43,2.86a64.54,64.54,0,0,0,8.33-2.52" fill="none" stroke="#000" stroke-linecap="round" stroke-linejoin="round" stroke-width="2"/><path d="M866,757.6a15.78,15.78,0,0,0-5.88-13.24c-9.59-8.45-16.59-18.76-18.32-32a47.59,47.59,0,0,1,0-15.43c.3-1.55.39-3.36-1.65-4-1.72-.53-3.47-1-5,.63a88.79,88.79,0,0,0-14.77,20.1,91.32,91.32,0,0,0-8.05,20.45c-1.73,6.66.5,12.54,3.51,18,2.49,4.56,5.33,9,7.88,13.49,4.19,7.43,4.41,15.46,2,23.4-1.4,4.5-2.61,9.11-4.81,13.64a30.92,30.92,0,0,0,7.27,3.49c4.39,1.38,7-.45,7-5,0-.34,0-.67,0-1-.09-8.66.94-17.22,1.89-25.82.75-6.77,1.87-13.58,1.42-20.43a94.5,94.5,0,0,0-2.31-14.75,33.41,33.41,0,0,1,1.68-21.12c.73-1.7,1.6-3.18,3.69-3.35" fill="none" stroke="#000" stroke-linecap="round" stroke-linejoin="round" stroke-width="2"/><path d="M285.87,681.19c-7.54-4.18-15.72-5.39-24.12-4.61a30.84,30.84,0,0,0-16.44,6.94,68.52,68.52,0,0,0-20.37,26.18,27.93,27.93,0,0,0-1.83,17.08c1.32,6.68,2.28,13.44,3.79,20.09a77.36,77.36,0,0,0,11.63,26.54c4.88,7.19,8.26,15.29,12.15,23.06,2.48,5,5.35,9.71,7.74,14.73,3.88,8.16,4.83,16.46,2,25.16-.92,2.84-.81,5.74,1.63,8" fill="none" stroke="#000" stroke-linecap="round" stroke-linejoin="round" stroke-width="2"/><path d="M436,339c-5.35-7.87-9.16-16.73-15.73-23.81-6.73-7.25-14.39-12.59-24.48-14.11-10.29-1.55-20.21-.11-30.19,2.31-5.71,1.38-11.69,1.51-17.41,3.08-7.24,2-14,4.88-19.74,9.77-3.42,2.91-3.62,5.52-1,9,1.61,2.16,3.39,3.35,6.38,2.08,6.29-2.67,13.05-3.6,19.74-4.78,11.66-2.07,23.43-2.24,35.19-1.88a59.7,59.7,0,0,1,12.07,1.24,10.33,10.33,0,0,1,8,10.06c0,2.91.55,5.86-.59,8.73a2.23,2.23,0,0,0,.95,2.68,26.7,26.7,0,0,0,4.68,2.71c3.63,1.63,7.29,3.3,10.08,6.32" fill="none" stroke="#000" stroke-linecap="round" stroke-linejoin="round" stroke-width="2"/><path d="M637.09,341c-3.06.57-5.77-1.13-8.71-1.34-8.6-.63-17.13-1.34-25.83-.61a58.93,58.93,0,0,1-13.39-.7c-6.7-1-13.35-2.31-20.1-3.1-8.58-1-17.23-1.32-25.79-2.19-9-.92-17.91.14-26.83.39-10,.28-19.64,3-29.14,6a235.86,235.86,0,0,1-26.48,6.08c-2.71.5-5.45,0-8.07.88" fill="none" stroke="#000" stroke-linecap="round" stroke-linejoin="round" stroke-width="2"/><path d="M683.34,345.38c3.25-2.53,7.4-2.79,11.11-3.84a68,68,0,0,1,20.06-2.95c6.95.16,13.34,2.27,19.77,4.44,8.42,2.84,16.52,6.51,24.78,9.77a52,52,0,0,0,27.52,3.4,64.9,64.9,0,0,1,8.26-1.13c4.56,5.47,10.8,5.09,16.84,3.63,17.84-4.33,34.24-1.75,48.93,9.49,9,6.87,19,12.11,28.53,18,5,3.1,9.48,6.9,14.44,10,3.85,2.42,8,3.75,12.76,1.56,2.36-1.07,2.18-1.88,1.26-3.5a37.28,37.28,0,0,0-13.46-13.64c-10.91-6.55-20.29-14.87-29.44-23.55a84.28,84.28,0,0,0-11-8.4c-8.73-5.9-17.39-11.9-26.16-17.73a37.48,37.48,0,0,0-21.1-6.39c-9.61,0-19.22-.25-28.82.08a25,25,0,0,1-17.39-5.83A29.13,29.13,0,0,0,751.71,312a35.9,35.9,0,0,0-17.07,4.55c-.5.27-.4,1.05-.35,1.64" fill="none" stroke="#000" stroke-linecap="round" stroke-linejoin="round" stroke-width="2"/><path d="M897.83,714.37c-.34-2.08,1.32-3.37,2-5a11.57,11.57,0,0,0,.38-9.43c-2.81-7.43-4.17-15.25-5.52-23.08-.82-4.76-2.55-9.36-3.58-14.1-2.6-12-1.09-23,6.93-32.89,4-5,9.36-8.5,13.22-13.62,3.52-4.66,7-9.2,9-14.79,2.41-6.71,1-12.81-3.15-18a54.67,54.67,0,0,0-16.34-13.47,18.43,18.43,0,0,0-8.37-2c-3.12-.12-6.25,0-9.38,0" fill="none" stroke="#000" stroke-linecap="round" stroke-linejoin="round" stroke-width="2"/><path d="M924,349.4c-7.44-11.29-16.61-20.93-28.56-27.35-6-3.2-12.67-5-18.67-8.22-11.75-6.26-22.86-13.6-33.86-21.08-16.47-11.2-34.44-19.35-52.93-26.54-4.41-1.72-8.82-3.36-13.45-3.81A19,19,0,0,0,765.12,265c-1,.58-1.7,1.68-3,1.66" fill="none" stroke="#000" stroke-linecap="round" stroke-linejoin="round" stroke-width="2"/><path d="M867.33,237.8c0-4,0-8,0-12.06-.11-7.44-2.82-13.31-10-16.44-1.05-.46-2-1.13-3-1.66a4.33,4.33,0,0,1-2.35-4.36,55.34,55.34,0,0,1,1.17-9.75c1.69-8.52-3.52-12.68-11.54-11.28a18.17,18.17,0,0,1-3,.23c-6.7,0-13.41.18-20.11,0A182.51,182.51,0,0,1,800,180.58c-7.2-.95-14.47-2.12-21.77-1.38a59.47,59.47,0,0,0-17,4.11,26,26,0,0,1-10.78,1.91c-.88,0-1.86-.4-2.68.31" fill="none" stroke="#000" stroke-linecap="round" stroke-linejoin="round" stroke-width="2"/><path d="M718.53,92.69c-1-3-3.75-4.51-5.71-6.69-4.09-4.53-5.06-12.14-2.41-17.15a12.52,12.52,0,0,1,2.45-2.95c6.27-6.36,12.6-12.65,19-19.09-2.57-4.5-6.87-6.55-11.06-8.33A69.54,69.54,0,0,0,694.4,33c-2.48,0-4.85-1.07-7.37-.68-6.47,1-13.11.56-19.46,2.61-1,.32-2.06.71-2.22,1.44a2.42,2.42,0,0,0,1.56,2.69,24.24,24.24,0,0,0,4.69,1.38c10.56,2.55,17.7,9,21.12,19.37,2.23,6.75,3.27,13.77,4.4,20.77,1,6.16,1.34,12.4,3.2,18.48,1.7,5.57,5.69,9.22,9.17,13.37" fill="none" stroke="#000" stroke-linecap="round" stroke-linejoin="round" stroke-width="2"/><path d="M1060.71,225.74c-6,1.14-12.07,2.22-18.08,1.54-6.59-.75-13.22-.83-19.81-1.68-6.4-.83-12.88-1.8-19.41-1.55-3.14.12-6.2-.88-9.39-.72-2.7.13-5.33.7-8,.85-5.88.32-11.21-1.57-16-4.25-9-5-18.68-5.87-28.55-5.15-7.85.58-15.47,2.84-23.11,4.68-7,1.69-14.12,3.07-20.81,5.93a53.73,53.73,0,0,0-11.39,6.38" fill="none" stroke="#000" stroke-linecap="round" stroke-linejoin="round" stroke-width="2"/><path d="M311.68,605.78c-.7,5.21-3.3,9.7-5.34,14.42-3.5,8.14-8,15.87-10.36,24.47-2,7.33-3.92,14.69-3.79,22.44.17,10.16-.11,20.33.09,30.5.17,8.63.87,17.23,1.85,25.82A144.92,144.92,0,0,0,297,741.51c.83,3.43,2.87,6.39,4.11,9.68a4.4,4.4,0,0,1,.22,3.4" fill="none" stroke="#000" stroke-linecap="round" stroke-linejoin="round" stroke-width="2"/><path d="M602.91,176.47c.16.66-.13,1.3.3,2,2,3.52,1.19,6.76-1.66,9.34-11.68,10.56-23.24,21.24-35.14,31.56-13.21,11.46-27,22.3-39.17,34.88-6.66,6.88-12.47,14.49-15.92,23.69-1,2.77-3.25,5.09-5.19,7.47-4.14,5.06-10.06,8.27-13.81,13.68-4.13,6-7.78,12.17-10.05,19.1" fill="none" stroke="#000" stroke-linecap="round" stroke-linejoin="round" stroke-width="2"/><path d="M940.39,311.87A26.86,26.86,0,0,1,925.31,316a28.43,28.43,0,0,1-15-5.17c-7.7-5.14-15.07-10.82-23.18-15.33-6.76-3.77-13.69-7.22-20.73-10.49-17.33-8.06-35.17-14.86-53-21.65a117.31,117.31,0,0,0-30.46-7.18c-5.7-.55-11.43-1.5-17.09-1.12-7.5.5-15.14.27-22.46,2.54" fill="none" stroke="#000" stroke-linecap="round" stroke-linejoin="round" stroke-width="2"/><path d="M317.71,597.07c.38-3.35-.91-6.52-1.5-9.69-2.39-12.81-.46-24.07,9.16-33.59,5.81-5.75,12.51-9.84,19.77-13.46,10.9-5.42,21.35-11.69,28.86-21.69,8.34-11.11,7.25-30.26-2.7-40.18-3.25-3.24-6-7.09-10.36-9.08" fill="none" stroke="#000" stroke-linecap="round" stroke-linejoin="round" stroke-width="2"/><path d="M736.13,356.11a316.65,316.65,0,0,0,32.7,16.69c25.19,11.17,49.74,23.5,73,38.27a34.59,34.59,0,0,1,6,5c5.11,5.17,10.27,10.29,15.4,15.43,4.15,4.15,4.22,7.4.35,11.74-.79.89-2,1.45-2.36,2.67" fill="none" stroke="#000" stroke-linecap="round" stroke-linejoin="round" stroke-width="2"/><path d="M924.64,349.74a38.1,38.1,0,0,1-16.09,3.77c-6.92,0-12.92-2.6-18.75-5.8S879.12,340.13,874,336c-10.61-8.67-22.56-14.93-35.17-20.17-11.48-4.77-23-9.52-34.54-14a17.59,17.59,0,0,0-7-1.31c-4.36.15-8.7,0-13.09.55-5.59.72-11-.94-16.06-3.27-6-2.74-12-3-18.46-2.1-8.12,1.15-15.82,3.82-23.78,5.45a17,17,0,0,1-3.35,0" fill="none" stroke="#000" stroke-linecap="round" stroke-linejoin="round" stroke-width="2"/><path d="M449.42,272c5.44-5,7.9-11.5,9.34-18.44,1.48-7.16,3.84-14.07,5.79-21.09,2.87-10.36.67-19.6-5.42-28.16a35.66,35.66,0,0,0-4-4.71c-8.43-8.34-16.54-17-24.48-25.79-4.15-4.59-4.1-5.52.81-9.84,7.62,7.45,17,12.47,25.7,18.52,6.62,4.61,13,9.39,18.13,15.74,6.75,8.31,9.77,17.74,8.52,28.18-.8,6.68-2.92,13.21-4.56,19.79-2.36,9.44-4.89,18.83-8.71,27.82-1,2.25-2,4.47-3,6.71" fill="none" stroke="#000" stroke-linecap="round" stroke-linejoin="round" stroke-width="2"/><path d="M897.5,433.86c-2-2.4-5.15-2.46-7.73-3.63a81.37,81.37,0,0,1-27.88-20.75A124.9,124.9,0,0,0,818,377.28a118.43,118.43,0,0,0-29.79-8.51,130.56,130.56,0,0,0-16.43-1.6" fill="none" stroke="#000" stroke-linecap="round" stroke-linejoin="round" stroke-width="2"/><path d="M977.93,104.75c-5.2,5.33-12,8.11-18.47,11.32A113.31,113.31,0,0,1,936,124.47a142.6,142.6,0,0,1-18.07,3.17c-7.37.83-14.85.18-22.13,1.92-6,1.43-11.18,4.43-16.1,8-4.15,3-7.35,7-10.71,10.75-1.6,1.81-2.29,3.54-.38,5.74a5.32,5.32,0,0,1,1.05,5.66" fill="none" stroke="#000" stroke-linecap="round" stroke-linejoin="round" stroke-width="2"/><path d="M431.32,353.76c-3.67-1.2-6.06,1.08-7.24,3.75-1.74,3.94-4.71,6.5-7.86,9-8.23,6.43-14.53,14.65-20.64,22.9-5.43,7.33-11,14.59-15.9,22.35a122.56,122.56,0,0,0-14.42,33.86A213.39,213.39,0,0,0,360.52,467c-1.46,9.1-3.38,18.14-5.39,27.13-1.91,8.51-3.71,17.06-5.94,25.49a24.83,24.83,0,0,1-13,16.43" fill="none" stroke="#000" stroke-linecap="round" stroke-linejoin="round" stroke-width="2"/><path d="M611.62,175.47c-2.74.93-5.63.49-8.38.52-7.38.09-13.85,2.74-19.7,6.62-6.48,4.29-11.78,10-16.9,15.92a128.6,128.6,0,0,1-21,18.83c-14.25,10.55-26.71,23.08-38.78,35.95-6.69,7.13-11.67,15.62-16.27,24.33a133.06,133.06,0,0,1-15.39,23.45c-3.27,3.9-4.42,8.41-5.27,13.13a11,11,0,0,1-4.71,7.7" fill="none" stroke="#000" stroke-linecap="round" stroke-linejoin="round" stroke-width="2"/><path d="M777.18,88.67c-4.07-1.58-8.08-.41-12.06.35C755,90.95,746,95.86,736.63,99.73c-5.14,2.12-10.3,4.19-15.41,6.39-2.16.93-4.45,1.83-6,3.68-2.25,2.65-5.79,3-8.5,4.87-.83.57-1.89.85-2.6,1.8-3.23,4.37-7.6,7.29-12.37,9.75a40.07,40.07,0,0,1-15.43,4c-8.59.71-17.22.8-25.8,1.47-7.4.58-14.76.23-22.13.5-16.47.59-31.64,5.07-44.89,15.11-4.3,3.26-7.75,7.44-11.41,11.37" fill="none" stroke="#000" stroke-linecap="round" stroke-linejoin="round" stroke-width="2"/><path d="M887.11,294.44c3.37-2.93,4.13-7.23,5.6-11.1.89-2.34,3-4.79,2.26-7.11-.86-2.81-4.18-3.87-6.52-5.58-7.57-5.5-15.89-9.78-23.87-14.62a54.27,54.27,0,0,0-7.63-3.47c-3.38-1.37-4.44-3.75-4.43-7.39,0-12.53-2.56-24.38-9.95-34.87-5.64-8-13-13.19-22.82-14.37-13.12-1.59-25.72-5.19-38.25-9.27a48.94,48.94,0,0,0-13-2.48" fill="none" stroke="#000" stroke-linecap="round" stroke-linejoin="round" stroke-width="2"/><path d="M963.52,602.1c-7.26-1.38-14-4.42-20.34-7.89A60.36,60.36,0,0,1,930,584a194.21,194.21,0,0,0-26.79-22.48c-6.6-4.52-14-7.6-21.11-11.07-6-2.92-11.2-6.5-12.83-13.71a24.28,24.28,0,0,1-.18-10.39c.93-4.48-1.55-8-6.1-8.08A14.07,14.07,0,0,0,852.59,522" fill="none" stroke="#000" stroke-linecap="round" stroke-linejoin="round" stroke-width="2"/><path d="M716.52,227.08a5.24,5.24,0,0,1,4,1.34c6,4.37,12.68,4.73,19.78,3.43,5.43-1,10.89-1.88,16.39-2.54,7.73-.92,15.44-.58,23.14-.44A76.77,76.77,0,0,1,799,232.15c8.58,2.4,16.32,6.9,24.49,10.31,7.86,3.28,15.74,6.59,24.45,7.15,1.66.11,3.24,1.16,4.7-.42" fill="none" stroke="#000" stroke-linecap="round" stroke-linejoin="round" stroke-width="2"/><path d="M883.08,72.58c.08,3.59-2.42,5.92-4.41,8.34C871,90.29,860.57,94.8,848.9,96.68c-9.36,1.51-18.77,2.63-28.14,4.08-6.28,1-12.48,2.49-18.79,3.19-2.65.3-5.32,1.11-8,.79-3.19-.38-6.23.77-9.39.71-1.43,0-2.77-.06-3.69-1.36" fill="none" stroke="#000" stroke-linecap="round" stroke-linejoin="round" stroke-width="2"/><path d="M868.34,574.95c5.35,6.48,8.86,14.12,13.36,21.14a17.55,17.55,0,0,1,1.59,15.68c-2.15,6.05-3.3,12.48-6.56,18.15a83.08,83.08,0,0,0-9.73,25.8c-1,5.33-1.87,10.68-2.37,16.08s-1.4,10.75-1.83,16.1c-.53,6.57-2.28,12.9-2.88,19.42A19,19,0,0,0,863.39,720a26.13,26.13,0,0,1,4.37,14.47c.08,4.42-.51,9.3-3.78,13.07" fill="none" stroke="#000" stroke-linecap="round" stroke-linejoin="round" stroke-width="2"/><path d="M406.19,303.49c4-9.38-.82-18.24-8.1-24.06-8.89-7.11-18-14-28.44-18.82a70.48,70.48,0,0,0-23.44-6.55,46,46,0,0,0-18.12,1.47c-3.71,1.13-6,4.07-8.7,6.4" fill="none" stroke="#000" stroke-linecap="round" stroke-linejoin="round" stroke-width="2"/><path d="M823.09,571.6c7.05-2.91,7.6-9.69,9.39-15.75,2.92-9.88,3.29-20,2.55-30.15a65.73,65.73,0,0,0-7.92-27.15c-2.2-4-3.7-7.77-1.49-12.48a5.88,5.88,0,0,0-1.87-6.95c-2.54-2-5.16-3.89-8.7-3.37" fill="none" stroke="#000" stroke-linecap="round" stroke-linejoin="round" stroke-width="2"/><path d="M436,300.14c-.78-7.36.14-14.77-.39-22.12-1.27-17.82-8.92-34.15-30.13-41.84-9-3.26-18.16-2.62-27.11.64a4.7,4.7,0,0,0-3,2.65" fill="none" stroke="#000" stroke-linecap="round" stroke-linejoin="round" stroke-width="2"/><path d="M1006.41,422.8c-9.75,2.48-14.2,9.48-15.72,18.77-1.65,10-6.28,18.63-12.47,26.44-3.81,4.81-8,9.4-10.28,15.14a22.77,22.77,0,0,0-2.09,10,57.84,57.84,0,0,1-2.69,22.45c-.46,1.37-1.16,2.66-1.66,3.78,0,.47-.1.79,0,.9,5.28,5.49,5.56,10.6,1,17.14s-5.67,13.6-4.18,21.44c.87,4.59,2.09,9.13,2.66,13.73.37,3-1.32,5.76-3.89,7.69" fill="none" stroke="#000" stroke-linecap="round" stroke-linejoin="round" stroke-width="2"/><path d="M913.92,74.26c.13,4.29-2.5,6.26-6,8.13-7.19,3.84-13.67,8.86-20.48,13.33-5.84,3.82-12.23,6.63-18.28,10-4.08,2.27-8,1.68-11.91,2.18a108.36,108.36,0,0,0-26.82,7.51c-8.4,3.4-17,6.33-26.09,7.59a95.28,95.28,0,0,1-16.1.44c-7-.22-12.56,2.49-17.42,7.16a20.27,20.27,0,0,0-3.7,4" fill="none" stroke="#000" stroke-linecap="round" stroke-linejoin="round" stroke-width="2"/><path d="M891.13,272c2.94-4.53,2.12-9.74,1.4-14.37a45.31,45.31,0,0,1-.14-11.75,4.47,4.47,0,0,0-1-3.68c-3.87-4.75-6-10.15-7.48-16.08a17.71,17.71,0,0,1,1.62-12.37c3.11-6.45,4.44-13.18,5.28-20.17a87.31,87.31,0,0,1,3.75-18.07,40.9,40.9,0,0,0-24.25-15,57.57,57.57,0,0,0-19.1-.26c-4.59.63-9.13,1.53-13.72,2.14-7.25,1-14.52,1.8-21.78,2.69-.22,0-.45,0-.67,0-13.39.86-26.82.95-40.21.57-9.83-.28-19.67-.84-29.49-.51a75.38,75.38,0,0,0-46.9,17.73c-6,5-11.81,10.13-16.08,16.75-.07.11,0,.43-.36.66" fill="none" stroke="#000" stroke-linecap="round" stroke-linejoin="round" stroke-width="2"/><path d="M277.49,842.05c-5.2-2.85-9.83-.76-14.4,1.7a2.61,2.61,0,0,0-1.31,1.33c-1.84,8-7.44,13.83-12.18,20-5.76,7.56-12.64,14.14-19.71,20.49-4.67,4.19-9.78,7-16.4,7.56-6.08.51-11,4.36-15.44,8.52a73.15,73.15,0,0,1-10,8.06c-4.87,3.16-10.25,3.27-15.75,2.68" fill="none" stroke="#000" stroke-linecap="round" stroke-linejoin="round" stroke-width="2"/><path d="M553.31,543.45c-3.76.82-7.7-.09-11.42,1.63a87.53,87.53,0,0,1-23.12,6.63c-10.09,1.59-20.22,2.45-30.51.28a120,120,0,0,0-18.73-2.26c-4.24-.21-8.48-.94-12.74-1.25" fill="none" stroke="#000" stroke-linecap="round" stroke-linejoin="round" stroke-width="2"/><path d="M828.12,243.83c.71-7-2.11-12.94-6.42-18.05-7.72-9.17-18.2-12.46-29.77-12.31-3.43,0-6.92.55-10.39.52-5.77,0-11.43-1.21-17.08-2.11-6.69-1.06-13.33-2.15-20.13-1.9" fill="none" stroke="#000" stroke-linecap="round" stroke-linejoin="round" stroke-width="2"/><path d="M656.53,341.36c4.49.25,9.23-1.62,13.38,1.38,1.56,1.13,3.52.93,5.06,2a.93.93,0,0,0,.66,0c5.36-1.44,8.88,2.16,12.72,4.72,14.61,9.73,30.07,18,45.6,26.11,6.68,3.5,13.79,6.37,20,10.58a77.62,77.62,0,0,1,12.88,11.19,129.69,129.69,0,0,1,16.74,22.81c3.18,5.39,2.18,11.38,1.79,17.07-.16,2.35-.7,5-.89,7.41-.45,5.55-1.49,11.13-.87,16.74,1,9.42,1.75,18.85,3.83,28.19,1.85,8.32,4,16.54,6.15,24.78.61,2.34,1.7,3.84,4.07,4.34" fill="none" stroke="#000" stroke-linecap="round" stroke-linejoin="round" stroke-width="2"/><path d="M819.07,429.5c7.3,7.23,13.22,15.6,19.78,23.46,4,4.75,7.91,9.52,13.08,13.06a4.47,4.47,0,0,1,2,4c.17,9.43,3.9,17.5,10.06,24.42A118,118,0,0,0,876.32,506c6.14,5.18,13,9.34,18.89,14.94,6.29,6,13.21,11.35,19.68,17.19,10.8,9.74,21.1,20,31.1,30.56,4.89,5.16,10,10.23,13.79,16.36a30.12,30.12,0,0,1,4.65,16.91c-.1,4.94-1.69,9.29-2.58,13.91-1.11,5.79-.22,11.6,1.44,17a228.89,228.89,0,0,1,6.45,26.54c2,11.27,1.2,22.47-5.31,32.43a24.44,24.44,0,0,0-3.87,9.45,16,16,0,0,0,.44,5,18.76,18.76,0,0,1-.17,8" fill="none" stroke="#000" stroke-linecap="round" stroke-linejoin="round" stroke-width="2"/><path d="M857.28,445.25c-2.14,2.28-1.56,5.15-1.25,7.7.78,6.36,3.3,11.75,9.27,15.13,7.66,4.34,12.89,11.22,18.13,18a59.68,59.68,0,0,0,15.34,14.19,18.08,18.08,0,0,1,8.73,16.32c-.13,4.89,2.66,8,5.75,11.06" fill="none" stroke="#000" stroke-linecap="round" stroke-linejoin="round" stroke-width="2"/><path d="M1023.17,126.54c-.74,2.54-.2,5.14-.32,7.71-.17,3.62-1.2,4.41-4.7,4.74a86.52,86.52,0,0,0-20.45,5,72,72,0,0,0-28.1,17.81c-6.06,6.25-13,10.58-21.52,12.3a77.55,77.55,0,0,1-18.76,1.71" fill="none" stroke="#000" stroke-linecap="round" stroke-linejoin="round" stroke-width="2"/><path d="M840.19,482.45c.75,8,0,16.09.38,24.13.26,5.48,1.38,10.58,7.31,13.11,5.33,2.28,7.1,6.87,7.42,12.36a65.64,65.64,0,0,0,4.18,19.16c1.65,4.42,1,9.18.42,14.06-1.1,9.55-4.78,18.53-5.29,28.12-.14,2.7.63,5.33.75,8,.43,9.29-1.69,18.1-4.46,26.81-2.11,6.64-3.88,13.38-5.69,20.11a3,3,0,0,0,1.07,2.95c5.66,4.89,6.68,7.39,4.94,14.47-2.35,9.57-6.2,18.64-9.69,27.82" fill="none" stroke="#000" stroke-linecap="round" stroke-linejoin="round" stroke-width="2"/><path d="M545.6,528c-3.9,4.73-8.5,2.7-12.71.94-11.25-4.7-23-7.45-34.87-10.06-10.81-2.37-21.78-3.95-32.53-6.61a25.71,25.71,0,0,0-4-.36" fill="none" stroke="#000" stroke-linecap="round" stroke-linejoin="round" stroke-width="2"/><path d="M832.48,359.79c6.81,5.59,13.69,11.1,20.43,16.77A251.78,251.78,0,0,1,879.8,402.3c8.6,9.73,19.28,16.89,30.78,22.81,2,1,3.78,2.49,6,3.05" fill="none" stroke="#000" stroke-linecap="round" stroke-linejoin="round" stroke-width="2"/><path d="M1036.58,164.41c2.73,2.67,2.85,6.38,3.62,9.73a77.31,77.31,0,0,1,1.25,23.43c-.51,6.38-1.22,12.78-2.34,19.15-1.06,6-1.82,12.22-2.32,18.39-.3,3.69-.59,7.37-.54,11.07a61,61,0,0,0,2,14.75c1.44,5.45.66,10.79-1,16.09a15.55,15.55,0,0,0-1,5.35c.62,9.35-2.4,18-5.54,26.44a107.44,107.44,0,0,1-19.7,33.86c-1,1.09-1.42,2.48-2.61,3.43a28.18,28.18,0,0,0-3.09,3.38c-4.39-2.24-8.54-4.18-13-4.33s-8.88-2.24-13.41-.44a2,2,0,0,1-.67,0,81,81,0,0,0-12.74.63c-7,1.18-13.14-1.56-19.49-4.18-7.67-3.16-15.73-2.59-23.57.19" fill="none" stroke="#000" stroke-linecap="round" stroke-linejoin="round" stroke-width="2"/><path d="M934.7,592.38c-3,2.69-4.18,6.35-5,10.06-1.51,7-.58,13.89,1.2,20.79a7.1,7.1,0,0,1-3.25,8.37,31.25,31.25,0,0,0-3.65,2.72c-6.54,5.38-8.5,12.53-5.37,21.05a25.33,25.33,0,0,1,1.71,8.72c0,3.39-.91,6.1-3.75,8" fill="none" stroke="#000" stroke-linecap="round" stroke-linejoin="round" stroke-width="2"/><path d="M1033.23,155.69c-4.88,2.32-10.06,3.36-15.4,4.1-8,1.13-16.23.89-24.16,3.2s-14.41,6.37-19.06,13.16c-5.34,7.78-12.75,12.06-21.78,14.5-11.85,3.2-23.61,6.79-35.58,9.51a31.4,31.4,0,0,0-12.71,6.13" fill="none" stroke="#000" stroke-linecap="round" stroke-linejoin="round" stroke-width="2"/><path d="M668.6,719.06c.56-2,.5-3.21-1.58-4.82-6.31-4.88-9-11.87-10.25-19.63-.43-2.68-.31-5.44-1.21-8.07-1-3-3.06-5.07-5.73-5.35-3.32-.35-4.8.27-6.3,4-3,7.52-8.5,13-14.13,18.42-4.33,4.2-5.95,9.47-5.71,15.4" fill="none" stroke="#000" stroke-linecap="round" stroke-linejoin="round" stroke-width="2"/><path d="M373.34,239.48c5.81,2,11.58,4.12,17.44,6s11.42,4.49,16.1,8.72c6,5.47,9.42,12.39,11.37,20.13,2.42,9.6,2,19.39,2,29.16" fill="none" stroke="#000" stroke-linecap="round" stroke-linejoin="round" stroke-width="2"/><path d="M745.68,134.58c-2.57.31-3.85,2.65-6,3.8-14.4,7.82-29.89,12.8-45.31,18-10,3.35-20.25,5.9-30.5,8.36-.5.12-1.21.32-1.67-.31" fill="none" stroke="#000" stroke-linecap="round" stroke-linejoin="round" stroke-width="2"/><path d="M1049.31,361.13c-5.83,0-11.58-1.13-17.43-1s-11.62.86-17.43,1.27a123,123,0,0,0-12.72,1.5c-6.62,1.16-13.3,2.07-19.8,3.91-2.81.79-5.81.8-8.71,1.3a73.87,73.87,0,0,1-14.39,1.32,80.44,80.44,0,0,1-17.44-2.2c-11.7-2.95-23.13-2.71-33.83,3.67-2.7,1.61-5.37,3.34-7.22,6" fill="none" stroke="#000" stroke-linecap="round" stroke-linejoin="round" stroke-width="2"/><path d="M309.67,668.12c5.87,9.73,15.39,13.6,25.82,15.69,7.2,1.44,14.49,2.49,21.78,3.34,4,.46,7.88-.74,11.73-1.9,6.15-1.86,11.41-5.35,16.76-8.73.68-.43.48-1.24,1-1.69" fill="none" stroke="#000" stroke-linecap="round" stroke-linejoin="round" stroke-width="2"/><path d="M394.79,673.48c-5.76,2.57-11.31.07-16.72-1.16-6.29-1.44-12.42-3.64-18.79-4.93-3.24-.66-6.48-.25-9.76-.77a114.36,114.36,0,0,1-16.74-4.15c-8-2.58-16.25-4.51-24.79-4.4" fill="none" stroke="#000" stroke-linecap="round" stroke-linejoin="round" stroke-width="2"/><path d="M320.39,261.93c3.64,3.53,8.21,5.06,13.07,5.67,12.72,1.59,25.37,3.29,37.22,8.7a87,87,0,0,1,20.07,13.14c2.08,1.76,1.24,4.38,1.36,6.68" fill="none" stroke="#000" stroke-linecap="round" stroke-linejoin="round" stroke-width="2"/><path d="M1048,361.8c-5.58,10.06-13.53,16.94-25.13,19.13a45.91,45.91,0,0,1-14.76.08c-4-.53-8,.43-12,.74s-8.25,1.59-12.42,1.77c-10.8.47-20.41,3.29-27.51,12.11a20.23,20.23,0,0,1-4.37,4c-1.22.83-1.82,1.66-1.63,3.08" fill="none" stroke="#000" stroke-linecap="round" stroke-linejoin="round" stroke-width="2"/><path d="M712.16,215.68c.15.82-.48.94-1,1a9.41,9.41,0,0,0-8,6.06c-2.19,5.14-5.82,7.7-11.44,7.36-2.8-.17-4.77-2.06-7.05-3.33-3.32-1.83-6.74-3.34-10.72-2.06a13.07,13.07,0,0,0-6.39,4.69,18.9,18.9,0,0,1-22.39,6c-2.48-1-3.45.53-4.33,1.8-3.41,4.95-6.75,9.9-8.86,15.68-3,8.29-7.85,15.71-13.06,22.77-3.73,5-7,10.36-10.56,15.53a32,32,0,0,1-13.83,11.33" fill="none" stroke="#000" stroke-linecap="round" stroke-linejoin="round" stroke-width="2"/><path d="M921,713.7c-2.93.83-2.56,3.71-3.27,5.73a97.48,97.48,0,0,0-4.22,19.73c-1.32,10.05-1.14,20.11-1.25,30.18a15.41,15.41,0,0,1-6.64,13.13c-.69.49-1.53.31-2.06.94" fill="none" stroke="#000" stroke-linecap="round" stroke-linejoin="round" stroke-width="2"/><path d="M937,221c3.45,2.69,7.78,2.7,11.75,3.61,15.85,3.64,25.66,13.38,29.73,28.92a54.46,54.46,0,0,1,1.35,11.71,28.52,28.52,0,0,0,2.08,10.05" fill="none" stroke="#000" stroke-linecap="round" stroke-linejoin="round" stroke-width="2"/><path d="M759.75,263.27c2.22,3,2.52,6.46,2.37,10.06-.09,2-.31,2.42-2.74,1.81-9.23-2.29-17.45-6.93-26.1-10.53-4.05-1.69-8-3.54-12.4-4.36-7.6-1.43-15-1.26-21.78,3" fill="none" stroke="#000" stroke-linecap="round" stroke-linejoin="round" stroke-width="2"/><path d="M898.17,638c5,5,6.13,11.76,8,18.12s3.89,12.11,9.78,15.75c.66.41.78,1.23,1.09,2,4.63,10.84,9.5,21.6,12.93,32.89,2.08,6.85,4.21,13.75,3.76,21.1a19.47,19.47,0,0,1-6.37,13.08c-.64.63-1.36.16-2,.32" fill="none" stroke="#000" stroke-linecap="round" stroke-linejoin="round" stroke-width="2"/><path d="M686.36,129.22c.71,1.21.12,2.06-.64,3-2.79,3.58-5.71,6.93-10.07,8.72a14.39,14.39,0,0,0-4,2.36c-1.5,1.32-2.57,1.44-4.46.4-2.36-1.3-5.24-1.3-8-1.11-7.52.53-14.5,3.47-21.8,4.95a61.09,61.09,0,0,1-8.37.61,102,102,0,0,0-27.11,5.59c-12.11,4.17-22.74,11-32.21,19.67-4.15,3.78-8.55,7.3-12.06,11.74a29.8,29.8,0,0,0-6,13.4" fill="none" stroke="#000" stroke-linecap="round" stroke-linejoin="round" stroke-width="2"/><path d="M901.18,715.37a6.27,6.27,0,0,1-4.12-1.14c-1.88,1.4-2.26,3.36-2.25,5.5,0,5-.34,10.08.08,15.07a205.15,205.15,0,0,0,3.58,24.48c.74,3.54,1.22,7.13,1.69,10.72a81.06,81.06,0,0,0,2.06,11.38c1.34,4.82.31,7.16-4.4,9a5.13,5.13,0,0,0-1,.71" fill="none" stroke="#000" stroke-linecap="round" stroke-linejoin="round" stroke-width="2"/><path d="M725.91,315.55c-4.15-7.54-10.88-10.93-19.09-12.14-1-.15-1.56.39-2.36.42a17.15,17.15,0,0,1-9.07-2c-1.76-.93-3.57-1.79-5.35-2.7-5.37-2.76-11.07-2.45-16.74-1.34-11.85,2.31-23.43,6-35.53,7" fill="none" stroke="#000" stroke-linecap="round" stroke-linejoin="round" stroke-width="2"/><path d="M741.66,329c6.89,6.28,15.18,9.79,24.14,11.67a152.4,152.4,0,0,0,25.79,2.87c2.77.1,5.6.28,8.38.6,2.94.34,5.51,1.59,6.71,4.63" fill="none" stroke="#000" stroke-linecap="round" stroke-linejoin="round" stroke-width="2"/><path d="M535.21,482.12c.35-3.5-.68-5.12-4.7-6.68-6.19-2.39-12.68-3.8-19.11-5.33-9.24-2.2-18.51-4.42-28.14-4.08-1.67.06-3.1-.8-5.08-.15-4.55,1.48-5.64,2.35-5.65,7.19q0,1.68,0,3.35" fill="none" stroke="#000" stroke-linecap="round" stroke-linejoin="round" stroke-width="2"/><path d="M964.19,97.38c-4.9,4.65-11.17,6.38-17.44,8-7.79,2-15.78,2.25-23.79,2-14.18-.38-26.71,4.16-37.87,12.74-8.41,6.47-16.82,12.94-25.47,19.1" fill="none" stroke="#000" stroke-linecap="round" stroke-linejoin="round" stroke-width="2"/><path d="M805.67,500.88c4.6-3.15,5.82-8.28,7.28-13.1a28.66,28.66,0,0,0,1.4-11.36A50.21,50.21,0,0,0,808,456c-1-1.72-2.2-1.26-3.34.29-6.65,9-8.62,19.29-7.57,30.17a15.38,15.38,0,0,0,3.56,8.4c1.54,1.82,2.93,3.77,4.36,5.69.29.39.39.93.69,1.33,1.83,2.4-.72,5.71,1.94,8.12,2.39,2.17,3.45,5.4,4.7,8.33A20.76,20.76,0,0,1,813,532c-1.34,5-.55,9.89.41,14.75a77.72,77.72,0,0,0,9.35,24.48,3.77,3.77,0,0,1,.25,3.3,13.17,13.17,0,0,0-.92,4.4" fill="none" stroke="#000" stroke-linecap="round" stroke-linejoin="round" stroke-width="2"/><path d="M741,251.21c-3.83-1.07-7-3.41-10.35-5.42a80.87,80.87,0,0,0-17.9-8.56c-8.06,6.8-15.47,14.32-21.43,23.31A21.47,21.47,0,0,1,674,270.3a13.56,13.56,0,0,1-6-1.35,7.75,7.75,0,0,0-6.4.28c-2,.83-3.88,2.53-6.34,1.41" fill="none" stroke="#000" stroke-linecap="round" stroke-linejoin="round" stroke-width="2"/><path d="M320.73,861.83c8.93,5.76,17.56,11.91,24.79,19.78,7.94,8.66,13.17,18.62,14.51,30.48a41.61,41.61,0,0,1,.59,5.37" fill="none" stroke="#000" stroke-linecap="round" stroke-linejoin="round" stroke-width="2"/><path d="M690.72,230.76c-2.13,4.91-5.64,8.72-9.72,12.06-8.61,7.06-18.68,10.68-29.48,12.8q-7.87,1.55-15.76,2.95" fill="none" stroke="#000" stroke-linecap="round" stroke-linejoin="round" stroke-width="2"/><path d="M282.52,760.62c3.91-2.38,7.79-4.64,12.36-5.85,3.54-.94,6.13-.05,8.75,1.84C309,760.51,313,766,318.38,770a59.11,59.11,0,0,0,24.45,10.5c5.17,1,10.35-.2,15.44.89" fill="none" stroke="#000" stroke-linecap="round" stroke-linejoin="round" stroke-width="2"/><path d="M599.56,205c-3.91,6.7-7.11,13.87-11.79,20.06-9.08,12-18.43,23.84-30.09,33.58a23.16,23.16,0,0,0-2.36,2.66" fill="none" stroke="#000" stroke-linecap="round" stroke-linejoin="round" stroke-width="2"/><path d="M510.41,220.38c-5,6.48-9.91,13.08-15.12,19.4a36,36,0,0,0-8.16,18.78c-.66,5,.32,9.63.71,14.44.18,2.21,1.54,2.72,2.8,3.68" fill="none" stroke="#000" stroke-linecap="round" stroke-linejoin="round" stroke-width="2"/><path d="M878.06,508.59a3,3,0,0,1-2,1,42.75,42.75,0,0,1-12.39-1c-5.69-1.22-8.86-5.24-11.52-10.27a35.32,35.32,0,0,1-4.32-19.17c.19-3.14-.42-6.33-2.94-8.71" fill="none" stroke="#000" stroke-linecap="round" stroke-linejoin="round" stroke-width="2"/><path d="M755.06,385.93a9.77,9.77,0,0,1,10,.09c11.84,6.92,24.19,12.85,36.25,19.34a203.83,203.83,0,0,1,37.9,26.78,97.56,97.56,0,0,0,18.44,12.69,84.82,84.82,0,0,0,27.1,9.14,21,21,0,0,1,11,5.41c8.63,7.93,19,12.87,29.58,17.29,3,1.25,5.9,3.1,9.35,3.1" fill="none" stroke="#000" stroke-linecap="round" stroke-linejoin="round" stroke-width="2"/><path d="M668.6,145c-.44,2.5-2.64,3.89-3.73,6-2.3,4.47-3.47,9.3-4.6,14.11-2,8.6-3.26,17.37-6,25.81A63.39,63.39,0,0,1,643.52,211c-3.17,4-5.2,8.67-7.06,13.38-2.64,6.7-5.6,13.19-11.11,18.07-7,6.23-12,14.32-18.75,20.79a15.78,15.78,0,0,1-3,2.68" fill="none" stroke="#000" stroke-linecap="round" stroke-linejoin="round" stroke-width="2"/><path d="M1036.58,286.4c6.59,0,13.18,0,19.77,0,3.36,0,4.36-1.12,4.36-4.68s-1-4.61-4.36-4.71a45.29,45.29,0,0,1-13.05-2.38,169,169,0,0,0-23.83-6.21A43.55,43.55,0,0,0,992.36,272c-3.25,1.58-6.92,1.87-10.07,3.65" fill="none" stroke="#000" stroke-linecap="round" stroke-linejoin="round" stroke-width="2"/><path d="M1035.91,286.4c-3.75,1-7.59.62-11.39.67-9.18.14-18.31,1.09-27.48,1.45-7.37.29-14.77.74-22.11,1.37-11.86,1-23.7.1-35.54.55-1.67.06-3.8-.38-4,2.32" fill="none" stroke="#000" stroke-linecap="round" stroke-linejoin="round" stroke-width="2"/><path d="M993.34,203.45c-2.27,1.31-4.57,0-6.68-.31-6.81-1-13.63-1.77-20.45-2.63a136.69,136.69,0,0,0-21.79-1.18c-1.95.07-3.73-1.51-5.7-.4" fill="none" stroke="#000" stroke-linecap="round" stroke-linejoin="round" stroke-width="2"/><path d="M706.13,302.82c-1.63-5.55-5.56-9.34-9.69-13.11-7.19-6.55-16-9.64-25.2-11.18-5.09-.85-10.47-2-15.72-.18" fill="none" stroke="#000" stroke-linecap="round" stroke-linejoin="round" stroke-width="2"/><path d="M764.78,285.73c-.18,2.06-1.46,3.15-3.34,2.63-5.62-1.56-11.45-2-17.11-3.3a21.2,21.2,0,0,1-8.68-3.73C727.89,275,719,272.57,709.15,273" fill="none" stroke="#000" stroke-linecap="round" stroke-linejoin="round" stroke-width="2"/><path d="M1024.51,79.62c-10.57-3.87-20.8-2-30.82,2a71.6,71.6,0,0,0-22.47,14.71c-1.69,1.61-5.16,1.21-7.06-.29a79.8,79.8,0,0,0-15.34-9.52c-7.68-3.64-15.67-6.43-23.5-9.62" fill="none" stroke="#000" stroke-linecap="round" stroke-linejoin="round" stroke-width="2"/><path d="M923.3,74.59c-4.79-.75-9.64-1-14.44-1.83A64,64,0,0,0,898.16,72c-13.4-.14-26.82-.42-40.21.09-7.37.28-14.77,1.1-22.14,1.66-6.64.5-13.17,1.58-19.74,2.34-8.32,1-16.55,2.76-24.81,4.25-6.26,1.12-10.26,5.5-14,10.08A14.48,14.48,0,0,1,774.5,93" fill="none" stroke="#000" stroke-linecap="round" stroke-linejoin="round" stroke-width="2"/><path d="M538.56,519.32c-6.38-5.24-12.44-10.85-19.08-15.79-9.71-7.22-20.37-11.72-32.54-12.36" fill="none" stroke="#000" stroke-linecap="round" stroke-linejoin="round" stroke-width="2"/><path d="M813.38,88a123.73,123.73,0,0,0-18.78,7,88.88,88.88,0,0,0-13.83,8.6,64.64,64.64,0,0,0-16.63,17.58,70.21,70.21,0,0,0-6.44,12.7,6.19,6.19,0,0,0-.24,3.36c1.38,7.19-.19,10.68-6.43,13.73-.14.07-.44,0-.66.36" fill="none" stroke="#000" stroke-linecap="round" stroke-linejoin="round" stroke-width="2"/><path d="M991.67,428.16A33.84,33.84,0,0,0,966.87,417c-9.44-.27-18.42,1.81-27.49,3.76-5.54,1.19-11.16.86-16.75.08a3.51,3.51,0,0,1-2.34-1.38" fill="none" stroke="#000" stroke-linecap="round" stroke-linejoin="round" stroke-width="2"/><path d="M964.86,470.39c-3.18,7.24-7,14.17-10.6,21.18-4.63,8.89-1.06,20.88,6.92,27.08" fill="none" stroke="#000" stroke-linecap="round" stroke-linejoin="round" stroke-width="2"/><path d="M675.63,664.1c-1.83,3.24-1.34,6.95-1.88,10.41-1,6.07-1.83,12.19-1.53,18.42a11.25,11.25,0,0,0,4.09,8.37,46.58,46.58,0,0,0,10.77,6.56c4.05-4.62,8.27-9.61,16.22-6.53,1-6.52-.19-13.08,2.16-19.12" fill="none" stroke="#000" stroke-linecap="round" stroke-linejoin="round" stroke-width="2"/><path d="M939.39,311.87c-1-2.88-3.92-3.3-6.07-4.64s-4.76-2.12-7-3.44a27.69,27.69,0,0,1-10.11-9.66c-4.47-7.6-11.55-12.6-18.44-17.73a2.81,2.81,0,0,0-2.31-.39" fill="none" stroke="#000" stroke-linecap="round" stroke-linejoin="round" stroke-width="2"/><path d="M985,167.76c3.87,5.16,5.2,11.09,5.79,17.42.53,5.75,1,11.55,2.85,17.13.47,1.43.85,2.14,2.42,2.35,11.21,1.52,22.43,3.09,33.5,5.43,5.82,1.23,11.65,2.55,17.48,3.78a47.25,47.25,0,0,0,13.38.81" fill="none" stroke="#000" stroke-linecap="round" stroke-linejoin="round" stroke-width="2"/><path d="M865,677.5c5.77,1.63,6.44,6.78,7.67,11.4,2.15,8.05,5.11,15.56,12.09,20.77,3.35,2.5,7.42,3.49,11.06,5.36" fill="none" stroke="#000" stroke-linecap="round" stroke-linejoin="round" stroke-width="2"/><path d="M961.51,694.93c-5.72-4.14-7.66-9.78-7.84-16.75-.25-9.8-2.75-19-10.26-26.14" fill="none" stroke="#000" stroke-linecap="round" stroke-linejoin="round" stroke-width="2"/><path d="M1023.84,80c-3.08,6-7.8,10.19-13.69,13.49-7.36,4.12-15.49,6.1-23.2,9.22a20.65,20.65,0,0,0-5.33,2.76" fill="none" stroke="#000" stroke-linecap="round" stroke-linejoin="round" stroke-width="2"/><path d="M848.57,526.69c-1.8,5-3.69,10-3.3,15.41.69,9.38,4.08,17.43,12.32,22.84.58.38,1.35-.1,1.71.63" fill="none" stroke="#000" stroke-linecap="round" stroke-linejoin="round" stroke-width="2"/><path d="M952.12,434.53c-3.51,6-4.68,12.49-4.43,19.44.29,8.13-3.18,14.86-9,20.44" fill="none" stroke="#000" stroke-linecap="round" stroke-linejoin="round" stroke-width="2"/><path d="M360.94,641.64c5.08,11.07,13.54,18.34,24.77,22.86a18.11,18.11,0,0,1,11.81,18,6.8,6.8,0,0,1-.72,2.34" fill="none" stroke="#000" stroke-linecap="round" stroke-linejoin="round" stroke-width="2"/><path d="M981.28,275.34a81.36,81.36,0,0,1-17.43,2.39c-6.26.23-12.5.91-18.77.61-.78,0-1.65.4-2.35-.32" fill="none" stroke="#000" stroke-linecap="round" stroke-linejoin="round" stroke-width="2"/><path d="M933.35,515c4.91,6.32,6.69,13.9,8.31,21.46,1.19,5.57,2.19,11.18,3.42,16.74" fill="none" stroke="#000" stroke-linecap="round" stroke-linejoin="round" stroke-width="2"/><path d="M863.65,129.22c-12.74.53-25.47.58-38.21,0" fill="none" stroke="#000" stroke-linecap="round" stroke-linejoin="round" stroke-width="2"/><path d="M906.54,233.11c7.86,1.91,15.86.66,23.8,1a57.11,57.11,0,0,1,11.41,2c1.31.33.88,1,1,1.74" fill="none" stroke="#000" stroke-linecap="round" stroke-linejoin="round" stroke-width="2"/><path d="M931.68,634.27c1.38,3.44,1.63,7.11,2,10.73.74,7.77,1.37,15.55,3.41,23.11.3,1.12,1,2.13,1,3.36" fill="none" stroke="#000" stroke-linecap="round" stroke-linejoin="round" stroke-width="2"/><path d="M970.89,97.38c1.21,1,2.51,1.94,3.71,3C983.42,108,992,115.82,1001,123.22c5.51,4.53,11.22,8.94,14.77,15.38" fill="none" stroke="#000" stroke-linecap="round" stroke-linejoin="round" stroke-width="2"/><path d="M846.22,651.7c-8.78,5.84-11.19,15.61-15.07,24.47-2,4.68-5.74,7.38-10.4,7.37" fill="none" stroke="#000" stroke-linecap="round" stroke-linejoin="round" stroke-width="2"/><path d="M976.92,129.22c-5.46.78-11,.3-16.42.29-6.81,0-13.64.47-20.44-.29" fill="none" stroke="#000" stroke-linecap="round" stroke-linejoin="round" stroke-width="2"/><path d="M477.57,541.1h38.54" fill="none" stroke="#000" stroke-linecap="round" stroke-linejoin="round" stroke-width="2"/><path d="M900.85,110.45c-.47-2.7-2.7-2.87-4.69-3a21.55,21.55,0,0,0-8.75,1.19c-5.36,2-11.1,1.58-16.72,1.39a4.58,4.58,0,0,1-3.69-2.29" fill="none" stroke="#000" stroke-linecap="round" stroke-linejoin="round" stroke-width="2"/><path d="M353.57,811.56c-3.9,2.38-7.08,5.66-10.34,8.76-6.86,6.54-13.58,13.24-19.79,20.42-.9,1-2.21,2-2,3.66" fill="none" stroke="#000" stroke-linecap="round" stroke-linejoin="round" stroke-width="2"/><path d="M382.06,572.94c-1.92,2.68-2,5.38-1.56,8.75.56,4,1,8.28-.43,12.37-2,5.77-5,8-11.07,8" fill="none" stroke="#000" stroke-linecap="round" stroke-linejoin="round" stroke-width="2"/><path d="M913.58,422.8a130.68,130.68,0,0,0,20.92-14.62c5.64-5,11.65-4.36,18-4.48,1.23,0,2.46,0,3.69,0,16.32-.61,31.31,3.84,45.22,12.11,4.92,2.93,9.89,5.21,15.78,4.65" fill="none" stroke="#000" stroke-linecap="round" stroke-linejoin="round" stroke-width="2"/><path d="M805,455.31c-5.49-5.63-8.48-12.57-10-20.12-.8-4-1.55-7.65-6.08-9.09a21.44,21.44,0,0,0-2.7-.28" fill="none" stroke="#000" stroke-linecap="round" stroke-linejoin="round" stroke-width="2"/><path d="M714.51,140.28c-3.2-2.88-7.23-3.05-11-2.58-6.14.76-12.2,2.09-18.45,1.95a4.69,4.69,0,0,1-3.69-1.38" fill="none" stroke="#000" stroke-linecap="round" stroke-linejoin="round" stroke-width="2"/><path d="M726.24,325.61c-5,.89-10.06,2.14-15.06,1.53-5.17-.63-10.3-.3-15.43-.51-.55,0-1.22-.31-1.67.32" fill="none" stroke="#000" stroke-linecap="round" stroke-linejoin="round" stroke-width="2"/><path d="M366,446.59c1,1,2.2.67,3.35.67a90.79,90.79,0,0,1,20.8,2.58c2.61.61,5.43.47,8,1.45" fill="none" stroke="#000" stroke-linecap="round" stroke-linejoin="round" stroke-width="2"/><path d="M360.61,716.71c-3-2.21-5.46-5-8.32-7.44-8.9-7.47-23.76-8.29-33.57-1.28-.73.52-1.73.61-2.34,1.35" fill="none" stroke="#000" stroke-linecap="round" stroke-linejoin="round" stroke-width="2"/><path d="M546.61,488.48a61,61,0,0,1,5.73,7.69,8.2,8.2,0,0,0,7.68,4,3.24,3.24,0,0,1,3.38,2,18.49,18.49,0,0,1,2,12.41" fill="none" stroke="#000" stroke-linecap="round" stroke-linejoin="round" stroke-width="2"/><path d="M915.93,428.49c-2.12,4.55-6.46,4.33-10.39,4.63-2.91.22-5.81.05-8.05,2.4-.31.33-.35.64-.28,1.45,7.38,5.06,13.81,11.64,20,18.4,5.66,6.19,11,12.64,16.83,18.7" fill="none" stroke="#000" stroke-linecap="round" stroke-linejoin="round" stroke-width="2"/><path d="M917.94,474.07a3.77,3.77,0,0,0-1,2.68c1.12,9.9,3.4,19.4,9.07,27.81" fill="none" stroke="#000" stroke-linecap="round" stroke-linejoin="round" stroke-width="2"/><path d="M658.88,167.42c-3.73-.31-6.48,2.25-9.69,3.43-6.14,2.27-12,5.33-18.09,7.73a11.33,11.33,0,0,1-2.72.57" fill="none" stroke="#000" stroke-linecap="round" stroke-linejoin="round" stroke-width="2"/><path d="M669.94,178.15c-2.39,4.51-2.67,9.51-2.94,14.42s-.69,9.37-2.74,13.75c-1,2.08-.16,3.64,2,3.62,4.58,0,9.18.45,13.74-.28" fill="none" stroke="#000" stroke-linecap="round" stroke-linejoin="round" stroke-width="2"/><path d="M313.69,851.1a123,123,0,0,1-11,12.43c-4.78,4.92-9.36,10-12.76,16.06" fill="none" stroke="#000" stroke-linecap="round" stroke-linejoin="round" stroke-width="2"/><path d="M974.58,432c3.34,9.67,3,19-2.37,28-.27.45-.44.68,0,1" fill="none" stroke="#000" stroke-linecap="round" stroke-linejoin="round" stroke-width="2"/><path d="M700.1,675.16a4.14,4.14,0,0,0-4.38,2c-2.29,3.35-3.63,3.51-7,1s-5.3-5.91-7.66-9.1c-1.39-1.87-2.4-3.91-4.68-5.09-1.43-.75-2.05-2.57-2-4.27a9.54,9.54,0,0,0-1-4.36" fill="none" stroke="#000" stroke-linecap="round" stroke-linejoin="round" stroke-width="2"/><path d="M659.88,721.74c-3.54-8.19-10.3-10.47-18.44-8.43a38.94,38.94,0,0,0-8,3.07" fill="none" stroke="#000" stroke-linecap="round" stroke-linejoin="round" stroke-width="2"/><path d="M920.62,701.63c.74,2.54.21,5.14.32,7.71.09,2.11.12,4.05,1.26,6.09a15.56,15.56,0,0,1,1.34,10.32c-1,5.52-1,10.75,1.76,15.78.14.26,0,.66,0,1" fill="none" stroke="#000" stroke-linecap="round" stroke-linejoin="round" stroke-width="2"/><path d="M355.58,635.94c-5.68-3.7-11.53-2.82-17.43-.67-3.12,1.14-6.11,2.64-9.38,3.35" fill="none" stroke="#000" stroke-linecap="round" stroke-linejoin="round" stroke-width="2"/><path d="M359.27,785.08c-1,9.47,4.82,15.73,10.39,22.12,1.1,1.27,2.71,2.15,3,4" fill="none" stroke="#000" stroke-linecap="round" stroke-linejoin="round" stroke-width="2"/><path d="M1021.16,138.94a115.44,115.44,0,0,0,10.08,12.71c2.72,3.15,3.07,7.4,5.26,10.8.45.71-.8,1.75-1.22,2.65-2.13,4.56-3.92,9.24-2.37,14.39a10.15,10.15,0,0,0,7.69,7.38" fill="none" stroke="#000" stroke-linecap="round" stroke-linejoin="round" stroke-width="2"/><path d="M277.83,896.68c-3.48,5.87-8.23,10.76-12.39,16.09a32.32,32.32,0,0,0-5,8.71" fill="none" stroke="#000" stroke-linecap="round" stroke-linejoin="round" stroke-width="2"/><path d="M712,112.8c2.21,3.09,4.95,5.74,6,9.7s.61,7.64.46,11.41c-.11,2.83-1.07,5.59-4.19,7.14-1.88.93-2,3.22-1.72,5.27" fill="none" stroke="#000" stroke-linecap="round" stroke-linejoin="round" stroke-width="2"/><path d="M894.14,472.06c-.41,4.57,1.52,8.72,2.3,13.08.71,3.94,2.46,8.08-1,11.72" fill="none" stroke="#000" stroke-linecap="round" stroke-linejoin="round" stroke-width="2"/><path d="M791.59,301.14a6.1,6.1,0,0,0,2.32,6.06,7,7,0,0,1,2.77,3.6,9.27,9.27,0,0,1-6.43,2.41c-4.48,0-9-.19-13.42.6a14.88,14.88,0,0,0-4.68,2.08" fill="none" stroke="#000" stroke-linecap="round" stroke-linejoin="round" stroke-width="2"/><path d="M349.55,602.1c-6.53,1.55-12.29-1.12-18.08-3.39-1.77-.69-3.58-1.12-5.38-1.64" fill="none" stroke="#000" stroke-linecap="round" stroke-linejoin="round" stroke-width="2"/><path d="M964.52,291.09c.59,5.67-1.39,11-2.35,16.42-.42,2.37-.86,4.74.34,7" fill="none" stroke="#000" stroke-linecap="round" stroke-linejoin="round" stroke-width="2"/><path d="M1010.1,345.38c2.38,3.08,5.59,4.16,9.38,4,2.72-.09,5.52-.42,8,1,3.85,2.17,2.6,5.9,2.69,9.2" fill="none" stroke="#000" stroke-linecap="round" stroke-linejoin="round" stroke-width="2"/><path d="M1040.93,151.67c3.74-.89,6.5-3.42,9.37-5.72,2.1-1.68,1.29-3.38.1-5.39s-2.38-1.68-4.12-1a8.77,8.77,0,0,1-6.35.38" fill="none" stroke="#000" stroke-linecap="round" stroke-linejoin="round" stroke-width="2"/><path d="M509.57,192.56c4.08-1.36,8.06-2.67,12.58-2.13,4,.48,6,3,8.24,5.83-4.5,2.88-9.35,1.33-14,1.62-3.56.23-6.32,1.52-8,4.74-.09.17,0,.44,0,.66" fill="none" stroke="#000" stroke-linecap="round" stroke-linejoin="round" stroke-width="2"/><path d="M886.44,242.83c-3.48,1.92-7.33,2.81-11.06,4-4.79,1.54-8.64,4.2-11.06,8.73" fill="none" stroke="#000" stroke-linecap="round" stroke-linejoin="round" stroke-width="2"/><path d="M1045,117.49c-.06,5,.82,10.27-2.38,14.72-2.85,4-3.66,8.38-3.67,13.09,0,2.13,1.15,4,1.35,6" fill="none" stroke="#000" stroke-linecap="round" stroke-linejoin="round" stroke-width="2"/><path d="M636.09,223.73a11.92,11.92,0,0,0-6.37-1.69c-4.92-.1-9.84.37-14.75-.32" fill="none" stroke="#000" stroke-linecap="round" stroke-linejoin="round" stroke-width="2"/><path d="M863.65,50.8c-1.82.38-3.38-.48-5-1-4.18-1.3-8.49-.42-12.73-.7-1.9-.13-3.84.42-5.7-.32" fill="none" stroke="#000" stroke-linecap="round" stroke-linejoin="round" stroke-width="2"/><path d="M744,134.92c-2-2.13-4.69-1.51-7-1.26a59.07,59.07,0,0,0-15,3.38c-1.15.44-2.37.24-3.39.9" fill="none" stroke="#000" stroke-linecap="round" stroke-linejoin="round" stroke-width="2"/><path d="M729.59,103.41c4.52,6.23,8.39,12.88,12.4,19.44" fill="none" stroke="#000" stroke-linecap="round" stroke-linejoin="round" stroke-width="2"/><path d="M936.71,476.42c-2.34,4.14-2.49,7.27.76,10.29s3,6.28,1.86,9.8a21.3,21.3,0,0,0-.27,3" fill="none" stroke="#000" stroke-linecap="round" stroke-linejoin="round" stroke-width="2"/><path d="M948.1,139.27c-6.24-.75-12.51-.13-18.77-.34" fill="none" stroke="#000" stroke-linecap="round" stroke-linejoin="round" stroke-width="2"/><path d="M942.07,420.79c1.65,3.72.15,6.92-1.68,10.05-2,3.42-4.64,6.54-5,10.73" fill="none" stroke="#000" stroke-linecap="round" stroke-linejoin="round" stroke-width="2"/><path d="M1001.05,387.27c6.9,5.56,7.29,7.31,2.68,17.09q-.34-.17-.67.34" fill="none" stroke="#000" stroke-linecap="round" stroke-linejoin="round" stroke-width="2"/><path d="M991.67,314.88c3.44,6.35,3.21,12-.67,16.76" fill="none" stroke="#000" stroke-linecap="round" stroke-linejoin="round" stroke-width="2"/><path d="M980.61,290.42c.58,4.54,3.15,8.41,4.38,12.73a37.81,37.81,0,0,0,1.65,4" fill="none" stroke="#000" stroke-linecap="round" stroke-linejoin="round" stroke-width="2"/><path d="M938,275.34a67.11,67.11,0,0,1-14.75,0,4.23,4.23,0,0,0-1.34.31" fill="none" stroke="#000" stroke-linecap="round" stroke-linejoin="round" stroke-width="2"/><path d="M904.53,227.41c-2.47,6.59-7.73,10.53-13.41,14.08" fill="none" stroke="#000" stroke-linecap="round" stroke-linejoin="round" stroke-width="2"/><path d="M806.84,409.73c-2.7,4.11-7.21,6.64-9.55,11.06-.8,1.51-2,2.85-2,4.69" fill="none" stroke="#000" stroke-linecap="round" stroke-linejoin="round" stroke-width="2"/><path d="M942.74,594.72c-1.89,1.58-2.38,3.69-2.36,6,0,3.24,0,6.48,0,9.72" fill="none" stroke="#000" stroke-linecap="round" stroke-linejoin="round" stroke-width="2"/><path d="M507.06,203.62c3.71.43,7.19,2.12,11.06,1.73,1.76-.18,3.57-1.89,5.36-.05" fill="none" stroke="#000" stroke-linecap="round" stroke-linejoin="round" stroke-width="2"/><path d="M841.53,63.87c-5.53.47-11.12,4.5-12.06,8.72a.83.83,0,0,0,.33,1" fill="none" stroke="#000" stroke-linecap="round" stroke-linejoin="round" stroke-width="2"/><path d="M798.63,66.21c-3.06,1.67-5.33,4.26-7.69,6.72-1.9,2-2.28,4.53-2,7.19" fill="none" stroke="#000" stroke-linecap="round" stroke-linejoin="round" stroke-width="2"/><path d="M862.31,623.88l6,14.41" fill="none" stroke="#000" stroke-linecap="round" stroke-linejoin="round" stroke-width="2"/><path d="M952.46,640c0,2.79-.11,5.59,0,8.38.13,2.44-.42,4.48-2.38,6" fill="none" stroke="#000" stroke-linecap="round" stroke-linejoin="round" stroke-width="2"/><path d="M265.43,697.27c-.47,3.52,1.86,5.56,4,7.71,1.77,1.77,4,3.31,3.36,6.36" fill="none" stroke="#000" stroke-linecap="round" stroke-linejoin="round" stroke-width="2"/><path d="M783.88,154.35c-3.72,2.09-6.81,5.08-10.42,7.33a4,4,0,0,0-2,3.06" fill="none" stroke="#000" stroke-linecap="round" stroke-linejoin="round" stroke-width="2"/><path d="M980.27,367.5c.47,2.76-.51,5-2.3,7.07-2.29,2.7-5.14,5.23-4.74,9.35" fill="none" stroke="#000" stroke-linecap="round" stroke-linejoin="round" stroke-width="2"/><path d="M986.64,394c0,4.54.47,9.14-1.68,13.41" fill="none" stroke="#000" stroke-linecap="round" stroke-linejoin="round" stroke-width="2"/><path d="M507.73,183.18c-4.47-.22-9,.45-13.41-.34" fill="none" stroke="#000" stroke-linecap="round" stroke-linejoin="round" stroke-width="2"/><path d="M829.46,53.81c-4.07-.56-7.78.7-11.38,2.37a1.7,1.7,0,0,1-2,0" fill="none" stroke="#000" stroke-linecap="round" stroke-linejoin="round" stroke-width="2"/><path d="M847.56,501.89c2.37,4.35,3.82,9.14,6.37,13.41" fill="none" stroke="#000" stroke-linecap="round" stroke-linejoin="round" stroke-width="2"/><path d="M964.52,318.24a16.41,16.41,0,0,0,2,9.75,4.28,4.28,0,0,1,.72,3.32" fill="none" stroke="#000" stroke-linecap="round" stroke-linejoin="round" stroke-width="2"/><path d="M828.12,455.64c3.68,4.87,3.48,6.91.35,12.07-1.45,2.39-3.12,4.68-4,7.37" fill="none" stroke="#000" stroke-linecap="round" stroke-linejoin="round" stroke-width="2"/><path d="M645.81,163.4c-3,.1-5.67,1.36-8.35,2.42-1.5.6-2.71.93-4.05-.07" fill="none" stroke="#000" stroke-linecap="round" stroke-linejoin="round" stroke-width="2"/><path d="M891.13,252.55c-3.33.79-5.62,3.3-8.38,5-1.23.77-2.46,1.56-3.69,2.34" fill="none" stroke="#000" stroke-linecap="round" stroke-linejoin="round" stroke-width="2"/><path d="M917.27,134.25c-3.8.19-7.61-.4-11.39.34" fill="none" stroke="#000" stroke-linecap="round" stroke-linejoin="round" stroke-width="2"/><path d="M474.22,467c-4.9-2.62-7.32-2.41-11.39,1" fill="none" stroke="#000" stroke-linecap="round" stroke-linejoin="round" stroke-width="2"/><path d="M814.72,347.39a13.3,13.3,0,0,0-7.62,1.5c-3.87,2.07-8.41,3.07-11.48,6.55" fill="none" stroke="#000" stroke-linecap="round" stroke-linejoin="round" stroke-width="2"/><path d="M712.5,216.69c3.52,5.69,5.12,11.5,1.38,17.79a7.25,7.25,0,0,0-.38,2.66" fill="none" stroke="#000" stroke-linecap="round" stroke-linejoin="round" stroke-width="2"/><path d="M653.18,224.4c-3.32,3.17-7.19,5.83-9.38,10.05" fill="none" stroke="#000" stroke-linecap="round" stroke-linejoin="round" stroke-width="2"/><path d="M747.69,117.82a10.21,10.21,0,0,1-4.62,4.83,7.51,7.51,0,0,0-3.73,6.23c-.12,1.44,0,2.9,0,4.35" fill="none" stroke="#000" stroke-linecap="round" stroke-linejoin="round" stroke-width="2"/><path d="M1004.4,349.4a1.23,1.23,0,0,1-.32,1c-2.48,2.64-3.22,5.6-1.73,9.05a10.76,10.76,0,0,1,.38,3" fill="none" stroke="#000" stroke-linecap="round" stroke-linejoin="round" stroke-width="2"/><path d="M806,509.26c-5.95,4.35-8.94,10.52-10.72,17.43" fill="none" stroke="#000" stroke-linecap="round" stroke-linejoin="round" stroke-width="2"/><path d="M756.07,165.75a5.11,5.11,0,0,1-2,5.07,14.48,14.48,0,0,0-4.06,4.65" fill="none" stroke="#000" stroke-linecap="round" stroke-linejoin="round" stroke-width="2"/><path d="M319.38,638.63c-3.86.93-5.78,4-7.71,7" fill="none" stroke="#000" stroke-linecap="round" stroke-linejoin="round" stroke-width="2"/><path d="M528.51,487.81c1.21-2.46,2.05-5.13,5.7-5.15a5.37,5.37,0,0,1,2.37.74c2.6,1,5.18,2.16,8,2.41" fill="none" stroke="#000" stroke-linecap="round" stroke-linejoin="round" stroke-width="2"/><path d="M906.88,682.53a14.63,14.63,0,0,1,6.7,7" fill="none" stroke="#000" stroke-linecap="round" stroke-linejoin="round" stroke-width="2"/><path d="M484.27,533.06c-2.13,2-3.15,4.66-4,7.37" fill="none" stroke="#000" stroke-linecap="round" stroke-linejoin="round" stroke-width="2"/><path d="M930.34,452.29a32.23,32.23,0,0,0,0,4c.47,3.68-.28,6.93-3,9.55" fill="none" stroke="#000" stroke-linecap="round" stroke-linejoin="round" stroke-width="2"/><path d="M348.88,706c1.28-1.44,2.53-2.25,4.74-1.46a6.21,6.21,0,0,0,4.65-.21" fill="none" stroke="#000" stroke-linecap="round" stroke-linejoin="round" stroke-width="2"/><path d="M598.22,154.35a3.47,3.47,0,0,0-4-2.71,21.18,21.18,0,0,1-6-.3" fill="none" stroke="#000" stroke-linecap="round" stroke-linejoin="round" stroke-width="2"/><path d="M663.57,208.81c-2.94,1.05-3.4,3.57-3.69,6.2" fill="none" stroke="#000" stroke-linecap="round" stroke-linejoin="round" stroke-width="2"/></svg>