<svg id="Layer_1" data-name="Layer 1" xmlns="http://www.w3.org/2000/svg" viewBox="0 0 1350 614.74"><title>rain_cloud</title><path d="M248.4,324.3c-4.24-2.24-8.43-4.57-12.73-6.7a157.47,157.47,0,0,0-33.85-11.72,153.43,153.43,0,0,0-18.72-3.3,48.06,48.06,0,0,0-11.28.27c-7.55,1-14.84,3.16-22.32,4.33a100.48,100.48,0,0,0-27.11,8.24A98.4,98.4,0,0,0,101,329.33c-8,6.66-14.19,14.95-20.94,22.75-4.58,5.29-9.94,9.89-14.78,15a127,127,0,0,0-12.55,15.06c-7.34,10.57-12.28,22.24-16.24,34.36-3.79,11.59-6.69,23.44-9.7,35.25q-3.13,12.31-5.6,24.75c-.71,3.61-1.05,7.35-1.63,11-1.64,10.37-1.52,20.8-1.25,31.21.11,4.23.69,8.5,1.23,12.74.6,4.73,1.24,9.45,2,14.14,1.06,6.17,2,12.37,3.41,18.47,1.2,5.29,2.14,10.66,3.79,15.85,1,3.26,2,6.51,4.78,8.9a13.26,13.26,0,0,0,7,3.07,153.17,153.17,0,0,0,17.75,1c33.6,1,67.2,0,100.8.5,6.72.09,13.44.66,20.15,1,2.88.16,5.77.19,8.65.35,14.71.83,29.44.55,44.16.4,7-.07,14.08-.58,21.12-.95,4.72-.25,9.44-.64,14.16-1,7-.48,13.91-1,20.88-1.43,5.44-.32,10.89-.54,16.32-1,11.92-1,23.84-1,35.77-.84a129.24,129.24,0,0,1,17,1.35,58.27,58.27,0,0,0,6.48.43c5.36.16,10.73.43,16.07.67,16.64.77,33.29-.07,49.92.5,5.28.18,10.59-.09,15.83.46,3.78.39,7.54.1,11.29.42,7.35.63,14.73.63,22.08,1,4.65.26,9.3.07,13.92.4,7.11.51,14.24.69,21.36,1,7,.3,13.93.59,20.88,1,3.85.23,7.72-.08,11.52.41,5.92.76,11.88-.07,17.76.49,7.85.75,15.7.49,23.52.32,9.2-.2,18.4-.62,27.6-1,3.92-.16,7.85-.2,11.77-.34,19.12-.69,38.25-.88,57.36-.36,15.37.42,30.74-.21,46.08.42,19,.79,37.94.65,56.88.26,20-.42,40,.08,60-.35,48.56-1,97.12-.08,145.68-.54,6.55-.06,13.13-.47,19.68-.93,4.24-.3,8.48-.66,12.72-1,6.72-.48,13.43-1,20.16-1.44q8.88-.53,17.76-1c6.56-.33,13.12-.67,19.68-1s13.12-.68,19.68-1c6.08-.26,12.16-.67,18.24-1,5.28-.25,10.56-.63,15.84-1,7.68-.48,15.36-1,23-1.43,5.2-.31,10.4-.68,15.6-1,5.44-.31,10.88-.64,16.32-1,6.64-.38,13.3-.52,19.92-1,10.33-.72,20.65-.43,31-.26a123.36,123.36,0,0,1,16.34,1.69c7.21,1.09,14.28,2.64,21.38,4.28,3.42.79,7.17.14,10.77.14" fill="none" stroke="#000" stroke-linecap="round" stroke-linejoin="round" stroke-width="2"/><path d="M762.24,220.86c-1.49-5.67-2.79-11.38-4.26-17.05-1.36-5.23-2.84-10.41-4.38-15.58a309.41,309.41,0,0,0-20.66-51.83,241,241,0,0,0-20.63-34.08A90.1,90.1,0,0,0,693.6,84.06Q679.11,73.13,664.07,63c-9.45-6.39-19.79-11-30.47-14.9-13.74-5-27.9-8.63-42-12.55-11.5-3.2-23-6.47-34.59-9.24q-8.81-2.1-17.74-3.69c-4.8-.85-9.61-1.62-14.42-2.23-2.35-.3-4.77-.58-7.18-.65-4.48-.13-8.95-.58-13.44-.43-6.18.2-12.33.75-18.49,1.38a187.37,187.37,0,0,0-28.53,5.43,237.21,237.21,0,0,0-24,7.83,323.94,323.94,0,0,0-38.42,17.49,433,433,0,0,0-44.63,27.86c-12.69,9-25,18.44-37,28.32-5.26,4.33-10.64,8.52-15.6,13.21a145.85,145.85,0,0,0-25,31.92A324.53,324.53,0,0,0,251,196.84a86.2,86.2,0,0,0-5.62,21.39,62.65,62.65,0,0,0-.1,18.71c.19,1.11-.28,2.27.25,3.36" fill="none" stroke="#000" stroke-linecap="round" stroke-linejoin="round" stroke-width="2"/><path d="M1143.84,376.38a126.24,126.24,0,0,0,47.31-58.07A203.26,203.26,0,0,0,1202.31,282c1.49-6.87,2.71-13.83,3.53-20.85.72-6.24,1.41-12.46,1.92-18.72.79-9.69.45-19.37.29-29-.11-6.72-.75-13.45-1.38-20.16-.73-7.78-1.56-15.58-2.89-23.27-2.77-16-6.9-31.73-14.36-46.32a216.69,216.69,0,0,0-30-44.87,145.74,145.74,0,0,0-29.53-25.88,134.94,134.94,0,0,0-31.61-15.52,109.88,109.88,0,0,1-22.91-10.82C1066,20.83,1055.61,17,1045,14c-8.08-2.27-16.22-4.24-24.48-5.77-5.38-1-10.71-2.32-16.09-3.31A80.46,80.46,0,0,0,983.29,4c-12.63,1-24.72,4.56-36.5,9.23a283.09,283.09,0,0,0-36.94,17.56,192.61,192.61,0,0,0-28.59,19.88,164.48,164.48,0,0,0-12.93,12,149,149,0,0,0-24.5,33.59,28.71,28.71,0,0,1-6,7.47c-.39.37-.69,0-1,.21" fill="none" stroke="#000" stroke-linecap="round" stroke-linejoin="round" stroke-width="2"/><path d="M1299.36,593.34c9.35-4.55,14.76-12.49,18.18-21.86,3.36-9.2,7.58-18.08,10.16-27.57,1.47-5.43,4.29-10.38,5.8-15.83a106.68,106.68,0,0,0,2.87-14.41c1.18-8.79,1-17.6.86-26.41a150.33,150.33,0,0,0-1.81-20.89,125.31,125.31,0,0,0-4.87-20.63c-3.9-11.69-9.53-22.45-17.77-31.66-13.94-15.56-29.84-28.69-48.71-37.91a105,105,0,0,0-25.41-8.52c-7.48-1.51-14.87-3.53-22.32-5.25-5.42-1.25-10.85-2.38-16.33-3.34a119.82,119.82,0,0,0-23-1.89" fill="none" stroke="#000" stroke-linecap="round" stroke-linejoin="round" stroke-width="2"/><path d="M848.88,56.46c-3.84-1-7.65-2.06-11.53-2.84s-7.8-1.33-11.74-1.81a98.14,98.14,0,0,0-16.09-.3,85.48,85.48,0,0,0-20.88,3.76c-10.42,3.13-19.89,8.3-29.29,13.65-6.31,3.59-12.94,6.6-19.22,10.28a66.33,66.33,0,0,0-18.23,15.4c-2.22,2.72-4.62,5.29-6.94,7.93" fill="none" stroke="#000" stroke-linecap="round" stroke-linejoin="round" stroke-width="2"/><path d="M248.16,202.86c-2.45-.77-4.6.64-6.69,1.31a143.36,143.36,0,0,0-33.85,15.29,101.74,101.74,0,0,0-21.83,18.48,107,107,0,0,0-21.41,38.36c-1.75,5.39-1.23,10.85-.94,16.33.14,2.65.74,5.26.71,7.92" fill="none" stroke="#000" stroke-linecap="round" stroke-linejoin="round" stroke-width="2"/><path d="M1221.36,416.46c-2.32,2-3.89,4.61-5.74,7-12.44,15.83-23.83,32.35-32.91,50.38-6.36,12.64-10.7,26-14.36,39.61-1.48,5.51-3.08,11-4.44,16.53a5.41,5.41,0,0,0,.33,4.11,4.94,4.94,0,0,1,1,2.88" fill="none" stroke="#000" stroke-linecap="round" stroke-linejoin="round" stroke-width="2"/><path d="M1127.28,442.62c-8.08,8-13.83,17.61-18.43,27.86A484.6,484.6,0,0,0,1088.91,523c-2.52,8-4.67,16.15-7,24.23a26,26,0,0,0-.93,2.89c-.63,3.86.47,5.14,5,6" fill="none" stroke="#000" stroke-linecap="round" stroke-linejoin="round" stroke-width="2"/><path d="M1165.68,420.3c-.39,2.29-1.67,4.2-2.65,6.24q-16.07,33.61-32.15,67.2c-3.78,7.91-7.47,15.86-11.31,23.74-1.24,2.55-1.27,5.26-1.64,7.94-.18,1.27.26,2.59-.25,3.84" fill="none" stroke="#000" stroke-linecap="round" stroke-linejoin="round" stroke-width="2"/><path d="M986.88,451.38c-7.52,15.72-15.11,31.4-22.54,47.17a327.87,327.87,0,0,0-17,43.68,24,24,0,0,1-2.4,5.53c-3.2,5.28-2.1,7,2.13,9.58" fill="none" stroke="#000" stroke-linecap="round" stroke-linejoin="round" stroke-width="2"/><path d="M1228.32,442.62c-13,17.17-24.78,35.13-34.32,54.48A244,244,0,0,0,1181.36,529c-.94,2.86-1.53,5.89-2.28,8.84-.46,1.77.1,2.18,1.73,2.22.79,0,2.32-.82,2.16,1.15" fill="none" stroke="#000" stroke-linecap="round" stroke-linejoin="round" stroke-width="2"/><path d="M581,470.22c-2.17,6.54-4.65,13-7.05,19.41q-4.63,12.38-9.25,24.76c-3.5,9.34-6.88,18.72-10.34,28.07-2.29,6.17-4.63,12.32-7,18.48" fill="none" stroke="#000" stroke-linecap="round" stroke-linejoin="round" stroke-width="2"/><path d="M715.92,271.5c-1.78,3.24-2.45,6.89-3.48,10.36-1.65,5.58-3.25,11.19-5,16.74-3.64,11.65-7,23.36-10.37,35.1A62.64,62.64,0,0,0,695,346.86a14.22,14.22,0,0,1-.57,4c-.76,1.94,0,2.37,1.55,2.68" fill="none" stroke="#000" stroke-linecap="round" stroke-linejoin="round" stroke-width="2"/><path d="M193.2,482.22a302.59,302.59,0,0,0-24.69,37.94,142.25,142.25,0,0,0-11.76,28.79,84.87,84.87,0,0,0-2.66,13c0,.38-.34.48-.49.72" fill="none" stroke="#000" stroke-linecap="round" stroke-linejoin="round" stroke-width="2"/><path d="M703.92,269.1a269.85,269.85,0,0,0-15.15,38.15A241.29,241.29,0,0,0,682,335.09c-.67,3.84-.92,7.74-1.83,11.54a3,3,0,0,0,.47,2.16" fill="none" stroke="#000" stroke-linecap="round" stroke-linejoin="round" stroke-width="2"/><path d="M160.56,469.74c-1.63-.07-2.43,1.23-3.34,2.18a194.28,194.28,0,0,0-19.5,23.47,225.92,225.92,0,0,0-22.27,41.55c-1.36,3.25-2.57,6.55-3.85,9.83" fill="none" stroke="#000" stroke-linecap="round" stroke-linejoin="round" stroke-width="2"/><path d="M624.24,477.66c-5.84,12.72-11.71,25.43-17.51,38.16-5.16,11.34-10.25,22.71-15.37,34.08-.92,2-.49,4.15-.24,6.24" fill="none" stroke="#000" stroke-linecap="round" stroke-linejoin="round" stroke-width="2"/><path d="M110.16,478.38c-10.53,17.51-21.81,34.59-30.72,53-2.27,4.7-4.42,9.47-6.75,14.15a14.47,14.47,0,0,0-1.06,10.81" fill="none" stroke="#000" stroke-linecap="round" stroke-linejoin="round" stroke-width="2"/><path d="M131.52,475.5c-9.4,13.23-19.5,25.94-28.38,39.56a134.8,134.8,0,0,0-12,24c-1.25,3.13-2.35,6.32-3.8,9.38s-1.3,3,1.17,4.79" fill="none" stroke="#000" stroke-linecap="round" stroke-linejoin="round" stroke-width="2"/><path d="M691.68,269.34a218.82,218.82,0,0,0-24.51,60.71,16.18,16.18,0,0,0,.47,8.42,12.27,12.27,0,0,1,0,3.11" fill="none" stroke="#000" stroke-linecap="round" stroke-linejoin="round" stroke-width="2"/><path d="M678.24,259.26a249.22,249.22,0,0,0-11,32.64c-1.87,6.81-3.42,13.7-4.87,20.62-1.14,5.44-2,10.93-3.28,16.34a7.3,7.3,0,0,0,0,1.68" fill="none" stroke="#000" stroke-linecap="round" stroke-linejoin="round" stroke-width="2"/><path d="M651.12,250.38c-1.54,2.72-2.32,5.73-3.36,8.64q-6.94,19.45-13.92,38.88c-2.78,7.77-5.38,15.6-8.4,23.28" fill="none" stroke="#000" stroke-linecap="round" stroke-linejoin="round" stroke-width="2"/><path d="M1081.68,67.74c-7.15,12.29-14.16,24.66-19.9,37.69-4.44,10.08-8.43,20.33-10.56,31.19-.09.46-.74.63-.5,1.2" fill="none" stroke="#000" stroke-linecap="round" stroke-linejoin="round" stroke-width="2"/><path d="M901.44,432.54c-2-4.29-3.6-8.74-5.75-13a128.26,128.26,0,0,0-18.45-26.91,169.09,169.09,0,0,0-12.58-12.86c-6.72-6.14-13.34-12.47-21.3-17.11a32.87,32.87,0,0,0-19.21-4.53,28.64,28.64,0,0,0-3.6.7" fill="none" stroke="#000" stroke-linecap="round" stroke-linejoin="round" stroke-width="2"/><path d="M662.4,253.74c.14,3.29-1.5,6.13-2.45,9.1-5.91,18.4-12,36.75-17.72,55.21-.55,1.79-1.27,3.52-1.91,5.28" fill="none" stroke="#000" stroke-linecap="round" stroke-linejoin="round" stroke-width="2"/><path d="M1134,137.58a419.35,419.35,0,0,0-17.28,40.8c-3.19,8.8-5.55,17.84-7.92,26.88-.12.47.26,1-.24,1.44" fill="none" stroke="#000" stroke-linecap="round" stroke-linejoin="round" stroke-width="2"/><path d="M1237.68,474.06c-8.77,13-17.92,25.81-26.76,38.8a55,55,0,0,0-9.45,24.57c-.11.9-.67,1.68-.53,2.64s-.69.64-1.18.72" fill="none" stroke="#000" stroke-linecap="round" stroke-linejoin="round" stroke-width="2"/><path d="M1064.4,67c-2.66,2.42-4.37,5.56-6.48,8.4a170.6,170.6,0,0,0-18.7,31.93,153.06,153.06,0,0,0-8.17,24c-.35,1.34.62,2.91-.73,4.08" fill="none" stroke="#000" stroke-linecap="round" stroke-linejoin="round" stroke-width="2"/><path d="M810.48,485.1c-1.95,3-2.75,6.39-4,9.62-3.59,9-7,18.09-10.58,27.11-3.66,9.23-7.06,18.55-10.63,27.81a6.35,6.35,0,0,0-.2,1.21" fill="none" stroke="#000" stroke-linecap="round" stroke-linejoin="round" stroke-width="2"/><path d="M967,454.86c-7.18,8.17-14.06,16.58-20.42,25.42-8.67,12.06-16.45,24.61-22,38.42-.27.67-.77.41-1.21.48" fill="none" stroke="#000" stroke-linecap="round" stroke-linejoin="round" stroke-width="2"/><path d="M586.8,79.26a84.34,84.34,0,0,0-14.62,22.57c-4.69,10.21-8.21,20.88-12,31.43-.54,1.48-1.27,2.89-1.91,4.33" fill="none" stroke="#000" stroke-linecap="round" stroke-linejoin="round" stroke-width="2"/><path d="M615.12,248c-4.68,8.58-9.41,17.15-13.16,26.18a89.12,89.12,0,0,0-5.82,19.9c-.56,3.45-1.27,6.88-1.91,10.32" fill="none" stroke="#000" stroke-linecap="round" stroke-linejoin="round" stroke-width="2"/><path d="M206.16,498.78c-3,4.24-6,8.55-9.14,12.71-7.21,9.52-12.36,20.1-16.56,31.21-1.59,4.19-2.88,8.51-5,12.49" fill="none" stroke="#000" stroke-linecap="round" stroke-linejoin="round" stroke-width="2"/><path d="M1052.16,57.18c-9.16,12.92-17.87,26.09-24,40.78-1.89,4.52-3.53,9.12-5.24,13.7-.82,2.2.19,4.19.72,6.24" fill="none" stroke="#000" stroke-linecap="round" stroke-linejoin="round" stroke-width="2"/><path d="M569.52,80.46c-3.86,4.32-6.65,9.34-9.35,14.41a135.08,135.08,0,0,0-9.35,23c-1.63,5.16-3.06,10.39-4.58,15.59" fill="none" stroke="#000" stroke-linecap="round" stroke-linejoin="round" stroke-width="2"/><path d="M794.16,500.46q-8.28,19.08-16.56,38.16c-2.18,5-4.32,10.08-6.48,15.12" fill="none" stroke="#000" stroke-linecap="round" stroke-linejoin="round" stroke-width="2"/><path d="M1026.48,54.78a127.48,127.48,0,0,0-16.56,24q-6.3,11.43-11.75,23.28a25.73,25.73,0,0,1-3.36,5.28" fill="none" stroke="#000" stroke-linecap="round" stroke-linejoin="round" stroke-width="2"/><path d="M899.28,492.78c-4.68,4.88-9,10.09-13.22,15.34a279,279,0,0,0-23.47,34.11,4.07,4.07,0,0,0-1,2.77c.61,1.12,1.39,1.46,2.88.38,1.88-1.37,4-2.44,6-3.64" fill="none" stroke="#000" stroke-linecap="round" stroke-linejoin="round" stroke-width="2"/><path d="M1040.88,54.54a140.3,140.3,0,0,0-14.57,20.68,113.11,113.11,0,0,0-11.15,24.19,44.2,44.2,0,0,0-1.39,7" fill="none" stroke="#000" stroke-linecap="round" stroke-linejoin="round" stroke-width="2"/><path d="M604.32,103.38c-3.7,8.12-7,16.42-10.49,24.63-3.68,8.6-7.17,17.29-10.91,25.87-.22.5.15,1.12-.43,1.46" fill="none" stroke="#000" stroke-linecap="round" stroke-linejoin="round" stroke-width="2"/><path d="M432.72,479.34c-3,4.84-5.29,10.08-8,15.09-4.84,9.06-9.33,18.3-14.11,27.39-1.46,2.79-2.44,5.82-4.32,8.4" fill="none" stroke="#000" stroke-linecap="round" stroke-linejoin="round" stroke-width="2"/><path d="M916.8,491.58q-13.08,23.88-26.15,47.76c-.32.59-.57,1.23-1.45,1" fill="none" stroke="#000" stroke-linecap="round" stroke-linejoin="round" stroke-width="2"/><path d="M518.88,505.14l-7.2,22.92q-2.64,8.4-5.27,16.8c0,.15,0,.33,0,.48-1.3,4-.76,4.8,3.13,4.8H511" fill="none" stroke="#000" stroke-linecap="round" stroke-linejoin="round" stroke-width="2"/><path d="M626.16,111.18c-5,11.94-9.75,24-14.72,36-1.9,4.57-3.09,9.55-6.4,13.47" fill="none" stroke="#000" stroke-linecap="round" stroke-linejoin="round" stroke-width="2"/><path d="M888,405.42c5.59-3.6,11.81-5.54,18.24-7a62.64,62.64,0,0,1,19-.83c8,.67,15.92,2,23.05,6.12a33.92,33.92,0,0,1,6.48,5c4.36,4.2,8.33,8.81,13.2,12.48" fill="none" stroke="#000" stroke-linecap="round" stroke-linejoin="round" stroke-width="2"/><path d="M533.52,456.06q-4.8,7.68-9.6,15.36-9.71,15.48-19.46,31c-1.35,2.13-1.37,4,.5,5.77" fill="none" stroke="#000" stroke-linecap="round" stroke-linejoin="round" stroke-width="2"/><path d="M768,512.34l-6.24,20.52c-2.72,9-5.46,17.92-8.11,26.89-.13.45-.57.71-.53,1.19" fill="none" stroke="#000" stroke-linecap="round" stroke-linejoin="round" stroke-width="2"/><path d="M618.24,103.74c-7.8,15.88-15.49,31.81-20.88,48.72" fill="none" stroke="#000" stroke-linecap="round" stroke-linejoin="round" stroke-width="2"/><path d="M281.52,494.46c-4.56,8.4-9.17,16.77-13.66,25.21-2.42,4.55-4.72,9.16-7.17,13.7-1.06,2-.68,4.27-.3,6.45a12.08,12.08,0,0,1,.48,3.36" fill="none" stroke="#000" stroke-linecap="round" stroke-linejoin="round" stroke-width="2"/><path d="M212.4,516.3c-3.09,4-5.31,8.62-7.88,13-6.76,11.45-13.34,23-20.08,34.67.93.76,1.52,1.88,2.77,2.21,2.88-2.08,5.4-4.67,8.4-6.66" fill="none" stroke="#000" stroke-linecap="round" stroke-linejoin="round" stroke-width="2"/><path d="M276.24,278.46c-9.1,6.55-15.23,15.45-19.9,25.45a110.65,110.65,0,0,0-6.5,18c-.37,1.37-.94,2.66-1.27,4.06-1.1,4.76-2.44,9.47-3.79,14.17a24.52,24.52,0,0,0,.06,13.67c1.6,5.64,4.26,10.88,6.91,16.09" fill="none" stroke="#000" stroke-linecap="round" stroke-linejoin="round" stroke-width="2"/><path d="M605.28,245.82a119.77,119.77,0,0,0-18.19,35.54c-1.15,3.57-1.65,7.34-2.45,11" fill="none" stroke="#000" stroke-linecap="round" stroke-linejoin="round" stroke-width="2"/><path d="M232.08,510.54c-3.92,8.4-8.08,16.7-11.68,25.23-2.61,6.19-5,12.56-5.36,19.41-.07,1.16.21,2.39-.72,3.36" fill="none" stroke="#000" stroke-linecap="round" stroke-linejoin="round" stroke-width="2"/><path d="M481,499.26a13.55,13.55,0,0,1-.92,4.33c-2.2,7.57-4.8,15-6.23,22.8a66.67,66.67,0,0,0-1.07,13.67c0,1.72.5,2.58,2.47,2.64,4.66-4.71,9.09-9.86,13.67-14.88" fill="none" stroke="#000" stroke-linecap="round" stroke-linejoin="round" stroke-width="2"/><path d="M875.28,217.26c-2.46,3.72-4.11,7.87-6.2,11.78-3.29,6.15-6.19,12.52-9.51,18.64a28.64,28.64,0,0,0-3.25,13.74" fill="none" stroke="#000" stroke-linecap="round" stroke-linejoin="round" stroke-width="2"/><path d="M559.2,74.7c-4.06,9.13-8.87,17.88-13.18,26.89a174.08,174.08,0,0,0-7.22,16.31" fill="none" stroke="#000" stroke-linecap="round" stroke-linejoin="round" stroke-width="2"/><path d="M457.2,482.7a244.31,244.31,0,0,0-13,22.56,210,210,0,0,0-12.77,30.46c-1.37,4.32-2.25,8.79-4,13a3.19,3.19,0,0,0-.14,1.22,7.4,7.4,0,0,1-4.62,6.74,8.18,8.18,0,0,0-2.89,2.85" fill="none" stroke="#000" stroke-linecap="round" stroke-linejoin="round" stroke-width="2"/><path d="M851.76,200.94l-19,41.52" fill="none" stroke="#000" stroke-linecap="round" stroke-linejoin="round" stroke-width="2"/><path d="M646.56,117.18q-7.68,13.44-15.35,26.88c-2.76,4.86-5.45,9.76-8.17,14.64" fill="none" stroke="#000" stroke-linecap="round" stroke-linejoin="round" stroke-width="2"/><path d="M759.84,332.22q-5.76,14.76-11.51,29.52c-1.56,4-3,8.09-3.13,12.48" fill="none" stroke="#000" stroke-linecap="round" stroke-linejoin="round" stroke-width="2"/><path d="M522.48,61.74c-4.9,2.53-8,6.78-10.25,11.55-3.4,7.39-6.35,15-9.41,22.54a46.7,46.7,0,0,0-1.47,5.27" fill="none" stroke="#000" stroke-linecap="round" stroke-linejoin="round" stroke-width="2"/><path d="M196.08,337.74c-3.07,9.81-5.61,19.77-8.84,29.53-1.11,3.36-1.25,7.08-3.88,9.83" fill="none" stroke="#000" stroke-linecap="round" stroke-linejoin="round" stroke-width="2"/><path d="M532.08,69.9a82,82,0,0,0-7.92,9.6,103.09,103.09,0,0,0-13.85,25.71c-.42,1.11-.61,2.4-1,3.57" fill="none" stroke="#000" stroke-linecap="round" stroke-linejoin="round" stroke-width="2"/><path d="M547.44,70.38c-6.72,5.48-11.3,12.5-14.63,20.4-2.59,6.15-5.13,12.32-7.69,18.48" fill="none" stroke="#000" stroke-linecap="round" stroke-linejoin="round" stroke-width="2"/><path d="M181,474.54q-7.08,12.36-14.16,24.72-4.07,7.09-8.16,14.16" fill="none" stroke="#000" stroke-linecap="round" stroke-linejoin="round" stroke-width="2"/><path d="M308.88,472.62c-.7-.06-1,.09-1.26.94a103.16,103.16,0,0,1-13.38,25.7,159.6,159.6,0,0,1-22.79,25.93c-.75.68-1.44,1.43-2.16,2.15" fill="none" stroke="#000" stroke-linecap="round" stroke-linejoin="round" stroke-width="2"/><path d="M1008.72,50.46c-5.84,7.15-12.09,14-17.06,21.83A53.61,53.61,0,0,0,985,86.23c-.13.47-.53.61-.74,1" fill="none" stroke="#000" stroke-linecap="round" stroke-linejoin="round" stroke-width="2"/><path d="M189.84,340.14c-6.24,11.56-12,23.35-18.48,34.8" fill="none" stroke="#000" stroke-linecap="round" stroke-linejoin="round" stroke-width="2"/><path d="M651.12,128.22q-10.68,16.56-21.35,33.13a8.62,8.62,0,0,1-1.21,1.67" fill="none" stroke="#000" stroke-linecap="round" stroke-linejoin="round" stroke-width="2"/><path d="M288.48,508.14c1.6,1.31,1.08,3,.69,4.55a13.85,13.85,0,0,1-2.36,5.05c-4.17,5.5-6,12-7.92,18.48-1.09,3.75-2,7.55-3.21,11.25-.22.67.7,1.77-.64,2.07" fill="none" stroke="#000" stroke-linecap="round" stroke-linejoin="round" stroke-width="2"/><path d="M786.72,365.1c.14,3.29-1.57,6.1-2.45,9.11-2.43,8.28-5.4,16.39-7.65,24.73-.05.19-.31.32-.47.48" fill="none" stroke="#000" stroke-linecap="round" stroke-linejoin="round" stroke-width="2"/><path d="M839.76,195.18q-3.6,9.6-7.2,19.2c-1.66,4.41-3.38,8.79-5,13.21a2.57,2.57,0,0,0-.27,1.67" fill="none" stroke="#000" stroke-linecap="round" stroke-linejoin="round" stroke-width="2"/><path d="M421.2,530.94l-19.08,32.63c-1.3.15-2.05-.75-3.08-1.26,1.08-5.43,2.67-10.8,3.9-16.25.81-3.58,1.61-7.16,2.66-10.68" fill="none" stroke="#000" stroke-linecap="round" stroke-linejoin="round" stroke-width="2"/><path d="M1154.16,486.06c-1,5.87-2.88,11.52-4.32,17.28-1.13,4.5-2.26,9-3.57,13.45-.37,1.26.67,2.89-1,3.83" fill="none" stroke="#000" stroke-linecap="round" stroke-linejoin="round" stroke-width="2"/><path d="M573.36,259l-12.48,31.2" fill="none" stroke="#000" stroke-linecap="round" stroke-linejoin="round" stroke-width="2"/><path d="M603.12,496.62c-.87-.27-1.12.36-1.44,1-4.39,8.16-8.77,16.34-13.22,24.47-.62,1.13-.91,2.61-2.37,3.13" fill="none" stroke="#000" stroke-linecap="round" stroke-linejoin="round" stroke-width="2"/><path d="M401,449.34a165,165,0,0,0-17.4,23.83c-3.84,6.26-7.95,12.54-10.48,19.44-1.25,3.4-3.76,5.78-5.09,9a73.78,73.78,0,0,1-5.2,9.39c-2.5,4.22-3.68,9-5.51,13.45,1.22,5.49-2.8,9.79-3.27,15.2.19.48.88.7,1.67,1,2.51-2.21,4.25-5.06,6.4-7.55" fill="none" stroke="#000" stroke-linecap="round" stroke-linejoin="round" stroke-width="2"/><path d="M655,138.06c-5.48,9.74-11.06,19.42-16.32,29.28" fill="none" stroke="#000" stroke-linecap="round" stroke-linejoin="round" stroke-width="2"/><path d="M710.64,324.78q-6.36,13.08-12.7,26.17c-.52,1.07-1.69,1.77-1.7,3.11" fill="none" stroke="#000" stroke-linecap="round" stroke-linejoin="round" stroke-width="2"/><path d="M830.16,191.82c-.3,2.54-1.68,4.72-2.74,6.91-3.44,7.16-6.46,14.52-10,21.65" fill="none" stroke="#000" stroke-linecap="round" stroke-linejoin="round" stroke-width="2"/><path d="M259.92,503.34l-14.64,27.6" fill="none" stroke="#000" stroke-linecap="round" stroke-linejoin="round" stroke-width="2"/><path d="M995.28,49.74q-8.88,13.2-17.75,26.4a2.57,2.57,0,0,1-1,1" fill="none" stroke="#000" stroke-linecap="round" stroke-linejoin="round" stroke-width="2"/><path d="M666,488c-3.65,5.88-6.55,12.17-9.83,18.24-1.63,3-3.21,6.08-4.81,9.12" fill="none" stroke="#000" stroke-linecap="round" stroke-linejoin="round" stroke-width="2"/><path d="M1071.12,506.22c-2.91,4.82-5.36,9.87-7.94,14.87-2.16,4.2-4.46,8.33-6.7,12.49" fill="none" stroke="#000" stroke-linecap="round" stroke-linejoin="round" stroke-width="2"/><path d="M814.56,76q-7,13.26-13.93,26.52a2.38,2.38,0,0,1-.47.48" fill="none" stroke="#000" stroke-linecap="round" stroke-linejoin="round" stroke-width="2"/><path d="M1155.84,219.54c-3.2,6-6.42,11.91-9.59,17.88-1.61,3-2.94,6.22-4.81,9.12" fill="none" stroke="#000" stroke-linecap="round" stroke-linejoin="round" stroke-width="2"/><path d="M171.84,343.74l-18,26.88" fill="none" stroke="#000" stroke-linecap="round" stroke-linejoin="round" stroke-width="2"/><path d="M1016.88,517.5c-7.68,7.36-15.38,14.7-23,22.09a18.77,18.77,0,0,1-9.13,4.55" fill="none" stroke="#000" stroke-linecap="round" stroke-linejoin="round" stroke-width="2"/><path d="M210.72,346.62c-1,2.79-1.21,5.78-1.92,8.64,0,.15.06.36,0,.47-1.5,2.52-1.21,5.46-1.82,8.19-1.38,6.14-2.36,12.36-3.93,18.46-.12.47.26,1-.24,1.44" fill="none" stroke="#000" stroke-linecap="round" stroke-linejoin="round" stroke-width="2"/><path d="M1088.4,85.26c-.44.07-.89-.17-1.22.47q-6,11.54-12,23a2.59,2.59,0,0,0-.21,1" fill="none" stroke="#000" stroke-linecap="round" stroke-linejoin="round" stroke-width="2"/><path d="M563.28,268.62,550.8,294.06" fill="none" stroke="#000" stroke-linecap="round" stroke-linejoin="round" stroke-width="2"/><path d="M307.44,504.3l-22.56,25.44" fill="none" stroke="#000" stroke-linecap="round" stroke-linejoin="round" stroke-width="2"/><path d="M158.64,339.18c-3.81,2.42-6.2,6-8.43,9.82-2.83,4.83-4.44,10.13-6.21,15.38" fill="none" stroke="#000" stroke-linecap="round" stroke-linejoin="round" stroke-width="2"/><path d="M402.24,500.82c-2.59,7.31-5.4,14.54-7.76,21.93a15.17,15.17,0,0,0-.4,2.19" fill="none" stroke="#000" stroke-linecap="round" stroke-linejoin="round" stroke-width="2"/><path d="M767,362.7c-.24,3.94-2.05,7.48-2.94,11.27s-2.22,7.2-3.26,10.82a3.13,3.13,0,0,0,0,2.15" fill="none" stroke="#000" stroke-linecap="round" stroke-linejoin="round" stroke-width="2"/><path d="M75.36,512.94c-2.24,6.16-4.43,12.34-6.75,18.47-.73,1.92-1.58,3.79-2.13,5.77" fill="none" stroke="#000" stroke-linecap="round" stroke-linejoin="round" stroke-width="2"/><path d="M674.64,159.66c-2.5,7.93-4.35,16-6.72,24" fill="none" stroke="#000" stroke-linecap="round" stroke-linejoin="round" stroke-width="2"/><path d="M513.36,471.42c-7.7,4.85-15.7,9.27-22.55,15.37-.48.43-1,.11-1.45.23" fill="none" stroke="#000" stroke-linecap="round" stroke-linejoin="round" stroke-width="2"/><path d="M818.64,79.5l-7.68,24" fill="none" stroke="#000" stroke-linecap="round" stroke-linejoin="round" stroke-width="2"/><path d="M896.4,226.14l-18.24,23.28" fill="none" stroke="#000" stroke-linecap="round" stroke-linejoin="round" stroke-width="2"/><path d="M761,361.26c-.56,4.62-2.28,9-3.38,13.44-.87,3.54-1.9,7-2.86,10.56" fill="none" stroke="#000" stroke-linecap="round" stroke-linejoin="round" stroke-width="2"/><path d="M339.6,471.18c-1.58,3.24-4.1,5.8-6.24,8.64-2.55,3.38-4.72,6.89-5.08,11.28-.1,1.28-1.73,2.38-.44,3.84" fill="none" stroke="#000" stroke-linecap="round" stroke-linejoin="round" stroke-width="2"/><path d="M535.44,472.62c-.66,2.87-2.68,5-4.09,7.43-3,5.26-6.54,10.22-9.41,15.57-.55,1-1.19,2.43-2.82,2.43" fill="none" stroke="#000" stroke-linecap="round" stroke-linejoin="round" stroke-width="2"/><path d="M922.08,523.38c-2.22,4.94-5.15,9.57-6.27,15-.77,3.72.2,4.85,4.11,4.33" fill="none" stroke="#000" stroke-linecap="round" stroke-linejoin="round" stroke-width="2"/><path d="M793.2,71.34c-2.7,3-3.56,7-5,10.58-1.67,4.21-3.46,8.25-7.48,10.78" fill="none" stroke="#000" stroke-linecap="round" stroke-linejoin="round" stroke-width="2"/><path d="M391.92,527.82c-1.41,5.83-3,11.61-4.11,17.52-.37,2-.5,2,1.74,3.29,2.52-2.6,4.74-5.55,7.18-8.31s4.49-5.71,7.19-8.17" fill="none" stroke="#000" stroke-linecap="round" stroke-linejoin="round" stroke-width="2"/><path d="M806.64,75.66l-16.32,21.6" fill="none" stroke="#000" stroke-linecap="round" stroke-linejoin="round" stroke-width="2"/><path d="M802.8,376.14c-2.15,3.89-3.28,8.19-5,12.25-1.31,3.07-2.42,6.23-3.62,9.35" fill="none" stroke="#000" stroke-linecap="round" stroke-linejoin="round" stroke-width="2"/><path d="M645.12,529.5c-2.43,7-4.25,14.26-6.48,21.36" fill="none" stroke="#000" stroke-linecap="round" stroke-linejoin="round" stroke-width="2"/><path d="M660.48,150.06l-12,21.12" fill="none" stroke="#000" stroke-linecap="round" stroke-linejoin="round" stroke-width="2"/><path d="M1111.92,154.86c-2.16,6.4-4.33,12.8-6.46,19.21a4.77,4.77,0,0,0,0,1.43" fill="none" stroke="#000" stroke-linecap="round" stroke-linejoin="round" stroke-width="2"/><path d="M153.12,495.54c-3.28,6.08-6.56,12.16-9.63,18.35a3.88,3.88,0,0,0-.69,1.93" fill="none" stroke="#000" stroke-linecap="round" stroke-linejoin="round" stroke-width="2"/><path d="M78,501.42a26.37,26.37,0,0,0-.75,3.36c0,.57-.32,1.58-.58,1.61-2.63.29-1.6,2.27-1.83,3.85-1.78-.34-2.66.93-3.3,2.24-3,6.11-6.75,11.82-9.64,18-.14.29-.47.49-.71.73" fill="none" stroke="#000" stroke-linecap="round" stroke-linejoin="round" stroke-width="2"/><path d="M692.88,522.06c-3.63,6.66-7.22,13.34-10.56,20.16" fill="none" stroke="#000" stroke-linecap="round" stroke-linejoin="round" stroke-width="2"/><path d="M716.88,307c-.4,3.52-.79,7-1.2,10.56-.38,3.2-.8,6.4-1.2,9.6" fill="none" stroke="#000" stroke-linecap="round" stroke-linejoin="round" stroke-width="2"/><path d="M443.52,546.78c-3,1.71-4.54,4.75-6.7,7.22-2.81,3.21-5.43,6.57-8.21,9.8-.54.63-1,1.66-2.13,1.46" fill="none" stroke="#000" stroke-linecap="round" stroke-linejoin="round" stroke-width="2"/><path d="M776.88,79c-3.38,6.51-6.66,13.08-10.32,19.44" fill="none" stroke="#000" stroke-linecap="round" stroke-linejoin="round" stroke-width="2"/><path d="M207.6,357.66c-1.37-.77-1.66.35-2.17,1.19-2.54,4.17-5.11,8.32-7.67,12.49l-2.64,4.32" fill="none" stroke="#000" stroke-linecap="round" stroke-linejoin="round" stroke-width="2"/><path d="M495.12,520.62a2,2,0,0,1,.53,2.17c-.68,3.25-1.06,6.57-1.76,9.82-.58,2.7,1.3,4.07,2.67,5.77" fill="none" stroke="#000" stroke-linecap="round" stroke-linejoin="round" stroke-width="2"/><path d="M968.88,63.42l-12,17.52" fill="none" stroke="#000" stroke-linecap="round" stroke-linejoin="round" stroke-width="2"/><path d="M462.72,529.74c-5,4.57-9.66,9.56-14.91,13.88-1.37,1.13-2.75,2.83-5,2" fill="none" stroke="#000" stroke-linecap="round" stroke-linejoin="round" stroke-width="2"/><path d="M326.4,494.94c-2.67,2.66-3.28,6.37-4.73,9.63-1,2.22-2.53,4.31-2.47,6.93" fill="none" stroke="#000" stroke-linecap="round" stroke-linejoin="round" stroke-width="2"/><path d="M381.84,246.54l-2.4,16.32" fill="none" stroke="#000" stroke-linecap="round" stroke-linejoin="round" stroke-width="2"/><path d="M712.56,330.54c-.55,4.55-.07,9.12-.25,13.68,0,.88.26,1.8-.23,2.64" fill="none" stroke="#000" stroke-linecap="round" stroke-linejoin="round" stroke-width="2"/><path d="M482.64,62.7c-4.67,5.39-9.5,10.65-14.4,15.84" fill="none" stroke="#000" stroke-linecap="round" stroke-linejoin="round" stroke-width="2"/><path d="M493.92,470.94c-.59,4.45-2.49,8.47-4.38,12.45-.72,1.52-.14,3.12-1.06,4.63-1.43,2.34-3.65,3.94-5.12,6.19-.94,1.45-2.4,2.62-2.4,4.56L477.6,500" fill="none" stroke="#000" stroke-linecap="round" stroke-linejoin="round" stroke-width="2"/><path d="M352.56,234.06c-2.31,5.22-4,10.68-6.48,15.84" fill="none" stroke="#000" stroke-linecap="round" stroke-linejoin="round" stroke-width="2"/><path d="M608.4,298.86c-1,5.25-1.63,10.56-2.4,15.84" fill="none" stroke="#000" stroke-linecap="round" stroke-linejoin="round" stroke-width="2"/><path d="M581.76,528.18c-1.28,4.76-2.59,9.51-3.8,14.29a3.12,3.12,0,0,1-.76,1.19" fill="none" stroke="#000" stroke-linecap="round" stroke-linejoin="round" stroke-width="2"/><path d="M1066.8,134.22c-.85,5-1.76,10-2.18,15.12,0,.17-.3.32-.46.48" fill="none" stroke="#000" stroke-linecap="round" stroke-linejoin="round" stroke-width="2"/><path d="M666.48,156.06l-8.16,15.6" fill="none" stroke="#000" stroke-linecap="round" stroke-linejoin="round" stroke-width="2"/><path d="M1091.76,452.46a1.74,1.74,0,0,1-.44,1.24c-4.41,4.56-9.18,8.74-13.72,13.16" fill="none" stroke="#000" stroke-linecap="round" stroke-linejoin="round" stroke-width="2"/><path d="M752.16,322.14c-3,4.88-5.34,10.13-8.16,15.12" fill="none" stroke="#000" stroke-linecap="round" stroke-linejoin="round" stroke-width="2"/><path d="M1084.32,129.9c.37,2.62-1.23,4.77-1.74,7.19-.55,2.61-1.54,5.13-2.34,7.69" fill="none" stroke="#000" stroke-linecap="round" stroke-linejoin="round" stroke-width="2"/><path d="M1120.56,196.62c0,3.43-1,6.71-1.44,10.08a34.66,34.66,0,0,0-.72,4.8" fill="none" stroke="#000" stroke-linecap="round" stroke-linejoin="round" stroke-width="2"/><path d="M849.84,468.54c-3.9,4.26-7.83,8.51-11.56,12.92a2,2,0,0,0-.44,1.24" fill="none" stroke="#000" stroke-linecap="round" stroke-linejoin="round" stroke-width="2"/><path d="M314.88,519.66c-.56,3.68-1,7.38-1.75,11-.23,1.12.3,2.41-.65,3.37" fill="none" stroke="#000" stroke-linecap="round" stroke-linejoin="round" stroke-width="2"/><path d="M358.32,232.62l-6.24,13.92" fill="none" stroke="#000" stroke-linecap="round" stroke-linejoin="round" stroke-width="2"/><path d="M1087.44,476.94l-8.4,13.68" fill="none" stroke="#000" stroke-linecap="round" stroke-linejoin="round" stroke-width="2"/><path d="M835.92,485.58c-3.35,4.57-6.91,9-10.08,13.68" fill="none" stroke="#000" stroke-linecap="round" stroke-linejoin="round" stroke-width="2"/><path d="M725.28,281.94c-1.53,4.41-2.6,9-4.32,13.32" fill="none" stroke="#000" stroke-linecap="round" stroke-linejoin="round" stroke-width="2"/><path d="M612.72,283a113,113,0,0,0-2.4,13" fill="none" stroke="#000" stroke-linecap="round" stroke-linejoin="round" stroke-width="2"/><path d="M156.48,516.3c0,2.76-1.38,5.14-2.22,7.66-.59,1.77-1.19,3.55-1.86,5.3" fill="none" stroke="#000" stroke-linecap="round" stroke-linejoin="round" stroke-width="2"/><path d="M270,487.5c-2.15,3.91-5,7.35-7.41,11.06-.36.54-1.06,1.06-.75,1.9" fill="none" stroke="#000" stroke-linecap="round" stroke-linejoin="round" stroke-width="2"/><path d="M418.8,468.78c-1.41,3.42-3.33,6.57-5,9.84-.45.86-.81,1.76-1.21,2.64" fill="none" stroke="#000" stroke-linecap="round" stroke-linejoin="round" stroke-width="2"/><path d="M165.6,549.42l-8.88,12.48" fill="none" stroke="#000" stroke-linecap="round" stroke-linejoin="round" stroke-width="2"/><path d="M897.84,549.9a35.06,35.06,0,0,1-6,4.1c-2.1,1.11-4.07,1.22-6-.26" fill="none" stroke="#000" stroke-linecap="round" stroke-linejoin="round" stroke-width="2"/><path d="M532.32,525.3c-.72,2.6-2.06,5.21-2,7.8.06,5-1.94,9.55-2.29,14.4" fill="none" stroke="#000" stroke-linecap="round" stroke-linejoin="round" stroke-width="2"/><path d="M82.56,543.66c-3.49,3.86-6.4,8.27-10.56,11.52" fill="none" stroke="#000" stroke-linecap="round" stroke-linejoin="round" stroke-width="2"/><path d="M512.88,501.18c-5.92,5.45-11.07,11.64-16.75,17.33-1.75,1.75-3.34,3.69-5.09,5.47" fill="none" stroke="#000" stroke-linecap="round" stroke-linejoin="round" stroke-width="2"/><path d="M96.24,477.66a4.87,4.87,0,0,0-1.64,2.66,62.38,62.38,0,0,1-9.18,15.09c-1,1.32-2.85,1.89-3.47,3.61" fill="none" stroke="#000" stroke-linecap="round" stroke-linejoin="round" stroke-width="2"/><path d="M488.16,65.34c-2.8,3.2-5.58,6.42-8.42,9.59a9.66,9.66,0,0,0-1.42,2.17" fill="none" stroke="#000" stroke-linecap="round" stroke-linejoin="round" stroke-width="2"/><path d="M543.36,458.22q-2.82,5.85-6,11.52" fill="none" stroke="#000" stroke-linecap="round" stroke-linejoin="round" stroke-width="2"/><path d="M1111.68,438.3l-8.16,11.52" fill="none" stroke="#000" stroke-linecap="round" stroke-linejoin="round" stroke-width="2"/><path d="M340.8,504.3c0,2.6-1.76,4.58-2.43,7-.43,1.53-1.83,2.77-1.41,4.57" fill="none" stroke="#000" stroke-linecap="round" stroke-linejoin="round" stroke-width="2"/><path d="M593.52,526.38c-2.67,3.88-5.28,7.8-8.16,11.52" fill="none" stroke="#000" stroke-linecap="round" stroke-linejoin="round" stroke-width="2"/><path d="M741.84,341.58l-4.08,11.28" fill="none" stroke="#000" stroke-linecap="round" stroke-linejoin="round" stroke-width="2"/><path d="M586.08,513.42c-.34,2.32-.39,4.66-.9,7a8.9,8.9,0,0,0,.18,4.31" fill="none" stroke="#000" stroke-linecap="round" stroke-linejoin="round" stroke-width="2"/><path d="M1095.6,463c-2,3.2-4,6.38-6,9.62-.36.6-.79.4-1.23.46" fill="none" stroke="#000" stroke-linecap="round" stroke-linejoin="round" stroke-width="2"/><path d="M142.08,536.94c-3.37,3.76-7.44,6.79-10.8,10.56" fill="none" stroke="#000" stroke-linecap="round" stroke-linejoin="round" stroke-width="2"/><path d="M150.48,532.62l-1.44,11" fill="none" stroke="#000" stroke-linecap="round" stroke-linejoin="round" stroke-width="2"/><path d="M503.76,459.42l-7,10.32" fill="none" stroke="#000" stroke-linecap="round" stroke-linejoin="round" stroke-width="2"/><path d="M1049,509.58l-4.08,9.84" fill="none" stroke="#000" stroke-linecap="round" stroke-linejoin="round" stroke-width="2"/><path d="M679.2,504.54l-4.32,9.6" fill="none" stroke="#000" stroke-linecap="round" stroke-linejoin="round" stroke-width="2"/><path d="M40.32,496.14c.06,2.54-1.22,4.77-1.7,7.2a10.27,10.27,0,0,0-.46,2.4" fill="none" stroke="#000" stroke-linecap="round" stroke-linejoin="round" stroke-width="2"/><path d="M630.72,250.38,622.8,260" fill="none" stroke="#000" stroke-linecap="round" stroke-linejoin="round" stroke-width="2"/><path d="M767.52,348.06c-1.75,3.06-2.65,6.5-4.32,9.6" fill="none" stroke="#000" stroke-linecap="round" stroke-linejoin="round" stroke-width="2"/><path d="M1158.72,472.86a37.65,37.65,0,0,0-1.87,7.93c-.1.56-.47.92-.53,1.43" fill="none" stroke="#000" stroke-linecap="round" stroke-linejoin="round" stroke-width="2"/><path d="M721.68,358.38a15,15,0,0,0,1.28,3.86,28.86,28.86,0,0,0,5-1.46" fill="none" stroke="#000" stroke-linecap="round" stroke-linejoin="round" stroke-width="2"/><path d="M1130.4,212a36.58,36.58,0,0,0,1.92,8.88" fill="none" stroke="#000" stroke-linecap="round" stroke-linejoin="round" stroke-width="2"/><path d="M1099,106.38c.15,1.07-.64,1.68-1.2,2.4L1093,115" fill="none" stroke="#000" stroke-linecap="round" stroke-linejoin="round" stroke-width="2"/><path d="M100.32,469c-.89,2.93-2.54,5.54-3.6,8.4" fill="none" stroke="#000" stroke-linecap="round" stroke-linejoin="round" stroke-width="2"/><path d="M423.84,556.62l2.52,9.84" fill="none" stroke="#000" stroke-linecap="round" stroke-linejoin="round" stroke-width="2"/><path d="M593,94.86c-2.82,2.54-5.76,4.95-8.4,7.68" fill="none" stroke="#000" stroke-linecap="round" stroke-linejoin="round" stroke-width="2"/><path d="M1135.2,163.74c-1.12,2.16-2.14,4.38-3.42,6.45a4.21,4.21,0,0,0-.42,2" fill="none" stroke="#000" stroke-linecap="round" stroke-linejoin="round" stroke-width="2"/><path d="M94.8,544.62c.15,1.07-.61,1.7-1.2,2.4-1.67,1.93-3.36,3.84-5,5.76" fill="none" stroke="#000" stroke-linecap="round" stroke-linejoin="round" stroke-width="2"/><path d="M425,457.26l-4.32,8.16" fill="none" stroke="#000" stroke-linecap="round" stroke-linejoin="round" stroke-width="2"/><path d="M334.8,520.62l-4.32,8.16" fill="none" stroke="#000" stroke-linecap="round" stroke-linejoin="round" stroke-width="2"/><path d="M50.64,481.26c-2,2.81-4.38,5.27-6.24,8.16" fill="none" stroke="#000" stroke-linecap="round" stroke-linejoin="round" stroke-width="2"/><path d="M1252.56,527.82c-2.93,2.42-5.42,5.3-8.16,7.92" fill="none" stroke="#000" stroke-linecap="round" stroke-linejoin="round" stroke-width="2"/><path d="M527.76,552.3a11,11,0,0,1-.18,5.54,3.4,3.4,0,0,0,.18,2.62" fill="none" stroke="#000" stroke-linecap="round" stroke-linejoin="round" stroke-width="2"/><path d="M396.72,492.3c-2.93,2.42-5.42,5.3-8.16,7.92" fill="none" stroke="#000" stroke-linecap="round" stroke-linejoin="round" stroke-width="2"/><path d="M175.2,466.38c-2.62,2.58-5.13,5.27-7.92,7.68" fill="none" stroke="#000" stroke-linecap="round" stroke-linejoin="round" stroke-width="2"/><path d="M844.56,256.14c-.49,2.63-.12,5.28-.24,7.92" fill="none" stroke="#000" stroke-linecap="round" stroke-linejoin="round" stroke-width="2"/><path d="M662.64,541.26l-2.16,7.92" fill="none" stroke="#000" stroke-linecap="round" stroke-linejoin="round" stroke-width="2"/><path d="M1124.88,185.1c-.64,2.58-1.27,5.17-2.16,7.68" fill="none" stroke="#000" stroke-linecap="round" stroke-linejoin="round" stroke-width="2"/><path d="M462.48,62.94c-2.37,2.61-5.35,4.55-7.68,7.2" fill="none" stroke="#000" stroke-linecap="round" stroke-linejoin="round" stroke-width="2"/><path d="M136.56,528.78c-.64,2.58-1.27,5.17-2.16,7.68" fill="none" stroke="#000" stroke-linecap="round" stroke-linejoin="round" stroke-width="2"/><path d="M165.36,477.42a56.51,56.51,0,0,1-6.24,8.16" fill="none" stroke="#000" stroke-linecap="round" stroke-linejoin="round" stroke-width="2"/><path d="M569.28,559.74l-2.16,7.44" fill="none" stroke="#000" stroke-linecap="round" stroke-linejoin="round" stroke-width="2"/><path d="M718.32,519.18l-4.08,7.44" fill="none" stroke="#000" stroke-linecap="round" stroke-linejoin="round" stroke-width="2"/><path d="M1039,129.9c-2.5,1.4-4.66,3.4-7.44,4.32" fill="none" stroke="#000" stroke-linecap="round" stroke-linejoin="round" stroke-width="2"/><path d="M243.36,535.26l-2.16,7.44" fill="none" stroke="#000" stroke-linecap="round" stroke-linejoin="round" stroke-width="2"/><path d="M463.92,472.38l-6.72,7.44" fill="none" stroke="#000" stroke-linecap="round" stroke-linejoin="round" stroke-width="2"/><path d="M352.08,527.58l-5.76,7.2" fill="none" stroke="#000" stroke-linecap="round" stroke-linejoin="round" stroke-width="2"/><path d="M581.52,254.7l-5.28,7.2" fill="none" stroke="#000" stroke-linecap="round" stroke-linejoin="round" stroke-width="2"/><path d="M472.56,557.1a6.7,6.7,0,0,0-1.93,1.91c-1.83,2.42-2.27,2.4-4.31,0" fill="none" stroke="#000" stroke-linecap="round" stroke-linejoin="round" stroke-width="2"/><path d="M1058.16,496.14a1.38,1.38,0,0,0-1.48.7c-1.08,1.75-2.36,3.38-3.56,5.06" fill="none" stroke="#000" stroke-linecap="round" stroke-linejoin="round" stroke-width="2"/><path d="M282.48,547.5c-2.21.66-4.34,1.69-6.72,1.68" fill="none" stroke="#000" stroke-linecap="round" stroke-linejoin="round" stroke-width="2"/><path d="M1038.48,533.1c-.22,2-1.31,3.78-1.69,5.76-.14.72-.76.41-1.19.48" fill="none" stroke="#000" stroke-linecap="round" stroke-linejoin="round" stroke-width="2"/><path d="M592.32,498.78c-.81,2.13-2,4.12-2.16,6.48" fill="none" stroke="#000" stroke-linecap="round" stroke-linejoin="round" stroke-width="2"/><path d="M908.16,529c-.87,2.09-1.88,4.14-1.92,6.48" fill="none" stroke="#000" stroke-linecap="round" stroke-linejoin="round" stroke-width="2"/><path d="M1228.8,523.74c-.73,2.13-2.18,4.05-1.92,6.48" fill="none" stroke="#000" stroke-linecap="round" stroke-linejoin="round" stroke-width="2"/><path d="M649.2,519.18c-.89,2-1,4.39-2.4,6.24" fill="none" stroke="#000" stroke-linecap="round" stroke-linejoin="round" stroke-width="2"/><path d="M1101.84,453.42a52.18,52.18,0,0,0-4.32,6.24" fill="none" stroke="#000" stroke-linecap="round" stroke-linejoin="round" stroke-width="2"/><path d="M731.76,265.74l-2.4,6.24" fill="none" stroke="#000" stroke-linecap="round" stroke-linejoin="round" stroke-width="2"/><path d="M668.88,525.42c-.82,2.07-1.12,4.35-2.4,6.24" fill="none" stroke="#000" stroke-linecap="round" stroke-linejoin="round" stroke-width="2"/><path d="M699.12,512.46c-1.93,1.69-2.75,4.22-4.56,6" fill="none" stroke="#000" stroke-linecap="round" stroke-linejoin="round" stroke-width="2"/><path d="M475.44,503.82c-1.55,2.39-4.12,3.71-6,5.76" fill="none" stroke="#000" stroke-linecap="round" stroke-linejoin="round" stroke-width="2"/><path d="M748.56,503.34c-1.46,2.07-2.68,4.3-4.32,6.24" fill="none" stroke="#000" stroke-linecap="round" stroke-linejoin="round" stroke-width="2"/><path d="M438.48,469.74c-1.51,1.87-2.52,4.11-4.32,5.76" fill="none" stroke="#000" stroke-linecap="round" stroke-linejoin="round" stroke-width="2"/><path d="M492,83.22l-2.16,5.88" fill="none" stroke="#000" stroke-linecap="round" stroke-linejoin="round" stroke-width="2"/><path d="M383,473.1c-.38-.28-.64-1-1.19-.7-1.54.86-3.42,1-4.81,2.14" fill="none" stroke="#000" stroke-linecap="round" stroke-linejoin="round" stroke-width="2"/><path d="M736.8,487.86l-4.08,5.88" fill="none" stroke="#000" stroke-linecap="round" stroke-linejoin="round" stroke-width="2"/><path d="M734.16,528.78l-2.16,6" fill="none" stroke="#000" stroke-linecap="round" stroke-linejoin="round" stroke-width="2"/><path d="M572.16,128.34,570,134.22" fill="none" stroke="#000" stroke-linecap="round" stroke-linejoin="round" stroke-width="2"/><path d="M936.48,486.06l-6,5.76" fill="none" stroke="#000" stroke-linecap="round" stroke-linejoin="round" stroke-width="2"/><path d="M704.88,502.86c-1.45,1.91-2.58,4.07-4.32,5.76" fill="none" stroke="#000" stroke-linecap="round" stroke-linejoin="round" stroke-width="2"/><path d="M1042.8,523.5c-.44,2.14-1.84,4-1.92,6.24" fill="none" stroke="#000" stroke-linecap="round" stroke-linejoin="round" stroke-width="2"/><path d="M439,539.1l-6.24,5.52" fill="none" stroke="#000" stroke-linecap="round" stroke-linejoin="round" stroke-width="2"/><path d="M686.64,345.9a21.93,21.93,0,0,1-5.3,2.83,1.88,1.88,0,0,0-1.42,2" fill="none" stroke="#000" stroke-linecap="round" stroke-linejoin="round" stroke-width="2"/><path d="M709.92,534.78a25.65,25.65,0,0,1-1.92,5.76" fill="none" stroke="#000" stroke-linecap="round" stroke-linejoin="round" stroke-width="2"/><path d="M1239.12,501.9l-2.16,5.76" fill="none" stroke="#000" stroke-linecap="round" stroke-linejoin="round" stroke-width="2"/><path d="M712.8,489.42a65.07,65.07,0,0,1-3.84,5.52" fill="none" stroke="#000" stroke-linecap="round" stroke-linejoin="round" stroke-width="2"/><path d="M995.52,513.18l-2.16,5.52" fill="none" stroke="#000" stroke-linecap="round" stroke-linejoin="round" stroke-width="2"/><path d="M728.4,501.66l-3.84,5.52" fill="none" stroke="#000" stroke-linecap="round" stroke-linejoin="round" stroke-width="2"/><path d="M725.76,549.18a43.19,43.19,0,0,0-2.16,5.52" fill="none" stroke="#000" stroke-linecap="round" stroke-linejoin="round" stroke-width="2"/><path d="M678.24,550.14l-2.16,5.52" fill="none" stroke="#000" stroke-linecap="round" stroke-linejoin="round" stroke-width="2"/><path d="M576.48,118.62c-1.27,1.63-1.35,3.72-2.16,5.52" fill="none" stroke="#000" stroke-linecap="round" stroke-linejoin="round" stroke-width="2"/><path d="M461,521.82c-1.72,1-2.65,3.14-4.8,3.6" fill="none" stroke="#000" stroke-linecap="round" stroke-linejoin="round" stroke-width="2"/><path d="M650.16,476.94c.34.93-.52,1.2-1,1.67-1,1.06-2.07,2.09-3.11,3.13" fill="none" stroke="#000" stroke-linecap="round" stroke-linejoin="round" stroke-width="2"/><path d="M920.16,507.66c-1.42,1.66-2.25,3.74-3.84,5.28" fill="none" stroke="#000" stroke-linecap="round" stroke-linejoin="round" stroke-width="2"/><path d="M584.4,541.74c-1.69-.12-3.11,1.08-4.8,1" fill="none" stroke="#000" stroke-linecap="round" stroke-linejoin="round" stroke-width="2"/><path d="M345.84,463.5c-1.13,1.75-3.32,2.44-4.32,4.32" fill="none" stroke="#000" stroke-linecap="round" stroke-linejoin="round" stroke-width="2"/><path d="M449.52,505.5c-1.36.8-2.76,1.55-4.07,2.42-.74.49-1.15-.09-1.69-.26" fill="none" stroke="#000" stroke-linecap="round" stroke-linejoin="round" stroke-width="2"/><path d="M1242.48,539.34a25,25,0,0,0-4.32,4.32" fill="none" stroke="#000" stroke-linecap="round" stroke-linejoin="round" stroke-width="2"/><path d="M1052.4,541.26c-.83,1.42-1.25,3.08-2.4,4.32" fill="none" stroke="#000" stroke-linecap="round" stroke-linejoin="round" stroke-width="2"/><path d="M374.64,517.74l-4.8,3.84" fill="none" stroke="#000" stroke-linecap="round" stroke-linejoin="round" stroke-width="2"/><path d="M764.88,385.26c-1.39,1.43-3.81,1.24-4.92,3.12" fill="none" stroke="#000" stroke-linecap="round" stroke-linejoin="round" stroke-width="2"/><path d="M1120.08,424.14c-.75,1.27-1.12,2.74-2.16,3.84" fill="none" stroke="#000" stroke-linecap="round" stroke-linejoin="round" stroke-width="2"/><path d="M427,548.94a1.82,1.82,0,0,0-2.15.25c-.8.59-1.5,1.37-2.65,1.19" fill="none" stroke="#000" stroke-linecap="round" stroke-linejoin="round" stroke-width="2"/><path d="M584.4,524.94c1.5-.12,2.16.4,1.43,1.92-.36.74-.79,1.44-1.19,2.16" fill="none" stroke="#000" stroke-linecap="round" stroke-linejoin="round" stroke-width="2"/><path d="M1088.4,123.42l-1.92,3.6" fill="none" stroke="#000" stroke-linecap="round" stroke-linejoin="round" stroke-width="2"/><path d="M821.28,507.42,819.6,511" fill="none" stroke="#000" stroke-linecap="round" stroke-linejoin="round" stroke-width="2"/></svg>