<?xml version="1.0" encoding="utf-8"?>
<!-- Generator: Adobe Illustrator 21.0.2, SVG Export Plug-In . SVG Version: 6.00 Build 0)  -->
<svg version="1.1" id="Layer_1" xmlns="http://www.w3.org/2000/svg" xmlns:xlink="http://www.w3.org/1999/xlink" x="0px" y="0px"
	 viewBox="0 0 922.5 960" style="enable-background:new 0 0 922.5 960;" xml:space="preserve">
<style type="text/css">
	.st0{fill:none;stroke:#1C1C1C;stroke-width:4;stroke-linecap:round;stroke-linejoin:round;}
</style>
<title>sun</title>
<path class="st0" d="M864.2,501.1c-4.9-10.5-15.4-10.7-24.3-11.9c-19.4-2.6-37.7-9.3-56.1-14.8c-22.7-6.8-43.4-19.1-66.6-25.5
	c-16.3-4.5-23.3-20.2-29.3-34.3c-16-37.7-36.8-71-70.3-96.3c-21-15.9-42.1-31.8-64.6-45.2c-26.6-15.9-56.8-22.5-88-22.2
	c-14.5,0.2-29-0.8-43.5,1.1c-18.3,2.4-35.4,7.8-49.8,19.4c-12.7,10.2-25,21-37.1,32c-9,8.2-18,16-30.8,18c-7.6,1.2-14.3,5.9-18,12.6
	c-7.8,13.3-16.6,26.3-21.5,41c-3.7,11.2-9.3,21.6-16.7,30.8c-15.7,19.7-20.3,43.3-25,67.6c-7.4,38.5,8.4,69.5,27.5,99.8
	c9.2,14.6,16.1,30.4,25,45.1c14.6,23.9,37.9,35.5,60.6,48.4c14.4,8.2,30.1,14.8,43.2,24.7c18.2,13.9,40.1,22.1,63,23.5
	c27.2,1.8,54.5,6.3,81.9,0.6c39-8.1,73.6-23.5,98.6-56.3c11.6-15.2,24.3-29.5,36.1-44.6c15.6-20,23.2-42.7,27.6-66.8
	c1.4-8,4-15.5,6.8-22.9c9.4-25.2,11-50.8,4.7-76.8c-1-4.3-0.7-7.1,1.5-10.3"/>
<path class="st0" d="M235.8,915.1c10.5-18.3,18.7-37.8,25.4-57.7c14.5-43,30-85.7,38.8-130.4c1.6-8,6.8-15.2,8.5-23.1
	c3.5-16-8.6-27-24-21.5c-32,11.5-65.9,12.7-98.6,20.1c-3.5,0.8-8.4,2-11.9-3c4.7-7.4,10.4-14.1,16.9-20c17-15.7,34.4-31.4,41-54.9
	c1.4-5,2.6-10.2,2.5-15.3c-0.2-8.5-2.6-14.9-13.9-14.3c-32.4,1.9-62.2-11.4-93.4-16.2c-17.3-2.7-35-2.1-52.4-4.3
	c-19.8-2.5-39.8-4.7-58.9-11.3"/>
<path class="st0" d="M637.6,149.8c-4.3,21.8-15,41.7-18.1,64c-2.8,19.6-4.9,39.1-2.4,58.9c0.4,4.3,0.4,8.5,0,12.8
	c-1.2,17.8,7.3,22.4,20.2,17.1c23.4-9.6,48.8-8,72-17c17.5-6.8,33.3-17,50.9-23.7c14.4-5.4,29.3-7,43.8-10.6
	c12.5-3.1,20.7-11.8,30.6-18.4c11.5-7.7,21-18.7,35.9-20.4c3.9-0.5,2.2-4,2.6-6.3"/>
<path class="st0" d="M416.2,9c5.7,4.7,5.7,12.5,5.8,17.9c0.8,27.9,12.6,52.5,21,78.1c12.2,37,26.6,73,44.8,107.5
	c1.1,2.2,2.4,4.3,3.8,6.4c9.9,14.1,17.3,16.1,31.9,7.6c5.8-3.4,11.4-7.3,16.7-11.5c20.2-15.8,40.4-31.6,64-42.2
	c7-3.2,12.6-8.6,17.9-14c3.5-3.6,7-7.3,12.8-6.4"/>
<path class="st0" d="M868,500.4c-30.3,9.2-61.2,16.4-92.1,23.1c-18.1,4-35.6,10.2-51.1,20.5c-10.5,7-11,12.6-1.2,18.9
	c27,17.5,53.4,36.6,82.1,50.7c27,13.2,50.5,29.4,70.1,51.8c7.9,9,19.7,12.6,29.4,19.2c2.9,2,7.3,2.6,6.2,8.6
	c-8.8,4.4-18.8,1.8-26.5-1.3c-45.8-18.8-94.2-27.7-142.2-37.8c-19.5-4.1-39.2-7.2-58.9-10.3c-9.2-1.5-15.4,7.2-11.4,16.5
	c4.5,10.5,9.6,20.7,15.3,30.7c8.7,15.2,13.1,31.9,16.2,48.8c1.5,8.4,10,14.7,6.8,24.2"/>
<path class="st0" d="M715.7,769.2c-31.4-16.6-54.3-45.3-86.9-60.4c-18.7-8.7-28.4-5.9-27.8,14.3c1.2,39.7-2,79.3-0.6,119.1
	c1.2,33.5,7.5,65.7,11.6,98.5c0.3,2.6-0.3,4.1-4.2,10.9c-11.9-9-16-22.6-21.3-35.3c-4.7-11.3-8.9-22.9-12.8-34.5
	c-5.1-15.4-12.8-29.7-22.9-42.4c-13.9-17.5-20.3-39.3-31-58.7c-5-9-9.8-18.2-15.4-26.8c-7.5-11.5-13-11.5-17.5,1.3
	c-10.6,29.8-29,56.2-37.4,86.9c-1.3,5.3-4.3,9.9-8.4,13.4c-7-7.6-4.4-17.7-6.9-26.2c-6.7-22.5-9.5-46.1-19-67.9
	c-2.3-5.4-6-10.1-10.6-13.8c-5.4-4.5-11.8-6.4-17.8-0.2c-2.5,2.6-5.2,5-7.7,7.7c-28.5,31.9-57.5,63.1-82.5,98.1
	c-13,18.2-25.8,37.7-45.5,50.3c-1.8,1.2-3.5,4.3-6.4,1.3"/>
<path class="st0" d="M45.1,229.1c14.9,14.5,30.1,28.8,44.7,43.6c18.3,18.4,41,32.1,56.5,53.6c6.7,9.3,16.8,15.3,26.8,20.5
	c14.1,7.3,26.9,16.4,39.5,25.8c4.1,3.1,8.9,6.1,7.8,12.7c-1.2,7.4-7.3,9.1-12.9,10.1c-18.6,3.1-37.5,3.6-56.3,1.7
	c-22.6-2.1-45.4-3.8-67.8,1.5c-0.4,4.7,2.5,6.2,4.9,8.6c25.5,24.9,56,41.4,88.5,54.8c11.9,4.9,24.1,11.2,24.9,24.5
	c0.7,12.9-13.1,17.6-22.3,24.3c-14.5,10.7-32.2,11.1-48.7,15.3c-32.8,8.3-65.6,16.5-98.6,24.2c-9.8,2.3-16.5,8.9-24.3,14.2"/>
<path class="st0" d="M413.7,9c-8.5,13.8-6.5,29.8-8.6,44.8c-4.9,34.9-6.2,70.3-14.1,105c-4.2,18.4-5,37.5-8.1,56.2
	c-3.1,19-13,25.1-29.1,16.3c-15.5-8.4-30.9-17.7-42.4-31.7c-10.6-12.9-23.2-24.1-37.2-33.2"/>
<path class="st0" d="M271.6,162.6c3.3,30.6,19.1,57,28.3,85.7c4.2,13.1,3.5,26.5,3.7,42.7c-3,5.6-11,4.8-17.9,3.3
	c-23.7-5.4-47.2-12-70.6-18.2c-45.5-12-89.9-27.4-135.3-39.8c-15.4-4.2-31.9-6.7-46.2-14.8"/>
<path class="st0" d="M869.3,215c0.4,1.3,1.6,3.1,1.2,3.8c-22.3,29.5-44.6,58.9-73.9,82.2c-9.6,7.6-17.4,17.6-25.7,26.7
	c-17.1,18.7-32.8,38.7-50.9,56.6c-10.8,10.6-16.1,25.5-22,39.4"/>
</svg>
