<svg id="Layer_1" data-name="Layer 1" xmlns="http://www.w3.org/2000/svg" viewBox="0 0 555.91 560.34"><title>sun_1-01</title><path d="M391.55,406.1c4.74,6.78,7.23,14.39,8.52,22.5,1.81,11.45.81,22.72-1.44,34-1.26,6.31-4.53,11.36-8.61,16-11.81,13.29-21.53,28.07-30.87,43.09A67.28,67.28,0,0,0,349,549.09c-.16,1.33-1.22,2.55-2.13,4.35-4-4.6-6.2-9.12-6.79-14.34-1.41-12.54-2.51-25.11,1-37.49,2.67-9.38,5.47-18.73,8.51-28,4.43-13.54,3.28-25.8-7-36.58-2.94-3.09-5.07-6.94-7.57-10.44" transform="translate(3.94 4.4)" fill="none" stroke="#000" stroke-linecap="round" stroke-linejoin="round" stroke-width="5"/><path d="M423.55,340.6c18.66.73,38.82,11.2,45.64,31.45,6.34,18.83,20.59,31,37.4,40.48a33.19,33.19,0,0,0,13.9,4.12c-4.85-10.28-9.78-19.76-13.76-29.62-1.85-4.59-2.11-9.9-2.62-14.94-1.17-11.48-1.51-23.08-3.21-34.47-1.74-11.66-4.45-23.21-15.3-30.59a24.3,24.3,0,0,1-6.46-6.49c-4.35-6.58-10.82-9.26-18.09-10.39-6.12-1-12.32-1.39-18.49-2.06" transform="translate(3.94 4.4)" fill="none" stroke="#000" stroke-linecap="round" stroke-linejoin="round" stroke-width="5"/><path d="M123.55,201.1c-9.78-1-17.87-5.77-24.89-12.12-4.15-3.75-5.44-9.36-6.68-14.86C88,156.6,76.74,144.82,61.59,136c-7.26-4.21-14.33-8.6-23.25-9.22,3.32,8.3,6.66,16.24,9.68,24.3a110,110,0,0,1,7,40.49c-.11,7.2.39,14.28,3.11,21,1.68,4.13,3.37,8.46,6,11.95,9.71,12.66,19.62,25.16,34.36,32.65,5.39,2.73,10.28,6.42,15.58,9.35,1.87,1,4.29,1.09,6.45,1.59" transform="translate(3.94 4.4)" fill="none" stroke="#000" stroke-linecap="round" stroke-linejoin="round" stroke-width="5"/><path d="M333,430.1c.29,14.68,3,29.46-1.07,44a42.07,42.07,0,0,1-12.26,19.71c-9.39,8.9-21.73,12.15-32.12,18.9-14.6,9.5-30.51,17.64-40.6,32.88-1.28,1.94-2.65,3.81-4.25,6.1-4.44-6.57-1.61-12.43-1.66-18.1a133,133,0,0,1,1-14.5c.72-7.11,5.54-12.14,9.55-17.44,3.26-4.31,7.21-8.1,10.92-12.06,12.9-13.73,18.88-29.59,15-48.51a10.14,10.14,0,0,1,0-2" transform="translate(3.94 4.4)" fill="none" stroke="#000" stroke-linecap="round" stroke-linejoin="round" stroke-width="5"/><path d="M445,286.6c3.5-1.67,7-3.35,10.5-5,7.08-3.32,14.07-2.5,21,.5C488,287,497.9,294.56,508,301.63c9.36,6.53,19.82,9.08,31,8.92a14.65,14.65,0,0,0,10.47-4.11c-12.08-9.61-23.89-18.69-31.83-32.63a155.43,155.43,0,0,0-25.93-33.41c-9.86-9.69-22.39-16.54-37.2-15.66-5.88.35-11.67,2.24-17.51,3.35-3.15.6-6.33,1-9.5,1.52" transform="translate(3.94 4.4)" fill="none" stroke="#000" stroke-linecap="round" stroke-linejoin="round" stroke-width="5"/><path d="M508.55,105.6c-3.5,0-7.1-.54-10.48.1-13,2.45-26,1.39-39-.05-5.47-.6-11-.79-16.5-1-6.2-.26-12-1.46-17-5.5-5.33-4.3-11.66-4.68-18-3.46-16.17,3.13-31.32,8.56-43,21-4.86,5.16-9,10.73-8,18.48" transform="translate(3.94 4.4)" fill="none" stroke="#000" stroke-linecap="round" stroke-linejoin="round" stroke-width="5"/><path d="M392.55,398.1c4.63,4.94,9.45,9.8,16,11.92,7.78,2.5,10.17,8.83,11.34,15.6a139.72,139.72,0,0,1,2,22.48c.09,11.41,2.48,22,9.67,31,5.07,6.34,10.69,12.24,16.06,18.34l1.73-.42c.55-1.29,2-3.13,1.52-3.79-3.31-5.13-1.36-10.74-1.85-16.09a76.31,76.31,0,0,1,6-37.49c5.06-11.86,6.24-24.35,5.93-37-.41-17.06-5.87-32.37-17-45.49A25.19,25.19,0,0,0,431.58,349c-4.44-1.3-8.69-3.26-13-4.92" transform="translate(3.94 4.4)" fill="none" stroke="#000" stroke-linecap="round" stroke-linejoin="round" stroke-width="5"/><path d="M274.55,436.1c-5.33,9.17-10.89,18.21-15.93,27.54-4.59,8.5-11.71,14.66-18.73,20.78-2.48,2.17-6.78,2.61-10.35,3.1-9.13,1.25-18.31,2.2-27.49,3-7.48.69-15,.89-22.49,1.59-5.7.53-11.68-.56-17,2.47-3.89,2.23-7.74,4.55-11.5,7-4.26,2.78-8.39,5.74-12.75,8.75l-.77-2.27" transform="translate(3.94 4.4)" fill="none" stroke="#000" stroke-linecap="round" stroke-linejoin="round" stroke-width="5"/><path d="M110.55,54.6c.5,4,1.27,8,1.44,12,.35,8.33,1.3,16.77.34,25a105.21,105.21,0,0,1-10.88,35.48c-3,6-2.65,11.77-1.52,18.07,2,11.33,7.84,21.08,12,31.51,3.78,9.43,9,17.68,16.58,24.47" transform="translate(3.94 4.4)" fill="none" stroke="#000" stroke-linecap="round" stroke-linejoin="round" stroke-width="5"/><path d="M5.55,237.6c2.17,2.17,4,4.84,6.56,6.41,9.64,5.94,15.23,14.76,18.94,25.09,1.67,4.66,3.05,9.46,5.06,14,3.78,8.5,10.68,14.37,17.3,20.68C62.74,312.68,74.72,317,85.17,324c3.05,2,7.51,2.16,11.39,2.61A178.26,178.26,0,0,0,116.05,328c3.83,0,7.67-1.21,11.5-1.87" transform="translate(3.94 4.4)" fill="none" stroke="#000" stroke-linecap="round" stroke-linejoin="round" stroke-width="5"/><path d="M213.05,9.1c-1.33,4-2.86,7.95-4,12-2.87,10.64-9.17,19.35-15.58,28C187.7,56.88,181,64,175.69,72.19c-7.78,12-10.91,25.34-9.84,39.92a110.17,110.17,0,0,0,6.59,30c1.06,2.9.68,6.31,1.15,9.45.32,2.19,1,4.34,1.47,6.51" transform="translate(3.94 4.4)" fill="none" stroke="#000" stroke-linecap="round" stroke-linejoin="round" stroke-width="5"/><path d="M418.55,36.1c-7,6.71-16,9.56-25,11.33s-18.66,2-28,3.23c-10.37,1.42-21.43,1.47-30.82,5.38A56.13,56.13,0,0,0,305.4,84c-4.11,8.51-9.63,16.34-14.76,24.89-2.17-9.17-2.29-18.15-1.75-27.32.41-7,3.33-12.68,7.22-17.94a116.19,116.19,0,0,0,18.4-36.56A15.33,15.33,0,0,0,315,22.6c-.1-7-.31-14-.47-21" transform="translate(3.94 4.4)" fill="none" stroke="#000" stroke-linecap="round" stroke-linejoin="round" stroke-width="5"/><path d="M543.55,205.6a50.48,50.48,0,0,1-7-1.55c-5.89-2.18-11.76-4.45-17.5-7-8.73-3.85-17.52-7.64-26-12.09a47.81,47.81,0,0,1-11.47-9c-7.14-7.3-16.4-10.21-25.59-13.4-2.79-1-5.68-1.63-8.49-2.53-8.71-2.79-16.84.82-25,2.71-6.92,1.62-13.45,5-21.07,7.89.39-1.58.69-2.84,1-4.08,2.47-9.18,7-17,15-22.51,6.85-4.68,14.56-5.26,22.51-5,8.33.26,16.68.73,25,.43a44.9,44.9,0,0,0,28.2-11.74c6.76-6.07,11-15,16.3-22.67" transform="translate(3.94 4.4)" fill="none" stroke="#000" stroke-linecap="round" stroke-linejoin="round" stroke-width="5"/><path d="M149.55,385.1c-5.3,4.14-10.22,9.16-17.5,9.44a75.37,75.37,0,0,1-13.49-.52c-9.87-1.41-19.74-3-29.5-5-13.24-2.78-24.64-9.24-32.93-20-9.75-12.65-23.86-16.51-38.1-20.41-1.79-.49-3.66-.69-5.49-1" transform="translate(3.94 4.4)" fill="none" stroke="#000" stroke-linecap="round" stroke-linejoin="round" stroke-width="5"/><path d="M314-1.9c-.67,1.83-.81,4.23-2.08,5.41-9.24,8.61-16.84,19-28.34,25.22a251.88,251.88,0,0,0-27.5,17.47c-12.44,9-19.67,22-24,36.43a233.91,233.91,0,0,0-5.53,25.48c-.66,3.58-.42,7.32-.58,11" transform="translate(3.94 4.4)" fill="none" stroke="#000" stroke-linecap="round" stroke-linejoin="round" stroke-width="5"/><path d="M208.55,425.1c-7.67,5.83-15.66,11.29-22.92,17.6-8.61,7.48-18.77,10.55-29.59,11.83-16.7,2-32.08-2.64-47.06-9.78-6.75-3.21-14.22-5-21.44-7.1-5.95-1.76-11.62-.6-17,2.42a41.52,41.52,0,0,1-5,2" transform="translate(3.94 4.4)" fill="none" stroke="#000" stroke-linecap="round" stroke-linejoin="round" stroke-width="5"/><path d="M128.05,328.6c-7.92,5.1-15,11.21-24.41,14.29a56.53,56.53,0,0,1-37.08-.31c-18.87-6.43-37.28-4.21-55.5,2.56a25,25,0,0,0-3.51,2" transform="translate(3.94 4.4)" fill="none" stroke="#000" stroke-linecap="round" stroke-linejoin="round" stroke-width="5"/><path d="M546.55,204.6a47.56,47.56,0,0,0-5,3.53c-9,8.21-19.28,9.1-31.06,7.75C494,214,478.4,208.41,462,206.73a24,24,0,0,0-10.94,1.5c-10.73,4.29-18.39,12.3-24.55,21.87h-3" transform="translate(3.94 4.4)" fill="none" stroke="#000" stroke-linecap="round" stroke-linejoin="round" stroke-width="5"/><path d="M212.55,4.1c1.5,5.33,3.44,10.59,4.42,16a136.82,136.82,0,0,1,.67,47c-1.31,7.92-1.68,16-2.6,24-1.27,11,3.67,19.74,10,28,.73,1,1.34,2,2,3" transform="translate(3.94 4.4)" fill="none" stroke="#000" stroke-linecap="round" stroke-linejoin="round" stroke-width="5"/><path d="M420,32.1c-1.67,6.67-3.16,13.38-5.08,20-.87,3-1.94,6.35-4,8.41-11,10.83-20.8,23.13-35.86,29.2s-21.18,18.39-22,33.91c-.21,3.83-.34,7.67-.51,11.5" transform="translate(3.94 4.4)" fill="none" stroke="#000" stroke-linecap="round" stroke-linejoin="round" stroke-width="5"/><path d="M114.55,268.6c-15.67,4.11-30.1,2.39-42.5-9a70.23,70.23,0,0,0-37.49-18.06c-8.71-1.36-17.3-3.57-26-4.79-3.2-.45-6.65.85-10,1.35" transform="translate(3.94 4.4)" fill="none" stroke="#000" stroke-linecap="round" stroke-linejoin="round" stroke-width="5"/><path d="M108.05,50.1c4.33,4.83,8.17,10.26,13.1,14.37C130.89,72.6,135,83.5,138,95.1s4.26,23.78,9,35c4.24,10,10.24,18.19,21.49,21,1.49.37,3,.67,4.5,1" transform="translate(3.94 4.4)" fill="none" stroke="#000" stroke-linecap="round" stroke-linejoin="round" stroke-width="5"/><path d="M157.55,386.1c-4.67,5.17-9.23,10.43-14,15.48-8.39,8.84-19.29,11.75-30.95,13.71-9.32,1.57-18.37,4.79-27.53,7.32-6.12,1.69-9.93,6.63-14.51,10.48-3.27,2.74-6.65,5.35-10,8" transform="translate(3.94 4.4)" fill="none" stroke="#000" stroke-linecap="round" stroke-linejoin="round" stroke-width="5"/><path d="M213.55,421.1c-.67,3.33-1.42,6.65-2,10-2,11.62-10.21,17.91-19.49,23.54-9,5.45-18,10.89-26.46,17A77.34,77.34,0,0,0,139,505" transform="translate(3.94 4.4)" fill="none" stroke="#000" stroke-linecap="round" stroke-linejoin="round" stroke-width="5"/><path d="M274,156.1c-6,1-12,1.89-18,3-14.43,2.74-29.1,4.08-43.06,9.32-7.67,2.88-16.05,3.8-23.91,6.25-10.7,3.34-19.4,9.22-22.56,20.9A9.57,9.57,0,0,1,165,198.1c-11,16.71-16.41,35.39-18.35,55-1.26,12.76-2.56,25.79-1.33,38.46,2.12,21.91,8.39,42.84,21.68,61,14.53,19.9,33.6,33.65,56.47,42.59,8.23,3.22,16.17,7.14,25,8.41,5.83.83,11.64,2.1,17.5,2.41,12,.64,24,1.37,36,.93a90.7,90.7,0,0,0,39-10.27c8.56-4.47,18.15-7.38,24.9-14.63a144.4,144.4,0,0,0,30.52-49c3.62-9.9,7.08-19.88,9.91-30a85.4,85.4,0,0,0,2.54-18c.42-7.31,0-14.66.12-22,.2-12.6-5.09-23.68-9.52-35-8.13-21-22.19-37.68-39.44-51.8a43.46,43.46,0,0,0-14-7.92c-13.34-4.19-26.78-8.39-40.5-10.88-10.06-1.83-20.61-1-31-1.29" transform="translate(3.94 4.4)" fill="none" stroke="#000" stroke-linecap="round" stroke-linejoin="round" stroke-width="5"/></svg>