<svg id="Layer_1" data-name="Layer 1" xmlns="http://www.w3.org/2000/svg" viewBox="0 0 1119.28 948.68" style=""><title>tools</title><path d="M1178.88,117.12c-8,.79-15.68,3.24-23.49,5-19.78,4.35-39.21,10.52-59.13,13.93-17.31,3-33.84,8.42-50.83,12.31-12.15,2.78-24.44,5-36.45,8.27-24.8,6.76-50.37,10.33-74.9,18.16-9.7,3.1-19.29,6.72-29.32,8.4-3.86.65-7.95,1.44-12,1.09-2-.17-3.47,1-5.28,1.08a1.84,1.84,0,0,0-1.38,2.72c4.66,2.29,3.93,7.16,4.53,10.72,3,18.11,8.56,35.69,11.57,53.75,2.85,17.13,8.17,33.57,12.18,50.37,4.86,20.34,10.32,40.56,14.69,61,2.34,10.93,3.47,22.12,5.76,33.12,2.57,12.37,6.69,24.26,10,36.38,3.14,11.44,6.09,23,10.19,34.19,1.29,3.52,2.43,4.58,5.9,2.87,13.15-6.5,27.62-7.85,41.73-10.66a245.46,245.46,0,0,0,34.63-9.37c13.88-4.94,28.53-7.42,42.68-11.62,8.85-2.63,17.66-5.34,26.82-7,6.4-1.16,12.87-2.21,19.27-3.44,12.21-2.35,24.07-5.86,36-9.3a214.6,214.6,0,0,1,30.24-6.22c8.83-1.22,17-4.8,25.43-7.25s16.71-4.34,25.45-4.32c4,0,6-2.49,4.76-6.2-4-12.19-4.94-25-7.72-37.44-2.34-10.48-5.42-20.8-8.07-31.22-6.27-24.63-13.05-49.15-18.52-74-3.17-14.4-5.82-29-8.1-43.6-2.16-13.9-7.08-27.25-10.82-40.84-4.58-16.66-9.89-33.11-14-49.91-.09-.38-.61-.65-.93-1" transform="translate(-147.28 -99.68)" fill="none" stroke="#000" stroke-linecap="round" stroke-linejoin="round" stroke-width="2" class="FYTqGFlF_0"></path><path d="M601.92,549.6c-1.65,7.27-3.42,14.51-5.76,21.6-3.16,9.55-4.69,19.49-6.61,29.3-2.62,13.39-7.08,26.24-10.72,39.32-9.51,34.1-20.78,67.7-28.88,102.22-6.21,26.44-13.91,52.53-20.69,78.83Q519,860.57,507.89,900a56.08,56.08,0,0,1-3.23,7.83c5.11,3.52,11.09,3.69,16.63,5.06,14.32,3.56,28.79,6.48,43.23,9.42,9.8,2,19.8,3.44,29.69,5.19,11.79,2.08,23.4,5.23,35.06,8,13.26,3.18,26.13,8,39.43,10.72,11.79,2.39,23.69,4.4,35.46,7,21.75,4.83,43.53,9.55,65.27,14.45,5.33,1.2,10.52,2.89,14.43,7.15,2.19,2.38,4.35,3.22,8.19,2.8,4.62-.51,9.52,2,14.36,2.94,13,2.45,25.31,7.27,37.9,11.11,9.61,2.93,19.64,3.93,29.3,6.65,17.71,5,35.75,8.75,53.27,14.45,8.62,2.8,17.47,4.33,26.38,5.87,11,1.89,21.88,4.3,32.64,7.17,15.45,4.13,30.7,9,46.13,13.26,4.63,1.27,9.73.62,14.35,2.09,5.54,1.76,10.9,4.08,16.34,6.16" transform="translate(-147.28 -99.68)" fill="none" stroke="#000" stroke-linecap="round" stroke-linejoin="round" stroke-width="2" class="FYTqGFlF_1"></path><path d="M232.8,460.8c9.28-1.6,18.77-2.44,27.79-5,14.22-4,28.67-4.9,43.25-5.65,12.18-.63,24.37-1.46,36.47-2.93,10.27-1.25,20.56-2.64,30.76-4.57,3.89-.74,8-.65,12-.9,12.39-.79,24.66-2.37,37-3.87,10.72-1.3,21.4-2.91,32.12-4.16,14.3-1.67,28.58-3.65,42.78-6.31a313,313,0,0,1,32.1-4.27,253.55,253.55,0,0,0,41.31-6.94,123.05,123.05,0,0,1,17.25-2.59,226.24,226.24,0,0,1,23.53-.82c3.34,0,4.27-2,4.31-4.82,0-3.68-.12-7.37,0-11,.24-5.76-.18-11.49.73-17.31.94-6-.29-12.19-1.63-18.23a57.39,57.39,0,0,1-.81-9.11c-.28-5-1-9.92-1.39-14.85-.94-10.72-1-21.51-2.58-32.19-.68-4.73-.45-9.58-.91-14.4-1-10-2.26-19.87-3.77-29.78A161.89,161.89,0,0,1,600.92,240c-.27-13.45-1.31-26.88-2.06-40.31s-2.64-26.95-4.75-40.31c-1.39-8.8-2.05-17.73-4.32-27.34-7.93,3-16.29,0-24.37,2.3-1.33.38-2.86.06-4.3.05-8.91,0-17.63,1.62-26.41,2.79a98.33,98.33,0,0,1-12.95.83c-10,0-19.82,1.22-29.76,1.23-8.28,0-16.34,2-24.48,3.29-6.89,1.07-13.65,2.73-20.62,3.51-12.63,1.41-25.27,1.45-37.93,2-8.84.36-17.85.75-26.41,3.67" transform="translate(-147.28 -99.68)" fill="none" stroke="#000" stroke-linecap="round" stroke-linejoin="round" stroke-width="2" class="FYTqGFlF_2"></path><path d="M624,137.28a16.24,16.24,0,0,0-13.93-21.87c-9.41-.54-18.82-1.76-28.31-1.22-8.7.5-17.29,1.95-25.93,2.76-8.2.77-16.27,2.34-24.44,3.26-9.65,1.09-19.26-.09-28.82.83-13.92,1.33-27.89,0-41.75,1.09A251,251,0,0,0,431,125.75a5.92,5.92,0,0,1-1.44,0c-10.27-.53-20.5.69-30.71,1.2-13.32.67-26.83.55-39.89,4.43-3.12.93-6.77.89-10,.88-7.72,0-15.36,1-23,1.35-11.36.53-22.71,1.34-34.08,2-4.79.27-9.61.62-14.41.7-10.23.17-20.29,1.91-30.19,4.08-5.45,1.19-11,2.34-16.37,2.43-11.53.18-23,1.33-34.56,1.39A136.63,136.63,0,0,0,170,147.07c-7.35,1.49-14,5.07-17.84,12.67,2.42,5,2.73,10.79,3.31,16.43,2,19.79.44,39.68,1.19,59.51a246.76,246.76,0,0,0,2.55,26.43c.95,6.48,1.33,13.12,2.21,19.64,1.43,10.54,1.44,21.12,2.09,31.68.35,5.77.28,11.54.71,17.3.89,12,1.43,24,2.15,36,.33,5.44.32,10.9.74,16.33.92,11.83,1.39,23.68,2.08,35.51.57,9.76,1.08,19.53,1.75,29.29.48,7,3,13.43,5.9,19.61,1.91,4.08,16.37,8.29,21.43,6.72a39.25,39.25,0,0,1,12.5-1.85c9.46.18,18.89-.76,28.31-1.23,9.13-.45,18.29-1.94,27.41-3.35a166.05,166.05,0,0,1,21.08-2.2c8.54-.22,17-1.76,25.46-2.64,6.39-.66,12.78-1.53,19.17-2.24a131.05,131.05,0,0,0,16.37-2.58,49.77,49.77,0,0,1,11.48-.92c8,0,16-1.13,24-1.36,6.91-.2,13.76-2.09,20.65-3.16,5.59-.86,11.22-1.49,16.79-2.44,11.29-1.93,22.79-1.51,34.13-3.59,9.48-1.74,19.19-2.65,28.74-4.17q13.47-2.14,26.94-4.47c8.43-1.46,16.91-2.85,25.39-4.12,8-1.2,16-2.9,24-4.25,7.65-1.28,15.27-3,23-3.35,12.35-.57,24.39-3,36.5-5.22,5.88-1.09,11.22-4.11,17.26-4.41" transform="translate(-147.28 -99.68)" fill="none" stroke="#000" stroke-linecap="round" stroke-linejoin="round" stroke-width="2" class="FYTqGFlF_3"></path><path d="M627.36,145.44c.63,6.23.35,12.48.63,18.71,0,.74.87,1.8.81,2.89-.49,9.63.73,19.21,1.21,28.79.55,10.87.92,21.82,2.49,32.67.82,5.66.48,11.5.94,17.27.78,9.74,2.83,19.22,4.46,28.79.92,5.42,1.73,10.86,2.53,16.3,1.5,10.21,1,20.57,2.75,30.74a14.18,14.18,0,0,1,0,3.35c-.65,9.47.27,19,1.27,28.29,1.39,13,1.33,25.93,1.68,38.91.3,11.24-4.07,20.14-10.84,29-6.53,8.56-15.25,9.51-24.27,10.78a277.52,277.52,0,0,1-31.19,2.1c-9.88.27-19.28,3.66-28.81,6.1-8.2,2.09-16.65,2.83-24.95,4.39-7,1.33-14.15,2.11-21.16,3.65-3.69.81-7.67.68-11.5.94-9.14.62-17.92,3-26.87,4.44-3.66.59-7.28,1.55-11,1.48a134.46,134.46,0,0,0-31.73,3.6c-5.4,1.19-11.15,1.54-16.75,2.17-10.65,1.19-21.47,1.41-31.68,5.27-4,1.52-8.38,1.87-12.5,2.2-8,.63-16,1.48-24,2.28-13.75,1.39-27.45,2.57-41.29,3-10.06.28-20.19,1.51-30.24,2.69-9.1,1.07-18.35.65-27.34,2-20,3.07-40,2.68-60,2.72" transform="translate(-147.28 -99.68)" fill="none" stroke="#000" stroke-linecap="round" stroke-linejoin="round" stroke-width="2" class="FYTqGFlF_4"></path><path d="M1115,348c-11.8-15.76-20.75-33.32-31.28-49.87-5.6-8.79-11.18-17.55-15.85-26.89a40,40,0,0,0-4.6-6.85c-2.53-3.18-5.23-6.26-5.66-10.93-.22-2.36-2.35-5-4-7.26-6.77-9.45-12.92-19.21-16-30.66-1.18-4.43-3.21-4.73-8.09-3.45-5.85,1.54-11.79,2.79-17.76,3.81-2.23.38-3.92,1.9-6.22,2.1-1.75.15-1.81,2.08-1.39,3.25,2.91,8.09,2.34,16.27.91,24.5a4.46,4.46,0,0,0,0,1c.59,12.66-1.67,25.26-1,37.92.7,12.51-.57,25-1.21,37.43-.66,13-1.66,25.89-1.78,38.89,0,4.3-1.26,8.6-2,13.58,5.21-.58,9.68-1,14.13-1.65.41-.06.92-.36,1.45-.42,2.12-.27,4.71,1,6.21-1.45a18.52,18.52,0,0,0,2.43-7.66c1.13-9.9,1.36-19.89,2.83-29.77a6.4,6.4,0,0,0-.33-2.9c-1.5-4.63.06-7.56,4.71-8a178,178,0,0,0,29.78-5.74c3.92-1.1,7.45-.21,9.65,4.19,4.51,9,10.41,17.31,14.89,26.4a14,14,0,0,0,3.75,4.86c.6.47,1,1.17,1.93.94,7.41-1.86,15.25-.88,22.55-3.4.58-.2,1-.92,1.45-1.4" transform="translate(-147.28 -99.68)" fill="none" stroke="#000" stroke-linecap="round" stroke-linejoin="round" stroke-width="2" class="FYTqGFlF_5"></path><path d="M609.12,565c-5.88,4.67-7,11.61-8.05,18.26-2.23,14.07-6.13,27.69-10.25,41.24-6.59,21.66-13,43.4-18.41,65.36-3.51,14.2-8.18,28-11.62,42.21-6.39,26.33-13.64,52.43-20.5,78.63-7.67,29.28-16.12,58.36-23.06,87.84-1.06,4.49-.32,5.64,3.56,6.84a131.91,131.91,0,0,0,25,4.9c6.56.7,13.29.18,19.66,1.89,3.41.92,7.1,1.53,10.12,3.7,1.58,1.13,3.11,1.71,4.32-.48-1.26-1.82-2.71-1.87-4.32-.48" transform="translate(-147.28 -99.68)" fill="none" stroke="#000" stroke-linecap="round" stroke-linejoin="round" stroke-width="2" class="FYTqGFlF_6"></path><path d="M1146.72,691.2c4.91,3.29,5.47,4.08,3.28,10.53a215.94,215.94,0,0,0-8.3,30.32c-6,32.71-16.67,64.17-24.12,96.47a372.79,372.79,0,0,0-7,36.9,153.07,153.07,0,0,1-5.4,24.56c-2.42,8.08-3.52,16.56-4.95,24.91-2.67,15.63-6.26,31.08-9.81,46.51-3.35,14.59-6.83,29.17-10.28,43.75a317.73,317.73,0,0,1-9.26,32.6c-1.09,3.1-.55,6.92-3.81,9.13" transform="translate(-147.28 -99.68)" fill="none" stroke="#000" stroke-linecap="round" stroke-linejoin="round" stroke-width="2" class="FYTqGFlF_7"></path><path d="M602.88,551.52c8.72,4.57,18.32,5.23,27.84,6.25a78.91,78.91,0,0,1,19.11,5c2.9,1.09,5.65,2.27,9.16,2.13a132.88,132.88,0,0,1-3.92,21.6c-10.63,43.3-24.64,85.67-36.28,128.69-3.82,14.12-6.91,28.43-10.11,42.71-2.55,11.36-5.48,22.63-7.87,34-3.8,18.15-9.16,35.93-12.56,54.23a355.82,355.82,0,0,1-11.62,44.25c-2,6.19-4,12.54-4.47,19.15" transform="translate(-147.28 -99.68)" fill="none" stroke="#000" stroke-linecap="round" stroke-linejoin="round" stroke-width="2" class="FYTqGFlF_8"></path><path d="M796.32,964.32c7.4-20.94,13-42.41,18.52-63.89,2.43-9.55,3.4-19.53,5.48-29.23a301.93,301.93,0,0,1,12.15-40.26c6.36-17.4,10.25-35.35,14.34-53.31,3.39-14.91,6.79-29.82,10.31-44.7,2.89-12.23,4.7-24.7,7.68-37,3.53-14.5,8.15-28.67,11.85-43.12,2.49-9.73,4.85-19.44,6.55-29.32.51-3,3.3-4.1,7.21-3.4,14.38,2.57,28,8.1,42.25,11,20.91,4.26,41,11.91,61.93,15.76,18.2,3.34,36,7.89,53.78,13,8.66,2.48,17.76,3.16,26.42,6.22,7.56,2.67,14.93,6.08,23,7.41,9.63,1.6,19.21,3.44,28.8,5.25,6.41,1.21,12.85,2.37,19.18,3.93,2.09.52,2.79,1.88,1.63,4.77a328.06,328.06,0,0,0-11.86,35.89c-7.31,26.81-14.49,53.65-21,80.67-2.65,10.94-3.78,22.1-5.75,33.13-1.79,10-4.39,19.87-6.83,29.73-3.11,12.6-5.57,25.33-8.43,38q-5.7,25.21-11.34,50.44c-3.25,14.46-6.85,28.88-9,43.61-1.91,13.19-3.82,26.41-7.07,39.38" transform="translate(-147.28 -99.68)" fill="none" stroke="#000" stroke-linecap="round" stroke-linejoin="round" stroke-width="2" class="FYTqGFlF_9"></path><path d="M373.92,147.84a51.16,51.16,0,0,0-17.8,2.78c-5.35,1.84-11.21,1.84-16.76,1.84-10.91,0-21.78.65-32.63,1.28-6.6.38-13.15,2-19.67,3.33a19.56,19.56,0,0,1-3.86.34c-6.88.07-13.77-.23-20.64.09-12.34.57-24.69,1.06-37,2.71-5.19.69-10.55.12-15.9.12-1.2,5.54.22,10.44,1.14,15.34a10.48,10.48,0,0,1,.35,2.42c-.6,10.59,1.61,21.09,1,31.68-.6,10.27.5,20.53,1.2,30.7,1.15,16.64,2,33.27,2.91,49.92q1.73,31.92,2.9,63.84c.68,19.06-.17,38.11.76,57.13.65,13.28,2.21,26.51,1.88,39.85-.05,2.06,1.37,4,.9,6.24" transform="translate(-147.28 -99.68)" fill="none" stroke="#000" stroke-linecap="round" stroke-linejoin="round" stroke-width="2" class="FYTqGFlF_10"></path><path d="M579.36,917.28q21.6,5.28,43.2,10.56c12.87,3.13,25.86,5.73,38.87,8.19,6.88,1.3,13.46,3.77,20.18,5.67,12.94,3.64,26.2,5.94,39.33,8.74,18.83,4,38,6.55,56.16,13.42A72.9,72.9,0,0,1,793.43,972c2.48,1.74,5.47,1.54,8.19,2.31,21.59,6.11,43.43,11.33,64.81,18.22,7.25,2.33,15,2.91,22.54,3.89,10.27,1.32,19.93,4.77,29.77,7.68,12.88,3.81,26.11,6.39,38.84,10.68,16.48,5.55,33.57,8.45,50.42,12.44,17.3,4.09,35.17,5.77,51.86,12.43a6.9,6.9,0,0,0,2.39,0" transform="translate(-147.28 -99.68)" fill="none" stroke="#000" stroke-linecap="round" stroke-linejoin="round" stroke-width="2" class="FYTqGFlF_11"></path><path d="M1107.36,239.52c1.73,15,6.27,29.44,8.83,44.21,3,17,8.6,33.23,12.66,49.9.79,3.26-.53,7.57,3.53,8.92,2.88,1,6.06-1.07,9.09-1.55,3.4-.54,6.56-2,10-2.17,2.47-.1,3.93-1.64,3.34-4.26-3.24-14.47-6-29.06-10.58-43.19-2.92-9-6.15-18-7.46-27.4-1-7-2.4-14-3-21.1-.22-2.75-1.46-5.28-1.17-8.17a2.93,2.93,0,0,0-3.24-3.36c-7.58.22-14.45,3.33-21.57,5.38-.51.15-.66,1.51-1,2.31" transform="translate(-147.28 -99.68)" fill="none" stroke="#000" stroke-linecap="round" stroke-linejoin="round" stroke-width="2" class="FYTqGFlF_12"></path><path d="M151.68,160.8c-3.19,4.4-4.49,9.18-2.33,14.37.63,1.52.36,2.92.38,4.35.07,8.16-.32,16.34.11,24.48q1.13,21.36,2.08,42.71c.22,5.1.45,10.25.72,15.37a290.56,290.56,0,0,0,3.65,35.55,70.27,70.27,0,0,1,1.25,11.49c.1,10.08.55,20.17,1,30.23.79,16,2.34,32,2.91,48,.19,5.42.55,10.88.74,16.33" transform="translate(-147.28 -99.68)" fill="none" stroke="#000" stroke-linecap="round" stroke-linejoin="round" stroke-width="2" class="FYTqGFlF_13"></path><path d="M659.52,564.48c1.69-1.91,1.91-4.83,4.24-6.19,5,4,11,4.81,16.89,5.09,11.75.57,23,3.68,34.56,5.37,9.29,1.36,18.3,5,27.83,4.29,10.07-.72,19.34,2.66,28.78,5a257.15,257.15,0,0,0,25.46,4.74c10.13,1.44,20.16,3.56,30.27,5.11,19.2,2.94,35.38,12.92,52.32,21.2,3.17,1.55,4.88,3.58,4.34,7.24a5.94,5.94,0,0,0,.44,3.83" transform="translate(-147.28 -99.68)" fill="none" stroke="#000" stroke-linecap="round" stroke-linejoin="round" stroke-width="2" class="FYTqGFlF_14"></path><path d="M790.56,781c-19,8.7-38.2,17-56.64,26.88-24.93,13.38-50.43,25.56-76.3,37-11.39,5-23.08,9.46-34.08,15.35-6.7,3.58-13.26,7.45-19.67,11.53-5.2,3.31-5.14,5-.52,9.07.51.45,1,1,1.44,1.44" transform="translate(-147.28 -99.68)" fill="none" stroke="#000" stroke-linecap="round" stroke-linejoin="round" stroke-width="2" class="FYTqGFlF_15"></path><path d="M710.88,166.56c1.44-6.24,2.72-12.52,4.36-18.71,1.94-7.33,6.16-12.91,13.65-16.23,4.82,5.46,7.42,11.05,5.63,18.64-2.86,12.12-5.55,24.33-7.93,36.52-2.13,10.94-4.42,22.09-3.86,33.54.32,6.7-2.7,13-5.1,19.2A46.13,46.13,0,0,0,715.11,253c-.63,8.74-2.41,17.34-4,26-1.57,8.28-3.92,16.47-4.46,24.93-.52,8.08-4.17,15.12-6.59,22.61-4.39,13.59-8.19,27.39-9.92,41.69-.54,4.47-.83,9.09-2.25,13.46" transform="translate(-147.28 -99.68)" fill="none" stroke="#000" stroke-linecap="round" stroke-linejoin="round" stroke-width="2" class="FYTqGFlF_16"></path><path d="M712.8,177.6a280.91,280.91,0,0,0-7,30.75c-1.41,8-2.69,16-3.94,24-1.4,9-2.54,18-4.91,26.86-2.21,8.21-3.1,16.66-4.67,25-1.88,10-4.39,19.79-6.37,29.74-3,15.05-7.63,29.69-11,44.65-1.56,7-2.63,14.07-3.85,21.11-.13.73-.68,1-1,1.43" transform="translate(-147.28 -99.68)" fill="none" stroke="#000" stroke-linecap="round" stroke-linejoin="round" stroke-width="2" class="FYTqGFlF_17"></path><path d="M812.64,775.68c-4.37,7.51-11.42,11.44-19.2,14.4-1.75.67-3.85.87-5.23,2-11.84,9.64-25.72,15-39.84,20.24-6.8,2.5-13,6.76-19.41,10.11-8.6,4.47-17.27,9-26.24,12.79-18.3,7.76-35.62,17.41-52.84,27.29-8.65,5-18,8.59-27.32,12.06" transform="translate(-147.28 -99.68)" fill="none" stroke="#000" stroke-linecap="round" stroke-linejoin="round" stroke-width="2" class="FYTqGFlF_18"></path><path d="M372.48,237.12c9.86,4.35,17.33,12.09,25.92,18.25,14.07,10.09,25.56,23.17,39,33.93,12.35,9.88,23,21.82,36.39,30.35,3.46,2.19,5.17,6.08,8.62,8.2" transform="translate(-147.28 -99.68)" fill="none" stroke="#000" stroke-linecap="round" stroke-linejoin="round" stroke-width="2" class="FYTqGFlF_19"></path><path d="M435.36,250.08c.13.61.23,1.24,1,1.44,8.18,2.18,13.7,8.06,19.19,13.93,7.59,8.12,16.32,14.76,25.33,21.28,10.93,7.91,20.87,17.18,31.35,25.72,5.51,4.49,10.68,9.48,17.26,12.51" transform="translate(-147.28 -99.68)" fill="none" stroke="#000" stroke-linecap="round" stroke-linejoin="round" stroke-width="2" class="FYTqGFlF_20"></path><path d="M944.16,922.08c.51,1.73,1.77,2.93.73,5.39a6.63,6.63,0,0,0,2.06,8.17c1.12.83,2.54,3.34.91,4.49-1.08.77-2.49,2.42-5.3,1-3.6-1.86-8.2-2.06-12.35-3.08a5.91,5.91,0,0,0-4.84.76c-8.3,5.35-12.83,13.44-16.15,22.21-2.13,5.62.49,8.58,6.61,8.6,8.76,0,16.94,3,24.88,6,9,3.33,18.14,4.45,27.44,5.57,3.7.44,7.39,1.11,11,1.92,5.48,1.21,10.47-.24,15.36-2.45,2.28-1,4.49-2.22,6.73-3.34" transform="translate(-147.28 -99.68)" fill="none" stroke="#000" stroke-linecap="round" stroke-linejoin="round" stroke-width="2" class="FYTqGFlF_21"></path><path d="M915.84,949.44c16.8,5.76,33.57,11.62,50.45,17.14a35.58,35.58,0,0,0,6.19,1.09c5.79.75,6.22,1.09,5.71,6.73a13.49,13.49,0,0,1-2.35,7.2" transform="translate(-147.28 -99.68)" fill="none" stroke="#000" stroke-linecap="round" stroke-linejoin="round" stroke-width="2" class="FYTqGFlF_22"></path><path d="M980.16,687.36a16.23,16.23,0,0,0,3.86-6.23,9.56,9.56,0,0,1,5.24-5.8c6-2.61,7-8.53,8.61-13.9.93-3.11-2.48-3.58-3.89-5.18-1.22-1.39-4.11-1.19-5.07-.43-6,4.82-12.44,9.42-14.54,17.61-2,8-1.63,9.39,5.31,14.41" transform="translate(-147.28 -99.68)" fill="none" stroke="#000" stroke-linecap="round" stroke-linejoin="round" stroke-width="2" class="FYTqGFlF_23"></path><path d="M580.32,914.88c10.19,1.56,20.2,4,30.24,6.25,10.64,2.4,21.11,5.53,31.73,7.93a35.82,35.82,0,0,0,11,1.18" transform="translate(-147.28 -99.68)" fill="none" stroke="#000" stroke-linecap="round" stroke-linejoin="round" stroke-width="2" class="FYTqGFlF_24"></path><path d="M181.44,309.6c-.54,5.11-1.89,10.21,1.85,14.94,2.13,2.7,3.44,5.95,7.75,5.76a7.54,7.54,0,0,0,6.77-3.86c5.19-8.33-.35-19.53-10.13-20.2-2.42-.17-4.23.63-5.28,2.89" transform="translate(-147.28 -99.68)" fill="none" stroke="#000" stroke-linecap="round" stroke-linejoin="round" stroke-width="2" class="FYTqGFlF_25"></path><path d="M427.2,316.8c7.68,6.4,15.17,13,23.08,19.15,13.6,10.49,23.9,24.12,35.48,36.53" transform="translate(-147.28 -99.68)" fill="none" stroke="#000" stroke-linecap="round" stroke-linejoin="round" stroke-width="2" class="FYTqGFlF_26"></path><path d="M1026.24,241.44c-1.4,1.38-.94,3.16-.95,4.8,0,11-.06,22.08,0,33.12a68,68,0,0,1-1.84,17.31,7.81,7.81,0,0,0,.75,6.19c10.36-3,20-7.84,31.79-7.32-6.29-11.68-11.77-22.48-17.86-32.93-4-6.94-6.15-14.9-11.37-21.22-1-1.22-.52-3.14-.54-4.75" transform="translate(-147.28 -99.68)" fill="none" stroke="#000" stroke-linecap="round" stroke-linejoin="round" stroke-width="2" class="FYTqGFlF_27"></path><path d="M979.2,694.08c.93,1.3,2.76,1.93,3,4-4.52,3.66-9.4,6.81-15,8.37-1.93.53-3.57,1.09-4.74,2.56-4.77,6-9,12.05-6.44,20.67,1.06,3.52.18,7.63.17,11.47,0,2.79.4,5.2,2.83,7.27,4.49,3.82,10,3,11.47-2.5,1.63-6,3-12.22-.38-18.21" transform="translate(-147.28 -99.68)" fill="none" stroke="#000" stroke-linecap="round" stroke-linejoin="round" stroke-width="2" class="FYTqGFlF_28"></path><path d="M955.2,897.6c-2.81-4.69.29-8.75,1.5-12.94a96.69,96.69,0,0,1,3.78-9.62,5.23,5.23,0,0,0-.56-5.6c-9.53,5.24-12.1,14.17-13.37,23.84" transform="translate(-147.28 -99.68)" fill="none" stroke="#000" stroke-linecap="round" stroke-linejoin="round" stroke-width="2" class="FYTqGFlF_29"></path><path d="M969.6,759.36c-1.44,1.92-2.56,4.25-4.38,5.69-7.51,6-7.33,15.73-11.75,23.23-1.34,2.28-2.52,4.74-4.58,6-4.69,2.91-7.24,7.86-11.45,11.15" transform="translate(-147.28 -99.68)" fill="none" stroke="#000" stroke-linecap="round" stroke-linejoin="round" stroke-width="2" class="FYTqGFlF_30"></path><path d="M1020.48,812.64c1.07,1.76-2.87,3.52,0,5.28,4.59-3.71,4.48-3.75,3-9.14-.42-1.49-1-2.87-1.57-4.28-2.84-7.56-2.92-7.61-10.49-4.3-2.15.94-4.45,2.58-6.33,3-4.55,1-8.64,3.45-13,4.28-3.51.67-6.68,1.22-9,3.75-4.73,5.17-10.87,6.39-17.33,6.62-7,.25-14.23-.74-20.16,4.37" transform="translate(-147.28 -99.68)" fill="none" stroke="#000" stroke-linecap="round" stroke-linejoin="round" stroke-width="2" class="FYTqGFlF_31"></path><path d="M607.2,561.12c10.69,1.39,21.29,3.55,32.16,3.41,4.16-.05,8.32,2.21,12.48-.05" transform="translate(-147.28 -99.68)" fill="none" stroke="#000" stroke-linecap="round" stroke-linejoin="round" stroke-width="2" class="FYTqGFlF_32"></path><path d="M1005.6,844.32c2.85.86,4.12,3.05,4.28,5.76.76,12.47,2.53,24.9,2,37.44" transform="translate(-147.28 -99.68)" fill="none" stroke="#000" stroke-linecap="round" stroke-linejoin="round" stroke-width="2" class="FYTqGFlF_33"></path><path d="M947.52,835.68c-.12,4.06-4.33,6.29-4.44,10.56-.1,4-1.17,8.07.6,12,1.38,3.05,1.58,5.83-1.41,8.2a6,6,0,0,0-2.59,3.16c4.6,5.11,5.05,11.14,2.52,17.42-2.81,7-.75,13.29,1.9,19.71,1.59,3.83,4,7.49,3.46,12a2.73,2.73,0,0,1-1,1.91" transform="translate(-147.28 -99.68)" fill="none" stroke="#000" stroke-linecap="round" stroke-linejoin="round" stroke-width="2" class="FYTqGFlF_34"></path><path d="M989.28,948.48c-5.57,1.15-7.89,5.69-10,10.12-1.75,3.67-4,4.72-7.77,3.35-6.37-2.33-12.79-4.5-19.19-6.74" transform="translate(-147.28 -99.68)" fill="none" stroke="#000" stroke-linecap="round" stroke-linejoin="round" stroke-width="2" class="FYTqGFlF_35"></path><path d="M164.16,427.68c.59,11.28,1,22.57,3.79,33.61.58,2.32-.62,5,1,7.19" transform="translate(-147.28 -99.68)" fill="none" stroke="#000" stroke-linecap="round" stroke-linejoin="round" stroke-width="2" class="FYTqGFlF_36"></path><path d="M998.4,758.4c-.22,3.22,1,6.12,1.69,9.17,1.33,5.76,1.41,11.72-2.06,17.29-2.21,3.54-6.34,6.37-5.38,11.46" transform="translate(-147.28 -99.68)" fill="none" stroke="#000" stroke-linecap="round" stroke-linejoin="round" stroke-width="2" class="FYTqGFlF_37"></path><path d="M1022.4,757.44c-4.83,6.92-6,14.33-4,22.6.66,2.77-.65,6.07-1.31,9.07a26.84,26.84,0,0,0-.43,5.29" transform="translate(-147.28 -99.68)" fill="none" stroke="#000" stroke-linecap="round" stroke-linejoin="round" stroke-width="2" class="FYTqGFlF_38"></path><path d="M682.56,406.08c-.53,10.75-2.32,21.17-7.66,30.73-.94,1.68-1.62,3.51-2.42,5.27" transform="translate(-147.28 -99.68)" fill="none" stroke="#000" stroke-linecap="round" stroke-linejoin="round" stroke-width="2" class="FYTqGFlF_39"></path><path d="M998.4,664.32c3.09,5,5.26,10.65,9.58,14.9.61.6-.25,8.91-.95,10.05a77.49,77.49,0,0,0-5.27,9.13" transform="translate(-147.28 -99.68)" fill="none" stroke="#000" stroke-linecap="round" stroke-linejoin="round" stroke-width="2" class="FYTqGFlF_40"></path><path d="M1002.24,801.6,1000.8,803c-1.46-3.61-4.63-2.22-7.2-2.38-9.31-.58-18.52,1.12-27.84,1.07-7.79,0-15.32,2.7-23,4-2.25.38-4.24-.37-6.29.18" transform="translate(-147.28 -99.68)" fill="none" stroke="#000" stroke-linecap="round" stroke-linejoin="round" stroke-width="2" class="FYTqGFlF_41"></path><path d="M1032,715.2c-3.21-4-7.95-5.05-12.43-6.84-5.32-2.12-9.94-5.94-15.89-6.6" transform="translate(-147.28 -99.68)" fill="none" stroke="#000" stroke-linecap="round" stroke-linejoin="round" stroke-width="2" class="FYTqGFlF_42"></path><path d="M992.64,710.4c2.79,4.42,6.21,5.79,11.58,4,4.74-1.56,9.8,1.39,14.82.78" transform="translate(-147.28 -99.68)" fill="none" stroke="#000" stroke-linecap="round" stroke-linejoin="round" stroke-width="2" class="FYTqGFlF_43"></path><path d="M968.16,890.4a5.8,5.8,0,0,1-1.44,4.8c-4.45,5.46-4.42,12.36-5.61,18.74-.95,5.1-2.68,8.86-7.82,10.58-.87.29-1.25,1.38-1.46,2.35" transform="translate(-147.28 -99.68)" fill="none" stroke="#000" stroke-linecap="round" stroke-linejoin="round" stroke-width="2" class="FYTqGFlF_44"></path><path d="M948.48,940.32c2.42,3.58,7.79.95,10.53,5.56-6.85,1.58-13.09,4.57-20.13,4.52-3.08,0-3.08,0-6.5-3.11,2.53-2.43,5.88-2.94,8.9-4.08" transform="translate(-147.28 -99.68)" fill="none" stroke="#000" stroke-linecap="round" stroke-linejoin="round" stroke-width="2" class="FYTqGFlF_45"></path><path d="M1012.8,917.28c-1.78,6.36-2.59,12.94-4.72,19.23a6.42,6.42,0,0,0,.4,4.77" transform="translate(-147.28 -99.68)" fill="none" stroke="#000" stroke-linecap="round" stroke-linejoin="round" stroke-width="2" class="FYTqGFlF_46"></path><path d="M807.84,775.2c-5.58-1.64-10.13,1.3-14.94,3.33.81,3.66,4.32,5.69,5.34,9.15" transform="translate(-147.28 -99.68)" fill="none" stroke="#000" stroke-linecap="round" stroke-linejoin="round" stroke-width="2" class="FYTqGFlF_47"></path><path d="M1009,678.24c2.9-7.55-.47-16.83-7.17-20.22a2,2,0,0,0-2.91.54" transform="translate(-147.28 -99.68)" fill="none" stroke="#000" stroke-linecap="round" stroke-linejoin="round" stroke-width="2" class="FYTqGFlF_48"></path><path d="M384.48,283.68c5.23,3,8.49,8.17,13.36,11.63,3.54,2.51,6.86,5.37,10.64,7.57" transform="translate(-147.28 -99.68)" fill="none" stroke="#000" stroke-linecap="round" stroke-linejoin="round" stroke-width="2" class="FYTqGFlF_49"></path><path d="M953.28,916.8c2.73-4,4-8.16,2-13-.77-1.87-1-3.88-3.43-4.29-2.69-.45-4,1.05-4.8,3.36" transform="translate(-147.28 -99.68)" fill="none" stroke="#000" stroke-linecap="round" stroke-linejoin="round" stroke-width="2" class="FYTqGFlF_50"></path><path d="M973.44,893.28c2.05,8.29.6,16.09-4,23.53,5.84,4.12,6,9.94,5.93,15.83" transform="translate(-147.28 -99.68)" fill="none" stroke="#000" stroke-linecap="round" stroke-linejoin="round" stroke-width="2" class="FYTqGFlF_51"></path><path d="M966.24,828c-7.6,9.4-13,20.26-19.68,30.24" transform="translate(-147.28 -99.68)" fill="none" stroke="#000" stroke-linecap="round" stroke-linejoin="round" stroke-width="2" class="FYTqGFlF_52"></path><path d="M996,851.52a37,37,0,0,1-6.28-.79c-4.79-1.14-9,.51-11.44,5.13-.74,1.4-2,2.17-2.92,3.34" transform="translate(-147.28 -99.68)" fill="none" stroke="#000" stroke-linecap="round" stroke-linejoin="round" stroke-width="2" class="FYTqGFlF_53"></path><path d="M994.08,905.76a23.14,23.14,0,0,1-3.87,5.73c-2.07,2.35-1.51,4.91-1.57,7.7-.11,5.44,1.37,11.11-.54,16.24-1,2.71-.37,4.56.22,6.8" transform="translate(-147.28 -99.68)" fill="none" stroke="#000" stroke-linecap="round" stroke-linejoin="round" stroke-width="2" class="FYTqGFlF_54"></path><path d="M1001.76,966.72c-4.49.92-9,1.75-13.47,2.73-2.2.48-5,1.13-7.17-.81" transform="translate(-147.28 -99.68)" fill="none" stroke="#000" stroke-linecap="round" stroke-linejoin="round" stroke-width="2" class="FYTqGFlF_55"></path><path d="M976.8,744.48c1.81-.21,1.57,1.64,2.35,2.45,5.27,5.5,10.3,5.06,14.93-1.49" transform="translate(-147.28 -99.68)" fill="none" stroke="#000" stroke-linecap="round" stroke-linejoin="round" stroke-width="2" class="FYTqGFlF_56"></path><path d="M963.84,839.52a42.82,42.82,0,0,1-3.62,16.2c-1.85,4-6.54,6.1-11.48,7.43.79-2.32.41-4.32,1.67-5.87" transform="translate(-147.28 -99.68)" fill="none" stroke="#000" stroke-linecap="round" stroke-linejoin="round" stroke-width="2" class="FYTqGFlF_57"></path><path d="M973.44,855.36c-1.74,2.11-2.07,4.57-1.93,7.2a22,22,0,0,1-1.91,11" transform="translate(-147.28 -99.68)" fill="none" stroke="#000" stroke-linecap="round" stroke-linejoin="round" stroke-width="2" class="FYTqGFlF_58"></path><path d="M995,822.72a16.35,16.35,0,0,1-7.2,1.89c-5.77.47-13.05,6.41-14.35,12a8.18,8.18,0,0,0,.43,2.87" transform="translate(-147.28 -99.68)" fill="none" stroke="#000" stroke-linecap="round" stroke-linejoin="round" stroke-width="2" class="FYTqGFlF_59"></path><path d="M971,810.72c-1.35-.74-2.32-1.82-4.36-1.06-5.37,2-11.18,2.23-16.76,3.46" transform="translate(-147.28 -99.68)" fill="none" stroke="#000" stroke-linecap="round" stroke-linejoin="round" stroke-width="2" class="FYTqGFlF_60"></path><path d="M963.84,820.8a26.84,26.84,0,0,1-17.76,2.4" transform="translate(-147.28 -99.68)" fill="none" stroke="#000" stroke-linecap="round" stroke-linejoin="round" stroke-width="2" class="FYTqGFlF_61"></path><path d="M1020.48,818.88c-4.48,7.41-7.36,15.54-10.56,23.52" transform="translate(-147.28 -99.68)" fill="none" stroke="#000" stroke-linecap="round" stroke-linejoin="round" stroke-width="2" class="FYTqGFlF_62"></path><path d="M987.84,875.52c4.81,5.38,2.65,11.7,2.4,17.76" transform="translate(-147.28 -99.68)" fill="none" stroke="#000" stroke-linecap="round" stroke-linejoin="round" stroke-width="2" class="FYTqGFlF_63"></path><path d="M665.28,400.8c.09,5.94-2.67,11.4-2.88,17.28" transform="translate(-147.28 -99.68)" fill="none" stroke="#000" stroke-linecap="round" stroke-linejoin="round" stroke-width="2" class="FYTqGFlF_64"></path><path d="M974.4,931.68c-1.66-1.25-3.18-2.07-5.32-.54-2.38,1.7-5.36,2.6-7.57,4.46-3,2.54-5.33,1.83-7.51-.55-2.29-.16-3.45,2.12-5.52,1.91" transform="translate(-147.28 -99.68)" fill="none" stroke="#000" stroke-linecap="round" stroke-linejoin="round" stroke-width="2" class="FYTqGFlF_65"></path><path d="M975.36,821.76l-10.08,14.88" transform="translate(-147.28 -99.68)" fill="none" stroke="#000" stroke-linecap="round" stroke-linejoin="round" stroke-width="2" class="FYTqGFlF_66"></path><path d="M686.88,385.44a94.87,94.87,0,0,1-2.4,15.36" transform="translate(-147.28 -99.68)" fill="none" stroke="#000" stroke-linecap="round" stroke-linejoin="round" stroke-width="2" class="FYTqGFlF_67"></path><path d="M986.4,825.12c-4,5.26-7.34,11.05-13,14.88-1.18.81,0,1.6,0,2.4" transform="translate(-147.28 -99.68)" fill="none" stroke="#000" stroke-linecap="round" stroke-linejoin="round" stroke-width="2" class="FYTqGFlF_68"></path><path d="M1042.08,708.48c-4.78.59-9.72-1.21-14.4,1" transform="translate(-147.28 -99.68)" fill="none" stroke="#000" stroke-linecap="round" stroke-linejoin="round" stroke-width="2" class="FYTqGFlF_69"></path><path d="M1006.56,946.08A109.92,109.92,0,0,1,1009.3,959c-.67,2.17-3.66,1.35-5.14,2.91" transform="translate(-147.28 -99.68)" fill="none" stroke="#000" stroke-linecap="round" stroke-linejoin="round" stroke-width="2" class="FYTqGFlF_70"></path><path d="M731.52,161.28c-4.26-1.68-8.61-1.1-13-.48" transform="translate(-147.28 -99.68)" fill="none" stroke="#000" stroke-linecap="round" stroke-linejoin="round" stroke-width="2" class="FYTqGFlF_71"></path><path d="M1029.6,736.8c-.48,2.16-1,4.24-2.86,5.78a7.29,7.29,0,0,0-2.42,6.7" transform="translate(-147.28 -99.68)" fill="none" stroke="#000" stroke-linecap="round" stroke-linejoin="round" stroke-width="2" class="FYTqGFlF_72"></path><path d="M661,434.4c1,3.8.21,7.68.48,11.52" transform="translate(-147.28 -99.68)" fill="none" stroke="#000" stroke-linecap="round" stroke-linejoin="round" stroke-width="2" class="FYTqGFlF_73"></path><path d="M1031.52,717.6c1.64,3.6-1.5,7-.48,10.56" transform="translate(-147.28 -99.68)" fill="none" stroke="#000" stroke-linecap="round" stroke-linejoin="round" stroke-width="2" class="FYTqGFlF_74"></path><path d="M979.68,805.44c-3.68.37-6.64,2.36-9.6,4.32" transform="translate(-147.28 -99.68)" fill="none" stroke="#000" stroke-linecap="round" stroke-linejoin="round" stroke-width="2" class="FYTqGFlF_75"></path><path d="M998.4,747.84c-.32,4.16,3.54,6.23,4.8,9.6" transform="translate(-147.28 -99.68)" fill="none" stroke="#000" stroke-linecap="round" stroke-linejoin="round" stroke-width="2" class="FYTqGFlF_76"></path><path d="M969.6,744a12.46,12.46,0,0,0-9.6,3.84" transform="translate(-147.28 -99.68)" fill="none" stroke="#000" stroke-linecap="round" stroke-linejoin="round" stroke-width="2" class="FYTqGFlF_77"></path><path d="M819.36,768.48c-.09,4.07-4.13,5.77-6.26,5.9-4.74.29-7.63,4.2-12,4.66" transform="translate(-147.28 -99.68)" fill="none" stroke="#000" stroke-linecap="round" stroke-linejoin="round" stroke-width="2" class="FYTqGFlF_78"></path><path d="M1033.44,800.64a8.11,8.11,0,0,0-9.12,1" transform="translate(-147.28 -99.68)" fill="none" stroke="#000" stroke-linecap="round" stroke-linejoin="round" stroke-width="2" class="FYTqGFlF_79"></path><path d="M1018.08,736.8c1.1,3.29,2.45,6.62-1.44,9.12" transform="translate(-147.28 -99.68)" fill="none" stroke="#000" stroke-linecap="round" stroke-linejoin="round" stroke-width="2" class="FYTqGFlF_80"></path><path d="M714.24,163.68v8.64" transform="translate(-147.28 -99.68)" fill="none" stroke="#000" stroke-linecap="round" stroke-linejoin="round" stroke-width="2" class="FYTqGFlF_81"></path><path d="M162.72,406.56c1,2.84.28,5.76.48,8.64" transform="translate(-147.28 -99.68)" fill="none" stroke="#000" stroke-linecap="round" stroke-linejoin="round" stroke-width="2" class="FYTqGFlF_82"></path><path d="M163.2,418.08c.19,2.56-.45,5.17.48,7.68" transform="translate(-147.28 -99.68)" fill="none" stroke="#000" stroke-linecap="round" stroke-linejoin="round" stroke-width="2" class="FYTqGFlF_83"></path><path d="M994.08,831.36c2.28,1.85,6,.89,7.88,3.69-2,3.66-6.33,3.8-8.84,6.39" transform="translate(-147.28 -99.68)" fill="none" stroke="#000" stroke-linecap="round" stroke-linejoin="round" stroke-width="2" class="FYTqGFlF_84"></path><path d="M671,444.48c-3.11,6-7.63,10.84-12,15.84" transform="translate(-147.28 -99.68)" fill="none" stroke="#000" stroke-linecap="round" stroke-linejoin="round" stroke-width="2" class="FYTqGFlF_85"></path><path d="M1013.28,892.32c-.93,2.51-.29,5.12-.48,7.68" transform="translate(-147.28 -99.68)" fill="none" stroke="#000" stroke-linecap="round" stroke-linejoin="round" stroke-width="2" class="FYTqGFlF_86"></path><path d="M952.32,850.56c2.38,1.54,5.7.92,7.68,3.36" transform="translate(-147.28 -99.68)" fill="none" stroke="#000" stroke-linecap="round" stroke-linejoin="round" stroke-width="2" class="FYTqGFlF_87"></path><path d="M983.52,866.4a9.16,9.16,0,0,0,8.64,4.8" transform="translate(-147.28 -99.68)" fill="none" stroke="#000" stroke-linecap="round" stroke-linejoin="round" stroke-width="2" class="FYTqGFlF_88"></path><path d="M619.2,272.64c1.28,1.28,2.53,2.59,3.85,3.83,1.1,1,1.37,2.1.47,3.37" transform="translate(-147.28 -99.68)" fill="none" stroke="#000" stroke-linecap="round" stroke-linejoin="round" stroke-width="2" class="FYTqGFlF_89"></path><path d="M711.36,188.16h7.2" transform="translate(-147.28 -99.68)" fill="none" stroke="#000" stroke-linecap="round" stroke-linejoin="round" stroke-width="2" class="FYTqGFlF_90"></path><path d="M967.68,881.76c-1,2.32,1.95,4.36.48,6.72" transform="translate(-147.28 -99.68)" fill="none" stroke="#000" stroke-linecap="round" stroke-linejoin="round" stroke-width="2" class="FYTqGFlF_91"></path><path d="M1014.72,903.84v6.72" transform="translate(-147.28 -99.68)" fill="none" stroke="#000" stroke-linecap="round" stroke-linejoin="round" stroke-width="2" class="FYTqGFlF_92"></path><path d="M969.6,753.12c-.09,1.24.76,2.28.88,3.37.33,2.84,1.38,3.27,3.43,1.42,1.51-1.37,2.89-2.87,4.33-4.31" transform="translate(-147.28 -99.68)" fill="none" stroke="#000" stroke-linecap="round" stroke-linejoin="round" stroke-width="2" class="FYTqGFlF_93"></path><path d="M940.8,818.4c-.67,4,2.33,3.85,4.8,4.32" transform="translate(-147.28 -99.68)" fill="none" stroke="#000" stroke-linecap="round" stroke-linejoin="round" stroke-width="2" class="FYTqGFlF_94"></path><path d="M170.88,474.72c.89,3.24,1.65,3.31,4.8.48" transform="translate(-147.28 -99.68)" fill="none" stroke="#000" stroke-linecap="round" stroke-linejoin="round" stroke-width="2" class="FYTqGFlF_95"></path><path d="M1018.56,817l-4.2,3.75c-.31,2.84,1.36,2.77,2.28,3.45" transform="translate(-147.28 -99.68)" fill="none" stroke="#000" stroke-linecap="round" stroke-linejoin="round" stroke-width="2" class="FYTqGFlF_96"></path><path d="M658.08,453.6c1,1.8,0,4,1,5.76" transform="translate(-147.28 -99.68)" fill="none" stroke="#000" stroke-linecap="round" stroke-linejoin="round" stroke-width="2" class="FYTqGFlF_97"></path><path d="M991.2,898.08a8,8,0,0,0,0,5.76" transform="translate(-147.28 -99.68)" fill="none" stroke="#000" stroke-linecap="round" stroke-linejoin="round" stroke-width="2" class="FYTqGFlF_98"></path><path d="M661,447.84c.53,2.29,3.42,1.54,4.32,3.36" transform="translate(-147.28 -99.68)" fill="none" stroke="#000" stroke-linecap="round" stroke-linejoin="round" stroke-width="2" class="FYTqGFlF_99"></path><path d="M961.44,827c-2.3,2.88-5.83,1.34-8.64,2.4" transform="translate(-147.28 -99.68)" fill="none" stroke="#000" stroke-linecap="round" stroke-linejoin="round" stroke-width="2" class="FYTqGFlF_100"></path><path d="M994.56,825.6l1.92,1.92c0,3.51-4.35,2.69-5.28,5.28" transform="translate(-147.28 -99.68)" fill="none" stroke="#000" stroke-linecap="round" stroke-linejoin="round" stroke-width="2" class="FYTqGFlF_101"></path><path d="M1005.12,804.48c.73,1,2.07,1.53,2.43,2.75-.47,2.31-3.28,2.39-3.87,4.45" transform="translate(-147.28 -99.68)" fill="none" stroke="#000" stroke-linecap="round" stroke-linejoin="round" stroke-width="2" class="FYTqGFlF_102"></path><path d="M956.16,826.08c0,2.81.3,5.45,3.36,6.72" transform="translate(-147.28 -99.68)" fill="none" stroke="#000" stroke-linecap="round" stroke-linejoin="round" stroke-width="2" class="FYTqGFlF_103"></path><path d="M997,681.6c-1-2.29-2.24-2.86-3.84-.27.69,1.6,1.95,1.44,3.36.75" transform="translate(-147.28 -99.68)" fill="none" stroke="#000" stroke-linecap="round" stroke-linejoin="round" stroke-width="2" class="FYTqGFlF_104"></path><path d="M992.64,865c-.68,2.08-4.86,1.36-3.84,4.8" transform="translate(-147.28 -99.68)" fill="none" stroke="#000" stroke-linecap="round" stroke-linejoin="round" stroke-width="2" class="FYTqGFlF_105"></path><path d="M1001.76,748.32a3.39,3.39,0,0,0,2.88,2.88" transform="translate(-147.28 -99.68)" fill="none" stroke="#000" stroke-linecap="round" stroke-linejoin="round" stroke-width="2" class="FYTqGFlF_106"></path><path d="M990.24,841.44c2.29-1,3.91,2.29,6.24,1" transform="translate(-147.28 -99.68)" fill="none" stroke="#000" stroke-linecap="round" stroke-linejoin="round" stroke-width="2" class="FYTqGFlF_107"></path><path d="M995.52,840.48c1.47,1,1.39,3.3,3.36,3.84" transform="translate(-147.28 -99.68)" fill="none" stroke="#000" stroke-linecap="round" stroke-linejoin="round" stroke-width="2" class="FYTqGFlF_108"></path><path d="M1110.24,189.12c-7.22,2.12-9.91,8.15-11.91,14.43-1.52,4.77,3.73,12.61,9,14.37A15.42,15.42,0,0,0,1128,204a14.45,14.45,0,0,0-13.92-14.88h-3.36" transform="translate(-147.28 -99.68)" fill="none" stroke="#000" stroke-linecap="round" stroke-linejoin="round" stroke-width="2" class="FYTqGFlF_109"></path><path d="M1184.64,100.8c-9.12,2.24-18.25,4.42-27.36,6.73-16.41,4.16-33,7.67-49.48,11.33-13.87,3.07-27.88,5.55-41.72,8.83s-27.86,6.62-41.76,10.1c-9.39,2.35-19,3.71-28.36,6.08-10.48,2.65-20.68,6.41-31.21,8.58-16.89,3.49-33.64,7.52-50.36,11.73-12.19,3.07-24.31,6.43-36.5,9.54-3.21.82-4.84,2.43-3.81,5.79,2.26,7.41,3.41,15.07,5.22,22.58q4.32,17.94,8.16,36c2,9.24,3.8,18.5,5.38,27.82,1.74,10.27,3.93,20.46,5.83,30.71,2.36,12.74,5.82,25.27,8.46,38,2.41,11.54,6.36,22.65,9.13,34.08,6.15,25.39,14.46,50.2,19.81,75.81,2.2,10.51,5.34,20.82,8.08,31.22.8,3,1.11,6.15,2.21,9.19.86,2.38,2.28,2.08,3.53,1.79,22.74-5.36,45.3-11.44,68.11-16.55,10.12-2.27,20-6.14,30.31-7.82,21.54-3.5,41.68-12.58,62.94-16.47,31.09-5.69,61.08-15.61,92-21.85,15.37-3.1,30.9-5.52,46.16-9.21a105,105,0,0,0,10.56-2.89c4.57-1.62,6.34-4.18,5.24-8.66-6.39-26.08-12-52.33-18.93-78.31-5.21-19.63-9.69-39.5-13.76-59.44-3.88-19-8.69-37.76-12.72-56.69-4.18-19.67-12.23-38.09-17.12-57.53-3.83-15.2-7.16-30.53-11.23-45.68-1-3.87-2.61-5.35-6.37-4.76" transform="translate(-147.28 -99.68)" fill="none" stroke="#000" stroke-linecap="round" stroke-linejoin="round" stroke-width="2" class="FYTqGFlF_110"></path><style data-made-with="vivus-instant">.FYTqGFlF_0{stroke-dasharray:1188 1190;stroke-dashoffset:1189;animation:FYTqGFlF_draw 63ms linear 0ms forwards;}.FYTqGFlF_1{stroke-dasharray:949 951;stroke-dashoffset:950;animation:FYTqGFlF_draw 50ms linear 63ms forwards;}.FYTqGFlF_2{stroke-dasharray:874 876;stroke-dashoffset:875;animation:FYTqGFlF_draw 46ms linear 114ms forwards;}.FYTqGFlF_3{stroke-dasharray:1272 1274;stroke-dashoffset:1273;animation:FYTqGFlF_draw 68ms linear 161ms forwards;}.FYTqGFlF_4{stroke-dasharray:742 744;stroke-dashoffset:743;animation:FYTqGFlF_draw 39ms linear 230ms forwards;}.FYTqGFlF_5{stroke-dasharray:528 530;stroke-dashoffset:529;animation:FYTqGFlF_draw 28ms linear 269ms forwards;}.FYTqGFlF_6{stroke-dasharray:423 425;stroke-dashoffset:424;animation:FYTqGFlF_draw 22ms linear 298ms forwards;}.FYTqGFlF_7{stroke-dasharray:369 371;stroke-dashoffset:370;animation:FYTqGFlF_draw 19ms linear 321ms forwards;}.FYTqGFlF_8{stroke-dasharray:414 416;stroke-dashoffset:415;animation:FYTqGFlF_draw 22ms linear 340ms forwards;}.FYTqGFlF_9{stroke-dasharray:991 993;stroke-dashoffset:992;animation:FYTqGFlF_draw 53ms linear 363ms forwards;}.FYTqGFlF_10{stroke-dasharray:463 465;stroke-dashoffset:464;animation:FYTqGFlF_draw 24ms linear 416ms forwards;}.FYTqGFlF_11{stroke-dasharray:500 502;stroke-dashoffset:501;animation:FYTqGFlF_draw 26ms linear 441ms forwards;}.FYTqGFlF_12{stroke-dasharray:266 268;stroke-dashoffset:267;animation:FYTqGFlF_draw 14ms linear 468ms forwards;}.FYTqGFlF_13{stroke-dasharray:245 247;stroke-dashoffset:246;animation:FYTqGFlF_draw 13ms linear 482ms forwards;}.FYTqGFlF_14{stroke-dasharray:245 247;stroke-dashoffset:246;animation:FYTqGFlF_draw 13ms linear 495ms forwards;}.FYTqGFlF_15{stroke-dasharray:222 224;stroke-dashoffset:223;animation:FYTqGFlF_draw 11ms linear 509ms forwards;}.FYTqGFlF_16{stroke-dasharray:299 301;stroke-dashoffset:300;animation:FYTqGFlF_draw 16ms linear 520ms forwards;}.FYTqGFlF_17{stroke-dasharray:209 211;stroke-dashoffset:210;animation:FYTqGFlF_draw 11ms linear 537ms forwards;}.FYTqGFlF_18{stroke-dasharray:216 218;stroke-dashoffset:217;animation:FYTqGFlF_draw 11ms linear 548ms forwards;}.FYTqGFlF_19{stroke-dasharray:143 145;stroke-dashoffset:144;animation:FYTqGFlF_draw 7ms linear 559ms forwards;}.FYTqGFlF_20{stroke-dasharray:122 124;stroke-dashoffset:123;animation:FYTqGFlF_draw 6ms linear 567ms forwards;}.FYTqGFlF_21{stroke-dasharray:174 176;stroke-dashoffset:175;animation:FYTqGFlF_draw 9ms linear 574ms forwards;}.FYTqGFlF_22{stroke-dasharray:79 81;stroke-dashoffset:80;animation:FYTqGFlF_draw 4ms linear 583ms forwards;}.FYTqGFlF_23{stroke-dasharray:86 88;stroke-dashoffset:87;animation:FYTqGFlF_draw 4ms linear 588ms forwards;}.FYTqGFlF_24{stroke-dasharray:75 77;stroke-dashoffset:76;animation:FYTqGFlF_draw 4ms linear 592ms forwards;}.FYTqGFlF_25{stroke-dasharray:68 70;stroke-dashoffset:69;animation:FYTqGFlF_draw 3ms linear 596ms forwards;}.FYTqGFlF_26{stroke-dasharray:81 83;stroke-dashoffset:82;animation:FYTqGFlF_draw 4ms linear 600ms forwards;}.FYTqGFlF_27{stroke-dasharray:162 164;stroke-dashoffset:163;animation:FYTqGFlF_draw 8ms linear 604ms forwards;}.FYTqGFlF_28{stroke-dasharray:104 106;stroke-dashoffset:105;animation:FYTqGFlF_draw 5ms linear 613ms forwards;}.FYTqGFlF_29{stroke-dasharray:59 61;stroke-dashoffset:60;animation:FYTqGFlF_draw 3ms linear 619ms forwards;}.FYTqGFlF_30{stroke-dasharray:58 60;stroke-dashoffset:59;animation:FYTqGFlF_draw 3ms linear 622ms forwards;}.FYTqGFlF_31{stroke-dasharray:108 110;stroke-dashoffset:109;animation:FYTqGFlF_draw 5ms linear 625ms forwards;}.FYTqGFlF_32{stroke-dasharray:46 48;stroke-dashoffset:47;animation:FYTqGFlF_draw 2ms linear 631ms forwards;}.FYTqGFlF_33{stroke-dasharray:46 48;stroke-dashoffset:47;animation:FYTqGFlF_draw 2ms linear 633ms forwards;}.FYTqGFlF_34{stroke-dasharray:92 94;stroke-dashoffset:93;animation:FYTqGFlF_draw 4ms linear 636ms forwards;}.FYTqGFlF_35{stroke-dasharray:45 47;stroke-dashoffset:46;animation:FYTqGFlF_draw 2ms linear 641ms forwards;}.FYTqGFlF_36{stroke-dasharray:42 44;stroke-dashoffset:43;animation:FYTqGFlF_draw 2ms linear 643ms forwards;}.FYTqGFlF_37{stroke-dasharray:41 43;stroke-dashoffset:42;animation:FYTqGFlF_draw 2ms linear 646ms forwards;}.FYTqGFlF_38{stroke-dasharray:39 41;stroke-dashoffset:40;animation:FYTqGFlF_draw 2ms linear 648ms forwards;}.FYTqGFlF_39{stroke-dasharray:38 40;stroke-dashoffset:39;animation:FYTqGFlF_draw 2ms linear 650ms forwards;}.FYTqGFlF_40{stroke-dasharray:39 41;stroke-dashoffset:40;animation:FYTqGFlF_draw 2ms linear 652ms forwards;}.FYTqGFlF_41{stroke-dasharray:68 70;stroke-dashoffset:69;animation:FYTqGFlF_draw 3ms linear 654ms forwards;}.FYTqGFlF_42{stroke-dasharray:32 34;stroke-dashoffset:33;animation:FYTqGFlF_draw 1ms linear 658ms forwards;}.FYTqGFlF_43{stroke-dasharray:29 31;stroke-dashoffset:30;animation:FYTqGFlF_draw 1ms linear 660ms forwards;}.FYTqGFlF_44{stroke-dasharray:42 44;stroke-dashoffset:43;animation:FYTqGFlF_draw 2ms linear 662ms forwards;}.FYTqGFlF_45{stroke-dasharray:51 53;stroke-dashoffset:52;animation:FYTqGFlF_draw 2ms linear 664ms forwards;}.FYTqGFlF_46{stroke-dasharray:25 27;stroke-dashoffset:26;animation:FYTqGFlF_draw 1ms linear 667ms forwards;}.FYTqGFlF_47{stroke-dasharray:27 29;stroke-dashoffset:28;animation:FYTqGFlF_draw 1ms linear 668ms forwards;}.FYTqGFlF_48{stroke-dasharray:27 29;stroke-dashoffset:28;animation:FYTqGFlF_draw 1ms linear 670ms forwards;}.FYTqGFlF_49{stroke-dasharray:31 33;stroke-dashoffset:32;animation:FYTqGFlF_draw 1ms linear 671ms forwards;}.FYTqGFlF_50{stroke-dasharray:27 29;stroke-dashoffset:28;animation:FYTqGFlF_draw 1ms linear 673ms forwards;}.FYTqGFlF_51{stroke-dasharray:43 45;stroke-dashoffset:44;animation:FYTqGFlF_draw 2ms linear 674ms forwards;}.FYTqGFlF_52{stroke-dasharray:37 39;stroke-dashoffset:38;animation:FYTqGFlF_draw 2ms linear 677ms forwards;}.FYTqGFlF_53{stroke-dasharray:25 27;stroke-dashoffset:26;animation:FYTqGFlF_draw 1ms linear 679ms forwards;}.FYTqGFlF_54{stroke-dasharray:39 41;stroke-dashoffset:40;animation:FYTqGFlF_draw 2ms linear 680ms forwards;}.FYTqGFlF_55{stroke-dasharray:22 24;stroke-dashoffset:23;animation:FYTqGFlF_draw 1ms linear 682ms forwards;}.FYTqGFlF_56{stroke-dasharray:22 24;stroke-dashoffset:23;animation:FYTqGFlF_draw 1ms linear 683ms forwards;}.FYTqGFlF_57{stroke-dasharray:37 39;stroke-dashoffset:38;animation:FYTqGFlF_draw 2ms linear 685ms forwards;}.FYTqGFlF_58{stroke-dasharray:19 21;stroke-dashoffset:20;animation:FYTqGFlF_draw 1ms linear 687ms forwards;}.FYTqGFlF_59{stroke-dasharray:31 33;stroke-dashoffset:32;animation:FYTqGFlF_draw 1ms linear 688ms forwards;}.FYTqGFlF_60{stroke-dasharray:22 24;stroke-dashoffset:23;animation:FYTqGFlF_draw 1ms linear 689ms forwards;}.FYTqGFlF_61{stroke-dasharray:19 21;stroke-dashoffset:20;animation:FYTqGFlF_draw 1ms linear 691ms forwards;}.FYTqGFlF_62{stroke-dasharray:26 28;stroke-dashoffset:27;animation:FYTqGFlF_draw 1ms linear 692ms forwards;}.FYTqGFlF_63{stroke-dasharray:19 21;stroke-dashoffset:20;animation:FYTqGFlF_draw 1ms linear 693ms forwards;}.FYTqGFlF_64{stroke-dasharray:18 20;stroke-dashoffset:19;animation:FYTqGFlF_draw 1ms linear 694ms forwards;}.FYTqGFlF_65{stroke-dasharray:30 32;stroke-dashoffset:31;animation:FYTqGFlF_draw 1ms linear 695ms forwards;}.FYTqGFlF_66{stroke-dasharray:18 20;stroke-dashoffset:19;animation:FYTqGFlF_draw 1ms linear 697ms forwards;}.FYTqGFlF_67{stroke-dasharray:16 18;stroke-dashoffset:17;animation:FYTqGFlF_draw 0ms linear 698ms forwards;}.FYTqGFlF_68{stroke-dasharray:23 25;stroke-dashoffset:24;animation:FYTqGFlF_draw 1ms linear 699ms forwards;}.FYTqGFlF_69{stroke-dasharray:15 17;stroke-dashoffset:16;animation:FYTqGFlF_draw 0ms linear 700ms forwards;}.FYTqGFlF_70{stroke-dasharray:20 22;stroke-dashoffset:21;animation:FYTqGFlF_draw 1ms linear 701ms forwards;}.FYTqGFlF_71{stroke-dasharray:14 16;stroke-dashoffset:15;animation:FYTqGFlF_draw 0ms linear 702ms forwards;}.FYTqGFlF_72{stroke-dasharray:15 17;stroke-dashoffset:16;animation:FYTqGFlF_draw 0ms linear 703ms forwards;}.FYTqGFlF_73{stroke-dasharray:12 14;stroke-dashoffset:13;animation:FYTqGFlF_draw 0ms linear 704ms forwards;}.FYTqGFlF_74{stroke-dasharray:11 13;stroke-dashoffset:12;animation:FYTqGFlF_draw 0ms linear 705ms forwards;}.FYTqGFlF_75{stroke-dasharray:11 13;stroke-dashoffset:12;animation:FYTqGFlF_draw 0ms linear 705ms forwards;}.FYTqGFlF_76{stroke-dasharray:11 13;stroke-dashoffset:12;animation:FYTqGFlF_draw 0ms linear 706ms forwards;}.FYTqGFlF_77{stroke-dasharray:11 13;stroke-dashoffset:12;animation:FYTqGFlF_draw 0ms linear 706ms forwards;}.FYTqGFlF_78{stroke-dasharray:23 25;stroke-dashoffset:24;animation:FYTqGFlF_draw 1ms linear 707ms forwards;}.FYTqGFlF_79{stroke-dasharray:10 12;stroke-dashoffset:11;animation:FYTqGFlF_draw 0ms linear 708ms forwards;}.FYTqGFlF_80{stroke-dasharray:11 13;stroke-dashoffset:12;animation:FYTqGFlF_draw 0ms linear 709ms forwards;}.FYTqGFlF_81{stroke-dasharray:9 11;stroke-dashoffset:10;animation:FYTqGFlF_draw 0ms linear 710ms forwards;}.FYTqGFlF_82{stroke-dasharray:9 11;stroke-dashoffset:10;animation:FYTqGFlF_draw 0ms linear 710ms forwards;}.FYTqGFlF_83{stroke-dasharray:8 10;stroke-dashoffset:9;animation:FYTqGFlF_draw 0ms linear 711ms forwards;}.FYTqGFlF_84{stroke-dasharray:20 22;stroke-dashoffset:21;animation:FYTqGFlF_draw 1ms linear 711ms forwards;}.FYTqGFlF_85{stroke-dasharray:20 22;stroke-dashoffset:21;animation:FYTqGFlF_draw 1ms linear 712ms forwards;}.FYTqGFlF_86{stroke-dasharray:8 10;stroke-dashoffset:9;animation:FYTqGFlF_draw 0ms linear 713ms forwards;}.FYTqGFlF_87{stroke-dasharray:9 11;stroke-dashoffset:10;animation:FYTqGFlF_draw 0ms linear 714ms forwards;}.FYTqGFlF_88{stroke-dasharray:11 13;stroke-dashoffset:12;animation:FYTqGFlF_draw 0ms linear 714ms forwards;}.FYTqGFlF_89{stroke-dasharray:10 12;stroke-dashoffset:11;animation:FYTqGFlF_draw 0ms linear 715ms forwards;}.FYTqGFlF_90{stroke-dasharray:8 10;stroke-dashoffset:9;animation:FYTqGFlF_draw 0ms linear 716ms forwards;}.FYTqGFlF_91{stroke-dasharray:7 9;stroke-dashoffset:8;animation:FYTqGFlF_draw 0ms linear 716ms forwards;}.FYTqGFlF_92{stroke-dasharray:7 9;stroke-dashoffset:8;animation:FYTqGFlF_draw 0ms linear 717ms forwards;}.FYTqGFlF_93{stroke-dasharray:16 18;stroke-dashoffset:17;animation:FYTqGFlF_draw 0ms linear 717ms forwards;}.FYTqGFlF_94{stroke-dasharray:8 10;stroke-dashoffset:9;animation:FYTqGFlF_draw 0ms linear 718ms forwards;}.FYTqGFlF_95{stroke-dasharray:8 10;stroke-dashoffset:9;animation:FYTqGFlF_draw 0ms linear 718ms forwards;}.FYTqGFlF_96{stroke-dasharray:11 13;stroke-dashoffset:12;animation:FYTqGFlF_draw 0ms linear 719ms forwards;}.FYTqGFlF_97{stroke-dasharray:6 8;stroke-dashoffset:7;animation:FYTqGFlF_draw 0ms linear 720ms forwards;}.FYTqGFlF_98{stroke-dasharray:6 8;stroke-dashoffset:7;animation:FYTqGFlF_draw 0ms linear 720ms forwards;}.FYTqGFlF_99{stroke-dasharray:6 8;stroke-dashoffset:7;animation:FYTqGFlF_draw 0ms linear 720ms forwards;}.FYTqGFlF_100{stroke-dasharray:10 12;stroke-dashoffset:11;animation:FYTqGFlF_draw 0ms linear 721ms forwards;}.FYTqGFlF_101{stroke-dasharray:11 13;stroke-dashoffset:12;animation:FYTqGFlF_draw 0ms linear 721ms forwards;}.FYTqGFlF_102{stroke-dasharray:10 12;stroke-dashoffset:11;animation:FYTqGFlF_draw 0ms linear 722ms forwards;}.FYTqGFlF_103{stroke-dasharray:9 11;stroke-dashoffset:10;animation:FYTqGFlF_draw 0ms linear 723ms forwards;}.FYTqGFlF_104{stroke-dasharray:10 12;stroke-dashoffset:11;animation:FYTqGFlF_draw 0ms linear 723ms forwards;}.FYTqGFlF_105{stroke-dasharray:7 9;stroke-dashoffset:8;animation:FYTqGFlF_draw 0ms linear 724ms forwards;}.FYTqGFlF_106{stroke-dasharray:5 7;stroke-dashoffset:6;animation:FYTqGFlF_draw 0ms linear 724ms forwards;}.FYTqGFlF_107{stroke-dasharray:7 9;stroke-dashoffset:8;animation:FYTqGFlF_draw 0ms linear 724ms forwards;}.FYTqGFlF_108{stroke-dasharray:6 8;stroke-dashoffset:7;animation:FYTqGFlF_draw 0ms linear 725ms forwards;}.FYTqGFlF_109{stroke-dasharray:93 95;stroke-dashoffset:94;animation:FYTqGFlF_draw 5ms linear 725ms forwards;}.FYTqGFlF_110{stroke-dasharray:1289 1291;stroke-dashoffset:1290;animation:FYTqGFlF_draw 69ms linear 730ms forwards;}@keyframes FYTqGFlF_draw{100%{stroke-dashoffset:0;}}@keyframes FYTqGFlF_fade{0%{stroke-opacity:1;}92%{stroke-opacity:1;}100%{stroke-opacity:0;}}</style></svg>