<svg id="Layer_1" data-name="Layer 1" xmlns="http://www.w3.org/2000/svg" viewBox="0 0 1350 320.76"><title>waves</title><path d="M582,197c-5.56,1.49-11.1,3.08-16.7,4.46-7.18,1.77-14.25,3.95-21.43,5.71a152.53,152.53,0,0,1-15.92,2.85c-5.06.68-10.14,1.39-15.21,1.82-7.79.66-15.45,2-23.15,3.14-6,.86-11.95,1.41-17.94,2-5.64.56-11.3,1-16.94,1.51-8.39.8-16.78.68-25.17,1-6.15.24-12.29.5-18.44.38-6.81-.13-13.63-.28-20.42-.59-6-.27-12-.93-18-1.76-4.7-.65-9.43-1.24-14.18-1.66-6.06-.54-12.16-.75-18.18-1.51a194.45,194.45,0,0,1-27.65-5.46c-13.41-3.72-26.76-7.7-39.88-12.4-12.11-4.33-23.83-9.44-34.38-16.94-3.06-2.18-6-4.57-9.25-6.43a71.76,71.76,0,0,0-20.9-7.51c-7.24-1.53-14.6-2.43-21.9-3.6a179.49,179.49,0,0,0-35.14-1.8A137.2,137.2,0,0,0,135.77,162c-3.35.51-6.79.84-10.19,1.2a41.2,41.2,0,0,1-9.72.16" fill="none" stroke="#000" stroke-linecap="round" stroke-linejoin="round" stroke-width="2"/><path d="M705.78,295.44a56.28,56.28,0,0,1-14,4.45,94.69,94.69,0,0,1-11,1.22c-5.39.2-10.8.18-16.19,0-6.9-.2-13.81-.41-20.67-1-5.9-.53-11.81-1.21-17.69-2-6.72-.88-13.46-1.64-20.18-2.49-9.86-1.24-19.72-2.48-29.43-4.83-7.76-1.88-15.5-3.79-23.14-6.08-11.3-3.37-22.5-7.08-33.63-11-20.14-7-39.5-15.89-58.8-24.91-7.62-3.56-15.26-7-23.65-8.53-3.48-.62-6.95-1.13-10.47-1.51a194.88,194.88,0,0,0-28.4-.85c-11.87.45-23.69,1.43-35.15,5.1a171.88,171.88,0,0,0-20.93,8.48c-7.26,3.43-14.33,7.23-21.67,10.47s-15,4.58-22.65,6.29c-5,1.12-9.94,2.61-15,3.67s-10.18,2.74-15.44,3.28" fill="none" stroke="#000" stroke-linecap="round" stroke-linejoin="round" stroke-width="2"/><path d="M429.75,96.64c-2.06-2.73-5.38-3.28-8.26-4.11-5.15-1.48-10.26-3.12-15.4-4.63C399,85.81,392,83.56,384.91,81.46a26.24,26.24,0,0,1-9.71-5.74,95.89,95.89,0,0,0-25.42-15.92C340.66,55.9,334,49.4,328.83,41.1c-3.16-5.06-5.64-10.51-9.38-15.26A44.33,44.33,0,0,0,293.23,9.7c-4.1-.9-8.28-1.76-12.45-1.42a69,69,0,0,0-16.71,3.87C253.31,15.84,243,20.32,234,27.39c-4.64,3.64-8.76,7.93-13.71,11.2-9,5.95-18.77,10.32-28.67,14.4-9.31,3.84-18.75,7.34-28.13,11-13.63,5.32-26.9,11.53-40.6,16.71a223.8,223.8,0,0,1-28.19,8.56A116,116,0,0,1,79.49,92c-4.4.43-8.79,1.2-13.21.88A63.37,63.37,0,0,1,55.8,91.47,25.29,25.29,0,0,0,50.59,91c-3.58-.1-7.15-.5-10.7-.75-3.07-.22-6.18,0-9.23-.6" fill="none" stroke="#000" stroke-linecap="round" stroke-linejoin="round" stroke-width="2"/><path d="M667.66,159.42c-1.73,1.48-4,1.24-6,1.61-6.4,1.22-12.47,3.49-18.66,5.36-14.21,4.29-28.25,9.1-42.34,13.72-10.93,3.59-22,6.81-33.16,9.34-4.31,1-8.74,1.61-13.17,2.17-5.64.71-11.32.86-16.94,1.5-6.16.7-12.33,1.31-18.46,2.31-3.18.52-6.47.74-9.69,1.15-5.56.72-11.16,1-16.71,1.89-2.2.34-4.48.3-6.72.48a306.69,306.69,0,0,1-33.62.45,156.37,156.37,0,0,1-16.46-1.74c-7.78-1.1-15.42-2.83-23.14-4.15-6.76-1.16-13.43-2.78-20.2-3.88-3.07-.5-6.14-1-9.21-1.57" fill="none" stroke="#000" stroke-linecap="round" stroke-linejoin="round" stroke-width="2"/><path d="M1333.57,150.2c-2.74-.33-5.34.67-7.95,1.13-3.16.55-6.34.87-9.5,1.28a102.58,102.58,0,0,1-20.66.49,185.9,185.9,0,0,1-39.4-6.76c-9.74-2.86-19.39-5.9-28.58-10.15-6.9-3.19-13-7.7-19.24-12.11a72.28,72.28,0,0,0-29.85-12.1c-4.07-.72-8.16-1.79-12.23-2-6.28-.33-12.55-.86-18.94-.27-13.81,1.27-26.06,7.16-38.56,12.21-11.78,4.75-23.53,9.51-35.94,12.25-4.23.94-8.62,1.43-12.92,2.16-3,.51-6.18.43-9,1.93a1.55,1.55,0,0,1-2-.24q-7.57-6.64-15.19-13.21c-9-7.72-17.37-16.22-27.41-22.66a83.83,83.83,0,0,0-29.63-11.77,147.1,147.1,0,0,0-17.19-2.08A79,79,0,0,0,947.19,88c-6.32.52-12.65.82-19,1.78a161.27,161.27,0,0,0-29.64,7.55c-6.05,2.15-11.83,4.92-17.64,7.59-6.19,2.85-12.78,4.05-19.25,5.81-.89.24-1.44.82-2.22,1.08" fill="none" stroke="#000" stroke-linecap="round" stroke-linejoin="round" stroke-width="2"/><path d="M921,177.85c-7,1.8-14.1,3.22-21.17,4.77-6.14,1.35-12.26,2.76-18.43,4-3.65.75-7.31,1.32-11,1.95-8.69,1.49-17.44,1-26.16.89a124.39,124.39,0,0,1-17-1.84c-6-.93-12-2.21-17.93-3.53a239.28,239.28,0,0,1-38.83-12.06c-12.18-5-24.62-9.44-36.39-15.4a67,67,0,0,1-15.69-11.2A281.54,281.54,0,0,0,691.87,123c-7.77-5.7-14.11-12.9-20.32-20.29A156.84,156.84,0,0,0,655.4,86.49,264.48,264.48,0,0,0,630.08,67c-4.42-3.05-9.36-4.46-14.48-5.41a131.56,131.56,0,0,0-15.2-1.87c-5.51-.37-11.13-.67-16.69.29-2,.35-4.14.22-6.23.48-4.91.6-9.8,1.32-14.7,2-3.9.52-7.79,1.09-11.7,1.55-5.43.64-10.81,1.61-16.18,2.58-6.18,1.11-12.31,2.54-18.44,3.95-9.62,2.21-19.17,4.73-28.64,7.49-16,4.64-31.5,10.8-47.34,15.91-3.36,1.08-6.76,2-10.16,2.93-3.09.83-6.16,2.1-9.28,3-11.69,3.47-23.37,6.94-34.86,11-10,3.57-20,7.47-30.16,10.66a225.5,225.5,0,0,1-28.63,7.3c-6.2,1.08-12.4,2-18.69,2.51-4.82.4-9.64.63-14.45,1-16.1,1.23-32.23.62-48.33,1.06-5.9.16-11.83-.15-17.68.47-5.42.58-10.81.14-16.2.4" fill="none" stroke="#000" stroke-linecap="round" stroke-linejoin="round" stroke-width="2"/><path d="M1050.56,138.74c1.75,3.29,5.09,4.93,7.79,7.15q12.09,10,25.11,18.75a228.1,228.1,0,0,0,44.6,23.4c10.78,4.19,21.4,8.8,32.37,12.49a161.36,161.36,0,0,0,22.41,5.55c6,1.09,12,1.94,18,2.86,4.86.75,9.81.89,14.68,1.58a141.79,141.79,0,0,0,22.68,1.45c6.34-.12,12.64-.74,18.94-1.41,5-.53,10-1.22,14.93-2.1,7.12-1.27,14.29-2.37,21.18-4.71" fill="none" stroke="#000" stroke-linecap="round" stroke-linejoin="round" stroke-width="2"/><path d="M1247.37,258.07a40.31,40.31,0,0,0-8-.6c-6.78-.26-13.24-1.93-19.66-3.7a233.19,233.19,0,0,1-33.35-12c-16.74-7.51-34-13.93-49.86-23.33-12.85-7.62-25.56-15.47-38.39-23.13a77.09,77.09,0,0,0-25.88-9.82,80,80,0,0,0-20.19-.77,208.29,208.29,0,0,0-28.42,4.29c-8.75,1.86-17.38,4.09-25.89,6.79-20,6.35-40.18,12.12-60.57,17.07-6.21,1.51-12.54,2.7-18.9,3.66-7.29,1.09-14.57,2-21.93,2.49-5,.34-10,.72-14.95,1-4.73.26-9.47.64-14.2,1-5.32.42-10.64.93-15.95,1.46-5.15.51-10.28,1.15-15.45,1.46-1.08.06-2.09.61-3.24.52-.91-.07-.51,1.06-1,1.46" fill="none" stroke="#000" stroke-linecap="round" stroke-linejoin="round" stroke-width="2"/><path d="M876.93,233.9c-4.4-.67-8.82-1.19-13.22-1.91-2.63-.43-5.3-.79-8-1-3.61-.32-7.14-1-10.7-1.6a137.07,137.07,0,0,1-18.94-4.42,171.63,171.63,0,0,1-41.36-19.67c-8.21-5.23-15.91-11.18-23.94-16.65a142.89,142.89,0,0,0-37.09-18c-5.06-1.62-9.72-4.17-14.68-6a96.74,96.74,0,0,0-16.69-4.52c-6.14-1.12-12.29-.85-18.45-.91-.75,0-1.6.3-2.25.34-1.44.1-2.88.64-4.36-1.25a53.67,53.67,0,0,0-9.3-9.11c-.41-.32-.72,0-1-.21" fill="none" stroke="#000" stroke-linecap="round" stroke-linejoin="round" stroke-width="2"/><path d="M966.86,124.29c-6.57,0-13.15.22-19.67.7-5.39.4-10.67-.1-16-.35-5.65-.27-11.32-1-17-1.73-4.55-.58-9.14-1-13.68-1.69-5.83-.83-11.66-1.79-17.47-2.81-5-.87-10-1.39-14.92-2.62-3.07-.77-6.24-1.52-8.72-3.71-1.27-1.13-2.85-.6-4.26-.94-3.86-.92-6.65-3.67-9.93-5.56a113.73,113.73,0,0,0-25.16-10.24c-6.43-1.89-13-3.23-19.48-4.79a106.7,106.7,0,0,0-11.42-1.72,103.77,103.77,0,0,0-12.72-.36,47.79,47.79,0,0,0-18.42,3.75c-13.77,5.65-27.61,11.11-41.64,16.1a4.5,4.5,0,0,1-1.73.3" fill="none" stroke="#000" stroke-linecap="round" stroke-linejoin="round" stroke-width="2"/><path d="M221,79.7c4.5,5,9.47,9.63,14.21,14.44s9.4,9.54,14.21,14.19c4.3,4.15,9.72,6.16,15.43,7.49a107.8,107.8,0,0,1,11.71,3" fill="none" stroke="#000" stroke-linecap="round" stroke-linejoin="round" stroke-width="2"/><path d="M629.05,115.82a73.42,73.42,0,0,0,10.73,14.69c8.91,9.64,19.81,16.46,31.63,21.93" fill="none" stroke="#000" stroke-linecap="round" stroke-linejoin="round" stroke-width="2"/><path d="M1011.2,144.47a76,76,0,0,0,12.21,23.16,68.14,68.14,0,0,0,16,14.43c1.26.84,2.65,1.46,3.23,3" fill="none" stroke="#000" stroke-linecap="round" stroke-linejoin="round" stroke-width="2"/><path d="M252.38,38.09c-3,.23-5.76-1-8.72-1.09a4,4,0,0,0-2.48.61c-7.23,4.87-14.48,9.69-20.45,16.17a37.36,37.36,0,0,0-9.21,16.95" fill="none" stroke="#000" stroke-linecap="round" stroke-linejoin="round" stroke-width="2"/><path d="M256.36,278.75c-3.41.09-6.64,1.18-10,1.76Q237.67,282,229,283.76a22.78,22.78,0,0,1-5.24.47" fill="none" stroke="#000" stroke-linecap="round" stroke-linejoin="round" stroke-width="2"/><path d="M371,185.82c-6.14-1.33-12.28-2.7-18.44-4a69.55,69.55,0,0,1-13.45-4" fill="none" stroke="#000" stroke-linecap="round" stroke-linejoin="round" stroke-width="2"/><path d="M28.67,88.66a129.83,129.83,0,0,0-17.94,0" fill="none" stroke="#000" stroke-linecap="round" stroke-linejoin="round" stroke-width="2"/><path d="M1146.73,266c5.09,2.46,9.62,6.13,15.44,7,.71.11,1.33.37,2,0" fill="none" stroke="#000" stroke-linecap="round" stroke-linejoin="round" stroke-width="2"/><path d="M189.1,285.47a123.44,123.44,0,0,0-17.44,0" fill="none" stroke="#000" stroke-linecap="round" stroke-linejoin="round" stroke-width="2"/><path d="M210.28,73v14.2" fill="none" stroke="#000" stroke-linecap="round" stroke-linejoin="round" stroke-width="2"/><path d="M292.74,121.05l-13.2-1.25" fill="none" stroke="#000" stroke-linecap="round" stroke-linejoin="round" stroke-width="2"/><path d="M705.28,110.84c-4.32.15-8.65-.31-13,.25" fill="none" stroke="#000" stroke-linecap="round" stroke-linejoin="round" stroke-width="2"/><path d="M678.13,110.84a5.36,5.36,0,0,1-3.49,1c-2.57,0-5.16-.36-7.72.21" fill="none" stroke="#000" stroke-linecap="round" stroke-linejoin="round" stroke-width="2"/><path d="M205,286.47a37.17,37.17,0,0,1-9.47,0" fill="none" stroke="#000" stroke-linecap="round" stroke-linejoin="round" stroke-width="2"/><path d="M221,285.47a37.17,37.17,0,0,0-9.47,0" fill="none" stroke="#000" stroke-linecap="round" stroke-linejoin="round" stroke-width="2"/><path d="M1136.51,260.81c2.28,1.84,5.19,2.64,7.47,4.48" fill="none" stroke="#000" stroke-linecap="round" stroke-linejoin="round" stroke-width="2"/><path d="M380.43,186.82a20.1,20.1,0,0,1-7,0" fill="none" stroke="#000" stroke-linecap="round" stroke-linejoin="round" stroke-width="2"/><path d="M767.31,237.64l6.23,5.48" fill="none" stroke="#000" stroke-linecap="round" stroke-linejoin="round" stroke-width="2"/></svg>