<svg id="Layer_1" data-name="Layer 1" xmlns="http://www.w3.org/2000/svg" viewBox="0 0 1350 1080"><title>work__cloud</title><path d="M340.34,931.71l.35,3.08c-.44.63-1.37,1.34-1.4,2.09-.31,8.7-5.7,15.5-8.6,23.21-3.21,8.53-9.71,12.4-18.75,11.79-5.68-.39-11.35-1.09-17.59-1.7-3.77,4.61-8,9.84-12.29,15-4.5,5.41-10.49,8-17.32,8.85-5,.64-10.08,1.67-15.12,1.7A31.92,31.92,0,0,1,239,993.57c-4.42-1.58-7.08-5-9-9.45-4.32-10.07-8.59-20.09-10.27-31-.15-1-1-1.85-1.54-2.9-3.75,1.85-5.18,5.24-7.28,8-6.69,9-13.74,17.7-22.56,24.62a132.39,132.39,0,0,1-19.55,12.85c-6.15,3.27-13.15,4.2-19.6-2.3-5.67-5.71-10.3-11.7-11.6-19.69-.77-4.73-.83-9.58-1.17-14.37-.09-1.35,0-2.7,0-4.06" fill="none" stroke="#000" stroke-linecap="round" stroke-linejoin="round" stroke-width="2"/><path d="M84.4,239.48c-1.11.74-2.48,1.26-3.27,2.25a179.84,179.84,0,0,0-11,14.4,63.48,63.48,0,0,0-9.66,25.4c-1.65,11.06-.51,22.06,5,31.57,4.79,8.21,10,16.6,18.16,22.31,1.19.83,2,2.2,3.23,3.61-4.8,3.18-8.62,6.43-11.09,11.4a17.56,17.56,0,0,0-.22,15.93c1.13,2.57,2.29,5.13,3.61,8.08-7.65,4.46-12.79,10.63-12.83,19.95" fill="none" stroke="#000" stroke-linecap="round" stroke-linejoin="round" stroke-width="2"/><path d="M760.77,890.41c-4.85-8.73-12.2-14.47-21.38-18.1-1.9-.75-2.62-2.22-3.58-4.29-3.68-8-8.39-15.32-16.31-20.09-5.3-3.19-10.29-6.63-16.15-9.06-6.54-2.71-13.07-3.21-19.65-2.91a104,104,0,0,0-36.13,8.75c-10.08,4.31-20.19,8.88-26.46,18.47-2.52,3.86-3.52,8.68-5.72,12.8-2.62,4.91-2.1,9.45.44,14.05" fill="none" stroke="#000" stroke-linecap="round" stroke-linejoin="round" stroke-width="2"/><path d="M1041.79,901.47a8.68,8.68,0,0,1-2.19-1.13c-7.65-7.34-14.56-15.72-23.1-21.81-7.83-5.58-15.44-12.15-25.23-14.71-7.3-1.9-14.71-2.09-22.13-1.73-3.27.16-6,2-8.13,4.7s-4.56,5.31-6.59,8.15a20.65,20.65,0,0,0-3.79,11.77c-.28,10.5.14,20.89,3.41,31,.82,2.51,1.94,4.93,2.93,7.38" fill="none" stroke="#000" stroke-linecap="round" stroke-linejoin="round" stroke-width="2"/><path d="M1226.19,713c2.09.86,4.19,1.7,6.27,2.59a26.33,26.33,0,0,1,12.83,12.21,104.56,104.56,0,0,1,10.93,33.49c.89,5.53-.15,10.7-1,15.86-2,12-5,23.85-10.92,34.7a92,92,0,0,1-20.37,25c-1.48,1.3-3.86,1.55-5.83,2.29" fill="none" stroke="#000" stroke-linecap="round" stroke-linejoin="round" stroke-width="2"/><path d="M95.09,422.4c-2.21-4.79-3.89-9.95-6.79-14.28A42.35,42.35,0,0,0,78,397.47c-5.49-3.94-11.83-3.49-18.34-.55,0-1.44-.36-2.71.06-3.62,2-4.33-.49-7.81-2.39-11-2.63-4.43-8-4.64-12-.77-3.59,3.44-4.79,8-4.79,12.87a23.17,23.17,0,0,0,.74,5.52c.62,2.5.52,5.46,4,6.36,1,.27,1.81,1.56,2.92,2.58-1.6,3.2-3.38,6.27-4.69,9.52a129.12,129.12,0,0,0-4.44,12.9c-2.22,7.86.46,15.18,2.92,22.48.63,1.88,1.48,3.69,2.19,5.54,1.74,4.49,3.45,9,7.73,11.83a22.45,22.45,0,0,1,3,2.92c4.17,4.13,7.92,8.89,14.38,9.59" fill="none" stroke="#000" stroke-linecap="round" stroke-linejoin="round" stroke-width="2"/><path d="M340.71,936.14c3.41,9.46,10.47,16.07,17.73,22.47,3.75,3.3,7.17,6.21,6.85,12.21-.23,4.36,1.78,8.83,2.7,13.27a20.31,20.31,0,0,0,11.12,14.29c5.42,2.81,10.87,5.84,17.29,6,10.38.27,21.72-10.63,20.36-23.26a114.74,114.74,0,0,1-.63-18.42c.14-2.64,2.09-5.28,3.55-7.73,2.06-3.46,4.42-6.73,6.78-10.27,6.31,8.29,12.43,15.68,17.79,23.58,6.41,9.45,16,13,26.27,15.42,13,3.1,25.2,1,36.88-5.16,5.91-3.11,9.77-8.25,13.24-13.67,3.35-5.24,6.37-10.68,9.89-16.64a43.14,43.14,0,0,0,23-4" fill="none" stroke="#000" stroke-linecap="round" stroke-linejoin="round" stroke-width="2"/><path d="M1244.63,317.3c3-1.6,5.73-3.9,8.88-4.65a22,22,0,0,1,20.47,5.19c4.08,3.71,6.84,8.89,10.06,13.52a6.47,6.47,0,0,1,.76,3.29c.34,8.23.2,16.4-2.52,24.35-2,5.95-6.79,8.1-12.21,9.58-7.19,2-13.79-.53-20.25-3-3.77-1.47-7.16-3.89-10.27-5.63-3.61,2.26-7.49,4.86-11.54,7.16-4.21,2.38-8.59,4.45-12.88,6.69a33.52,33.52,0,0,0-2.83,2c2.84,1,4.94,1.57,6.87,2.48,14.34,6.77,25.82,16.17,27.6,33.17,1.92,18.39.84,36.24-12,51.3-2.24,2.61-3.74,5.85-5.59,8.8" fill="none" stroke="#000" stroke-linecap="round" stroke-linejoin="round" stroke-width="2"/><path d="M116.85,316.56c-1.72,6.39-3.89,12.71-5,19.21-.61,3.65.5,7.6.94,11.4,1.07,9.22,4.64,17.2,12.58,22.42a130.93,130.93,0,0,0,16.59,9.2,67.64,67.64,0,0,0,14.73,5.15c12.93,2.67,25.36.68,33.1-13.2,4-7.13,6.67-14.81,6.31-23.2a12.17,12.17,0,0,0-.77-4.76c-4.25-8.55-6.48-18.28-14.24-24.89l-3.77,1.62" fill="none" stroke="#000" stroke-linecap="round" stroke-linejoin="round" stroke-width="2"/><path d="M157,720.76A18.6,18.6,0,0,1,160.7,723c5.27,5.2,12,7.77,18.37,11.22,5.06,2.75,9.53,6.85,13.68,10.94,11.76,11.59,16.53,26.05,16.29,42.35-.19,12.34-3.16,24.14-7,35.77-.77,2.33-1.48,4.67-2.22,7" fill="none" stroke="#000" stroke-linecap="round" stroke-linejoin="round" stroke-width="2"/><path d="M803.92,239.11a22.49,22.49,0,0,1-8.8,6.74,102.77,102.77,0,0,0-12.93,7.68,110.1,110.1,0,0,1-40.63,16.73c-5.54,1.1-11.52,0-17.29-.2-2.71-.1-5.42-.42-8.11-.72-8.15-.91-14.08-6.08-20.28-10.69-4-3-8.76-5.19-10.7-10.32" fill="none" stroke="#000" stroke-linecap="round" stroke-linejoin="round" stroke-width="2"/><path d="M113.16,582.46c8.23,1.92,16,4.34,18.5,14,1.24,4.76,3.46,9.28,4.67,14,2.74,10.78.88,21.21-4.1,30.91-3.09,6-7.26,11.44-10.81,16.93,2.92,3.32,6.51,7.12,9.78,11.18,5.46,6.76,4.26,14.41,2.64,22.11a18.62,18.62,0,0,1-6.3,10.32" fill="none" stroke="#000" stroke-linecap="round" stroke-linejoin="round" stroke-width="2"/><path d="M1226.19,300.33c3-1.48,6.15-2.6,8.8-4.5A34.57,34.57,0,0,0,1247.43,280c1.19-3.13,1-6.82,1.22-10.27.52-9.87-4.86-17.25-10.72-24.3a66.31,66.31,0,0,0-8.86-8.82c-2.93-2.41-6.36-4.2-9.86-6.45,2.65-2.49,5.36-4.71,7.66-7.31,2.9-3.27,6.24-6.49,8-10.37,2.37-5.32,1.06-11-1.68-16.13-2.6-4.86-5.44-9.6-8.18-14.39,3.59-5.05,7.8-10.49,11.47-16.27,5-7.81,8.32-16.25,7.79-25.78-.26-4.69,1.2-9.69-1.52-14-4.09-6.47-9.31-11.64-17.65-11.76a12.33,12.33,0,0,0-5.14,1.44c-5.09,2.4-10.23,4.88-14,9.23a24,24,0,0,0-4.05,7c-2.18,5.7-4,11.53-6,17.31" fill="none" stroke="#000" stroke-linecap="round" stroke-linejoin="round" stroke-width="2"/><path d="M1279.66,286.69c7.51-5.79,7.24-14.11,6.47-22.11-.58-6.07-8-9.44-13.81-6.58-7.19,3.56-11.94,9.12-12.65,17.62-.32,3.77-.64,7.56-3.5,10.8-2.12,2.4-1.74,7.67.29,9.83,5,5.29,10.89,8.42,18.41,7.4s10.48-7.81,6.27-14c-.59-.87-1.23-1.72-1.84-2.58" fill="none" stroke="#000" stroke-linecap="round" stroke-linejoin="round" stroke-width="2"/><path d="M488.23,220.67c.86,3.44,2,6.84,2.52,10.34a18,18,0,0,0,10.37,14.4c9.22,4.59,9.58,4.46,14.26,13.69,3.17,6.25,7.77,10.92,13.09,15,6.77,5.18,14.9,4.95,22.82,4.39,6.34-.45,12.25-2.92,18.09-5.41,5.18-2.2,7.72-6.38,9.21-11.46l.72-2.5c12.58-.26,21.23-8.27,30.25-15.57" fill="none" stroke="#000" stroke-linecap="round" stroke-linejoin="round" stroke-width="2"/><path d="M1141.73,393.27c-2.7,5.16-5.85,10.15-8,15.53-3.65,9.11-4.14,18.16,3.61,25.75,4.41,4.32,9.07,8.39,13.62,12.56,1,.94,2.09,1.83,3.46,3-1.27,1.47-2.18,3-3.49,3.94-7.73,5.69-8.07,13.58-6.14,21.78a39.33,39.33,0,0,0,9,16.71c3.67,4.25,6.39,9.32,9.46,13.92.36,0,.53,0,.59,0s0-.3,0-.34c.35-.27.73-.5,1.1-.75" fill="none" stroke="#000" stroke-linecap="round" stroke-linejoin="round" stroke-width="2"/><path d="M550.92,886.35c0-2.7,0-5.41,0-8.11a22.37,22.37,0,0,0-6.51-16.73c-3.28-3.38-5.57-8-10.13-9.72a126.59,126.59,0,0,0-17.68-5.18,109.57,109.57,0,0,0-16.21-2.19,17.8,17.8,0,0,0-7.71,1.44c-7.83,3.24-15.54,6.77-23.26,10.26-4.39,2-6.07,6.48-8.86,9.94a9.88,9.88,0,0,1-.73.74" fill="none" stroke="#000" stroke-linecap="round" stroke-linejoin="round" stroke-width="2"/><path d="M875.46,89.38c-1.91-6.48-4.68-12.38-9.92-17s-11.92-8.17-21-3.59A67.94,67.94,0,0,0,824.66,84.3c-3.71,4.11-3.68,9.72-4.2,15-.75,7.71-.31,15,4,21.83,1.26,2,.7,4.5-1.3,6.63-3.18,3.39-5.93,7.19-9.21,11.24-1.77-2-4.23-4.5-6.3-7.28-3.28-4.42-6.9-8.85-12.25-10.13-8.85-2.12-17.82-1.76-25.7,3.63-1.61,1.1-2.36,3.54-3.36,5.44a20.05,20.05,0,0,0-1.1,3.18c-4.69-3.75-9-7.56-13.72-10.88-5.21-3.69-13.46-3.4-17.92.79-1.75,1.65-2.32,4.56-3.43,6.89" fill="none" stroke="#000" stroke-linecap="round" stroke-linejoin="round" stroke-width="2"/><path d="M151.15,678a57.62,57.62,0,0,0-3.54-21.29c6.31-4.56,12.94-8.83,19-13.83a236.89,236.89,0,0,0,18.08-16.94c4.48-4.59,4.78-13.17.75-18.34-6.51-8.34-13.54-16.24-23.94-19.9a88.53,88.53,0,0,0-9.57-2.27" fill="none" stroke="#000" stroke-linecap="round" stroke-linejoin="round" stroke-width="2"/><path d="M1086.78,192.64c-2.58-6.39-4.76-13-7.85-19.12-3.36-6.66-8.28-8.47-15.37-6.67-5.72,1.45-11.4,3.09-17.46,4.74-.19-3.26-.55-7-.59-10.66-.08-7.51-3.74-13.19-9.31-17.63-3.33-2.66-7.44-3-11.75-2.35-8.09,1.17-12.88,6.58-17.32,12.6" fill="none" stroke="#000" stroke-linecap="round" stroke-linejoin="round" stroke-width="2"/><path d="M1225.82,711.91c3.2-3.81,6.64-7.45,9.51-11.49,2.48-3.49,4.31-7.43,6.22-10.81,5.24,1.23,10.06,3.27,14.88,3.3,10.42.06,17.59-5.41,20.5-13.88a55.67,55.67,0,0,0,2.61-15.44c.32-7.05-1.35-13.46-8.32-17.4-3.57-2-6.57-5-10-7.25-3.8-2.47-9.17-3.3-12.91,1-2,2.36-4.68,4.24-6.52,6.73-1.5,2-2.2,4.65-3,6.48l-13.69-13a55.84,55.84,0,0,0,5.14-4.65,54.85,54.85,0,0,0,6.6-8.49c3.08-5.32,2.13-8.52-2.87-12.13-.56-.4-1.11-.83-2.13-1.6,1.76-1.61,3.14-3.08,4.73-4.28,6.66-5,7.68-11.73,5.47-19.19-1.9-6.43-4.11-12.9-10.69-16.17-3.25-1.62-6.85-2.53-10.29-3.76" fill="none" stroke="#000" stroke-linecap="round" stroke-linejoin="round" stroke-width="2"/><path d="M1157.59,672.08c-6.84,8.49-16.47,14.3-22.53,23.58-5.32,8.14-7.25,16.75-6.84,26.59.44,10.74,4.07,20.34,8.12,29.8,4.27,10,12.25,16.89,21.62,22.19.62.35,1.23.74,1.85,1.1" fill="none" stroke="#000" stroke-linecap="round" stroke-linejoin="round" stroke-width="2"/><path d="M1018.19,135.85c-7.74-5.16-15.42-10.43-23.25-15.46-7.33-4.71-13.91-3.3-16.94,6.24-.24.74-.43,1.49-.59,2-3.25-2.4-6.31-5.12-9.78-7.11-7-4-14.59-4.46-22.47-2.72-5.39,1.19-9.29,3.87-13.08,8-4.67,5.09-7.13,11-9.4,17.13" fill="none" stroke="#000" stroke-linecap="round" stroke-linejoin="round" stroke-width="2"/><path d="M302.72,871.6c-4.3-5.53-8.44-11.2-12.94-16.57-8.42-10-19.2-15.67-32.42-15.81-5.14-.05-10.4.31-15.11,2.89-2.52,1.38-4.16,1.45-6-1.43-3.75-5.85-8.88-10.45-16.14-11-6-.47-12.13-1.1-18.07,1a25.17,25.17,0,0,1-4.06.68c7.36,8.84,6.41,26.6-.72,37" fill="none" stroke="#000" stroke-linecap="round" stroke-linejoin="round" stroke-width="2"/><path d="M485.64,875.65c-5.39-4.72-11.19-8.74-18.8-7.66-4.31.62-8.5,2.12-13.84,3.51-1.1-1.57-3.3-3.86-4.53-6.59-5.14-11.41-15.24-16.52-25.9-21-4.43-1.85-8.74-.28-12.87,1.16-2.61.92-5,2.6-7.55,4-5.59-11.39-16-17-27.55-18.11-15.45-1.54-31.29-.72-44.88,8.6A61.41,61.41,0,0,0,317.58,851c-4.83,5.81-9,12.18-13.33,18.39-.7,1-.78,2.43-1.15,3.66" fill="none" stroke="#000" stroke-linecap="round" stroke-linejoin="round" stroke-width="2"/><path d="M154.1,495.06c.83,9.09-3.77,16.82-6.3,25.23,3.78,4,8.48,7.48,11.27,12.14,4.38,7.31,9,14.94,7.56,24.22-1.09,6.95-4.37,13-8.16,18.77-6,9.05-13.21,16.92-23.17,21.82-.34.17-.5.71-.75,1.08" fill="none" stroke="#000" stroke-linecap="round" stroke-linejoin="round" stroke-width="2"/><path d="M976.51,225.1c-5.41,6.64-10.38,13.71-16.36,19.78-5,5.05-11.78,7-19,7.19-11.75.38-23.38,0-34.67-3.75-8.12-2.68-16.27-5.3-24.33-8.15-4.17-1.48-7-4.27-6.65-9.18" fill="none" stroke="#000" stroke-linecap="round" stroke-linejoin="round" stroke-width="2"/><path d="M1163.86,507.23c-4.55,3.93-9.54,7.46-13.54,11.9a55.62,55.62,0,0,0-12.66,22.4c-2.45,8.84-2.09,17.57-.55,26.59,1.14,6.65,1.61,13.3,5.36,19.15.53.83.78,2,1.51,2.53,6.51,4.43,8.16,12.55,13.6,17.77.25.24.26.72.39,1.09" fill="none" stroke="#000" stroke-linecap="round" stroke-linejoin="round" stroke-width="2"/><path d="M1227.29,470.35c3.55,3.46,8.67,4.52,11.93,8.75,5.24,6.8,7.49,14.58,9.44,22.6.83,3.42,2.11,6.88,2.12,10.32,0,12.14-1.69,24-7.28,35-4.43,8.72-11.62,14.85-19.49,20.34-1.83,1.27-3.23,3.15-4.83,4.75" fill="none" stroke="#000" stroke-linecap="round" stroke-linejoin="round" stroke-width="2"/><path d="M94.35,894.46c-4.92,6-10.84,11.5-14.49,18.21-4.26,7.84-8.56,16.35-4.73,26.06,2.11,5.36,6.09,9.39,9.24,14,3.52,5.16,8.47,8.63,13.68,11.77,6.46,3.89,13,3.13,19.53,0,3.72-1.78,7.38-3.68,11.07-5.52" fill="none" stroke="#000" stroke-linecap="round" stroke-linejoin="round" stroke-width="2"/><path d="M433.28,132.16c-1.14-6.31-5.91-9.79-10.74-12.83-8.83-5.56-18.79-7.78-29.08-9a157.64,157.64,0,0,1-20.26-3.74c-3.93-1-7.14.33-10.32,1.69a181.67,181.67,0,0,0-16.59,8.1c-3.86,2.13-6.08,5.89-7.78,9.89" fill="none" stroke="#000" stroke-linecap="round" stroke-linejoin="round" stroke-width="2"/><path d="M1133.25,299.23c-2.46,2.21-5.2,4.19-7.32,6.68-6.86,8.05-14,15.91-17.06,26.5-3,10.39-2.55,20,4,29.21,3.14,4.4,4.87,9.79,7.94,14.25a149.62,149.62,0,0,0,12.54,15.47c1.61,1.77,4.33,2.55,6.54,3.78" fill="none" stroke="#000" stroke-linecap="round" stroke-linejoin="round" stroke-width="2"/><path d="M97.67,529c-6.52,1.84-13,3.84-19.56,5.46a12.38,12.38,0,0,0-7,4.13c-5.74,7-8.14,15.12-9.35,23.95-.83,6.06,2,11.1,3.11,16.61.43,2.13,1.38,4.15,1.78,6.28,1.81,9.45,8.88,14.65,15.9,19.89,1.77,1.32,3.68,2.47,5.52,3.7" fill="none" stroke="#000" stroke-linecap="round" stroke-linejoin="round" stroke-width="2"/><path d="M1134,209.61c.12-3-.26-6,.46-8.83,2.59-10,5.38-20,8.49-29.86a27.35,27.35,0,0,1,5.21-9.5c1.86-2.14,1.93-4.15,1.66-6.39-.88-7.27-1.4-14.64-3.1-21.72-1.06-4.43-3.68-8.6-6.16-12.53-2.87-4.57-8.14-5-12.84-5.89a48.57,48.57,0,0,0-31,4.34c-6.07,3-12.27,5.71-18.61,8.65-3-7.59-9.7-11.47-16.06-15.61-6.7-4.36-13.19-3-19.13,1.49a160.32,160.32,0,0,0-24.34,22.48,9.63,9.63,0,0,0-1.13,2.56" fill="none" stroke="#000" stroke-linecap="round" stroke-linejoin="round" stroke-width="2"/><path d="M195,451.17c6.73,5.21,13.06,10.65,16.66,18.78,7,15.93-1.28,30.54-17,34.47-5.26,1.32-10.13.46-15.15-.16s-10.32-1.53-15.5-2.16c-3.46-.42-6.25-1.79-8.11-4.82" fill="none" stroke="#000" stroke-linecap="round" stroke-linejoin="round" stroke-width="2"/><path d="M797.65,962.69c1.23,1.35,3,2.5,3.6,4.09,2.87,7.65,9.16,10.51,16.31,12.53,9.19,2.61,18.31,5.62,28,5.08,2.48-.14,4.91-1,7.38-1.41,9.22-1.5,18-4.65,26.49-8.26,5.34-2.27,8.92-7,11.86-12" fill="none" stroke="#000" stroke-linecap="round" stroke-linejoin="round" stroke-width="2"/><path d="M1158.33,776.82c-6.39,5.65-12.91,11.18-19.13,17a107.38,107.38,0,0,0-9.24,10.29c-6.24,7.6-9.52,16.42-10.81,26.15-.6,4.57,1,8.47,2.31,12.55.79,2.44,1.66,4.86,2.74,8-3.33-1.37-5.92-2.68-8.66-3.52a38.05,38.05,0,0,0-27.26,1.47c-4.63,2-9,4.6-13.68,6.56-10.54,4.44-17.19,13.11-24.44,21.33-4.94,5.6-7.13,12.2-9.49,18.9-.4,1.14-1,2.22-1.46,3.32" fill="none" stroke="#000" stroke-linecap="round" stroke-linejoin="round" stroke-width="2"/><path d="M893.9,964.9c.86,4.5,3.5,8,6.67,11,7.19,6.88,15.94,11,25.43,13.63a22.29,22.29,0,0,0,6.26.74c7.62-.14,15.28-.11,22.85-.85a26.1,26.1,0,0,0,10.28-3.64c5.87-3.45,11.42-7.44,17-11.39,1.15-.82,1.76-2.4,2.62-3.63" fill="none" stroke="#000" stroke-linecap="round" stroke-linejoin="round" stroke-width="2"/><path d="M89.93,741c-4.21,6.42-9.85,11.72-13.4,18.75-6.38,12.64-7,25.32-3.31,38.81C76.63,811,83.87,820.29,94,827.71l7,5.16" fill="none" stroke="#000" stroke-linecap="round" stroke-linejoin="round" stroke-width="2"/><path d="M505.19,130.69c-1.23-4.3-2.43-8.61-3.7-12.9a9.92,9.92,0,0,0-5.89-6.65c-2.84-1.2-5.74-2.29-8.47-3.72-4.93-2.59-9.92-2.51-15.15-1.11-5.73,1.53-11.67,2.36-17.29,4.2-6.63,2.16-11.38,6.93-14.37,13.2-2,4.18-3.53,8.57-5.16,12.9-.23.61.2,1.46.32,2.19" fill="none" stroke="#000" stroke-linecap="round" stroke-linejoin="round" stroke-width="2"/><path d="M1191.52,282.63c-3.4-8.3-15.27-10.43-22.15-6.67-2.59,1.42-3.59,3.55-4.07,6.3-1.17,6.75-4.13,8.05-9.93,8.06-9.42,0-15.47,4.67-19.18,13-.11.25-.36.49-.35.74.2,9.1-1.51,18.55,4.78,26.55" fill="none" stroke="#000" stroke-linecap="round" stroke-linejoin="round" stroke-width="2"/><path d="M112.42,610.86c-5-1.3-9.9-2.22-15.16-.88-2.38.61-5.15-.32-7.71-.55-3.67,3.54-8,6.93-11.33,11.1-5.81,7.22-11.41,14.73-13,24.27a28,28,0,0,0-.36,6.26c.37,5.79.62,11.61,1.54,17.32.69,4.32,3.54,7.46,7.22,10a130.58,130.58,0,0,1,13.25,10.7c2.13,2,4.19,3.44,7.08,3.61" fill="none" stroke="#000" stroke-linecap="round" stroke-linejoin="round" stroke-width="2"/><path d="M740.48,193.38c-.41,17.3-8.94,28.95-23.86,37.44-13.68,7.79-30.86,3.41-40-4.54-3.46-3-4.93-6.85-6.57-10.77" fill="none" stroke="#000" stroke-linecap="round" stroke-linejoin="round" stroke-width="2"/><path d="M1127.35,956.79c1.84,2.46,3.73,4.89,5.52,7.38,2.37,3.3,5.78,4.59,10.21,5.38,2.17,3.08,4.5,6.72,7.17,10.07,3.45,4.33,7.36,6.38,13.65,5.52s11.6-2.61,15.8-7.35a45,45,0,0,0,2.74-3.72c3.37,3.55,6.51,7.47,10.25,10.67,5.34,4.55,11.75,4.69,17.95,2.15a11.72,11.72,0,0,0,5.78-5.47c1.46-3.24,1.66-7,2.4-10.61" fill="none" stroke="#000" stroke-linecap="round" stroke-linejoin="round" stroke-width="2"/><path d="M528.06,954.58c2.09,5.9,4.2,11.79,6.26,17.7,2.4,6.87,7.47,10.54,14.4,11.76a72,72,0,0,0,12.53,1.42c6.46,0,11.31-3.28,14.78-8.74,1.85-2.9,4-5.61,6.24-8.74a24.54,24.54,0,0,0,9.2,11.7,36.35,36.35,0,0,0,19.2,6.25c1.72.07,3.44.24,5.16.36,10.43.75,20.95,1.69,31-2.28,8.14-3.23,15.55-7.69,19.94-15.79" fill="none" stroke="#000" stroke-linecap="round" stroke-linejoin="round" stroke-width="2"/><path d="M646.44,963.43c1.41,3.18,4.46,2.74,7,2.88,4.41.25,8.85.07,13.52.07,1.73,3.72,5,6.29,8.92,8.57,7.09,4.15,14.08,8.44,21.8,11.36,13.16,5,24.68,2.42,34.67-7.39" fill="none" stroke="#000" stroke-linecap="round" stroke-linejoin="round" stroke-width="2"/><path d="M226.75,127c-3.81-3.94-6.72-8.45-11.65-11.66-10-6.49-19.56-5.87-29.65-1.24a7.14,7.14,0,0,0-1.12.73c-4-1.3-7.67-2.71-11.43-3.65-9.16-2.28-16,1.73-21.73,8.45-2.35,2.76-4.8,5.53-4.44,9.58" fill="none" stroke="#000" stroke-linecap="round" stroke-linejoin="round" stroke-width="2"/><path d="M141.93,121.84c-1.11-1.11-2.3-2.14-3.3-3.33a31.28,31.28,0,0,0-12.22-8.77,8,8,0,0,0-4,0c-5.79.91-11.65,1.58-17.31,3a61.65,61.65,0,0,0-13.26,5.15c-5.56,2.92-8,8-7.8,14.29s.23,12.54.41,18.81a11.16,11.16,0,0,0,.71,2.58" fill="none" stroke="#000" stroke-linecap="round" stroke-linejoin="round" stroke-width="2"/><path d="M125.7,798.21c-3.32,3.2-7.17,6-9.86,9.66-9.48,12.88-10.23,26.7-.46,40.13,4.33,6,10.28,9.71,16.95,12.58,5,2.15,9.85,4.64,14.77,7" fill="none" stroke="#000" stroke-linecap="round" stroke-linejoin="round" stroke-width="2"/><path d="M427.38,900.73c-.49-7.87-.31-15.85-1.64-23.57-1.77-10.22-12.92-23.92-25.27-24.21a71.57,71.57,0,0,0-26.56,3.9" fill="none" stroke="#000" stroke-linecap="round" stroke-linejoin="round" stroke-width="2"/><path d="M147.83,413.18c-4.43,8.83-5.69,18.16-5.7,28,0,13.47,1,26.63,5.29,39.47,2,5.82,4.85,10.84,10,14.37" fill="none" stroke="#000" stroke-linecap="round" stroke-linejoin="round" stroke-width="2"/><path d="M879.52,891.88c-2.46-4.55-4.82-9.15-7.43-13.62a14.81,14.81,0,0,0-3.67-4c-3.47-2.71-7.14-5.15-10.66-7.8-7.35-5.52-16-7.77-24.75-9.43-7.56-1.44-15.92,3.51-19.53,12.75-.78,2-1.71,3.94-2.57,5.91" fill="none" stroke="#000" stroke-linecap="round" stroke-linejoin="round" stroke-width="2"/><path d="M680,141c-4.29-9.83-13-15.16-21.47-20.53-2.44-1.54-5.79-2-8.78-2.26-8-.79-16.05-1.5-23.56,2.21a32.15,32.15,0,0,0-8.08,5.54c-4.18,4-7.92,8.55-11.89,12.82-1,1.08-2.2,2-3.3,3" fill="none" stroke="#000" stroke-linecap="round" stroke-linejoin="round" stroke-width="2"/><path d="M175.86,639.62c4.06,5,8.4,9.88,12.08,15.18,2.82,4.07,1.94,9,1.14,13.57-2.9,16.5-11.93,29.37-24.28,40.21-3.6,3.16-7.13,6.39-10.7,9.58" fill="none" stroke="#000" stroke-linecap="round" stroke-linejoin="round" stroke-width="2"/><path d="M101.73,215.14c-10,6.75-12.62,16.82-12.49,28,0,3.83,2.11,7,4.39,10,4.18,5.38,9.87,8.86,15.42,12.64,6.77,4.6,14.36,7.46,21.48,11.3a13.33,13.33,0,0,0,3.66.78" fill="none" stroke="#000" stroke-linecap="round" stroke-linejoin="round" stroke-width="2"/><path d="M123.49,432.36c-6,11.33-11.23,23-11,36.14.21,12.37,1.65,24.55,8.42,35.41,1.37,2.2,2.71,4.42,4.06,6.64" fill="none" stroke="#000" stroke-linecap="round" stroke-linejoin="round" stroke-width="2"/><path d="M875.83,235.79c-8,10.31-19.07,16.73-30.7,21.53-12.22,5-24.78,4.2-36.44-3.06a18.35,18.35,0,0,1-7.36-8.51" fill="none" stroke="#000" stroke-linecap="round" stroke-linejoin="round" stroke-width="2"/><path d="M559.4,134.38c-2.09-2-4.26-3.86-6.26-5.91-12.65-13-29.41-14-42.71-3.57-2.61,2.05-4.16,5.44-6.29,8.32-6,1.43-12.66,2.08-17,7.81" fill="none" stroke="#000" stroke-linecap="round" stroke-linejoin="round" stroke-width="2"/><path d="M684.06,243.54c-6,4.79-11.61,10.35-18.2,14.16-6.27,3.62-13.86,3.06-20.87,1.6a150.62,150.62,0,0,1-21.72-6c-5.1-1.89-9.65-5.25-14.44-8" fill="none" stroke="#000" stroke-linecap="round" stroke-linejoin="round" stroke-width="2"/><path d="M1197.05,186.38c3.87-7.79,5.55-15.69,2.69-24.38-2-6-7.08-7.84-11.59-10.58-1.8-1.09-4.28-1-6.19-2-5.3-2.66-10.64-.57-15.88-.19-6.22.45-11,4.28-15.5,8.36" fill="none" stroke="#000" stroke-linecap="round" stroke-linejoin="round" stroke-width="2"/><path d="M1137.68,248.7c-5.58-.36-8.29-4.6-11-8.53s-4.74-8-6.89-11.66c-3.72,2.7-7.16,5.12-10.49,7.66a43.12,43.12,0,0,0-5.52,4.8c-5.76,6.21-13.5,7.27-21.48,3.79-5.17-2.26-8.85-6.19-13.22-9.35" fill="none" stroke="#000" stroke-linecap="round" stroke-linejoin="round" stroke-width="2"/><path d="M175.49,211.08c3.61,2.88,6.75,6,8.21,10.67a14.25,14.25,0,0,0,3.65,5.87c6.32,6,7.29,13.65,6.45,21.44-1.3,12-5.17,23.11-14.26,31.72-1.39,1.32-2.94,2.47-4.41,3.7" fill="none" stroke="#000" stroke-linecap="round" stroke-linejoin="round" stroke-width="2"/><path d="M1024.46,963.43c8.1-8.55,10.32-18.95,9.16-30.24-.7-6.78-1.7-13.5-6.17-19.22-6.18-7.9-13.35-14.27-23.28-16.93" fill="none" stroke="#000" stroke-linecap="round" stroke-linejoin="round" stroke-width="2"/><path d="M1190.41,740.31c-5.87,4.52-10.06,10.46-14,16.59-4.65,7.19-5.76,15.42-6.55,23.62-1.1,11.4,2.11,22.19,5.82,32.82" fill="none" stroke="#000" stroke-linecap="round" stroke-linejoin="round" stroke-width="2"/><path d="M184,379.62c5.85,6,12.64,11.27,16.51,18.85,4,7.86,8.44,15.77,8.16,25-.34,11.15-5.08,20.16-14,26.89a5.39,5.39,0,0,1-2,.71l-5,14.44" fill="none" stroke="#000" stroke-linecap="round" stroke-linejoin="round" stroke-width="2"/><path d="M175.49,147.28c-2.58-2.21-5.32-4.27-7.71-6.67-3.57-3.59-8-5.63-12.6-7.26-7.86-2.82-14.87-.25-21.36,4.35-7.68,5.44-13.78,12.29-17.18,21.08-1,2.57-.15,5.84-.15,8.79" fill="none" stroke="#000" stroke-linecap="round" stroke-linejoin="round" stroke-width="2"/><path d="M381.64,199.28c6.61-.78,14.06-12.7,14.42-18.44a25,25,0,0,0-8.9-21.39c-3-2.66-6.53-3.14-10.32-2.21-3,.72-5.91,1.43-8.85,2.22s-5.48,2-6.71,5.12c-.44,1.14-1.65,2-2.51,3" fill="none" stroke="#000" stroke-linecap="round" stroke-linejoin="round" stroke-width="2"/><path d="M976.88,224.36c6.11,6.8,14.46,8.6,22.83,10.83s17.16,3.43,25.11,7.26c4.37,2.1,8.68,2.12,13.31.8,3.57-1,7.35-1.31,11-1.92" fill="none" stroke="#000" stroke-linecap="round" stroke-linejoin="round" stroke-width="2"/><path d="M807.23,878.6a62.36,62.36,0,0,0-21.08-18.33c-9.87-5.17-20.39-8.14-31.65-4.51a16.71,16.71,0,0,0-4.41,2.21c-4.6,3.24-9.12,6.61-13.67,9.93" fill="none" stroke="#000" stroke-linecap="round" stroke-linejoin="round" stroke-width="2"/><path d="M1066.87,954.58c-.1,2.95,2,4.7,3.7,6.63,5.13,5.81,10.15,11.73,15.52,17.3,7.29,7.57,16.73,10.19,26.88,9.86,4.71-.15,9-2.61,12.9-5.4a43.24,43.24,0,0,0,11.81-12.9" fill="none" stroke="#000" stroke-linecap="round" stroke-linejoin="round" stroke-width="2"/><path d="M947.75,893a59.08,59.08,0,0,0-3.34-5.14c-5.87-7.32-12.06-14.31-21.75-16.57-2.39-.56-5-1.17-7.34-.67-8.53,1.87-18.24.13-24.81,8.31-2.86,3.56-6.56,6.45-9.88,9.65" fill="none" stroke="#000" stroke-linecap="round" stroke-linejoin="round" stroke-width="2"/><path d="M1008.6,191.17c-.86,1.11-2.06,2.09-2.53,3.34-3.08,8.29-9.74,12.82-17,17-10.1,5.83-21.22,7.72-32.5,8.63a19,19,0,0,1-12.89-3.89" fill="none" stroke="#000" stroke-linecap="round" stroke-linejoin="round" stroke-width="2"/><path d="M775.52,189c-6.94,11.38-7.11,23.52-3.19,35.73,2.11,6.57,8.14,9.79,14.3,11.69,4.18,1.29,8.87.82,13.22,1.7,7.26,1.47,14-.38,20.67-2.65" fill="none" stroke="#000" stroke-linecap="round" stroke-linejoin="round" stroke-width="2"/><path d="M1176.77,914.75c.49,3.81.88,7.64,1.5,11.43,1.21,7.45,1,14.55-2.89,21.44-3.66,6.49-7.49,12.79-14.14,16.47-5.46,3-11,6.16-17.66,6" fill="none" stroke="#000" stroke-linecap="round" stroke-linejoin="round" stroke-width="2"/><path d="M288.71,235.43c1.11,2.7,2.11,5.45,3.34,8.1,2.74,5.92,7.6,8.47,14.36,7.76,11.51-1.22,20.42-7.29,28.4-15.13.62-.61,1.23-1.23,2.1-2.1,1.18,2.62,2.5,5.06,3.39,7.64,2,5.72,6.06,9.31,11.49,11.37,5.68,2.15,10.65,6.1,16.95,6.7a18.19,18.19,0,0,1,3.68.74c5.07,1.59,8.84,1,12.39-3.92,2.78-3.83,7.5-6.24,11-9,.92.21,1.49.16,1.65.39,3.39,5,8.42,6.4,14,7.11,1.94.25,3.76,1.76,5.53,2.86,1.33.83,2.41,2,3.72,2.9a9.5,9.5,0,0,0,11.05,0c6.41-4,13.81-7,17.61-14.07,1.89-3.52,2.8-7.57,4.15-11.38" fill="none" stroke="#000" stroke-linecap="round" stroke-linejoin="round" stroke-width="2"/><path d="M650.5,161.3c-.74-.86-1.52-1.68-2.21-2.59-8.51-11.28-20.63-13.3-33.57-12.85-9.34.33-17.31,4.26-24.36,10.26-1.6,1.37-3.42,2.48-5.15,3.71" fill="none" stroke="#000" stroke-linecap="round" stroke-linejoin="round" stroke-width="2"/><path d="M796.91,960.48c-6.42,6-11.41,13.38-18.77,18.49-7.58,5.27-16.06,6.24-24.73,5.34-6.72-.69-13.7-1.24-19.56-5.39-.64-.45-1.3-.87-2.31-1.54l1.94-.67" fill="none" stroke="#000" stroke-linecap="round" stroke-linejoin="round" stroke-width="2"/><path d="M1221,961.21c5.65-3,11.88-5.17,16.81-9,5.74-4.51,11-9.92,12.39-17.87.66-3.79.49-7.57-1.3-10.64-4.11-7-9.26-13.31-16.84-17" fill="none" stroke="#000" stroke-linecap="round" stroke-linejoin="round" stroke-width="2"/><path d="M270.27,186c-6.72,14.5-.62,36.51,15.92,42.62,4.78,1.77,10.26,1.69,15.44,2.33a19.69,19.69,0,0,0,4.05-.33" fill="none" stroke="#000" stroke-linecap="round" stroke-linejoin="round" stroke-width="2"/><path d="M430.33,205.92c-1.23,4.06-2.44,8.12-3.71,12.16a6.43,6.43,0,0,1-1.09,1.84c-6.7,8.83-13.73,17.47-25.47,19.37a18.62,18.62,0,0,1-10.58-1.84,21.12,21.12,0,0,1-10.78-12.37" fill="none" stroke="#000" stroke-linecap="round" stroke-linejoin="round" stroke-width="2"/><path d="M930.41,938.35c-6.45,7.69-13.83,14.46-23,18.62-4.54,2.07-10,2.43-15,3.07-6.23.78-12.53,1.14-18.8,1.5a69.1,69.1,0,0,1-7.37-.33" fill="none" stroke="#000" stroke-linecap="round" stroke-linejoin="round" stroke-width="2"/><path d="M184.71,202.23a24,24,0,0,1,9.64,6.23c2.22,2.43,4.89,4.44,7.32,6.69,7.65,7.06,10.26,16,10.4,26.18.1,7.45-1.63,14.56-3,21.76" fill="none" stroke="#000" stroke-linecap="round" stroke-linejoin="round" stroke-width="2"/><path d="M616.2,187.48c-2.7,9-5.08,18-12.86,24.4C597,217.1,590,221,581.9,221.18c-6.82.15-13.82-1.4-18.8-7.14" fill="none" stroke="#000" stroke-linecap="round" stroke-linejoin="round" stroke-width="2"/><path d="M1218.07,841.72c7.42,7,15.51,13.52,18.68,23.64,1.71,5.45,3.63,10.89,3.64,16.93a19.1,19.1,0,0,1-5.73,14l-7.74,8.11" fill="none" stroke="#000" stroke-linecap="round" stroke-linejoin="round" stroke-width="2"/><path d="M1167.18,877.13c-2.46-.74-5.07-1.16-7.35-2.27-9.64-4.66-25.79,3-29.17,11.85-2.11,5.54-4.81,10.83-5.28,17a14.64,14.64,0,0,0,1.6,8.49" fill="none" stroke="#000" stroke-linecap="round" stroke-linejoin="round" stroke-width="2"/><path d="M103.57,830.66c-4.06,5.53-8.1,11.08-12.17,16.59-5.13,6.93-6.56,15-6.16,23.23A38.44,38.44,0,0,0,95.83,895.2" fill="none" stroke="#000" stroke-linecap="round" stroke-linejoin="round" stroke-width="2"/><path d="M612.51,889.67c-4.19-8-12-11.89-18.86-16.89-4.39-3.22-9.57-2.81-13.9,0-8.35,5.45-17,10.15-26.62,12.78-2.26.62-2.94,2.14-3.31,4.1" fill="none" stroke="#000" stroke-linecap="round" stroke-linejoin="round" stroke-width="2"/><path d="M958.44,171.25c-.55-6.84-5.21-11.39-9.25-16.2-6.56-7.82-19.07-8.47-27.25-1.48a29.43,29.43,0,0,0-9.64,14.36,45.54,45.54,0,0,1-2.18,5.17" fill="none" stroke="#000" stroke-linecap="round" stroke-linejoin="round" stroke-width="2"/><path d="M336.65,125.52c-2.46-3.32-5.59-6.34-7.22-10-2.65-6-7.37-7.84-13.06-8-13.76-.37-28.06,5.57-33.93,20.23" fill="none" stroke="#000" stroke-linecap="round" stroke-linejoin="round" stroke-width="2"/><path d="M1156.85,538.58c-3.29,3.82-4.08,8.58-5.19,13.27-2.89,12.17-1.48,24.14,2.42,35.72,1.61,4.79,5.23,8.91,7.93,13.34" fill="none" stroke="#000" stroke-linecap="round" stroke-linejoin="round" stroke-width="2"/><path d="M1158.33,609.38c-1.11,1.48-2,3.26-3.36,4.37a30.8,30.8,0,0,0-10.2,14.47c-3,9-1.81,17.9,1.78,26.51,2.62,6.28,5.83,12.17,12.51,15.13" fill="none" stroke="#000" stroke-linecap="round" stroke-linejoin="round" stroke-width="2"/><path d="M282.07,128.84c-2.09-3.57-3.82-7.41-6.34-10.64-6.55-8.4-14.85-11.62-25.39-7.85-8.15,2.92-15.81,6.36-20.61,14.08A10.12,10.12,0,0,0,229,127" fill="none" stroke="#000" stroke-linecap="round" stroke-linejoin="round" stroke-width="2"/><path d="M1218.81,933.92a49.61,49.61,0,0,1-12.16,17c-2.89,2.76-5.52,5.81-8.53,8.43a21.53,21.53,0,0,1-13.61,5.47c-6.75.18-13.52-.39-20.28-.63" fill="none" stroke="#000" stroke-linecap="round" stroke-linejoin="round" stroke-width="2"/><path d="M910.5,204.45c-4.18,3.32-8.25,6.79-12.56,9.92-7.56,5.49-16,9.69-25.41,9a41,41,0,0,1-21-7.16" fill="none" stroke="#000" stroke-linecap="round" stroke-linejoin="round" stroke-width="2"/><path d="M742.33,230.26c-4.73,6.61-10.27,12.24-18.45,14.34-2.89.74-5.93,1.59-8.83,1.41-7.75-.49-15.48,2.15-23.28-.13-2.09-.61-4.63.36-7,.61" fill="none" stroke="#000" stroke-linecap="round" stroke-linejoin="round" stroke-width="2"/><path d="M473.84,922.12a45.53,45.53,0,0,0-5.49,4.09c-5.32,5.33-10.71,10.44-17.72,13.66-10.24,4.71-20.17,4.17-29.84-1.25-1.62-.91-2.51-3.1-3.74-4.7" fill="none" stroke="#000" stroke-linecap="round" stroke-linejoin="round" stroke-width="2"/><path d="M870.67,119.62c7.77,4.39,10.6,12.37,12.68,20,3.43,12.56,2.17,25-5.67,36.08" fill="none" stroke="#000" stroke-linecap="round" stroke-linejoin="round" stroke-width="2"/><path d="M730.16,132.16c-2.55-4-4.93-8.07-9.19-10.75-7.66-4.81-15-3.18-22.14.82a42.83,42.83,0,0,0-19.56,22.1" fill="none" stroke="#000" stroke-linecap="round" stroke-linejoin="round" stroke-width="2"/><path d="M82.92,152.08a12.58,12.58,0,0,0-8.14,2.54C70,158,65.49,161.27,62.11,166.35a21.09,21.09,0,0,0-3.19,17.45c.53,2.3,1.24,4.71,1,7-.51,5.73.74,10.76,4.52,15.13" fill="none" stroke="#000" stroke-linecap="round" stroke-linejoin="round" stroke-width="2"/><path d="M1217.34,456.7c6.21,4.59,7.93,11.21,8.5,18.44.82,10.41-1.81,20.22-5.23,29.86a89.7,89.7,0,0,1-4,8.5" fill="none" stroke="#000" stroke-linecap="round" stroke-linejoin="round" stroke-width="2"/><path d="M1067.24,958.26c-3.57,4.67-7.08,9.38-10.72,14a93.38,93.38,0,0,1-6.65,7.73c-2.94,3-7.12,5.11-12.51,1.51l-15.9-10.66c5.32-16.76,9-33.34-4.38-48.35" fill="none" stroke="#000" stroke-linecap="round" stroke-linejoin="round" stroke-width="2"/><path d="M1205.53,363c4.48,15.15.45,29-7.1,42-3,5.23-7,9.89-10.61,14.8" fill="none" stroke="#000" stroke-linecap="round" stroke-linejoin="round" stroke-width="2"/><path d="M1178.24,531.2c-8.64,10.51-14.39,22.13-14,36.14.08,3.07-.41,6.22.12,9.2a20.18,20.18,0,0,0,5.43,11.08" fill="none" stroke="#000" stroke-linecap="round" stroke-linejoin="round" stroke-width="2"/><path d="M850,120.36c3.27-.56,5.69,1.12,8.12,2.94,11.67,8.74,13.22,24.68,8.41,36.49-.73,1.8-2.34,3.27-3.63,4.81-2.29,2.74-4.66,5.42-7,8.12" fill="none" stroke="#000" stroke-linecap="round" stroke-linejoin="round" stroke-width="2"/><path d="M207.57,918.43c2.62-4.5,2.65-9.4,2.22-14.38-.62-7.23-.58-14.63-4.82-21a99.94,99.94,0,0,0-5.91-8.1c-3.17-3.87-7.38-4.82-12.14-3.71" fill="none" stroke="#000" stroke-linecap="round" stroke-linejoin="round" stroke-width="2"/><path d="M844.11,166.83c-2.09-4.3-4-8.73-6.32-12.88-4.47-7.85-15.73-12.64-24.3-10.75a33,33,0,0,1-5.9.74c-5.25.19-8.94,2.9-11.8,7" fill="none" stroke="#000" stroke-linecap="round" stroke-linejoin="round" stroke-width="2"/><path d="M480.11,177.89c.93,5.13,5.47,6.13,9.26,7.64,3,1.19,6.32,1.45,10.17,2.26-.8,3.82-1.6,7.84-2.48,11.85-1.67,7.7-6.06,14.2-9.68,21-5.46,10.2-20.39,17.15-31.6,15.08-2.46-.45-4.69-2.12-7-3.22" fill="none" stroke="#000" stroke-linecap="round" stroke-linejoin="round" stroke-width="2"/><path d="M731.26,916.22c0,7.08-4.15,11.6-9.17,15.92-7.51,6.47-16.1,7.85-25.5,6.6-2.09-.28-4.21-.32-5.9-.44v-8.06" fill="none" stroke="#000" stroke-linecap="round" stroke-linejoin="round" stroke-width="2"/><path d="M995,929.13c-7.5-13-23.45-11.45-32.45-4.06-4.79,3.94-7.36,9.09-8.53,15.11a45.69,45.69,0,0,1-2.16,6.28" fill="none" stroke="#000" stroke-linecap="round" stroke-linejoin="round" stroke-width="2"/><path d="M1171.6,329.47A43.66,43.66,0,0,0,1155,339.1c-7.67,7-11.22,16.08-12.07,26.15-.29,3.36-.29,7.26,2.89,10.09-2.91,10.31-.89,20.43,2.15,30.46.93,3.08,2.64,5.57,5.89,6.64" fill="none" stroke="#000" stroke-linecap="round" stroke-linejoin="round" stroke-width="2"/><path d="M227.49,83.11a22,22,0,0,1,4,1.88,10.64,10.64,0,0,1,3.69,13.23c-3.37,8.18-11.79,12.2-18.8,10.79a6.58,6.58,0,0,1-5.55-4.86c-1-3.07-1.09-5.93,1.16-8.48.74-.84,2.25-1.35,2.48-2.25,1.69-6.62,7-8.66,12.63-10.3" fill="none" stroke="#000" stroke-linecap="round" stroke-linejoin="round" stroke-width="2"/><path d="M284.65,230.63a45.92,45.92,0,0,1-31,10.24c-8-.31-16-1.39-24-2.13" fill="none" stroke="#000" stroke-linecap="round" stroke-linejoin="round" stroke-width="2"/><path d="M133.44,447.48a36.25,36.25,0,0,0-2.87,17.7c.67,9,1,18,4.41,26.53,1.2,3,3.13,5.68,4.73,8.51" fill="none" stroke="#000" stroke-linecap="round" stroke-linejoin="round" stroke-width="2"/><path d="M919.35,933.19c-3.43,4.06-6.15,8.7-11,11.49-7.53,4.3-15.3,6.17-24,4.84-5.49-.84-11.13-.73-16.21-3.42" fill="none" stroke="#000" stroke-linecap="round" stroke-linejoin="round" stroke-width="2"/><path d="M110.21,460.39c-1.48,1-3.23,1.72-4.37,3A27.17,27.17,0,0,1,93.6,471a93.08,93.08,0,0,0-21,9.68c-4.93,3.1-6.66,8.46-8.5,13.6-4.26,11.92-1.6,23.4,2.67,34.63,1.07,2.83,3.35,5.2,5.07,7.78" fill="none" stroke="#000" stroke-linecap="round" stroke-linejoin="round" stroke-width="2"/><path d="M757.82,206.66c-2.26,8.68-.92,17,2.59,25.08.7,1.61,1.45,3.21,2.21,4.8,1.69,3.55,4.11,6.53,7.76,8.07,4.42,1.86,8.11,5.47,13.26,5.58" fill="none" stroke="#000" stroke-linecap="round" stroke-linejoin="round" stroke-width="2"/><path d="M187.66,177.89c-.12,2.09-.32,4.18-.36,6.27a23.54,23.54,0,0,1-8.82,18.5,229.07,229.07,0,0,1-27,20.23" fill="none" stroke="#000" stroke-linecap="round" stroke-linejoin="round" stroke-width="2"/><path d="M875.46,935c3-6,1.43-12.12-.12-18-.76-2.89-2.59-5.61-4.35-8.11-3.48-5-8-6.44-13.59-4.81-4,1.14-7.87,2.44-11.81,3.67" fill="none" stroke="#000" stroke-linecap="round" stroke-linejoin="round" stroke-width="2"/><path d="M89.93,692.73c-2.09,1.72-4.16,3.46-6.27,5.16-6.72,5.4-9.37,12.73-9.95,21-.37,5.25,2.48,9.12,5.93,12.49,3.24,3.16,7.11,5.69,10.22,9,5,5.25,11.52,5,17.77,5.34,4,.2,8.11-.85,12.16-1.35" fill="none" stroke="#000" stroke-linecap="round" stroke-linejoin="round" stroke-width="2"/><path d="M1142.1,248.7c-5.34,10-9.58,20.4-9.23,32.09.16,5.16.29,10.33.36,15.49a9.1,9.1,0,0,0,2.6,6.27" fill="none" stroke="#000" stroke-linecap="round" stroke-linejoin="round" stroke-width="2"/><path d="M1116.65,148c9.27,8.71,14.22,19.62,15.37,32.1.56,6.08-.13,12.28-.25,18.43" fill="none" stroke="#000" stroke-linecap="round" stroke-linejoin="round" stroke-width="2"/><path d="M363.2,904.42c-3.57,5.78-6.69,11.9-10.81,17.25-4.94,6.4-11.92,10-20.16,9.54-4.1-.22-8.12-1.83-12.18-2.82" fill="none" stroke="#000" stroke-linecap="round" stroke-linejoin="round" stroke-width="2"/><path d="M147.83,704.53c2.61,6.29,6.25,12.35,6.84,19.19.41,4.79,0,10-2.47,14.33-5.76,10.13-11.82,20.09-21.34,27.31a13.63,13.63,0,0,1-2.2,1.12" fill="none" stroke="#000" stroke-linecap="round" stroke-linejoin="round" stroke-width="2"/><path d="M736.06,939.46c-13.5,9.81-35.87,12.65-46.55,5.85L690,942" fill="none" stroke="#000" stroke-linecap="round" stroke-linejoin="round" stroke-width="2"/><path d="M748.23,149.86c.37.12.85.14,1.09.38,5.85,6.21,11,12.8,9.18,22.1a40.35,40.35,0,0,1-3,9.93c-3.14,6.5-10.05,8.1-15.82,11-2.4,1.21-5.33,1.56-8.07,1.89-4.21.51-7.14-1.35-8.48-5.48" fill="none" stroke="#000" stroke-linecap="round" stroke-linejoin="round" stroke-width="2"/><path d="M530.64,893.36c8.11-3.94,16.44-4.36,25.09-1.88,11.41,3.28,14.75,12.44,16.5,22.55,1,5.69,1.07,11.54,1.56,17.32" fill="none" stroke="#000" stroke-linecap="round" stroke-linejoin="round" stroke-width="2"/><path d="M914.19,902.95c-10.79-8.75-22.85-12.32-36.49-8.42-4.17,1.19-8.13,3.13-12.19,4.73" fill="none" stroke="#000" stroke-linecap="round" stroke-linejoin="round" stroke-width="2"/><path d="M196.88,270.46a30.37,30.37,0,0,0,2.25,4.77c6.65,9.52,4,18.36-1.9,26.94a55.47,55.47,0,0,1-15.47,15.5" fill="none" stroke="#000" stroke-linecap="round" stroke-linejoin="round" stroke-width="2"/><path d="M1097.11,926.55c-1.32,5.65-5.29,9.61-9.3,13.19-9.88,8.82-21.88,12.36-35,12.63" fill="none" stroke="#000" stroke-linecap="round" stroke-linejoin="round" stroke-width="2"/><path d="M252.57,195.6c-1.85,7.73-2.91,15.36,1.07,22.89a21,21,0,0,0,12.58,10.31c3.57,1.2,7.13,2.45,10.7,3.68" fill="none" stroke="#000" stroke-linecap="round" stroke-linejoin="round" stroke-width="2"/><path d="M1188.57,534.89q-5,9.59-10,19.18c-2.33,4.48-1.24,9.32-1.46,14s-.23,9.61,2.2,14" fill="none" stroke="#000" stroke-linecap="round" stroke-linejoin="round" stroke-width="2"/><path d="M109.47,888.93c-6.85,5.5-10.39,12.81-11.38,21.4a54.64,54.64,0,0,0,0,8.11c.14,4,1.16,7.57,4.37,10.37,2.28,2,4.22,4.38,6.31,6.6" fill="none" stroke="#000" stroke-linecap="round" stroke-linejoin="round" stroke-width="2"/><path d="M456.88,196.33c.86,3.32,2.58,6.69,2.39,9.95-.34,5.63-2.07,11.14-6.09,15.49-4.29,4.64-10.11,6.66-15.88,8.39a20.55,20.55,0,0,1-15.09-1.37" fill="none" stroke="#000" stroke-linecap="round" stroke-linejoin="round" stroke-width="2"/><path d="M1170.87,647c-2.09,3-4.3,5.82-6.24,8.87-3,4.78-2.65,10.23-2.14,15.46a138.74,138.74,0,0,0,2.92,16.22c.45,2.06,1.65,3.95,2.52,5.92" fill="none" stroke="#000" stroke-linecap="round" stroke-linejoin="round" stroke-width="2"/><path d="M1168.65,735.51c-7.72,2.14-9.37,8.38-9.92,15.12-.78,9.64.9,18.84,5.86,27.29" fill="none" stroke="#000" stroke-linecap="round" stroke-linejoin="round" stroke-width="2"/><path d="M603.29,237.27c-7.31,4.91-14.86,8.91-24,9.75-4.48.41-8.45-.75-12.53-1.72-2.81-.67-5.43-2.13-8.13-3.23" fill="none" stroke="#000" stroke-linecap="round" stroke-linejoin="round" stroke-width="2"/><path d="M1074.24,911.8c-8.27-5.79-17.33-6.73-26.92-4.42-3.33.81-6.61,1.88-10,2.52a8.46,8.46,0,0,0-6.63,4.85" fill="none" stroke="#000" stroke-linecap="round" stroke-linejoin="round" stroke-width="2"/><path d="M119.43,549.64c2.13,10.33-2.24,18.84-7.81,26.88-2.06,3-5,5.3-7.25,8.2a96,96,0,0,0-5.22,8.44" fill="none" stroke="#000" stroke-linecap="round" stroke-linejoin="round" stroke-width="2"/><path d="M378,152.08c-4.89-12-15.12-18.43-25.9-23.81-6-3-12.6-3.28-18.78,1.23-6,4.37-10.54,9.6-12.85,16.68" fill="none" stroke="#000" stroke-linecap="round" stroke-linejoin="round" stroke-width="2"/><path d="M602.18,138.8c-6.54-6.41-13.8-11.86-23.24-12.39-6.23-.35-12.76,0-17.68,5a14.63,14.63,0,0,0-1.49,2.2" fill="none" stroke="#000" stroke-linecap="round" stroke-linejoin="round" stroke-width="2"/><path d="M94.72,748.79c-4,4.47-5.13,10.35-7.83,15.45-3.84,7.25-3.53,14.63-1.68,22.15.46,1.85,1.89,3.46,2.87,5.18" fill="none" stroke="#000" stroke-linecap="round" stroke-linejoin="round" stroke-width="2"/><path d="M695.12,901.47c-.86,4.67-1,9.6-2.72,14-3.33,8.63-10.67,13.39-18.6,17.51-2.67,1.39-5,2.06-7.81,1.35" fill="none" stroke="#000" stroke-linecap="round" stroke-linejoin="round" stroke-width="2"/><path d="M596.65,225.1c3.31,6.12,8.73,10.06,14.42,13.58,3.64,2.25,7.6,3.58,12.15,2.34,5-1.37,10.4-1.51,15.1-4.12" fill="none" stroke="#000" stroke-linecap="round" stroke-linejoin="round" stroke-width="2"/><path d="M1124.4,133.64c5.59,5.44,9.69,11.69,11.08,19.54s2.93,15.49,4.41,23.24" fill="none" stroke="#000" stroke-linecap="round" stroke-linejoin="round" stroke-width="2"/><path d="M840.43,876.39c-3.17-3.12-6.77-5.69-11.42-4.72-6.45,1.35-13.29,2.07-17.73,8-3.14,4.22-6.38,8.37-9.58,12.55" fill="none" stroke="#000" stroke-linecap="round" stroke-linejoin="round" stroke-width="2"/><path d="M61.53,203c-4.44,5.92-4.38,12.88-.37,18.44,2,2.71,4.08,5.32,5.87,8.13,3.27,5.16,8.32,7.72,13.67,10a7.73,7.73,0,0,1,1.48,1.09" fill="none" stroke="#000" stroke-linecap="round" stroke-linejoin="round" stroke-width="2"/><path d="M154.47,745.1c8.39,7.07,12.11,16.7,14.75,26.92q1.86,7.19,3.69,14.38" fill="none" stroke="#000" stroke-linecap="round" stroke-linejoin="round" stroke-width="2"/><path d="M174.38,852.05c1.48,1.84,2.86,3.77,4.44,5.52,7.49,8.34,8,18.19,5.75,28.38-.58,2.65-2.82,4.95-4.29,7.41" fill="none" stroke="#000" stroke-linecap="round" stroke-linejoin="round" stroke-width="2"/><path d="M595.91,221l.77,3.09c-7.16,3.79-14.45,7.36-22.89,6.44-5.24-.57-10.88-.42-14.76-5.1" fill="none" stroke="#000" stroke-linecap="round" stroke-linejoin="round" stroke-width="2"/><path d="M536.17,196.7c-7.62,3.57-15.2,7.22-22.88,10.65-3.33,1.49-6.85,2.56-10.31,3.71a7.74,7.74,0,0,1-7.74-1.46" fill="none" stroke="#000" stroke-linecap="round" stroke-linejoin="round" stroke-width="2"/><path d="M143.4,917.7a99.44,99.44,0,0,0-13.18,24.74A57.51,57.51,0,0,0,128,954.22c-.17,1.41.65,2.94,1,4.41" fill="none" stroke="#000" stroke-linecap="round" stroke-linejoin="round" stroke-width="2"/><path d="M921.93,147.65c-.93-7.45-3.12-14.4-8.52-19.88a95.47,95.47,0,0,0-7.35-6.3c-3-2.48-6.52-3.35-11.24-2.78,4-6.52,3.86-12.91,3.51-19.36a19.25,19.25,0,0,0-4.49-11c-2-2.5-4.91-3.19-8.06-2.62-1.85.34-3.71.65-5.53,1.12-3.3.85-5.2,2.91-4.72,6.24,1.5,10.36-3.63,18-9.67,25.46" fill="none" stroke="#000" stroke-linecap="round" stroke-linejoin="round" stroke-width="2"/><path d="M448,947.2c-.54,7.25,9.1,18.52,18.45,20.23,5.11.93,10.32,1.29,15.48,1.9" fill="none" stroke="#000" stroke-linecap="round" stroke-linejoin="round" stroke-width="2"/><path d="M705.82,157.61c-2.34-2-4.56-4.09-7-5.84-1.5-1.06-3.41-2.17-5.12-2.15-5.17,0-10.47,0-15.45,1.16-5.25,1.21-8,5.46-8.52,10.9" fill="none" stroke="#000" stroke-linecap="round" stroke-linejoin="round" stroke-width="2"/><path d="M158.52,734.41c7.33,2.32,11.94,7.64,14.66,14.42,3,7.46,5.26,15.21,7.84,22.83" fill="none" stroke="#000" stroke-linecap="round" stroke-linejoin="round" stroke-width="2"/><path d="M232.65,916.22c1.72.37,3.46.66,5.16,1.12,11.63,3.12,22.36,8,31.34,16.22,1.15,1.06,2.22,2.21,3.33,3.31" fill="none" stroke="#000" stroke-linecap="round" stroke-linejoin="round" stroke-width="2"/><path d="M1207.75,393.27c15,5.17,25.23,14.59,27.67,31a20.89,20.89,0,0,0,.72,2.58" fill="none" stroke="#000" stroke-linecap="round" stroke-linejoin="round" stroke-width="2"/><path d="M715.77,903.68c1.61,12.54-5.73,25.56-20.28,24.68a56.28,56.28,0,0,1-6.27-1.07" fill="none" stroke="#000" stroke-linecap="round" stroke-linejoin="round" stroke-width="2"/><path d="M295.35,931a32.1,32.1,0,0,0-30.24,28" fill="none" stroke="#000" stroke-linecap="round" stroke-linejoin="round" stroke-width="2"/><path d="M1183,343.48c-5.9,3.2-12.17,5.87-17.62,9.71-7.83,5.52-15,11.92-19.26,20.9" fill="none" stroke="#000" stroke-linecap="round" stroke-linejoin="round" stroke-width="2"/><path d="M139.35,124.42c-12.25,3.18-21.41,10.71-28.71,20.7-1.76,2.41-2.79,5.35-4.07,8.09-.1.21.45.72.69,1.09" fill="none" stroke="#000" stroke-linecap="round" stroke-linejoin="round" stroke-width="2"/><path d="M1225.08,435.31c.16-7.35-.9-14.58-4.53-21s-8.77-12-16.49-14.08" fill="none" stroke="#000" stroke-linecap="round" stroke-linejoin="round" stroke-width="2"/><path d="M1221.39,711.91c2.39,16.47-.91,31-14.38,42" fill="none" stroke="#000" stroke-linecap="round" stroke-linejoin="round" stroke-width="2"/><path d="M1164.23,836.56c-11,1.24-20,6-26.55,15.12a9.79,9.79,0,0,1-1.87,2.54c-7.69,5.27-8.19,14.12-10.46,21.86-1.41,4.8-1.56,10.25,1.27,15.06" fill="none" stroke="#000" stroke-linecap="round" stroke-linejoin="round" stroke-width="2"/><path d="M933.73,224.73c11.39,5.56,23.07,9,35.78,4.81a15.31,15.31,0,0,1,2.58-.39" fill="none" stroke="#000" stroke-linecap="round" stroke-linejoin="round" stroke-width="2"/><path d="M841.16,886c-9.5-2.09-17.51,0-24,7.68-4,4.75-8.78,8.91-13.21,13.34" fill="none" stroke="#000" stroke-linecap="round" stroke-linejoin="round" stroke-width="2"/><path d="M1050.27,215.88a29.49,29.49,0,0,0,12.17,14,16.25,16.25,0,0,0,9.59,2.25c4.42-.25,8.85-.28,13.27-.4" fill="none" stroke="#000" stroke-linecap="round" stroke-linejoin="round" stroke-width="2"/><path d="M145.62,754.69c4.52,4.38,6.6,10.09,8.44,15.87a92.51,92.51,0,0,1,3.26,12.54c.51,3,.1,6.13.1,9.2" fill="none" stroke="#000" stroke-linecap="round" stroke-linejoin="round" stroke-width="2"/><path d="M1212.54,817c5.59,6.06,5.19,13.61,5.14,21-.1,13.57-6.12,24.81-14.44,35-1.67,2-4.35,3.26-6.56,4.86" fill="none" stroke="#000" stroke-linecap="round" stroke-linejoin="round" stroke-width="2"/><path d="M534.33,180.11c-2.7,2.83-5.31,5.76-8.15,8.44-1.9,1.8-4.16,3.21-6.23,4.84-6.56,5.13-14.15,6.09-22.13,5.53" fill="none" stroke="#000" stroke-linecap="round" stroke-linejoin="round" stroke-width="2"/><path d="M1226.19,792.31a17.55,17.55,0,0,1-3.41,11.37c-4.94,7-10.19,13.91-18.73,17a39.39,39.39,0,0,1-5.15,1.14" fill="none" stroke="#000" stroke-linecap="round" stroke-linejoin="round" stroke-width="2"/><path d="M1217.34,630.77c7.44,9.32,5.7,19,1.08,28.75-1.34,2.83-2.17,6.31-6.24,6.65" fill="none" stroke="#000" stroke-linecap="round" stroke-linejoin="round" stroke-width="2"/><path d="M124.59,369.67a28.37,28.37,0,0,1-11.78,7.45c-5.14,1.59-9.79,4.63-15.52,4.42-3.31-.12-6.59.33-9.22-2.29" fill="none" stroke="#000" stroke-linecap="round" stroke-linejoin="round" stroke-width="2"/><path d="M470.89,156.5c-4.86-7.65-11.92-13-19.22-18a8.36,8.36,0,0,0-4.38-1.12c-11.79-.23-20.64,5.31-27.67,14.33a12.76,12.76,0,0,1-1.1,1.11" fill="none" stroke="#000" stroke-linecap="round" stroke-linejoin="round" stroke-width="2"/><path d="M984.63,972.65c9.4,8.88,27,9.41,36.51,1.11" fill="none" stroke="#000" stroke-linecap="round" stroke-linejoin="round" stroke-width="2"/><path d="M448,239.85c-7.13,1.35-14.23,2.91-21.4,4-3.4.5-7,.52-10-2.07-1.34-1.16-3.15-1.77-4.75-2.63" fill="none" stroke="#000" stroke-linecap="round" stroke-linejoin="round" stroke-width="2"/><path d="M320.42,985.56c-2.43,2.88-.33,5.08.92,7.33,6.1,1.42,9.45.39,13.49-4-.2-4.16-3.44-4-6.22-4.11-2.15-1.86-3.23-5.07-6.71-4.35" fill="none" stroke="#000" stroke-linecap="round" stroke-linejoin="round" stroke-width="2"/><path d="M1226.92,302.55c3.89,2,8.12,3.49,10.33,7.74,3.72,7.15,7.86,14.21,3,22.52-.32.55,0,1.45,0,2.19" fill="none" stroke="#000" stroke-linecap="round" stroke-linejoin="round" stroke-width="2"/><path d="M214.21,920.65l1.26-1.83c-2-1.55-2.68.32-3.85,1.07q-8.8,5.61-17.69,11.08c-4.43,2.73-7.24,6.42-7.37,11.81" fill="none" stroke="#000" stroke-linecap="round" stroke-linejoin="round" stroke-width="2"/><path d="M108.74,850.58c1.16,7,5.11,11.94,11.06,15.5,4.56,2.73,9.16,5.33,14.38,6.67a33.61,33.61,0,0,1,4.43,1.81" fill="none" stroke="#000" stroke-linecap="round" stroke-linejoin="round" stroke-width="2"/><path d="M153.73,919.17c-2.09,2.58-4.63,4.92-6.18,7.79-4.18,7.77-8.32,15.61-10.41,24.29-.24,1-.43,2-.64,3L128.65,959" fill="none" stroke="#000" stroke-linecap="round" stroke-linejoin="round" stroke-width="2"/><path d="M102.83,685.36c-1.84,3.57-4.49,6.94-5.37,10.73-2.05,8.82-.44,17.11,6.11,23.93" fill="none" stroke="#000" stroke-linecap="round" stroke-linejoin="round" stroke-width="2"/><path d="M105,752.48c-6.09,10.76-5.82,21.87-1.85,33.19.17.48.25,1,.37,1.47" fill="none" stroke="#000" stroke-linecap="round" stroke-linejoin="round" stroke-width="2"/><path d="M109.47,843.2c0,3.2-.24,6.16-2.44,9a8.11,8.11,0,0,0-1.13,6.13c2.17,9,3.65,18.41,10.58,25.47a2.66,2.66,0,0,0,.73.38" fill="none" stroke="#000" stroke-linecap="round" stroke-linejoin="round" stroke-width="2"/><path d="M130.13,549.64a61.2,61.2,0,0,1-5.94,29.85,35.83,35.83,0,0,1-3.28,4.81" fill="none" stroke="#000" stroke-linecap="round" stroke-linejoin="round" stroke-width="2"/><path d="M1179.72,155c6.33,2.67,7.05,8.51,6.84,14a46,46,0,0,1-5.36,19.18" fill="none" stroke="#000" stroke-linecap="round" stroke-linejoin="round" stroke-width="2"/><path d="M1034.41,219.2c.61,1.23,1.55,2.4,1.79,3.7.94,5.28,3.53,9.27,8.55,11.41,5.66,2.41,11.3,5.12,17.7,2.6" fill="none" stroke="#000" stroke-linecap="round" stroke-linejoin="round" stroke-width="2"/><path d="M527.32,161.3c-3,5-5.43,10.44-9,15-4.42,5.72-10.77,8.83-17.95,10.07-.28,0-.5.47-.74.71" fill="none" stroke="#000" stroke-linecap="round" stroke-linejoin="round" stroke-width="2"/><path d="M76.28,255.34c.49,2.46,1.09,4.9,1.44,7.38.32,2.25.79,4.2,2.54,6a54,54,0,0,1,5.23,6.94A28,28,0,0,0,98.78,286" fill="none" stroke="#000" stroke-linecap="round" stroke-linejoin="round" stroke-width="2"/><path d="M1102.27,938.35c-5.74,9.16-14.06,15.3-23.63,19.86-2.54,1.21-5.38,1.77-8.09,2.63" fill="none" stroke="#000" stroke-linecap="round" stroke-linejoin="round" stroke-width="2"/><path d="M1150.21,228c-2.89,5.49-6.7,10.59-6.31,17.34a27.7,27.7,0,0,0,5.57,15.12" fill="none" stroke="#000" stroke-linecap="round" stroke-linejoin="round" stroke-width="2"/><path d="M536.54,148.39c-4.09-6.79-10.3-10.8-17.72-12.83-4.31-1.18-8.83-1.56-13.25-2.29" fill="none" stroke="#000" stroke-linecap="round" stroke-linejoin="round" stroke-width="2"/><path d="M167.74,304c2.8,1.5,3.62,4.31,4.39,7,1.62,5.67,2.7,11.39,1.18,17.33a11.3,11.3,0,0,1-4.46,7" fill="none" stroke="#000" stroke-linecap="round" stroke-linejoin="round" stroke-width="2"/><path d="M68.91,267.14c2.48,3.71,3.29,8.1,5,12.09,2.93,7,6.16,14.21,14.94,15.93" fill="none" stroke="#000" stroke-linecap="round" stroke-linejoin="round" stroke-width="2"/><path d="M1204.06,928c-1.48,3-3.27,5.79-4.36,8.87-3,8.41-12.88,11.23-21.08,9.94" fill="none" stroke="#000" stroke-linecap="round" stroke-linejoin="round" stroke-width="2"/><path d="M535.06,860.16c3.2,3.07,6.43,6.11,9.56,9.25a4.66,4.66,0,0,1,1.44,2.56c.48,5.89.8,11.8,1.16,17.7" fill="none" stroke="#000" stroke-linecap="round" stroke-linejoin="round" stroke-width="2"/><path d="M1210,585.78a5.17,5.17,0,0,1-1.83-.4c-7-4.78-14.69-3.77-22.53-3.08-4,.36-7.83.7-11.44,2.71-5.4,3-8.39,7.83-10.7,13.3-1.48,3.49-3.17,6.89-4.77,10.34" fill="none" stroke="#000" stroke-linecap="round" stroke-linejoin="round" stroke-width="2"/><path d="M1161.28,434.57c-5.26,7.78-6.23,16.08-2.46,24.66.76,1.72,3.07,2.76,4.67,4.11" fill="none" stroke="#000" stroke-linecap="round" stroke-linejoin="round" stroke-width="2"/><path d="M169.22,216.25c4.56,2.5,6.74,6.81,8,11.45,1.61,5.76,3,11.64,1.18,17.68" fill="none" stroke="#000" stroke-linecap="round" stroke-linejoin="round" stroke-width="2"/><path d="M375,916.22c-1.6,1.72-3.31,3.35-4.77,5.18C363.88,929.32,355.8,935,347,939.82" fill="none" stroke="#000" stroke-linecap="round" stroke-linejoin="round" stroke-width="2"/><path d="M1223.24,270.09c.86,5,2,10.05,2.53,15.13a59.6,59.6,0,0,1-6.92,35.42,26.57,26.57,0,0,0-1.51,4.77" fill="none" stroke="#000" stroke-linecap="round" stroke-linejoin="round" stroke-width="2"/><path d="M149.67,252a56.38,56.38,0,0,0-12.61,16.56,15.43,15.43,0,0,0-2.16,8.15c.32,6.63,0,13.35,1,19.89.51,3.6,3,6.91,4.6,10.35" fill="none" stroke="#000" stroke-linecap="round" stroke-linejoin="round" stroke-width="2"/><path d="M242.24,138.06c-4.18-4.85-9.45-7.35-15.86-7-4.69.28-9.08,1.54-12.17,5.49" fill="none" stroke="#000" stroke-linecap="round" stroke-linejoin="round" stroke-width="2"/><path d="M782.89,942.77c6,6.95,12.66,13.25,21,17.28,4,1.91,8.2,1.41,12.53.53,6.27-1.27,11.15-5.33,16.95-7.47a3.38,3.38,0,0,1,1.1,0" fill="none" stroke="#000" stroke-linecap="round" stroke-linejoin="round" stroke-width="2"/><path d="M435.12,135.11a11.12,11.12,0,0,0-16.92-1.79,21.38,21.38,0,0,0-7.06,13.59" fill="none" stroke="#000" stroke-linecap="round" stroke-linejoin="round" stroke-width="2"/><path d="M768.14,956.79c-4.73,6.62-10.19,12.43-18.46,14.29a57.22,57.22,0,0,1-12.15,1.13c-5.28,0-10.57-.42-15.86-.67" fill="none" stroke="#000" stroke-linecap="round" stroke-linejoin="round" stroke-width="2"/><path d="M1130.67,863.48c-2.53-1.64-5-.49-7,.81a31.8,31.8,0,0,0-14.43,22.42" fill="none" stroke="#000" stroke-linecap="round" stroke-linejoin="round" stroke-width="2"/><path d="M230.07,214c-.07,6.42-1.41,12.32-5.83,17.39-2.77,3.18-5.68,5.36-10,5.1" fill="none" stroke="#000" stroke-linecap="round" stroke-linejoin="round" stroke-width="2"/><path d="M379.43,925.07c-6.46,8.22-13,16.37-22.49,21.41a39.85,39.85,0,0,0-3.33,2.2" fill="none" stroke="#000" stroke-linecap="round" stroke-linejoin="round" stroke-width="2"/><path d="M172.17,932.45a39.75,39.75,0,0,1,16.54,21.41c.53,1.58.3,3.42.43,5.14" fill="none" stroke="#000" stroke-linecap="round" stroke-linejoin="round" stroke-width="2"/><path d="M595.55,958.26c-6.3,5.74-13.44,7.79-21.77,5.21a5.89,5.89,0,0,1-4-3.74" fill="none" stroke="#000" stroke-linecap="round" stroke-linejoin="round" stroke-width="2"/><path d="M233.39,888.93c1,4.06,2.56,8.08,2.8,12.18a22.25,22.25,0,0,1-4.37,15.34c-5.52-1.46-10.85-.09-16.13,1.61" fill="none" stroke="#000" stroke-linecap="round" stroke-linejoin="round" stroke-width="2"/><path d="M1182.67,492.84c-4.52,5.44-8.92,10.87-11.59,17.64-1.28,3.23-.49,5.95-.21,8.91" fill="none" stroke="#000" stroke-linecap="round" stroke-linejoin="round" stroke-width="2"/><path d="M243,849.84c-9.66,4.91-16,12-15.49,23.6" fill="none" stroke="#000" stroke-linecap="round" stroke-linejoin="round" stroke-width="2"/><path d="M994.58,960.48c-2.21,1.48-4.42,3-6.64,4.42-5.82,3.81-12,6.41-19.18,5.9" fill="none" stroke="#000" stroke-linecap="round" stroke-linejoin="round" stroke-width="2"/><path d="M911.23,222.15c-4.79,3.44-9.45,7.1-14.43,10.25-3.39,2.15-7,4.46-11.39,3.76" fill="none" stroke="#000" stroke-linecap="round" stroke-linejoin="round" stroke-width="2"/><path d="M748.23,861.64c6.64,2.91,13.41,5.62,18.8,10.71,2.15,2,4.19,4.17,6.28,6.26" fill="none" stroke="#000" stroke-linecap="round" stroke-linejoin="round" stroke-width="2"/><path d="M1061,140.28c2.95-4.28,7.93-4.33,12.2-5.42,8.34-2.12,21.1,2.7,24.37,10.93.7,1.76,2.15,3.22,3.26,4.82" fill="none" stroke="#000" stroke-linecap="round" stroke-linejoin="round" stroke-width="2"/><path d="M415.57,961.58c-8.47-2-16.93-4.08-25.08,1.11" fill="none" stroke="#000" stroke-linecap="round" stroke-linejoin="round" stroke-width="2"/><path d="M190.61,141.75c-4.3,2.46-8.6,4.94-12.91,7.37a12.88,12.88,0,0,0-7,11.07" fill="none" stroke="#000" stroke-linecap="round" stroke-linejoin="round" stroke-width="2"/><path d="M261.79,142.86c2.51-6.25,7.4-9.46,13.62-11.52,5.87-1.95,11.57-3.35,17.34-.24a26.83,26.83,0,0,1,6.93,4.84c1.92,2,3,4.83,4.52,7.28" fill="none" stroke="#000" stroke-linecap="round" stroke-linejoin="round" stroke-width="2"/><path d="M1233.56,311.4a39.9,39.9,0,0,1-5.19,19.16,62.52,62.52,0,0,1-3.66,5.18" fill="none" stroke="#000" stroke-linecap="round" stroke-linejoin="round" stroke-width="2"/><path d="M526.95,866.07c5.38,4.27,7.19,10.63,9.53,16.62a57.91,57.91,0,0,1,1.9,7.72" fill="none" stroke="#000" stroke-linecap="round" stroke-linejoin="round" stroke-width="2"/><path d="M689.59,946.46c-3.2,3.93-6.55,7.75-9.54,11.83A19.84,19.84,0,0,1,667.83,966" fill="none" stroke="#000" stroke-linecap="round" stroke-linejoin="round" stroke-width="2"/><path d="M462,940.56c3.29,7.7,9.34,12.31,17,15.1a43.5,43.5,0,0,0,4.42,1.13" fill="none" stroke="#000" stroke-linecap="round" stroke-linejoin="round" stroke-width="2"/><path d="M92.51,147.65c-1.23,1.6-2.5,3.17-3.68,4.8-4.32,6-5.13,12.21-1.48,18.8" fill="none" stroke="#000" stroke-linecap="round" stroke-linejoin="round" stroke-width="2"/><path d="M220.85,893.36c2,8.37.12,16.14-3.69,23.6" fill="none" stroke="#000" stroke-linecap="round" stroke-linejoin="round" stroke-width="2"/><path d="M232.65,944.25a26.62,26.62,0,0,1-22.87,2.21" fill="none" stroke="#000" stroke-linecap="round" stroke-linejoin="round" stroke-width="2"/><path d="M284.28,889.67c3.26-7.6,8.83-13,16.63-15.37,8.2-2.48,16.42-2.26,23.57,3.57l1.84,1.48" fill="none" stroke="#000" stroke-linecap="round" stroke-linejoin="round" stroke-width="2"/><path d="M1208.48,205.92c6,6.23,9.33,13.87,11.43,22.13" fill="none" stroke="#000" stroke-linecap="round" stroke-linejoin="round" stroke-width="2"/><path d="M229.33,843.57c-3.07,2.7-6.31,5.25-9.17,8.16a13.53,13.53,0,0,0-3.73,10.65" fill="none" stroke="#000" stroke-linecap="round" stroke-linejoin="round" stroke-width="2"/><path d="M736.06,870.49c-7-1.35-13.53,1.36-20.28,2.21" fill="none" stroke="#000" stroke-linecap="round" stroke-linejoin="round" stroke-width="2"/><path d="M1219.92,231.74a32.88,32.88,0,0,1-11.43,19.91" fill="none" stroke="#000" stroke-linecap="round" stroke-linejoin="round" stroke-width="2"/><path d="M985.36,134c-3.44-.12-7-.73-10.31-.24-3.94.57-6.48,3.43-7.76,7.25" fill="none" stroke="#000" stroke-linecap="round" stroke-linejoin="round" stroke-width="2"/><path d="M187.29,431.26c2.61,6.17,4.81,12.46,5.53,19.18" fill="none" stroke="#000" stroke-linecap="round" stroke-linejoin="round" stroke-width="2"/><path d="M635.38,883c-4.67,1.11-9.48,1.84-14,3.44-3.53,1.25-6.08,4.2-7.77,7.63s-3.21,6.88-4.81,10.32" fill="none" stroke="#000" stroke-linecap="round" stroke-linejoin="round" stroke-width="2"/><path d="M511.46,939.82c5.14,4.75,11.42,7.18,18.07,8.85" fill="none" stroke="#000" stroke-linecap="round" stroke-linejoin="round" stroke-width="2"/><path d="M1205.9,699.37a48.14,48.14,0,0,1,5.87,3c2.59,1.78,5.7,3.44,7.21,6,1.66,2.8,3.77,3.7,6.47,4.31" fill="none" stroke="#000" stroke-linecap="round" stroke-linejoin="round" stroke-width="2"/><path d="M420,953.47c-5.13-2.66-10.2-5.49-16.23-5.53" fill="none" stroke="#000" stroke-linecap="round" stroke-linejoin="round" stroke-width="2"/><path d="M119.8,657.7c-4.49-3.3-9.11-6.36-14.75-7.38" fill="none" stroke="#000" stroke-linecap="round" stroke-linejoin="round" stroke-width="2"/><path d="M923,183.06c-1.27-3.08-3.73-4.58-6.45-6.54-8.29-6-14.73-1.75-21.58,2.11" fill="none" stroke="#000" stroke-linecap="round" stroke-linejoin="round" stroke-width="2"/><path d="M248.88,225.84l13.28,12.54" fill="none" stroke="#000" stroke-linecap="round" stroke-linejoin="round" stroke-width="2"/><path d="M1158,611.6a6.92,6.92,0,0,1,.32,2.57c-1.13,4,.55,7.35,2.26,10.71" fill="none" stroke="#000" stroke-linecap="round" stroke-linejoin="round" stroke-width="2"/><path d="M453.19,872.33c-2.21,2.7-4.63,5.27-6.57,8.16a6.51,6.51,0,0,0-.07,7" fill="none" stroke="#000" stroke-linecap="round" stroke-linejoin="round" stroke-width="2"/><path d="M186.92,824l11.43,7.38" fill="none" stroke="#000" stroke-linecap="round" stroke-linejoin="round" stroke-width="2"/><path d="M1224.71,907.37,1224,914" fill="none" stroke="#000" stroke-linecap="round" stroke-linejoin="round" stroke-width="2"/><path d="M1219.55,964.17v5.16" fill="none" stroke="#000" stroke-linecap="round" stroke-linejoin="round" stroke-width="2"/><path d="M1220.29,897.78l3,3.69" fill="none" stroke="#000" stroke-linecap="round" stroke-linejoin="round" stroke-width="2"/><path d="M144.88,652.9l2.21,2.58" fill="none" stroke="#000" stroke-linecap="round" stroke-linejoin="round" stroke-width="2"/><path d="M1228.4,905.16l2.21.74" fill="none" stroke="#000" stroke-linecap="round" stroke-linejoin="round" stroke-width="2"/></svg>