<svg id="Layer_1" data-name="Layer 1" xmlns="http://www.w3.org/2000/svg" viewBox="0 0 495.2 514.93"><title>young</title><path d="M864.75,538.25c3.72.23,6.33-2,8.72-4.28,7.78-7.48,15.07-15.41,21-24.46a98,98,0,0,0,12.73-28c3.16-11.48,3.09-23.25,2.71-35a94.72,94.72,0,0,0-6.29-31.71,81.38,81.38,0,0,0-15.1-24.33,177.81,177.81,0,0,0-29.5-26c-10.77-7.75-22.51-14-33.3-21.68-5.16-3.68-10.28-7.41-15.51-11a75.62,75.62,0,0,0-26-11,194.76,194.76,0,0,0-26.48-3.86c-7-.62-14-1.13-21-1.71-10.82-.89-21.67-.83-32.5-.68a174.71,174.71,0,0,0-21.26,1.6,136.93,136.93,0,0,0-29.45,7.21,97.78,97.78,0,0,0-15.09,7.55,95.86,95.86,0,0,0-21.16,16.38c-7.77,8.13-14,17.36-17.22,28.23-3.3,11.15-.85,21.16,7.73,29.18,6.09,5.69,13.22,9.79,20.91,13.16,6.45,2.82,13,5.4,19.53,7.93a240.37,240.37,0,0,0,27.29,8.36c8.38,2.14,16.94,3.62,25.49,5,6,1,12.15,1.52,18.24,2,11.89,1,23.65,2.78,35,6.58,9.32,3.12,18.81,5.58,28.28,8.16,11.07,3,22.15,6.05,33,9.85,12,4.22,23.75,9.41,33.71,17.52,10.44,8.5,17.39,19.37,18.51,33.17a51.7,51.7,0,0,1-1.33,15.27c-.41,1.88-1.61,3.88-.62,6" transform="translate(-432.97 -289.52)" fill="none" stroke="#000" stroke-linecap="round" stroke-linejoin="round" stroke-width="2"/><path d="M900.5,559.5A102.83,102.83,0,0,0,909.23,547a115.54,115.54,0,0,0,10-21.25,133.69,133.69,0,0,0,6-23.25,172.14,172.14,0,0,0,1.74-36.24,200.91,200.91,0,0,0-3.49-29,311.19,311.19,0,0,0-7.35-30.54,126.23,126.23,0,0,0-23.37-43.94,155.16,155.16,0,0,0-18.4-18.6,245.1,245.1,0,0,0-21.07-16.42A368.1,368.1,0,0,0,821,308a133.06,133.06,0,0,0-21.77-9.67,96.46,96.46,0,0,0-21-4.66c-7.4-.77-14.83-1.12-22.25-1.46-10.75-.5-21.5-1.11-32.25-1.47a218.93,218.93,0,0,0-27.76.35,144,144,0,0,0-26.46,4.73,147.1,147.1,0,0,0-28.86,11.75,142,142,0,0,0-26.84,18.24A139.78,139.78,0,0,0,593.95,347,150.9,150.9,0,0,0,577,375a137.34,137.34,0,0,0-9.87,30.22c-1.48,7.47-2.21,15-3.47,22.51s-2.77,15.26-6.94,22c-.82,1.33-1.07,3.13-3,3.5" transform="translate(-432.97 -289.52)" fill="none" stroke="#000" stroke-linecap="round" stroke-linejoin="round" stroke-width="2"/><path d="M891.75,569.75c-16.17,16.33-32.4,32.6-48.47,49-6.07,6.21-11.8,12.8-16,20.48a44.19,44.19,0,0,0-4.59,30.5c1.19,6.21,2.79,12.31,4.17,18.46,2.09,9.26-1,14-8.38,17.48a187.27,187.27,0,0,1-23.94,9.17A201.25,201.25,0,0,1,772,720.62c-9.06,1.75-18.27,2.73-27.47,3.72-21.14,2.28-42.34,1.83-63.51,1.51-11.24-.17-22.52-.35-33.76-1.51-7.52-.78-14.81-2.05-21.74-5.1-10.2-4.49-15.05-12.57-15.49-23.49-.26-6.41,0-12.87-.61-19.24a48,48,0,0,0-9.74-24.2,53.86,53.86,0,0,0-20.18-16.79,62.29,62.29,0,0,0-8-3.2,14.71,14.71,0,0,1-3.23-1.57" transform="translate(-432.97 -289.52)" fill="none" stroke="#000" stroke-linecap="round" stroke-linejoin="round" stroke-width="2"/><path d="M583.25,641.75A66,66,0,0,1,590.49,653,62.8,62.8,0,0,1,597,680.75a66.47,66.47,0,0,1-5.75,26,93,93,0,0,1-14.43,23c-8.29,10-18.49,17.37-29.78,23.48-8.53,4.62-16.42,10-22,18.22-2.93,4.28-4.82,9-6.71,13.77-3.84,9.67-10.89,15.41-21,17.5-11.63,2.39-21.62-1.67-30.71-8.3-11.36-8.29-18.45-19.81-23.55-32.7A137.35,137.35,0,0,1,436.41,740c-.66-3.09-1.42-6.18-2.2-9.26-.38-1.51-.55-2.94,1.29-3.21,4.71-.7,8.33-3.5,11.66-6.4A34.54,34.54,0,0,1,459,714c6.66-2.21,11.77-6.7,17-11.07A120.22,120.22,0,0,0,486.53,693a94.75,94.75,0,0,0,11-15c.46-.74,1-1.34-.26-1.76" transform="translate(-432.97 -289.52)" fill="none" stroke="#000" stroke-linecap="round" stroke-linejoin="round" stroke-width="2"/><path d="M743.75,576.25c3.37,5.36,1.84,11.14,1.2,16.74-1.26,11,8.58,22.27,19.81,20.29,8.89-1.57,17.84-2.78,26.74-4.31,6.4-1.1,12.23-3.83,18-6.69,7.9-3.9,15.87-7.59,23.28-12.46,10.84-7.14,17.48-17.37,21.82-29.12,2.67-7.23,1.08-14.66-1.87-21.7-1.3-3.1-2.48-6.26-4-9.23-2.88-5.5-7.8-8.78-12.88-12.15-5.92-3.93-11.42-2.93-17.34-.65-8.54,3.28-17,6.76-25.74,9.53" transform="translate(-432.97 -289.52)" fill="none" stroke="#000" stroke-linecap="round" stroke-linejoin="round" stroke-width="2"/><path d="M759.75,595.5c5.42-.5,10.83-1,16.25-1.49a73.84,73.84,0,0,1,13.75-.29,32.46,32.46,0,0,0,13.72-2A116.41,116.41,0,0,0,821,584.52c7.36-3.93,12.19-10.08,15.45-17.53a53.8,53.8,0,0,0,4.8-22.73c-.19-10.53-4-14.45-13.26-17.75-4.13-1.47-8.25-2-12.52-.3a11.15,11.15,0,0,0-4.92,3.85,26.5,26.5,0,0,0-4.05,8.21c-1,3.43.22,6.16,3.5,7.49a21.4,21.4,0,0,0,9,1.26,3,3,0,0,0,2-1c.94-.9,2-1.68,3-2.52" transform="translate(-432.97 -289.52)" fill="none" stroke="#000" stroke-linecap="round" stroke-linejoin="round" stroke-width="2"/><path d="M515.75,553.75c-2.46-.43-4.81-.5-6.78,1.47a1.93,1.93,0,0,1-1.47.26c-7.06-1.19-13.26,1.22-19.25,4.52s-11.94,6.11-16.5,11.25c-4.9,5.53-6.26,11.62-3.79,18.77,6.24,18.05,14.5,35.21,22.45,52.53,4.32,9.41,7.16,19.36,6.59,30" transform="translate(-432.97 -289.52)" fill="none" stroke="#000" stroke-linecap="round" stroke-linejoin="round" stroke-width="2"/><path d="M570.5,404.75a42,42,0,0,1,9.81,10c3.72,5.31,3.57,10.72,1.16,16.28-4.22,9.72-11.34,16.78-20.46,22-6.76,3.9-13.81,7.36-19.29,13.2-5.94,6.33-7.47,13.77-5.93,22a44.51,44.51,0,0,0,2.13,7.29c.56,1.51,1.28,2.43,2.82,2.72" transform="translate(-432.97 -289.52)" fill="none" stroke="#000" stroke-linecap="round" stroke-linejoin="round" stroke-width="2"/><path d="M711.75,391c-.74-.28-1.37-.82-2.25-.76-5.53.41-11-.81-16.5-.74a13.35,13.35,0,0,0-11.73,6.27c-1.59,2.45-3.36,3.4-6.54,3.1-10.17-.95-18.46,4-22.72,13.39a25.55,25.55,0,0,0-1.63,5c-.56,2.47.37,3.84,2.38,4.48,6.48,2.07,11.89,6.42,18.46,8.38,5.14,1.54,10,1.76,15-.09a79.21,79.21,0,0,0,13.55-6.17c5.48-3.29,8.5-8.33,10.91-13.85,1.83-4.2,3.47-8.52,3.56-13.23,0-1.21.88-2.06,1.5-3s1.5-1.94.7-3.1c-.5-.73-4.06-.57-4.4.25-.57,1.39-1.71,1.88-2.79,2.64a4.55,4.55,0,0,0-2,4.45,3.87,3.87,0,0,1-.84,3,61.09,61.09,0,0,1-8.6,9.91c-2.26,2-4.19,4.24-7.11,5.39s-5.51,2.47-8.26,3.72c-2.25,1-4.71.11-7,.74-.56.15-1.28,0-1.73.29-1.62,1-3.36.36-5,.57-4.67.58-8.43-2.27-12.73-3-1.71-.31-3.43-1.1-5.29-1.05" transform="translate(-432.97 -289.52)" fill="none" stroke="#000" stroke-linecap="round" stroke-linejoin="round" stroke-width="2"/><path d="M538.25,497.5c-2.29,1-2.59,3.43-3.42,5.28-3.92,8.67-7.64,17.44-11.3,26.23A56,56,0,0,0,519,550c-.14,11-.21,22.06,1.34,33A97.73,97.73,0,0,0,524,599a41.78,41.78,0,0,1,1.7,5.76c.44,2.66.5,5.4,2.06,7.73.75,1.13-.9,2.17,0,3.26" transform="translate(-432.97 -289.52)" fill="none" stroke="#000" stroke-linecap="round" stroke-linejoin="round" stroke-width="2"/><path d="M767.75,583.25c4.28-2.94,9.14-1.5,13.75-1.69,2.86-.12,5.72.44,7.28,3.35,2.15-1.59,2.2-2.08.72-3.91-1.72-2.13-3.77-4-5-6.48a21.5,21.5,0,0,1-2-10.77A6.68,6.68,0,0,0,782,560c-1.85-3.17-5.84-3-8.26.23-2.15,2.86-3.32,6.29-5.68,9.06-1.74,2-3.73,3.79-5.6,5.66-2.61,2.62-3.24,5.43-2,8.8" transform="translate(-432.97 -289.52)" fill="none" stroke="#000" stroke-linecap="round" stroke-linejoin="round" stroke-width="2"/><path d="M726.25,332c2.46-1.79,5.44-1.93,8.26-2.41,1-.17,1.33,1.19,1.48,2.17a9.43,9.43,0,0,1-1.81,7,36.92,36.92,0,0,1-20.7,14.52c-8.77,2.37-15.95-.8-22.23-6.74-.61-.58-.65-1.55-1.06-2.21-1.25-2-3.44-1.86-5.45-2" transform="translate(-432.97 -289.52)" fill="none" stroke="#000" stroke-linecap="round" stroke-linejoin="round" stroke-width="2"/><path d="M733,328.5c-1.82-1.52-4.13-1.64-6.25-1.67-4.33-.06-8.71-.61-13,.65-2.26.67-4.57,1.19-6.24,3a4.56,4.56,0,0,1-4,1.49c-7-.66-10.88,1.72-16.49,7.74l.49,2.51" transform="translate(-432.97 -289.52)" fill="none" stroke="#000" stroke-linecap="round" stroke-linejoin="round" stroke-width="2"/><path d="M539.75,687.25A64.18,64.18,0,0,1,546,690a13.78,13.78,0,0,1,5.14,4.88c2.4,3.92,6.06,7,8.64,10.82a46,46,0,0,1,8,24.5" transform="translate(-432.97 -289.52)" fill="none" stroke="#000" stroke-linecap="round" stroke-linejoin="round" stroke-width="2"/><path d="M614.75,622.75c-4.12,4.26-9.59,4.81-15,5.21-8.57.63-17.17.91-25.75,1.41-3.6.21-7,1.62-10.76,1-6.05-1.07-12.32-.69-18.24-2.81A25.82,25.82,0,0,1,530.74,616c-.57-1-1-2.19-2.49-2.26" transform="translate(-432.97 -289.52)" fill="none" stroke="#000" stroke-linecap="round" stroke-linejoin="round" stroke-width="2"/><path d="M793.25,415.75c-.84,3.46-1.42,7-3,10.27-2.48,5.34-7.29,7.11-12.26,9.06-3.87,1.51-7.2.07-10.49-1.2-1.94-.75-3.7-2-5.78-2.69-1-.3-2.18-.91-1.77-2.44.35-1.3,1.21-1.58,2.5-1.55s2.83-.35,4.25-.43c1-.06,2.1-.51,3,.47s2.1.79,3.24.75a22.76,22.76,0,0,0,13.5-5c.18-.14.46-.31.48-.5.34-2.69,2.89-4.34,3.27-7" transform="translate(-432.97 -289.52)" fill="none" stroke="#000" stroke-linecap="round" stroke-linejoin="round" stroke-width="2"/><path d="M574.75,554c-2.78-.72-3-3.93-5.22-5.3-.85-.53-1.3-1.68-2-2.44a6.27,6.27,0,0,1-2.07-4.77c0-2.12-1.44-3.92-2.45-5.73-3.39-6.08-7.56-11.44-14.22-14.25-3.85-1.62-7.88-1.62-12-1.33a7,7,0,0,0-6.62,4.51,70.84,70.84,0,0,1-3.88,6.56" transform="translate(-432.97 -289.52)" fill="none" stroke="#000" stroke-linecap="round" stroke-linejoin="round" stroke-width="2"/><path d="M733.75,330a11.82,11.82,0,0,1-5,7.23,21.07,21.07,0,0,0-4.84,4.44c-1.43,1.89-3.68,3.49-6.38,2.77a7.62,7.62,0,0,0-5.23.88c-6.62,3-13,2.81-19.3-.78a6.69,6.69,0,0,0-2.48-.29" transform="translate(-432.97 -289.52)" fill="none" stroke="#000" stroke-linecap="round" stroke-linejoin="round" stroke-width="2"/><path d="M581.25,481c.33.08.92.1,1,.26,1.24,4.59,2.92,9.2,1,14a8.5,8.5,0,0,1-6.72,5.53,10,10,0,0,1-9.23-3c-.17-.16,0-.64,0-1" transform="translate(-432.97 -289.52)" fill="none" stroke="#000" stroke-linecap="round" stroke-linejoin="round" stroke-width="2"/><path d="M797.25,543.75c-1.49,1.1-.88,2.83-1.21,4.26-.88,3.89-1.39,7.86-2.34,11.73a11.62,11.62,0,0,0,2,10.29c1.66,2.27,2.69,5,4.78,7a4.5,4.5,0,0,0,5,.94c1.9-.69,2.73-2.73,2.55-5-.06-.74-.4-1.66.47-2.24s1.71-.18,2.49.25c.52.29,1,.7,1.51,1,1.73,1,3,.24,3.8-1.72a4.87,4.87,0,0,0,.41-2.76c-.52-2.41.29-4.57,1-6.76" transform="translate(-432.97 -289.52)" fill="none" stroke="#000" stroke-linecap="round" stroke-linejoin="round" stroke-width="2"/><path d="M565,543.25a6,6,0,0,1-4.11-2.12c-3-3.23-6.91-3.67-10.65-4.55a26.09,26.09,0,0,0-13.42.89c-3.62,1.1-7.74,2.38-10,6a17.74,17.74,0,0,0-3.08,10c0,.82-.77,1.67-1.19,2.5" transform="translate(-432.97 -289.52)" fill="none" stroke="#000" stroke-linecap="round" stroke-linejoin="round" stroke-width="2"/><path d="M497.25,588.25c.17-.31-.31-.73.24-1,2.1-1.06,4.44-3.33,6.19-2.94,2.12.48,4.28,2.9,5.45,5A18.55,18.55,0,0,0,519,598c2.11.82,2.87,2.63,3.28,4.73s1.08,4.3,3.22,5.51" transform="translate(-432.97 -289.52)" fill="none" stroke="#000" stroke-linecap="round" stroke-linejoin="round" stroke-width="2"/><path d="M546,557.5c-2.66-2.54-5.92-1.7-9-1.43a13.74,13.74,0,0,0-3.24.49A18,18,0,0,0,523.71,565c-.46.83-.25,2.45-2,2.27" transform="translate(-432.97 -289.52)" fill="none" stroke="#000" stroke-linecap="round" stroke-linejoin="round" stroke-width="2"/><path d="M852.5,395.5c-1-.7-.38-2.08-.83-2.69-1.66-2.25-2-5.37-4.88-6.89-2.17-1.13-3.83-3.15-5.74-4.73-2.78-2.31-6.71-2.15-9.3-4.69-3,.89-5.77-1-8.75-.8-3.44.18-6.88,0-10.25,1A5.78,5.78,0,0,0,809,384.5a24.23,24.23,0,0,0,1.52,3.24c1.26,2,2.59,3.65,5.47,3.91,2.48.22,4.83,1.74,7.27,2.58a4.93,4.93,0,0,1,2.45,2c2.05,3.09,5.17,5.39,6.56,9,.5,1.3,2,1.91,2.3,3.49.28,1.41-.28,1.53-1.32,1.51" transform="translate(-432.97 -289.52)" fill="none" stroke="#000" stroke-linecap="round" stroke-linejoin="round" stroke-width="2"/><path d="M562.75,499.5c-3.08-.22-6.16.15-9.26-.19a29.22,29.22,0,0,1-7.75-2.06c-3.49-1.39-4.71-.56-4.45,3.24.09,1.32-1.4,2-1,3.25" transform="translate(-432.97 -289.52)" fill="none" stroke="#000" stroke-linecap="round" stroke-linejoin="round" stroke-width="2"/><path d="M501.25,569.25c-.34.83-.55,1.89,0,2.46,3.38,3.29,5.64,7.69,10.42,9.64,2.65,1.08,5.18,2,8,1.9" transform="translate(-432.97 -289.52)" fill="none" stroke="#000" stroke-linecap="round" stroke-linejoin="round" stroke-width="2"/><path d="M565.25,633.75c0,.57-.08,1.12.5,1.5a11.73,11.73,0,0,1,4.88,8.26c.45,3,2.06,4.48,4.37,5.73,1.41.77,2.83,1.5,4.25,2.25" transform="translate(-432.97 -289.52)" fill="none" stroke="#000" stroke-linecap="round" stroke-linejoin="round" stroke-width="2"/><path d="M725.75,332.38c-2.16-.14-2.94,1.84-4.2,2.94-3.13,2.74-3.7,2.74-5.3-1.06-2.11-.09-3.83.91-5.49,2a10.93,10.93,0,0,1-4,1.53c-1.75.36-3.43.52-5.17,1.73-1.5,1-4.31.66-6.6.54-2-.1-4.14,0-5.5,1.94" transform="translate(-432.97 -289.52)" fill="none" stroke="#000" stroke-linecap="round" stroke-linejoin="round" stroke-width="2"/><path d="M561.25,559.25a25.47,25.47,0,0,0-15.75-5,3.08,3.08,0,0,0-2.75,1.27" transform="translate(-432.97 -289.52)" fill="none" stroke="#000" stroke-linecap="round" stroke-linejoin="round" stroke-width="2"/><path d="M761.75,394.5a6.51,6.51,0,0,1-6-2.73,7,7,0,0,0-7-2.78c-.41.07-.95.18-1.23,0-2.81-1.92-5.69-1-8.51-.19a30.36,30.36,0,0,1-5.26.73c-2.26.24-3.74-1.34-5.5-2.26-1.61-.85-2.53-.4-3,1.51" transform="translate(-432.97 -289.52)" fill="none" stroke="#000" stroke-linecap="round" stroke-linejoin="round" stroke-width="2"/><path d="M707.5,395.25c-1.92-1.75-4-.58-5.71.1-3.3,1.33-6.77,2-10.09,3.26-1.47.54-3.17,1-4.12,2-2.68,2.79-6.06,3.67-9.58,4.42a8.46,8.46,0,0,0-4.7,2.29c-1.62,1.83-3.58,2.23-5.8,2.21-1.62,0-3,.16-3.79,2a3.21,3.21,0,0,1-2.46,1.72c-3,.45-4.92,2.55-7.24,4" transform="translate(-432.97 -289.52)" fill="none" stroke="#000" stroke-linecap="round" stroke-linejoin="round" stroke-width="2"/><path d="M777.25,377c-.92.75-1.48,1.52-.25,2.5,3.17,2.54,4.58,6.5,7.46,9.29a2,2,0,0,1,.56,2.46c-.77,1.32-1.74.38-2.51.2-4.22-1-8.17-.57-11.76,2a3.5,3.5,0,0,1-4.52,0,2.81,2.81,0,0,0-3.73.22c-.68.6-.59,1.17,0,1.75" transform="translate(-432.97 -289.52)" fill="none" stroke="#000" stroke-linecap="round" stroke-linejoin="round" stroke-width="2"/><path d="M794.25,415.25c-3.55-.75-7.19.36-10.76-.71-3.2-1-5.73.46-7.74,3-.41.51-.83,1-1.25,1.5" transform="translate(-432.97 -289.52)" fill="none" stroke="#000" stroke-linecap="round" stroke-linejoin="round" stroke-width="2"/><path d="M795.75,537.75c.13,3.54,2.57,6,4.27,8.74,1.48,2.4,3.13,4.69,4.74,7a10.35,10.35,0,0,0,1.5,1.75c3.21,2.92,4.76,2.78,7.21-.76.49-.7.74-1.46,1.78-1.23" transform="translate(-432.97 -289.52)" fill="none" stroke="#000" stroke-linecap="round" stroke-linejoin="round" stroke-width="2"/><path d="M676.63,374.25c-1.4-1.65-5.39-2.77-7.1-1.7s-3.67,1.44-5.31,2.66a7.2,7.2,0,0,1-7.4.41c-1.34-.61-2.15-2.48-3.81-3.12-.83-.32-1.6-.85-2.58-.07-.83-2.13-2.91-2.68-4.43-3.91" transform="translate(-432.97 -289.52)" fill="none" stroke="#000" stroke-linecap="round" stroke-linejoin="round" stroke-width="2"/><path d="M773.75,420c-1.23-1.33-2.71-1.09-4.25-.76-3.23.69-6,2-7.8,5a4.48,4.48,0,0,0-.45,2.53" transform="translate(-432.97 -289.52)" fill="none" stroke="#000" stroke-linecap="round" stroke-linejoin="round" stroke-width="2"/><path d="M643.75,368.25c.82-.4,1.91-.27,2.28-1.49.31-1.05,1.19-1.55,2.2-2.06,1.59-.81,2.91-2.08,4.49-3,3.72-2.17,8-1,11.79-2.18a1,1,0,0,1,.74,0c3.71,2.83,9.38,2.6,11.75,7.49.4.82,1.22,1.12,1.85,1.67l-1.34,3.82" transform="translate(-432.97 -289.52)" fill="none" stroke="#000" stroke-linecap="round" stroke-linejoin="round" stroke-width="2"/><path d="M687.13,414.88c-2.16-.9-4.08.1-6.14.55-2.73.6-2.4,2.8-3,4.57" transform="translate(-432.97 -289.52)" fill="none" stroke="#000" stroke-linecap="round" stroke-linejoin="round" stroke-width="2"/><path d="M684.25,408.5c-1.95,5.12-6.38,4.59-10.5,4.41a7.31,7.31,0,0,0-2.27.51c-2.63.59-5.36,1-7.73-.92" transform="translate(-432.97 -289.52)" fill="none" stroke="#000" stroke-linecap="round" stroke-linejoin="round" stroke-width="2"/><path d="M766,368.25a15.9,15.9,0,0,1-6.21-2.32,1.75,1.75,0,0,0-1.55-.19c-1.09.17-2.21.24-3-.74-.95-1.2-1.78-.61-3-.38-3.19.58-6.36,1.56-9.73,1.22-1.81-.18-3.38,1.42-5.64,1.48l-1.6-1.31" transform="translate(-432.97 -289.52)" fill="none" stroke="#000" stroke-linecap="round" stroke-linejoin="round" stroke-width="2"/><path d="M509.75,673.75c-2.5.5-5,1-7.5,1.48a1.64,1.64,0,0,1-1.75-.48" transform="translate(-432.97 -289.52)" fill="none" stroke="#000" stroke-linecap="round" stroke-linejoin="round" stroke-width="2"/><path d="M857.75,454.25c-.06-2.08-1.9-1.73-2.71-1.39-1.5.61-3.35.43-4.51,1.68-.86.92-2,0-2.78.72" transform="translate(-432.97 -289.52)" fill="none" stroke="#000" stroke-linecap="round" stroke-linejoin="round" stroke-width="2"/><path d="M696.5,411.25c-3.7-1-6.18,1.21-8.75,3.25-1.16.92-.13,1.68.13,2.5" transform="translate(-432.97 -289.52)" fill="none" stroke="#000" stroke-linecap="round" stroke-linejoin="round" stroke-width="2"/><path d="M505.75,665.75a36.32,36.32,0,0,0-5.23,8.26,4.85,4.85,0,0,1-2.52,2.37" transform="translate(-432.97 -289.52)" fill="none" stroke="#000" stroke-linecap="round" stroke-linejoin="round" stroke-width="2"/><path d="M523.25,611c-3.18.17-6.21.75-8.5,3.25" transform="translate(-432.97 -289.52)" fill="none" stroke="#000" stroke-linecap="round" stroke-linejoin="round" stroke-width="2"/><path d="M747.5,389.25a6.55,6.55,0,0,1-.77,4.24c-1,1.48.36,2.85,0,4.26" transform="translate(-432.97 -289.52)" fill="none" stroke="#000" stroke-linecap="round" stroke-linejoin="round" stroke-width="2"/><path d="M847.63,456c-.38-1.74-1.82-1.33-2.87-1.21-3.45.38-6.59-.88-9.72-1.88-1.48-.47-2-2.41-2.22-3.92A2.81,2.81,0,0,0,831,446.7c-3.44-1.85-6.83-1.38-10.28-.2" transform="translate(-432.97 -289.52)" fill="none" stroke="#000" stroke-linecap="round" stroke-linejoin="round" stroke-width="2"/><path d="M724.5,340c-3.29-1.06-4.71-.4-7.5,3.5" transform="translate(-432.97 -289.52)" fill="none" stroke="#000" stroke-linecap="round" stroke-linejoin="round" stroke-width="2"/><path d="M716.75,337c-1.79,1.42-1.79,1.42-6.17,2.28l-1-1.78" transform="translate(-432.97 -289.52)" fill="none" stroke="#000" stroke-linecap="round" stroke-linejoin="round" stroke-width="2"/><path d="M853.75,443.75l4,8" transform="translate(-432.97 -289.52)" fill="none" stroke="#000" stroke-linecap="round" stroke-linejoin="round" stroke-width="2"/><path d="M707,397.5c-2.59.92-5.15,1.71-7.33,3.66A7.87,7.87,0,0,1,694,403" transform="translate(-432.97 -289.52)" fill="none" stroke="#000" stroke-linecap="round" stroke-linejoin="round" stroke-width="2"/><path d="M837.25,435.25c0,3-.45,3.62-3.25,3.46a3.28,3.28,0,0,0-3.74,2.79c-.37,1.41-.67,2.83-1,4.25" transform="translate(-432.97 -289.52)" fill="none" stroke="#000" stroke-linecap="round" stroke-linejoin="round" stroke-width="2"/><path d="M710,339.5c-2.47,1.89-5,2.72-7.75.5" transform="translate(-432.97 -289.52)" fill="none" stroke="#000" stroke-linecap="round" stroke-linejoin="round" stroke-width="2"/><path d="M854.75,416.25c1-1.69,1.43-3.46.36-5.24-1.28-2.13-.51-4.55-1.12-6.76s.23-4.5,0-6.75c-.05-.55-.13-1-.76-1.12" transform="translate(-432.97 -289.52)" fill="none" stroke="#000" stroke-linecap="round" stroke-linejoin="round" stroke-width="2"/><path d="M834.5,407.5a4.25,4.25,0,0,1,4.32,2,4.31,4.31,0,0,0,4.17,1.76c3.64-.55,6.83-.07,9.29,3a9.24,9.24,0,0,0,2.22,1.53" transform="translate(-432.97 -289.52)" fill="none" stroke="#000" stroke-linecap="round" stroke-linejoin="round" stroke-width="2"/><path d="M509.25,555.5c1,1.46,2.82,1.54,4.07,2.68.89.81,2,1.34,2.43,2.57" transform="translate(-432.97 -289.52)" fill="none" stroke="#000" stroke-linecap="round" stroke-linejoin="round" stroke-width="2"/><path d="M497.25,580.25c2.49,1.07,5.2.28,7.77.92.78.19,1.32-1.08,2-1.67" transform="translate(-432.97 -289.52)" fill="none" stroke="#000" stroke-linecap="round" stroke-linejoin="round" stroke-width="2"/><path d="M787.5,419.75a2.06,2.06,0,0,0-2.49,0,5.71,5.71,0,0,1-5.51.74" transform="translate(-432.97 -289.52)" fill="none" stroke="#000" stroke-linecap="round" stroke-linejoin="round" stroke-width="2"/><path d="M524,554.25c2.13,1.12,4.66,1,6.75,2.25" transform="translate(-432.97 -289.52)" fill="none" stroke="#000" stroke-linecap="round" stroke-linejoin="round" stroke-width="2"/><path d="M740.5,389.25c-.49,2.22-.28,4.66-2,6.5" transform="translate(-432.97 -289.52)" fill="none" stroke="#000" stroke-linecap="round" stroke-linejoin="round" stroke-width="2"/><path d="M533.25,528.75c-.36,2,.64,3.62,1.52,5.24.57,1.05,1.31,2,2,3" transform="translate(-432.97 -289.52)" fill="none" stroke="#000" stroke-linecap="round" stroke-linejoin="round" stroke-width="2"/><path d="M723.5,333c-2.32-1.82-4.43-.86-6.5.5" transform="translate(-432.97 -289.52)" fill="none" stroke="#000" stroke-linecap="round" stroke-linejoin="round" stroke-width="2"/><path d="M691.75,399c1,1.25,2.18,2.65,1.89,4.23-.2,1.07.61,2.47-.64,3.26-1.9,1.19-3.77,2.58-6,2.93a3.07,3.07,0,0,1-3-1.92,10,10,0,0,1-1.24-3.25" transform="translate(-432.97 -289.52)" fill="none" stroke="#000" stroke-linecap="round" stroke-linejoin="round" stroke-width="2"/><path d="M781.25,386c-3.25,1.17-3.25,1.17-3.25,4.63" transform="translate(-432.97 -289.52)" fill="none" stroke="#000" stroke-linecap="round" stroke-linejoin="round" stroke-width="2"/><path d="M846.25,435.75c-1.87.34-3.48,1.42-5.2,2.12a5.14,5.14,0,0,1-4,.13" transform="translate(-432.97 -289.52)" fill="none" stroke="#000" stroke-linecap="round" stroke-linejoin="round" stroke-width="2"/><path d="M684.75,371a5.4,5.4,0,0,0-2.52.21c-1.76.89-3.65,1.54-5.48,2.29" transform="translate(-432.97 -289.52)" fill="none" stroke="#000" stroke-linecap="round" stroke-linejoin="round" stroke-width="2"/><path d="M854,409.25c-3.07-.55-3.49-.34-4.5,2.25" transform="translate(-432.97 -289.52)" fill="none" stroke="#000" stroke-linecap="round" stroke-linejoin="round" stroke-width="2"/><path d="M778.25,421.5c.06,2-1.54,3.52-1.5,5.5" transform="translate(-432.97 -289.52)" fill="none" stroke="#000" stroke-linecap="round" stroke-linejoin="round" stroke-width="2"/><path d="M736.5,368c-3,.93-5.31,3.64-8.75,3.5" transform="translate(-432.97 -289.52)" fill="none" stroke="#000" stroke-linecap="round" stroke-linejoin="round" stroke-width="2"/><path d="M535.25,515c0,1.93-2.22,3.15-1.75,5.25" transform="translate(-432.97 -289.52)" fill="none" stroke="#000" stroke-linecap="round" stroke-linejoin="round" stroke-width="2"/><path d="M768.75,365.25a2.62,2.62,0,0,0-2.43,2.5c0,1.33,1.23,1.74,2.39,2.33a13.18,13.18,0,0,1,6,5.67,3.74,3.74,0,0,0,1.75,1.75" transform="translate(-432.97 -289.52)" fill="none" stroke="#000" stroke-linecap="round" stroke-linejoin="round" stroke-width="2"/><path d="M849.25,440.5c1.89,1.56,3.65,3.44,6.5,2.5" transform="translate(-432.97 -289.52)" fill="none" stroke="#000" stroke-linecap="round" stroke-linejoin="round" stroke-width="2"/><path d="M824.5,401c-.8,1.34-.41,2.82-.5,4.25" transform="translate(-432.97 -289.52)" fill="none" stroke="#000" stroke-linecap="round" stroke-linejoin="round" stroke-width="2"/><path d="M785,416c-1,1.38-3,.75-4,2" transform="translate(-432.97 -289.52)" fill="none" stroke="#000" stroke-linecap="round" stroke-linejoin="round" stroke-width="2"/><path d="M773,421c-1.08,1.26-2.92,1.75-3.5,3.5" transform="translate(-432.97 -289.52)" fill="none" stroke="#000" stroke-linecap="round" stroke-linejoin="round" stroke-width="2"/><path d="M810.25,372.5c.94.06,1.22.72,1.37,1.5.77,0,1.15-.56,1.63-1" transform="translate(-432.97 -289.52)" fill="none" stroke="#000" stroke-linecap="round" stroke-linejoin="round" stroke-width="2"/><path d="M864.25,448.25c-3.8.84-4.61.59-6-2a1,1,0,0,1,.48-1.24" transform="translate(-432.97 -289.52)" fill="none" stroke="#000" stroke-linecap="round" stroke-linejoin="round" stroke-width="2"/><path d="M853.25,386.5a2,2,0,0,0-3.25.5" transform="translate(-432.97 -289.52)" fill="none" stroke="#000" stroke-linecap="round" stroke-linejoin="round" stroke-width="2"/><path d="M744.75,395.5l-3,1" transform="translate(-432.97 -289.52)" fill="none" stroke="#000" stroke-linecap="round" stroke-linejoin="round" stroke-width="2"/><path d="M834.75,436.5a1.6,1.6,0,0,0-1.5,2" transform="translate(-432.97 -289.52)" fill="none" stroke="#000" stroke-linecap="round" stroke-linejoin="round" stroke-width="2"/><path d="M843.5,438.5c1.45,1.2,3.51.85,5,2,.33.24.74-.36,1-.72.93-1.51,1.84-.57,2.76,0" transform="translate(-432.97 -289.52)" fill="none" stroke="#000" stroke-linecap="round" stroke-linejoin="round" stroke-width="2"/><path d="M818.75,371.25c-1.73,1.06-1.28,2.52-.75,4" transform="translate(-432.97 -289.52)" fill="none" stroke="#000" stroke-linecap="round" stroke-linejoin="round" stroke-width="2"/><path d="M823.75,401.5c-1.16.69-2.25,1.51-3.75,1.27-.62-.1-.56.6-.75,1" transform="translate(-432.97 -289.52)" fill="none" stroke="#000" stroke-linecap="round" stroke-linejoin="round" stroke-width="2"/><path d="M813.25,371.25c-.31,1.43,1.07,2.25,1.25,3.5" transform="translate(-432.97 -289.52)" fill="none" stroke="#000" stroke-linecap="round" stroke-linejoin="round" stroke-width="2"/><path d="M833.25,374.5c-1.16.82-2.1.28-3-.5" transform="translate(-432.97 -289.52)" fill="none" stroke="#000" stroke-linecap="round" stroke-linejoin="round" stroke-width="2"/><path d="M845.75,379.75a2.47,2.47,0,0,0,1,2.25" transform="translate(-432.97 -289.52)" fill="none" stroke="#000" stroke-linecap="round" stroke-linejoin="round" stroke-width="2"/></svg>