<svg xmlns="http://www.w3.org/2000/svg" viewBox="0 0 790.5 618.5" style=""><title>Asset 1</title><g id="Layer_2" data-name="Layer 2"><g id="Layer_1-2" data-name="Layer 1"><path d="M220,261c-6.77-2.78-12.42.46-17.43,4.1-11.4,8.3-13.06,19.61-10.28,32.94s10.95,21.06,22.17,27a72.9,72.9,0,0,0,19,7.12c5.43,1.18,10.36,0,15.55-.57,7.29-.76,14.71-1.5,22-.94,11.22.86,22.31,3.43,33.52,4.17,12.28.81,20.79-6.78,26.17-16.52,3.68-6.67,1.55-15-2.89-21.18s-7.38-13-9.75-20.16a24.07,24.07,0,0,0-12.1-14.38,12.48,12.48,0,0,0-7.42-1.46c-11.85,2.28-23.39,0-35-1.55-3.93-.53-8-.14-12-.06-2.67.05-5.35.2-8,.51-3.35.38-6.67,1-10,1.47" transform="translate(-8.5 -16)" fill="none" stroke="#000" stroke-linecap="round" stroke-linejoin="round" stroke-width="2" class="hfOMHukH_0"></path><path d="M274.5,424.5c4.28,4.33,9.52,5.87,15.5,5.52,7.16-.42,14.37-1.27,21.49-.87a35.49,35.49,0,0,1,22.92,9.94c9,8.76,18.34,17,29.52,23,4.6,2.49,8.41,6.45,12.25,9.48.83,10.83-3.72,18.88-10.31,25.25-14.19,13.7-31.35,20.79-51.36,19-5.57-.5-11.1-2.25-16.49-3.94a225.35,225.35,0,0,1-22.48-8c-10.56-4.6-20-10.88-27.61-19.85a87.27,87.27,0,0,0-12.51-12.46c-10.29-8.07-8-19.56-2.28-27.49,6.29-8.69,14.27-15.85,25.37-18,3.24-.64,6.65-.41,10-.57" transform="translate(-8.5 -16)" fill="none" stroke="#000" stroke-linecap="round" stroke-linejoin="round" stroke-width="2" class="hfOMHukH_1"></path><path d="M286.5,177.5c-4.67,1-9.31,2.1-14,3-14.49,2.72-29.1,4.89-43.46,8.16-11.5,2.62-22.73,6.44-34,9.88q-17.55,5.34-35,11a78.16,78.16,0,0,0-10.5,4.48c-12.2,6.09-24.33,12.35-36.52,18.46-19.48,9.76-37.13,21.86-51.57,38.45-5.56,6.39-12.6,11.54-17.8,18.17-13,16.6-22.77,35.13-30.13,54.9-1,2.82-2,5.66-3,8.5" transform="translate(-8.5 -16)" fill="none" stroke="#000" stroke-linecap="round" stroke-linejoin="round" stroke-width="2" class="hfOMHukH_2"></path><path d="M764.5,390.5c-1.49,8-.76,16-1,24-.2,5.77-3.41,10.53-7.09,14.38a269.5,269.5,0,0,1-22,20.52c-5.9,5-13.74,5.87-20.91,8.14-8.39,2.66-16.85,5.21-25,8.54-19.65,8.05-40,10.21-61,9.18-8.59-.42-17.5,0-26,3.09-5.88,2.12-12.47,2.27-18.4,4.29-7.86,2.68-15.09,6.82-20.51,13.39-2.45,3-2.85,5.94-1.23,10,3.62,9.18,9.56,16.36,16.06,23.55,7.94,8.79,17.09,16.75,22.14,27.88" transform="translate(-8.5 -16)" fill="none" stroke="#000" stroke-linecap="round" stroke-linejoin="round" stroke-width="2" class="hfOMHukH_3"></path><path d="M470,244a280.42,280.42,0,0,1,47.51,30c4.92,3.77,10.26,7,14.91,11.1,4.83,4.21,5.62,10.5,5.93,16.42a11.28,11.28,0,0,1-9.87,11.38c-12.31,1.24-24.51,4.47-37,3a41.6,41.6,0,0,1-13.93-4c-5.09-2.63-10-2.17-15.09-1.32-9,1.49-18,3.05-27,4.48-12.4,2-24.42-11.68-20.42-23.46,2.22-6.55,4.5-13.09,3.83-20-1-10,3.64-16.76,11.06-22.54,10.94-8.52,22.76-7.86,35-4" transform="translate(-8.5 -16)" fill="none" stroke="#000" stroke-linecap="round" stroke-linejoin="round" stroke-width="2" class="hfOMHukH_4"></path><path d="M662,265.5a118.17,118.17,0,0,0,13.18-19.91c5.31-10.35,12-20,17.76-30.12,5.28-9.34,10.07-19,15-28.48.21-.39,0-1,0-2.26-4.79-6.07-12.73-8-19.41-12.12a9.5,9.5,0,0,0-2.07,1.41c-9,11.31-18.9,22.08-26.8,34.13-10.23,15.58-18.67,32.32-28.28,48.32-8.52,14.19-17.71,28-26.41,42.06-9.61,15.56-18.67,31.4-26.77,47.87-5.78,11.76-13.77,22.45-20.76,33.62-.6,1-1.15,1.93-1.94,3.27-19.08-8.46-39.68-7-60.06-6.68-18.77.26-32.42,10.13-43,24.92-.16.22,0,.65,0,1" transform="translate(-8.5 -16)" fill="none" stroke="#000" stroke-linecap="round" stroke-linejoin="round" stroke-width="2" class="hfOMHukH_5"></path><path d="M661,267.5c-10.33,16-20.89,31.86-30.94,48-9.3,15-17.8,30.46-27.15,45.41-7.06,11.28-15,22-22.37,33.08A94.11,94.11,0,0,0,576,402.5" transform="translate(-8.5 -16)" fill="none" stroke="#000" stroke-linecap="round" stroke-linejoin="round" stroke-width="2" class="hfOMHukH_6"></path><path d="M586.5,221.5c-14.5-6.33-28.76-13.31-43.56-18.83-18-6.7-35.69-14.45-54.94-17.18-6.18-.88-12.34-2-18.5-3" transform="translate(-8.5 -16)" fill="none" stroke="#000" stroke-linecap="round" stroke-linejoin="round" stroke-width="2" class="hfOMHukH_7"></path><path d="M662.5,267c16.72,14.25,34,27.82,49.51,43.49,7.12,7.21,14.39,14.28,21.48,21.52,9,9.16,17,19,22.07,31,1,2.32,3.24,4.2,3.82,6.55,1.12,4.56,1.47,9.3,2.13,14,.51,3.66,1,7.33,1.5,11" transform="translate(-8.5 -16)" fill="none" stroke="#000" stroke-linecap="round" stroke-linejoin="round" stroke-width="2" class="hfOMHukH_8"></path><path d="M405.5,175.5c-7.83-.67-15.66-1.56-23.5-1.94-8.82-.43-17.66-.43-26.5-.53-2,0-4,.34-6,.47-13.33.84-26.66,1.71-40,2.49-5,.29-10,.35-15,.52" transform="translate(-8.5 -16)" fill="none" stroke="#000" stroke-linecap="round" stroke-linejoin="round" stroke-width="2" class="hfOMHukH_9"></path><path d="M797,18.5c-.5,2.33-.41,5-1.6,6.94-6,9.58-6.8,20.88-10.89,31.07-.73,1.81-1,4-2.08,5.44a32.41,32.41,0,0,0-6.76,17.56c-.53,8.1-5.55,12.9-10.65,18-5.75,5.75-11.35,11.65-17,17.48" transform="translate(-8.5 -16)" fill="none" stroke="#000" stroke-linecap="round" stroke-linejoin="round" stroke-width="2" class="hfOMHukH_10"></path><path d="M42.5,444c2,3.17,3.93,6.38,6,9.49,4.16,6.22,10,10.45,16.41,14.15a29.64,29.64,0,0,1,8.48,7.94,38,38,0,0,0,12.52,10.57c7.14,3.94,13.72,8.9,20.59,13.35,8.3,5.38,16.66,10.68,25,16" transform="translate(-8.5 -16)" fill="none" stroke="#000" stroke-linecap="round" stroke-linejoin="round" stroke-width="2" class="hfOMHukH_11"></path><path d="M798,17c-1.5,1.5-3.07,2.94-4.49,4.51-4,4.47-8,9-12,13.48-3.63,4-7.37,8-11,12-4.71,5.29-8.91,11.12-14.1,15.89-10.76,9.89-16.88,22.75-24,35.07-4.21,7.33-9,14.31-13.43,21.54-4.93,8.11-9.48,16.45-14.59,24.44-4.18,6.54-9,12.64-13.4,19.07-2.86,4.2-5.37,8.64-8,13" transform="translate(-8.5 -16)" fill="none" stroke="#000" stroke-linecap="round" stroke-linejoin="round" stroke-width="2" class="hfOMHukH_12"></path><path d="M762,401c-3,14-9.71,25.95-21.66,33.76-6.55,4.29-13.69,8.08-21.79,10-8.57,2-16.72,5.77-25.05,8.77" transform="translate(-8.5 -16)" fill="none" stroke="#000" stroke-linecap="round" stroke-linejoin="round" stroke-width="2" class="hfOMHukH_13"></path><path d="M731,103.5c7.86,2,11.69,8.94,16.86,14.14.83.84.39,3.87-.45,5.31A443.14,443.14,0,0,1,714.54,171a53.23,53.23,0,0,0-4,7c0,.06.29.36.48.47s.33,0,.49,0" transform="translate(-8.5 -16)" fill="none" stroke="#000" stroke-linecap="round" stroke-linejoin="round" stroke-width="2" class="hfOMHukH_14"></path><path d="M549,391c-4.67-.5-9.33-1-14-1.49-3.83-.38-7.66-.84-11.5-1-9.51-.34-19-1-28,3.38-4.09,2-8.63,3.08-13,4.58" transform="translate(-8.5 -16)" fill="none" stroke="#000" stroke-linecap="round" stroke-linejoin="round" stroke-width="2" class="hfOMHukH_15"></path><path d="M555,383.5c-4.83,7.5-9.48,15.13-14.57,22.45-2.75,4-6.34,7.32-9.41,11.07-3.91,4.77-7.71,9.63-11.51,14.49-4.69,6-9.34,12-14,18" transform="translate(-8.5 -16)" fill="none" stroke="#000" stroke-linecap="round" stroke-linejoin="round" stroke-width="2" class="hfOMHukH_16"></path><path d="M465.5,181.5c-7-1-14-2-21-3-1-.14-2,0-3,0l-34-2" transform="translate(-8.5 -16)" fill="none" stroke="#000" stroke-linecap="round" stroke-linejoin="round" stroke-width="2" class="hfOMHukH_17"></path><path d="M575,404.5q-10.25,14-20.49,28C552,436,549.41,439.44,547,443s-5.61,4.94-9.53,5.48" transform="translate(-8.5 -16)" fill="none" stroke="#000" stroke-linecap="round" stroke-linejoin="round" stroke-width="2" class="hfOMHukH_18"></path><path d="M660.5,266c-4.67-3.33-8.95-7.54-14.08-9.81-9.92-4.4-17.56-12.1-26.93-17.17-10.29-5.57-20.66-11-31-16.52" transform="translate(-8.5 -16)" fill="none" stroke="#000" stroke-linecap="round" stroke-linejoin="round" stroke-width="2" class="hfOMHukH_19"></path><path d="M44,443c4.17,4.83,7.51,11,12.68,14.21A188.9,188.9,0,0,1,83.5,477.5" transform="translate(-8.5 -16)" fill="none" stroke="#000" stroke-linecap="round" stroke-linejoin="round" stroke-width="2" class="hfOMHukH_20"></path><path d="M599.5,563.5c-1.67,3.67-2.64,7.91-5.14,10.88a261.75,261.75,0,0,1-19,20c-2.39,2.3-5.9,3.44-8.9,5.1" transform="translate(-8.5 -16)" fill="none" stroke="#000" stroke-linecap="round" stroke-linejoin="round" stroke-width="2" class="hfOMHukH_21"></path><path d="M231.5,559.5q-18.5-8-37-16a5.46,5.46,0,0,0-2,0" transform="translate(-8.5 -16)" fill="none" stroke="#000" stroke-linecap="round" stroke-linejoin="round" stroke-width="2" class="hfOMHukH_22"></path><path d="M201.5,539.5c-9.67-4.67-19.32-9.35-29-14-3-1.42-6-2.68-9-4" transform="translate(-8.5 -16)" fill="none" stroke="#000" stroke-linecap="round" stroke-linejoin="round" stroke-width="2" class="hfOMHukH_23"></path><path d="M556.5,383c4.17,1.67,8.44,3.11,12.48,5,7,3.35,13.87,7.1,17.48,14.47,4.37,8.92,3.46,17.6-.84,26.54-5.09,10.58-13.48,16.69-24.12,20.44" transform="translate(-8.5 -16)" fill="none" stroke="#000" stroke-linecap="round" stroke-linejoin="round" stroke-width="2" class="hfOMHukH_24"></path><path d="M169.5,535.5q-17.5-9.5-35-19c-.26-.14-.66,0-1,0" transform="translate(-8.5 -16)" fill="none" stroke="#000" stroke-linecap="round" stroke-linejoin="round" stroke-width="2" class="hfOMHukH_25"></path><path d="M691.5,454.5a43.43,43.43,0,0,0-16.12,3.73c-5.11,2.26-11.21,2.27-16.88,3.27" transform="translate(-8.5 -16)" fill="none" stroke="#000" stroke-linecap="round" stroke-linejoin="round" stroke-width="2" class="hfOMHukH_26"></path><path d="M571.5,474.5c-5.68.06-10.91,4.87-13.05,11.48-1.56,4.82-1,9.4.55,14" transform="translate(-8.5 -16)" fill="none" stroke="#000" stroke-linecap="round" stroke-linejoin="round" stroke-width="2" class="hfOMHukH_27"></path><path d="M506.5,608.5h-29" transform="translate(-8.5 -16)" fill="none" stroke="#000" stroke-linecap="round" stroke-linejoin="round" stroke-width="2" class="hfOMHukH_28"></path><path d="M609.5,467.5a68.46,68.46,0,0,0-26,3" transform="translate(-8.5 -16)" fill="none" stroke="#000" stroke-linecap="round" stroke-linejoin="round" stroke-width="2" class="hfOMHukH_29"></path><path d="M464.5,404.5q-4.25,6.25-8.5,12.5c-2.67,3.91-2.5,8.15-1.5,12.5" transform="translate(-8.5 -16)" fill="none" stroke="#000" stroke-linecap="round" stroke-linejoin="round" stroke-width="2" class="hfOMHukH_30"></path><path d="M550.5,391l24,12" transform="translate(-8.5 -16)" fill="none" stroke="#000" stroke-linecap="round" stroke-linejoin="round" stroke-width="2" class="hfOMHukH_31"></path><path d="M16.5,397.5l9,20" transform="translate(-8.5 -16)" fill="none" stroke="#000" stroke-linecap="round" stroke-linejoin="round" stroke-width="2" class="hfOMHukH_32"></path><path d="M639.5,465.5h-18" transform="translate(-8.5 -16)" fill="none" stroke="#000" stroke-linecap="round" stroke-linejoin="round" stroke-width="2" class="hfOMHukH_33"></path><path d="M434.5,618.5c-3.67,3-7.4,5.93-11,9-2.13,1.85-4,4-6,6" transform="translate(-8.5 -16)" fill="none" stroke="#000" stroke-linecap="round" stroke-linejoin="round" stroke-width="2" class="hfOMHukH_34"></path><path d="M588.5,419a50,50,0,0,1-2.47-5c-1.74-4.74-5.47-7.51-9.53-10" transform="translate(-8.5 -16)" fill="none" stroke="#000" stroke-linecap="round" stroke-linejoin="round" stroke-width="2" class="hfOMHukH_35"></path><path d="M190.5,542.5l-16-5" transform="translate(-8.5 -16)" fill="none" stroke="#000" stroke-linecap="round" stroke-linejoin="round" stroke-width="2" class="hfOMHukH_36"></path><path d="M29.5,426.5l13,15" transform="translate(-8.5 -16)" fill="none" stroke="#000" stroke-linecap="round" stroke-linejoin="round" stroke-width="2" class="hfOMHukH_37"></path><path d="M507.5,621.5h-14" transform="translate(-8.5 -16)" fill="none" stroke="#000" stroke-linecap="round" stroke-linejoin="round" stroke-width="2" class="hfOMHukH_38"></path><path d="M161.5,520.5l-14-6" transform="translate(-8.5 -16)" fill="none" stroke="#000" stroke-linecap="round" stroke-linejoin="round" stroke-width="2" class="hfOMHukH_39"></path><path d="M534.5,606.5h-13" transform="translate(-8.5 -16)" fill="none" stroke="#000" stroke-linecap="round" stroke-linejoin="round" stroke-width="2" class="hfOMHukH_40"></path><path d="M228.5,548.5l-13-4" transform="translate(-8.5 -16)" fill="none" stroke="#000" stroke-linecap="round" stroke-linejoin="round" stroke-width="2" class="hfOMHukH_41"></path><path d="M9.5,354.5l1,13" transform="translate(-8.5 -16)" fill="none" stroke="#000" stroke-linecap="round" stroke-linejoin="round" stroke-width="2" class="hfOMHukH_42"></path><path d="M602.5,559.5c3.81,3.48,1.27,8,2,12" transform="translate(-8.5 -16)" fill="none" stroke="#000" stroke-linecap="round" stroke-linejoin="round" stroke-width="2" class="hfOMHukH_43"></path><path d="M416.5,617.5l-5,11" transform="translate(-8.5 -16)" fill="none" stroke="#000" stroke-linecap="round" stroke-linejoin="round" stroke-width="2" class="hfOMHukH_44"></path><path d="M596.5,587.5l-8,11" transform="translate(-8.5 -16)" fill="none" stroke="#000" stroke-linecap="round" stroke-linejoin="round" stroke-width="2" class="hfOMHukH_45"></path><path d="M13.5,384.5l2,11" transform="translate(-8.5 -16)" fill="none" stroke="#000" stroke-linecap="round" stroke-linejoin="round" stroke-width="2" class="hfOMHukH_46"></path><path d="M449.5,420.5,454,433" transform="translate(-8.5 -16)" fill="none" stroke="#000" stroke-linecap="round" stroke-linejoin="round" stroke-width="2" class="hfOMHukH_47"></path><path d="M297.5,569.5l-10-2" transform="translate(-8.5 -16)" fill="none" stroke="#000" stroke-linecap="round" stroke-linejoin="round" stroke-width="2" class="hfOMHukH_48"></path><path d="M272.5,563.5l-10-3" transform="translate(-8.5 -16)" fill="none" stroke="#000" stroke-linecap="round" stroke-linejoin="round" stroke-width="2" class="hfOMHukH_49"></path><path d="M761.5,375l5,9.5" transform="translate(-8.5 -16)" fill="none" stroke="#000" stroke-linecap="round" stroke-linejoin="round" stroke-width="2" class="hfOMHukH_50"></path><path d="M342.5,592.5l-9-2" transform="translate(-8.5 -16)" fill="none" stroke="#000" stroke-linecap="round" stroke-linejoin="round" stroke-width="2" class="hfOMHukH_51"></path><path d="M249.5,566.5l-9-3" transform="translate(-8.5 -16)" fill="none" stroke="#000" stroke-linecap="round" stroke-linejoin="round" stroke-width="2" class="hfOMHukH_52"></path><path d="M11.5,369.5v8" transform="translate(-8.5 -16)" fill="none" stroke="#000" stroke-linecap="round" stroke-linejoin="round" stroke-width="2" class="hfOMHukH_53"></path><path d="M405.5,605.5l-8-1" transform="translate(-8.5 -16)" fill="none" stroke="#000" stroke-linecap="round" stroke-linejoin="round" stroke-width="2" class="hfOMHukH_54"></path><path d="M460.5,617.5l-8-2" transform="translate(-8.5 -16)" fill="none" stroke="#000" stroke-linecap="round" stroke-linejoin="round" stroke-width="2" class="hfOMHukH_55"></path><path d="M649.5,463.5l-8,1" transform="translate(-8.5 -16)" fill="none" stroke="#000" stroke-linecap="round" stroke-linejoin="round" stroke-width="2" class="hfOMHukH_56"></path><path d="M581.5,471.5l-8,2" transform="translate(-8.5 -16)" fill="none" stroke="#000" stroke-linecap="round" stroke-linejoin="round" stroke-width="2" class="hfOMHukH_57"></path><path d="M414.5,597.5h-7" transform="translate(-8.5 -16)" fill="none" stroke="#000" stroke-linecap="round" stroke-linejoin="round" stroke-width="2" class="hfOMHukH_58"></path><path d="M618.5,466.5h-7" transform="translate(-8.5 -16)" fill="none" stroke="#000" stroke-linecap="round" stroke-linejoin="round" stroke-width="2" class="hfOMHukH_59"></path><path d="M98.5,485.5l7,4" transform="translate(-8.5 -16)" fill="none" stroke="#000" stroke-linecap="round" stroke-linejoin="round" stroke-width="2" class="hfOMHukH_60"></path><path d="M327.5,577.5l-7-2" transform="translate(-8.5 -16)" fill="none" stroke="#000" stroke-linecap="round" stroke-linejoin="round" stroke-width="2" class="hfOMHukH_61"></path><path d="M288.5,575.5l-7-2" transform="translate(-8.5 -16)" fill="none" stroke="#000" stroke-linecap="round" stroke-linejoin="round" stroke-width="2" class="hfOMHukH_62"></path><path d="M508.5,453.5h-7" transform="translate(-8.5 -16)" fill="none" stroke="#000" stroke-linecap="round" stroke-linejoin="round" stroke-width="2" class="hfOMHukH_63"></path><path d="M470.5,618.5h-7" transform="translate(-8.5 -16)" fill="none" stroke="#000" stroke-linecap="round" stroke-linejoin="round" stroke-width="2" class="hfOMHukH_64"></path><path d="M322.5,586.5l-7-3" transform="translate(-8.5 -16)" fill="none" stroke="#000" stroke-linecap="round" stroke-linejoin="round" stroke-width="2" class="hfOMHukH_65"></path><path d="M315.5,573.5l-6-1" transform="translate(-8.5 -16)" fill="none" stroke="#000" stroke-linecap="round" stroke-linejoin="round" stroke-width="2" class="hfOMHukH_66"></path><path d="M459.5,604.5h-6" transform="translate(-8.5 -16)" fill="none" stroke="#000" stroke-linecap="round" stroke-linejoin="round" stroke-width="2" class="hfOMHukH_67"></path><path d="M556.5,451.5l-6,1" transform="translate(-8.5 -16)" fill="none" stroke="#000" stroke-linecap="round" stroke-linejoin="round" stroke-width="2" class="hfOMHukH_68"></path><path d="M270.5,570.5h-6" transform="translate(-8.5 -16)" fill="none" stroke="#000" stroke-linecap="round" stroke-linejoin="round" stroke-width="2" class="hfOMHukH_69"></path><path d="M262.5,569.5l-6-1" transform="translate(-8.5 -16)" fill="none" stroke="#000" stroke-linecap="round" stroke-linejoin="round" stroke-width="2" class="hfOMHukH_70"></path><path d="M430.5,610.5l-5-1" transform="translate(-8.5 -16)" fill="none" stroke="#000" stroke-linecap="round" stroke-linejoin="round" stroke-width="2" class="hfOMHukH_71"></path><path d="M565.5,607.5l-5,2" transform="translate(-8.5 -16)" fill="none" stroke="#000" stroke-linecap="round" stroke-linejoin="round" stroke-width="2" class="hfOMHukH_72"></path><path d="M249.5,555.5l-5-2" transform="translate(-8.5 -16)" fill="none" stroke="#000" stroke-linecap="round" stroke-linejoin="round" stroke-width="2" class="hfOMHukH_73"></path><path d="M553.5,612.5l-5,1" transform="translate(-8.5 -16)" fill="none" stroke="#000" stroke-linecap="round" stroke-linejoin="round" stroke-width="2" class="hfOMHukH_74"></path><path d="M360.5,596.5l-5-1" transform="translate(-8.5 -16)" fill="none" stroke="#000" stroke-linecap="round" stroke-linejoin="round" stroke-width="2" class="hfOMHukH_75"></path><path d="M299.5,578.5l-5-1" transform="translate(-8.5 -16)" fill="none" stroke="#000" stroke-linecap="round" stroke-linejoin="round" stroke-width="2" class="hfOMHukH_76"></path><path d="M279.5,565.5l-5-1" transform="translate(-8.5 -16)" fill="none" stroke="#000" stroke-linecap="round" stroke-linejoin="round" stroke-width="2" class="hfOMHukH_77"></path><path d="M417.5,607.5h-5" transform="translate(-8.5 -16)" fill="none" stroke="#000" stroke-linecap="round" stroke-linejoin="round" stroke-width="2" class="hfOMHukH_78"></path><path d="M451.5,404.5l-1,5" transform="translate(-8.5 -16)" fill="none" stroke="#000" stroke-linecap="round" stroke-linejoin="round" stroke-width="2" class="hfOMHukH_79"></path><path d="M656.5,462.5h-5" transform="translate(-8.5 -16)" fill="none" stroke="#000" stroke-linecap="round" stroke-linejoin="round" stroke-width="2" class="hfOMHukH_80"></path><path d="M449.5,411.5v5" transform="translate(-8.5 -16)" fill="none" stroke="#000" stroke-linecap="round" stroke-linejoin="round" stroke-width="2" class="hfOMHukH_81"></path><path d="M471.5,400.5l-5,3" transform="translate(-8.5 -16)" fill="none" stroke="#000" stroke-linecap="round" stroke-linejoin="round" stroke-width="2" class="hfOMHukH_82"></path><path d="M546.5,614.5h-5" transform="translate(-8.5 -16)" fill="none" stroke="#000" stroke-linecap="round" stroke-linejoin="round" stroke-width="2" class="hfOMHukH_83"></path><path d="M480.5,619.5h-5" transform="translate(-8.5 -16)" fill="none" stroke="#000" stroke-linecap="round" stroke-linejoin="round" stroke-width="2" class="hfOMHukH_84"></path><path d="M537.5,455.5h-5" transform="translate(-8.5 -16)" fill="none" stroke="#000" stroke-linecap="round" stroke-linejoin="round" stroke-width="2" class="hfOMHukH_85"></path><path d="M522.5,455.5h-5" transform="translate(-8.5 -16)" fill="none" stroke="#000" stroke-linecap="round" stroke-linejoin="round" stroke-width="2" class="hfOMHukH_86"></path><path d="M488.5,620.5h-5" transform="translate(-8.5 -16)" fill="none" stroke="#000" stroke-linecap="round" stroke-linejoin="round" stroke-width="2" class="hfOMHukH_87"></path><path d="M423.5,608.5h-4" transform="translate(-8.5 -16)" fill="none" stroke="#000" stroke-linecap="round" stroke-linejoin="round" stroke-width="2" class="hfOMHukH_88"></path><path d="M513.5,607.5h-4" transform="translate(-8.5 -16)" fill="none" stroke="#000" stroke-linecap="round" stroke-linejoin="round" stroke-width="2" class="hfOMHukH_89"></path><path d="M539.5,615.5h-4" transform="translate(-8.5 -16)" fill="none" stroke="#000" stroke-linecap="round" stroke-linejoin="round" stroke-width="2" class="hfOMHukH_90"></path><path d="M450.5,614.5h-4" transform="translate(-8.5 -16)" fill="none" stroke="#000" stroke-linecap="round" stroke-linejoin="round" stroke-width="2" class="hfOMHukH_91"></path><path d="M520.5,619.5h-4" transform="translate(-8.5 -16)" fill="none" stroke="#000" stroke-linecap="round" stroke-linejoin="round" stroke-width="2" class="hfOMHukH_92"></path><path d="M207.5,541.5l-4-1" transform="translate(-8.5 -16)" fill="none" stroke="#000" stroke-linecap="round" stroke-linejoin="round" stroke-width="2" class="hfOMHukH_93"></path><path d="M515.5,454.5h-4" transform="translate(-8.5 -16)" fill="none" stroke="#000" stroke-linecap="round" stroke-linejoin="round" stroke-width="2" class="hfOMHukH_94"></path><path d="M285.5,566.5h-4" transform="translate(-8.5 -16)" fill="none" stroke="#000" stroke-linecap="round" stroke-linejoin="round" stroke-width="2" class="hfOMHukH_95"></path><path d="M543.5,454.5h-4" transform="translate(-8.5 -16)" fill="none" stroke="#000" stroke-linecap="round" stroke-linejoin="round" stroke-width="2" class="hfOMHukH_96"></path><path d="M544.5,605.5h-4" transform="translate(-8.5 -16)" fill="none" stroke="#000" stroke-linecap="round" stroke-linejoin="round" stroke-width="2" class="hfOMHukH_97"></path><path d="M443.5,602.5h-4" transform="translate(-8.5 -16)" fill="none" stroke="#000" stroke-linecap="round" stroke-linejoin="round" stroke-width="2" class="hfOMHukH_98"></path><path d="M331.5,589.5l-4-1" transform="translate(-8.5 -16)" fill="none" stroke="#000" stroke-linecap="round" stroke-linejoin="round" stroke-width="2" class="hfOMHukH_99"></path><path d="M374.5,589.5h-4" transform="translate(-8.5 -16)" fill="none" stroke="#000" stroke-linecap="round" stroke-linejoin="round" stroke-width="2" class="hfOMHukH_100"></path><path d="M529.5,456.5h-4" transform="translate(-8.5 -16)" fill="none" stroke="#000" stroke-linecap="round" stroke-linejoin="round" stroke-width="2" class="hfOMHukH_101"></path><path d="M514.5,620.5h-4" transform="translate(-8.5 -16)" fill="none" stroke="#000" stroke-linecap="round" stroke-linejoin="round" stroke-width="2" class="hfOMHukH_102"></path><path d="M444.5,613.5h-4" transform="translate(-8.5 -16)" fill="none" stroke="#000" stroke-linecap="round" stroke-linejoin="round" stroke-width="2" class="hfOMHukH_103"></path><path d="M26.5,419.5l1,3" transform="translate(-8.5 -16)" fill="none" stroke="#000" stroke-linecap="round" stroke-linejoin="round" stroke-width="2" class="hfOMHukH_104"></path><path d="M145.5,513.5l-3-1" transform="translate(-8.5 -16)" fill="none" stroke="#000" stroke-linecap="round" stroke-linejoin="round" stroke-width="2" class="hfOMHukH_105"></path><path d="M140.5,511.5l-3-1" transform="translate(-8.5 -16)" fill="none" stroke="#000" stroke-linecap="round" stroke-linejoin="round" stroke-width="2" class="hfOMHukH_106"></path><path d="M584.5,600.5l-3,1" transform="translate(-8.5 -16)" fill="none" stroke="#000" stroke-linecap="round" stroke-linejoin="round" stroke-width="2" class="hfOMHukH_107"></path><path d="M242.5,552.5l-3-1" transform="translate(-8.5 -16)" fill="none" stroke="#000" stroke-linecap="round" stroke-linejoin="round" stroke-width="2" class="hfOMHukH_108"></path><path d="M124.5,501.5l3,3" transform="translate(-8.5 -16)" fill="none" stroke="#000" stroke-linecap="round" stroke-linejoin="round" stroke-width="2" class="hfOMHukH_109"></path><path d="M260.5,559.5l-3-1" transform="translate(-8.5 -16)" fill="none" stroke="#000" stroke-linecap="round" stroke-linejoin="round" stroke-width="2" class="hfOMHukH_110"></path><path d="M487.5,449.5l-3-1" transform="translate(-8.5 -16)" fill="none" stroke="#000" stroke-linecap="round" stroke-linejoin="round" stroke-width="2" class="hfOMHukH_111"></path><path d="M479.5,446.5l-3-1" transform="translate(-8.5 -16)" fill="none" stroke="#000" stroke-linecap="round" stroke-linejoin="round" stroke-width="2" class="hfOMHukH_112"></path><path d="M474.5,444.5l-3-1" transform="translate(-8.5 -16)" fill="none" stroke="#000" stroke-linecap="round" stroke-linejoin="round" stroke-width="2" class="hfOMHukH_113"></path><path d="M112.5,493.5l3,2" transform="translate(-8.5 -16)" fill="none" stroke="#000" stroke-linecap="round" stroke-linejoin="round" stroke-width="2" class="hfOMHukH_114"></path><path d="M93.5,482.5l3,2" transform="translate(-8.5 -16)" fill="none" stroke="#000" stroke-linecap="round" stroke-linejoin="round" stroke-width="2" class="hfOMHukH_115"></path><path d="M456,435l1.5,1.5" transform="translate(-8.5 -16)" fill="none" stroke="#000" stroke-linecap="round" stroke-linejoin="round" stroke-width="2" class="hfOMHukH_116"></path><path d="M436.5,614.5l-1,2" transform="translate(-8.5 -16)" fill="none" stroke="#000" stroke-linecap="round" stroke-linejoin="round" stroke-width="2" class="hfOMHukH_117"></path><path d="M120.5,498.5l2,2" transform="translate(-8.5 -16)" fill="none" stroke="#000" stroke-linecap="round" stroke-linejoin="round" stroke-width="2" class="hfOMHukH_118"></path><path d="M420.5,611.5l-2,2" transform="translate(-8.5 -16)" fill="none" stroke="#000" stroke-linecap="round" stroke-linejoin="round" stroke-width="2" class="hfOMHukH_119"></path></g></g><style data-made-with="vivus-instant">.hfOMHukH_0{stroke-dasharray:354 356;stroke-dashoffset:355;animation:hfOMHukH_draw 63ms ease-in 0ms forwards;}.hfOMHukH_1{stroke-dasharray:368 370;stroke-dashoffset:369;animation:hfOMHukH_draw 66ms ease-in 63ms forwards;}.hfOMHukH_2{stroke-dasharray:346 348;stroke-dashoffset:347;animation:hfOMHukH_draw 62ms ease-in 129ms forwards;}.hfOMHukH_3{stroke-dasharray:328 330;stroke-dashoffset:329;animation:hfOMHukH_draw 58ms ease-in 191ms forwards;}.hfOMHukH_4{stroke-dasharray:325 327;stroke-dashoffset:326;animation:hfOMHukH_draw 58ms ease-in 250ms forwards;}.hfOMHukH_5{stroke-dasharray:480 482;stroke-dashoffset:481;animation:hfOMHukH_draw 86ms ease-in 309ms forwards;}.hfOMHukH_6{stroke-dasharray:160 162;stroke-dashoffset:161;animation:hfOMHukH_draw 28ms ease-in 395ms forwards;}.hfOMHukH_7{stroke-dasharray:124 126;stroke-dashoffset:125;animation:hfOMHukH_draw 22ms ease-in 423ms forwards;}.hfOMHukH_8{stroke-dasharray:168 170;stroke-dashoffset:169;animation:hfOMHukH_draw 30ms ease-in 446ms forwards;}.hfOMHukH_9{stroke-dasharray:112 114;stroke-dashoffset:113;animation:hfOMHukH_draw 20ms ease-in 476ms forwards;}.hfOMHukH_10{stroke-dasharray:111 113;stroke-dashoffset:112;animation:hfOMHukH_draw 20ms ease-in 496ms forwards;}.hfOMHukH_11{stroke-dasharray:116 118;stroke-dashoffset:117;animation:hfOMHukH_draw 20ms ease-in 516ms forwards;}.hfOMHukH_12{stroke-dasharray:198 200;stroke-dashoffset:199;animation:hfOMHukH_draw 35ms ease-in 537ms forwards;}.hfOMHukH_13{stroke-dasharray:92 94;stroke-dashoffset:93;animation:hfOMHukH_draw 16ms ease-in 573ms forwards;}.hfOMHukH_14{stroke-dasharray:96 98;stroke-dashoffset:97;animation:hfOMHukH_draw 17ms ease-in 590ms forwards;}.hfOMHukH_15{stroke-dasharray:68 70;stroke-dashoffset:69;animation:hfOMHukH_draw 12ms ease-in 607ms forwards;}.hfOMHukH_16{stroke-dasharray:83 85;stroke-dashoffset:84;animation:hfOMHukH_draw 15ms ease-in 619ms forwards;}.hfOMHukH_17{stroke-dasharray:59 61;stroke-dashoffset:60;animation:hfOMHukH_draw 10ms ease-in 634ms forwards;}.hfOMHukH_18{stroke-dasharray:59 61;stroke-dashoffset:60;animation:hfOMHukH_draw 10ms ease-in 645ms forwards;}.hfOMHukH_19{stroke-dasharray:85 87;stroke-dashoffset:86;animation:hfOMHukH_draw 15ms ease-in 656ms forwards;}.hfOMHukH_20{stroke-dasharray:53 55;stroke-dashoffset:54;animation:hfOMHukH_draw 9ms ease-in 671ms forwards;}.hfOMHukH_21{stroke-dasharray:50 52;stroke-dashoffset:51;animation:hfOMHukH_draw 9ms ease-in 681ms forwards;}.hfOMHukH_22{stroke-dasharray:43 45;stroke-dashoffset:44;animation:hfOMHukH_draw 7ms ease-in 690ms forwards;}.hfOMHukH_23{stroke-dasharray:43 45;stroke-dashoffset:44;animation:hfOMHukH_draw 7ms ease-in 698ms forwards;}.hfOMHukH_24{stroke-dasharray:97 99;stroke-dashoffset:98;animation:hfOMHukH_draw 17ms ease-in 706ms forwards;}.hfOMHukH_25{stroke-dasharray:41 43;stroke-dashoffset:42;animation:hfOMHukH_draw 7ms ease-in 723ms forwards;}.hfOMHukH_26{stroke-dasharray:34 36;stroke-dashoffset:35;animation:hfOMHukH_draw 6ms ease-in 731ms forwards;}.hfOMHukH_27{stroke-dasharray:33 35;stroke-dashoffset:34;animation:hfOMHukH_draw 6ms ease-in 737ms forwards;}.hfOMHukH_28{stroke-dasharray:29 31;stroke-dashoffset:30;animation:hfOMHukH_draw 5ms ease-in 743ms forwards;}.hfOMHukH_29{stroke-dasharray:27 29;stroke-dashoffset:28;animation:hfOMHukH_draw 5ms ease-in 749ms forwards;}.hfOMHukH_30{stroke-dasharray:29 31;stroke-dashoffset:30;animation:hfOMHukH_draw 5ms ease-in 754ms forwards;}.hfOMHukH_31{stroke-dasharray:27 29;stroke-dashoffset:28;animation:hfOMHukH_draw 5ms ease-in 759ms forwards;}.hfOMHukH_32{stroke-dasharray:22 24;stroke-dashoffset:23;animation:hfOMHukH_draw 4ms ease-in 764ms forwards;}.hfOMHukH_33{stroke-dasharray:18 20;stroke-dashoffset:19;animation:hfOMHukH_draw 3ms ease-in 768ms forwards;}.hfOMHukH_34{stroke-dasharray:23 25;stroke-dashoffset:24;animation:hfOMHukH_draw 4ms ease-in 771ms forwards;}.hfOMHukH_35{stroke-dasharray:20 22;stroke-dashoffset:21;animation:hfOMHukH_draw 3ms ease-in 776ms forwards;}.hfOMHukH_36{stroke-dasharray:17 19;stroke-dashoffset:18;animation:hfOMHukH_draw 3ms ease-in 780ms forwards;}.hfOMHukH_37{stroke-dasharray:20 22;stroke-dashoffset:21;animation:hfOMHukH_draw 3ms ease-in 783ms forwards;}.hfOMHukH_38{stroke-dasharray:14 16;stroke-dashoffset:15;animation:hfOMHukH_draw 2ms ease-in 787ms forwards;}.hfOMHukH_39{stroke-dasharray:16 18;stroke-dashoffset:17;animation:hfOMHukH_draw 3ms ease-in 789ms forwards;}.hfOMHukH_40{stroke-dasharray:13 15;stroke-dashoffset:14;animation:hfOMHukH_draw 2ms ease-in 792ms forwards;}.hfOMHukH_41{stroke-dasharray:14 16;stroke-dashoffset:15;animation:hfOMHukH_draw 2ms ease-in 795ms forwards;}.hfOMHukH_42{stroke-dasharray:14 16;stroke-dashoffset:15;animation:hfOMHukH_draw 2ms ease-in 797ms forwards;}.hfOMHukH_43{stroke-dasharray:13 15;stroke-dashoffset:14;animation:hfOMHukH_draw 2ms ease-in 800ms forwards;}.hfOMHukH_44{stroke-dasharray:13 15;stroke-dashoffset:14;animation:hfOMHukH_draw 2ms ease-in 803ms forwards;}.hfOMHukH_45{stroke-dasharray:14 16;stroke-dashoffset:15;animation:hfOMHukH_draw 2ms ease-in 805ms forwards;}.hfOMHukH_46{stroke-dasharray:12 14;stroke-dashoffset:13;animation:hfOMHukH_draw 2ms ease-in 808ms forwards;}.hfOMHukH_47{stroke-dasharray:14 16;stroke-dashoffset:15;animation:hfOMHukH_draw 2ms ease-in 810ms forwards;}.hfOMHukH_48{stroke-dasharray:11 13;stroke-dashoffset:12;animation:hfOMHukH_draw 2ms ease-in 813ms forwards;}.hfOMHukH_49{stroke-dasharray:11 13;stroke-dashoffset:12;animation:hfOMHukH_draw 2ms ease-in 815ms forwards;}.hfOMHukH_50{stroke-dasharray:11 13;stroke-dashoffset:12;animation:hfOMHukH_draw 2ms ease-in 817ms forwards;}.hfOMHukH_51{stroke-dasharray:10 12;stroke-dashoffset:11;animation:hfOMHukH_draw 1ms ease-in 819ms forwards;}.hfOMHukH_52{stroke-dasharray:10 12;stroke-dashoffset:11;animation:hfOMHukH_draw 1ms ease-in 821ms forwards;}.hfOMHukH_53{stroke-dasharray:8 10;stroke-dashoffset:9;animation:hfOMHukH_draw 1ms ease-in 823ms forwards;}.hfOMHukH_54{stroke-dasharray:9 11;stroke-dashoffset:10;animation:hfOMHukH_draw 1ms ease-in 825ms forwards;}.hfOMHukH_55{stroke-dasharray:9 11;stroke-dashoffset:10;animation:hfOMHukH_draw 1ms ease-in 827ms forwards;}.hfOMHukH_56{stroke-dasharray:9 11;stroke-dashoffset:10;animation:hfOMHukH_draw 1ms ease-in 828ms forwards;}.hfOMHukH_57{stroke-dasharray:9 11;stroke-dashoffset:10;animation:hfOMHukH_draw 1ms ease-in 830ms forwards;}.hfOMHukH_58{stroke-dasharray:7 9;stroke-dashoffset:8;animation:hfOMHukH_draw 1ms ease-in 832ms forwards;}.hfOMHukH_59{stroke-dasharray:7 9;stroke-dashoffset:8;animation:hfOMHukH_draw 1ms ease-in 833ms forwards;}.hfOMHukH_60{stroke-dasharray:9 11;stroke-dashoffset:10;animation:hfOMHukH_draw 1ms ease-in 835ms forwards;}.hfOMHukH_61{stroke-dasharray:8 10;stroke-dashoffset:9;animation:hfOMHukH_draw 1ms ease-in 837ms forwards;}.hfOMHukH_62{stroke-dasharray:8 10;stroke-dashoffset:9;animation:hfOMHukH_draw 1ms ease-in 838ms forwards;}.hfOMHukH_63{stroke-dasharray:7 9;stroke-dashoffset:8;animation:hfOMHukH_draw 1ms ease-in 840ms forwards;}.hfOMHukH_64{stroke-dasharray:7 9;stroke-dashoffset:8;animation:hfOMHukH_draw 1ms ease-in 841ms forwards;}.hfOMHukH_65{stroke-dasharray:8 10;stroke-dashoffset:9;animation:hfOMHukH_draw 1ms ease-in 843ms forwards;}.hfOMHukH_66{stroke-dasharray:7 9;stroke-dashoffset:8;animation:hfOMHukH_draw 1ms ease-in 844ms forwards;}.hfOMHukH_67{stroke-dasharray:6 8;stroke-dashoffset:7;animation:hfOMHukH_draw 1ms ease-in 846ms forwards;}.hfOMHukH_68{stroke-dasharray:7 9;stroke-dashoffset:8;animation:hfOMHukH_draw 1ms ease-in 847ms forwards;}.hfOMHukH_69{stroke-dasharray:6 8;stroke-dashoffset:7;animation:hfOMHukH_draw 1ms ease-in 848ms forwards;}.hfOMHukH_70{stroke-dasharray:7 9;stroke-dashoffset:8;animation:hfOMHukH_draw 1ms ease-in 850ms forwards;}.hfOMHukH_71{stroke-dasharray:6 8;stroke-dashoffset:7;animation:hfOMHukH_draw 1ms ease-in 851ms forwards;}.hfOMHukH_72{stroke-dasharray:6 8;stroke-dashoffset:7;animation:hfOMHukH_draw 1ms ease-in 852ms forwards;}.hfOMHukH_73{stroke-dasharray:6 8;stroke-dashoffset:7;animation:hfOMHukH_draw 1ms ease-in 854ms forwards;}.hfOMHukH_74{stroke-dasharray:6 8;stroke-dashoffset:7;animation:hfOMHukH_draw 1ms ease-in 855ms forwards;}.hfOMHukH_75{stroke-dasharray:6 8;stroke-dashoffset:7;animation:hfOMHukH_draw 1ms ease-in 856ms forwards;}.hfOMHukH_76{stroke-dasharray:6 8;stroke-dashoffset:7;animation:hfOMHukH_draw 1ms ease-in 857ms forwards;}.hfOMHukH_77{stroke-dasharray:6 8;stroke-dashoffset:7;animation:hfOMHukH_draw 1ms ease-in 859ms forwards;}.hfOMHukH_78{stroke-dasharray:5 7;stroke-dashoffset:6;animation:hfOMHukH_draw 1ms ease-in 860ms forwards;}.hfOMHukH_79{stroke-dasharray:6 8;stroke-dashoffset:7;animation:hfOMHukH_draw 1ms ease-in 861ms forwards;}.hfOMHukH_80{stroke-dasharray:5 7;stroke-dashoffset:6;animation:hfOMHukH_draw 1ms ease-in 862ms forwards;}.hfOMHukH_81{stroke-dasharray:5 7;stroke-dashoffset:6;animation:hfOMHukH_draw 1ms ease-in 863ms forwards;}.hfOMHukH_82{stroke-dasharray:6 8;stroke-dashoffset:7;animation:hfOMHukH_draw 1ms ease-in 864ms forwards;}.hfOMHukH_83{stroke-dasharray:5 7;stroke-dashoffset:6;animation:hfOMHukH_draw 1ms ease-in 866ms forwards;}.hfOMHukH_84{stroke-dasharray:5 7;stroke-dashoffset:6;animation:hfOMHukH_draw 1ms ease-in 867ms forwards;}.hfOMHukH_85{stroke-dasharray:5 7;stroke-dashoffset:6;animation:hfOMHukH_draw 1ms ease-in 868ms forwards;}.hfOMHukH_86{stroke-dasharray:5 7;stroke-dashoffset:6;animation:hfOMHukH_draw 1ms ease-in 869ms forwards;}.hfOMHukH_87{stroke-dasharray:5 7;stroke-dashoffset:6;animation:hfOMHukH_draw 1ms ease-in 870ms forwards;}.hfOMHukH_88{stroke-dasharray:4 6;stroke-dashoffset:5;animation:hfOMHukH_draw 0ms ease-in 871ms forwards;}.hfOMHukH_89{stroke-dasharray:4 6;stroke-dashoffset:5;animation:hfOMHukH_draw 0ms ease-in 872ms forwards;}.hfOMHukH_90{stroke-dasharray:4 6;stroke-dashoffset:5;animation:hfOMHukH_draw 0ms ease-in 873ms forwards;}.hfOMHukH_91{stroke-dasharray:4 6;stroke-dashoffset:5;animation:hfOMHukH_draw 0ms ease-in 874ms forwards;}.hfOMHukH_92{stroke-dasharray:4 6;stroke-dashoffset:5;animation:hfOMHukH_draw 0ms ease-in 875ms forwards;}.hfOMHukH_93{stroke-dasharray:5 7;stroke-dashoffset:6;animation:hfOMHukH_draw 1ms ease-in 876ms forwards;}.hfOMHukH_94{stroke-dasharray:4 6;stroke-dashoffset:5;animation:hfOMHukH_draw 0ms ease-in 877ms forwards;}.hfOMHukH_95{stroke-dasharray:4 6;stroke-dashoffset:5;animation:hfOMHukH_draw 0ms ease-in 877ms forwards;}.hfOMHukH_96{stroke-dasharray:4 6;stroke-dashoffset:5;animation:hfOMHukH_draw 0ms ease-in 878ms forwards;}.hfOMHukH_97{stroke-dasharray:4 6;stroke-dashoffset:5;animation:hfOMHukH_draw 0ms ease-in 879ms forwards;}.hfOMHukH_98{stroke-dasharray:4 6;stroke-dashoffset:5;animation:hfOMHukH_draw 0ms ease-in 880ms forwards;}.hfOMHukH_99{stroke-dasharray:5 7;stroke-dashoffset:6;animation:hfOMHukH_draw 1ms ease-in 881ms forwards;}.hfOMHukH_100{stroke-dasharray:4 6;stroke-dashoffset:5;animation:hfOMHukH_draw 0ms ease-in 882ms forwards;}.hfOMHukH_101{stroke-dasharray:4 6;stroke-dashoffset:5;animation:hfOMHukH_draw 0ms ease-in 883ms forwards;}.hfOMHukH_102{stroke-dasharray:4 6;stroke-dashoffset:5;animation:hfOMHukH_draw 0ms ease-in 884ms forwards;}.hfOMHukH_103{stroke-dasharray:4 6;stroke-dashoffset:5;animation:hfOMHukH_draw 0ms ease-in 885ms forwards;}.hfOMHukH_104{stroke-dasharray:4 6;stroke-dashoffset:5;animation:hfOMHukH_draw 0ms ease-in 886ms forwards;}.hfOMHukH_105{stroke-dasharray:4 6;stroke-dashoffset:5;animation:hfOMHukH_draw 0ms ease-in 887ms forwards;}.hfOMHukH_106{stroke-dasharray:4 6;stroke-dashoffset:5;animation:hfOMHukH_draw 0ms ease-in 888ms forwards;}.hfOMHukH_107{stroke-dasharray:4 6;stroke-dashoffset:5;animation:hfOMHukH_draw 0ms ease-in 888ms forwards;}.hfOMHukH_108{stroke-dasharray:4 6;stroke-dashoffset:5;animation:hfOMHukH_draw 0ms ease-in 889ms forwards;}.hfOMHukH_109{stroke-dasharray:5 7;stroke-dashoffset:6;animation:hfOMHukH_draw 1ms ease-in 890ms forwards;}.hfOMHukH_110{stroke-dasharray:4 6;stroke-dashoffset:5;animation:hfOMHukH_draw 0ms ease-in 891ms forwards;}.hfOMHukH_111{stroke-dasharray:4 6;stroke-dashoffset:5;animation:hfOMHukH_draw 0ms ease-in 892ms forwards;}.hfOMHukH_112{stroke-dasharray:4 6;stroke-dashoffset:5;animation:hfOMHukH_draw 0ms ease-in 893ms forwards;}.hfOMHukH_113{stroke-dasharray:4 6;stroke-dashoffset:5;animation:hfOMHukH_draw 0ms ease-in 894ms forwards;}.hfOMHukH_114{stroke-dasharray:4 6;stroke-dashoffset:5;animation:hfOMHukH_draw 0ms ease-in 895ms forwards;}.hfOMHukH_115{stroke-dasharray:4 6;stroke-dashoffset:5;animation:hfOMHukH_draw 0ms ease-in 896ms forwards;}.hfOMHukH_116{stroke-dasharray:3 5;stroke-dashoffset:4;animation:hfOMHukH_draw 0ms ease-in 897ms forwards;}.hfOMHukH_117{stroke-dasharray:3 5;stroke-dashoffset:4;animation:hfOMHukH_draw 0ms ease-in 897ms forwards;}.hfOMHukH_118{stroke-dasharray:3 5;stroke-dashoffset:4;animation:hfOMHukH_draw 0ms ease-in 898ms forwards;}.hfOMHukH_119{stroke-dasharray:3 5;stroke-dashoffset:4;animation:hfOMHukH_draw 0ms ease-in 899ms forwards;}@keyframes hfOMHukH_draw{100%{stroke-dashoffset:0;}}@keyframes hfOMHukH_fade{0%{stroke-opacity:1;}92.15686274509804%{stroke-opacity:1;}100%{stroke-opacity:0;}}</style></svg>