<svg id="Layer_1" data-name="Layer 1" xmlns="http://www.w3.org/2000/svg" viewBox="0 0 451.11 453.49" style=""><title>ball</title><path d="M718,481.48c-4.56,4.64-9.51,9-13.55,14-2.91,3.64-6.55,6.44-9.64,9.84-2.74,3-5,6.63-8.68,8.87a9.14,9.14,0,0,0-4.19,4.93,4.9,4.9,0,0,1-1.64,1.92c-6.56,5.51-11.59,12.58-18.23,18-2.13,4.4-6.27,7.05-9.49,10.43s-6.7,7.05-10.14,10.49c-6.4,6.4-12.68,12.94-18.71,19.69-3.66,4.1-7.71,7.82-11.38,11.91-1.17,1.3-1.7,3-3.07,4.13-8.31,6.88-14.47,15.76-21.83,23.52-6.39,6.73-12.58,13.66-19,20.36-5,5.24-9.49,10.95-14.54,16.17-6.3,6.51-12,13.57-18.08,20.32s-12.07,13.06-18,19.72c-2.74,3.1-5.5,6.17-8.44,9.09" transform="translate(-443.29 -318)" fill="none" stroke="#000" stroke-linecap="round" stroke-linejoin="round" stroke-width="2" class="ZVeKiPbR_0"></path><path d="M595.56,446.68l.54,2.73a97.4,97.4,0,0,0-10.83,2.43,111.71,111.71,0,0,0-17.14,5.46c-4.78,2-9.53,4.27-14.56,5.7-4.19,1.19-7.5,4-11.3,6-5,2.52-10,4.87-15.11,7.21a61.21,61.21,0,0,0-6.93,4.36c-5.26,3.35-10.22,7.21-15.67,10.2-7.08,3.89-12.93,9.35-19.45,13.92-5.26,3.69-10.18,7.83-15.54,11.36-2,1.3-3.33,3.26-5,4.89-3.08,3.11-7,5.28-9.73,8.76-1.4,1.76-3.67,2.48-5.7,3.41-.51.24-1.1.18-1.49.92a28.41,28.41,0,0,0-3.09,17.54,25,25,0,0,1,.24,3.12c.1,5.6,0,11.21.29,16.8a119,119,0,0,0,2.37,20.16c1.5,6.58,3,13.16,4.64,19.72.93,3.76,2.8,7.13,3.62,10.79,1,4.49,3.62,8.28,4.7,12.69.83,3.38,3,6.18,4.29,9.37,2.89,7.21,7.48,13.46,11.24,20.19a136.65,136.65,0,0,0,10,15.23c3.69,4.93,7.22,10.05,11.81,14.33,2.3,2.15,3.9,5,5.83,7.61a6.32,6.32,0,0,0,4.08,2.88c1.91.29,2.36,1.92,2.85,3.37a9.28,9.28,0,0,0,3.12,4.1c2.41,2.05,4.65,4.3,7,6.44,1.17,1.07,2.34,2.16,3.6,3.11C530.59,726.19,536,732,543,735.9c2.37,1.31,4.29,3.26,6.7,4.59,4.68,2.57,9.43,5,14.19,7.39a83,83,0,0,0,7.46,3.79c6.07,2.33,12.18,4.68,18.13,7.22,7.45,3.17,15.25,4.56,22.91,6.69,3.26.91,6.53,2,10.07,1.81a11,11,0,0,1,4.77,1,9,9,0,0,0,4.35.63c2-.15,3.85-.24,5.57,1.17a3.92,3.92,0,0,0,2.59.27c3.6-.41,7.2-.15,10.8-.21,6.88-.11,13.76-.32,20.64-.2,4.62.08,9.14.41,13.25-2.38.62-.42,1.93-.09,2.82.2,5.11,1.66,10,.09,14.89-1a15.85,15.85,0,0,1,3.84-.68c3.27.13,6.13-1.55,9.33-2a27.17,27.17,0,0,0,8.93-2.38,28.48,28.48,0,0,1,4.06-1.24c9.37-3.06,18.82-5.92,27.61-10.54,3.58-1.88,7.42-3.22,11.07-5,5.15-2.47,9.93-5.6,15.1-8,5-2.27,8.8-6.22,13.46-8.85,6.16-3.49,11.2-8.28,16.53-12.78A181,181,0,0,0,829.8,698c.27-.3.41-.77.73-.94,4.38-2.26,5.86-6.72,8.15-10.58" transform="translate(-443.29 -318)" fill="none" stroke="#000" stroke-linecap="round" stroke-linejoin="round" stroke-width="2" class="ZVeKiPbR_1"></path><path d="M851.16,670.6c2.47-1.65,3.76-4.12,5.1-6.69,2.08-4,5.12-7.5,6.77-11.6C865.58,646,870,640.6,872,634.1c1-3.36,2.39-6.57,3.63-9.83.65-1.72,1.27-3.41,2.08-5.08,1-2.17,1.25-4.74,1.8-7.14.8-3.51,2.14-6.88,3-10.34A166.3,166.3,0,0,0,886,582.77c.7-5,1.27-9.9,1.75-14.88.58-6.09.78-12.2.86-18.26.06-5.24.23-10.69-.73-15.8s-.76-10.17-2-15.21a86.27,86.27,0,0,1-1.75-11.7c-.43-4.46-2.42-8.5-4.9-12.28-.59-.9-1.15-.77-2-.72-2.49.15-5,.76-7.44-.45-3.68-1.85-7.43-3.55-11-5.55-4.63-2.59-9.24-5.26-13.67-8.17-4-2.62-8-5.25-11.71-8.21-4.39-3.5-9-6.73-13.07-10.67-4.87-4.73-10.22-8.95-15.17-13.62s-10-9.18-14.78-14c-3.81-3.87-7.53-7.83-11.29-11.75" transform="translate(-443.29 -318)" fill="none" stroke="#000" stroke-linecap="round" stroke-linejoin="round" stroke-width="2" class="ZVeKiPbR_2"></path><path d="M841.08,621.88a18.6,18.6,0,0,0,4.85-.36c-.41-3.88-.61-7.92-1.31-11.87s-.82-8.25-2.24-12.29c-1.49-4.24-2.2-8.76-3.21-13.17-.27-1.15-1.11-2.06-1.4-3.13-1.08-3.91-2.55-7.69-3.81-11.53-1.44-4.4-3.29-8.61-4.94-12.91-2.15-5.62-4.53-11.16-7.19-16.56a185,185,0,0,0-11.27-20.64c-4.15-6.28-8-12.75-12.25-19-3.9-5.7-8-11.3-12.41-16.61-3.11-3.7-5.9-7.69-9.17-11.23-7.65-8.26-15-16.84-23.24-24.52" transform="translate(-443.29 -318)" fill="none" stroke="#000" stroke-linecap="round" stroke-linejoin="round" stroke-width="2" class="ZVeKiPbR_3"></path><path d="M606.36,363.16a2.54,2.54,0,0,1,1.93,0c4.08,1.54,8.36,2.4,12.52,3.71,5.91,1.86,11.44,4.71,17.29,6.45,5.47,1.63,10.27,5,16,5.74a5.55,5.55,0,0,1,1.68.93c5.12,2.88,10,6.21,15.42,8.51,4.76,2,9.07,4.77,13.59,7.15,8.77,4.6,16.75,10.44,24.8,16.2,7.4,5.29,14.45,11,21.52,16.67,4.1,3.3,7.92,7,11.78,10.54a56.7,56.7,0,0,1,7.49,7.64,2.18,2.18,0,0,0,3.77,0,76.91,76.91,0,0,1,8-9c3-2.83,6.11-5.56,8.85-8.68,2.28-2.59,4.78-5,7.18-7.46" transform="translate(-443.29 -318)" fill="none" stroke="#000" stroke-linecap="round" stroke-linejoin="round" stroke-width="2" class="ZVeKiPbR_4"></path><path d="M752.52,542.44c-1.76.48-1.2,2.26-.86,2.82,1.17,1.93,1.08,4.1,1.24,6.07.84,10.46.89,20.93.7,31.43a190.51,190.51,0,0,1-1.74,19.18c-.73,6.11-1.48,12.31-3.37,18.28-.88,2.78-1.14,5.75-1.75,8.62a58.54,58.54,0,0,1-1.45,5.76c-2.76,8.57-5.43,17.18-8.45,25.66a67.3,67.3,0,0,1-5.12,12.08c-1.66,2.8-2.56,6.07-3.82,9.11-2.41,5.8-5.26,11.37-8,17-1.8,3.66-3.41,7.42-5.32,11-2,3.83-4.34,7.51-6.43,11.3-2,3.6-3.37,7.5-5.51,11-3.47,5.77-6.63,11.73-10.15,17.48-2.2,3.58-3.65,7.55-6.33,10.92-1.48,1.87-1.4,4.71-1.31,7.23" transform="translate(-443.29 -318)" fill="none" stroke="#000" stroke-linecap="round" stroke-linejoin="round" stroke-width="2" class="ZVeKiPbR_5"></path><path d="M779.16,420.52c2.71-2.57,5.31-5.25,8.11-7.74,3.42-3,6.38-6.58,9.68-9.75,2.16-2.08,4.53-4,6.61-6.11,2.45-2.5,5.28-4.61,7.38-7.53,1.47-2.05.84-3.32-.33-4.87a36.81,36.81,0,0,0-8.81-8.5c-4.12-2.78-7.76-6.29-11.58-9.51a73.18,73.18,0,0,0-12.48-8.16c-4-2.15-7.73-4.65-11.74-6.77s-7.77-4-11.8-5.67a28.85,28.85,0,0,1-3.56-2c-4.21-2.47-9.12-2.9-13.49-4.95a113.28,113.28,0,0,0-11.27-4.34,26,26,0,0,0-8.15-1.84c-3.12-.05-6.22-.3-9.36-.23-2.09,0-3.82-1.85-5.77-2.72-3.95-1.77-7.9-3.6-12.47-3a5.41,5.41,0,0,1-3.86-.64,8.32,8.32,0,0,0-4.77-1c-4.08.1-8.16,0-12.24.06-2.24.05-4.44,0-6.21-1.5a2,2,0,0,0-1.94-.41c-2.76.76-5.68.34-8.43,1.35s-5.72.41-8.62.34c-4.56-.11-9.28-.58-13.62.43-2.85.67-5.72.63-8.42,1.34s-5.3.59-7.95.9c-1.26.15-2.34,1.47-3.62,1.78-3.24.8-6.64,1-9.8,2.05-3.76,1.21-7.76,1.47-11.35,3.44a51.53,51.53,0,0,1-10.06,4.09,51.85,51.85,0,0,0-10.73,4.72c-2.62,1.49-5.54,2.34-8,4.16-1.63,1.19-3.39,2.15-4.51,3.91" transform="translate(-443.29 -318)" fill="none" stroke="#000" stroke-linecap="round" stroke-linejoin="round" stroke-width="2" class="ZVeKiPbR_6"></path><path d="M543.72,359.32a21.05,21.05,0,0,0-9.9,5c-5,4.21-10.13,8.26-15.06,12.55a27.81,27.81,0,0,0-4.43,4.72c-1.6,2.21-4,3.88-6.22,5.48-2.89,2.1-4.73,5.05-7.27,7.41a84.63,84.63,0,0,0-5.8,6.67c-5.57,6.42-10.12,13.62-14.86,20.64a206.14,206.14,0,0,0-12.31,21.31c-2.45,4.78-5,9.51-7.15,14.42-1.66,3.79-2.65,7.87-4.19,11.72-1.07,2.69-1.71,5.51-2.76,8.21-1.43,3.7-2.23,7.64-3.31,11.46-1.4,4.93-2.07,10-3.49,14.91s-1.2,9.91-1.64,14.89a42.73,42.73,0,0,0-.13,7,17,17,0,0,0,2.74,7.67" transform="translate(-443.29 -318)" fill="none" stroke="#000" stroke-linecap="round" stroke-linejoin="round" stroke-width="2" class="ZVeKiPbR_7"></path><path d="M812.28,387.64c3.48,0,6.06,2.17,8.06,4.41,4.09,4.55,8.08,9.18,12.3,13.63a59.26,59.26,0,0,1,8.72,11.22,22.3,22.3,0,0,0,2.84,3.38,32.2,32.2,0,0,1,4.64,6.68c1.41,2.77,3.41,5.23,5,7.91,3.06,5,6.33,9.79,9,15.08,2.42,4.84,5.33,9.51,7.43,14.52,3,7.1,5.71,14.31,8.1,21.61.76,2.31.12,5.08.12,7.64" transform="translate(-443.29 -318)" fill="none" stroke="#000" stroke-linecap="round" stroke-linejoin="round" stroke-width="2" class="ZVeKiPbR_8"></path><path d="M707.88,332.92a11.37,11.37,0,0,0,2.66,9.82c4.16,5.18,8.25,10.45,12.75,15.33,5.1,5.53,9.11,12,14.45,17.22,2.27,2.23,3.82,5,6.15,7.06a2.55,2.55,0,0,1,.93,1.69c.23,3.25,2.42,4.83,5.07,6,2.43,1.07,3.68,3.38,5.46,5.11,3.7,3.58,7,7.58,10.65,11.19,3.5,3.44,6.15,7.58,9.51,11.13a21.93,21.93,0,0,1,2.7,3.07" transform="translate(-443.29 -318)" fill="none" stroke="#000" stroke-linecap="round" stroke-linejoin="round" stroke-width="2" class="ZVeKiPbR_9"></path><path d="M720.84,480.76c3.91,4.66,8.76,8.4,11.7,14.07,2.21,4.24,5.74,7.93,7.64,12.38,2.82,6.6,6.44,12.89,7.87,20.1,1,5.08,3,10,3.75,15.14" transform="translate(-443.29 -318)" fill="none" stroke="#000" stroke-linecap="round" stroke-linejoin="round" stroke-width="2" class="ZVeKiPbR_10"></path><path d="M750.84,447.88c-3.52,3.76-7.12,7.45-10.54,11.3-4.33,4.89-9.39,9-13.91,13.69-1.77,1.83-3.15,4-4.88,5.93-.49.53-1,1.57-2.11,1.24" transform="translate(-443.29 -318)" fill="none" stroke="#000" stroke-linecap="round" stroke-linejoin="round" stroke-width="2" class="ZVeKiPbR_11"></path><path d="M596.16,450.28c-.15-.42,0-.86.36-.94,2.65-.52,5.09-1.9,7.92-1.73a14.59,14.59,0,0,0,6.23-.48c1.42-.55,2.74,0,4.09.07,3.32.1,6.49-1,9.84-.81,3.66.25,7.37-.12,11,.11,3.29.21,6.56.08,9.84.2.64,0,1.32-.27,1.92.22,1.86,1.51,4.08,1.2,6.24,1.21,1.77,0,3.55-.22,5.07,1.16.67.61,1.73.32,2.61.26,2.47-.18,4.66.69,7,1.37,4.91,1.45,9.53,3.69,14.59,4.76a21.67,21.67,0,0,1,7.42,3.55c4,2.75,8.52,4.6,12.57,7.31a100,100,0,0,1,16,13" transform="translate(-443.29 -318)" fill="none" stroke="#000" stroke-linecap="round" stroke-linejoin="round" stroke-width="2" class="ZVeKiPbR_12"></path><path d="M554,355.72c4.41,3.57,9.61,3.59,14.88,3.36,5-.21,10-1.15,14.84.13a21.64,21.64,0,0,0,8.92.83,1.83,1.83,0,0,1,1,0c3.67,1.68,7.73,1.75,11.54,2.84.62.18,1.17.13.83,1" transform="translate(-443.29 -318)" fill="none" stroke="#000" stroke-linecap="round" stroke-linejoin="round" stroke-width="2" class="ZVeKiPbR_13"></path><path d="M845.88,621.88c.44,6.24,1.54,12.4.36,18.74-.7,3.8-.08,7.82-.54,11.75-.31,2.62-1.33,5-1.55,7.67-.36,4.44-.71,8.83,1.48,13" transform="translate(-443.29 -318)" fill="none" stroke="#000" stroke-linecap="round" stroke-linejoin="round" stroke-width="2" class="ZVeKiPbR_14"></path><path d="M552.12,356.44c.14,2.72-.3,5.45.24,8.16" transform="translate(-443.29 -318)" fill="none" stroke="#000" stroke-linecap="round" stroke-linejoin="round" stroke-width="2" class="ZVeKiPbR_15"></path><path d="M673.32,319v6" transform="translate(-443.29 -318)" fill="none" stroke="#000" stroke-linecap="round" stroke-linejoin="round" stroke-width="2" class="ZVeKiPbR_16"></path><path d="M751.8,385.24c.59,1.8-.16,3.41-.72,5" transform="translate(-443.29 -318)" fill="none" stroke="#000" stroke-linecap="round" stroke-linejoin="round" stroke-width="2" class="ZVeKiPbR_17"></path><path d="M728.76,677.32l-4.8-1.2" transform="translate(-443.29 -318)" fill="none" stroke="#000" stroke-linecap="round" stroke-linejoin="round" stroke-width="2" class="ZVeKiPbR_18"></path><path d="M644.76,441.88v4.56" transform="translate(-443.29 -318)" fill="none" stroke="#000" stroke-linecap="round" stroke-linejoin="round" stroke-width="2" class="ZVeKiPbR_19"></path><path d="M754.2,531.64c-1.58-.14-3,.62-4.56.72" transform="translate(-443.29 -318)" fill="none" stroke="#000" stroke-linecap="round" stroke-linejoin="round" stroke-width="2" class="ZVeKiPbR_20"></path><path d="M755.64,609.4c-1.58.14-3-.62-4.56-.72" transform="translate(-443.29 -318)" fill="none" stroke="#000" stroke-linecap="round" stroke-linejoin="round" stroke-width="2" class="ZVeKiPbR_21"></path><path d="M572.76,354v4.56" transform="translate(-443.29 -318)" fill="none" stroke="#000" stroke-linecap="round" stroke-linejoin="round" stroke-width="2" class="ZVeKiPbR_22"></path><path d="M888.36,547.48H883.8" transform="translate(-443.29 -318)" fill="none" stroke="#000" stroke-linecap="round" stroke-linejoin="round" stroke-width="2" class="ZVeKiPbR_23"></path><path d="M733.56,665.8a10.56,10.56,0,0,0-4.32-.48" transform="translate(-443.29 -318)" fill="none" stroke="#000" stroke-linecap="round" stroke-linejoin="round" stroke-width="2" class="ZVeKiPbR_24"></path><path d="M598.2,598.84c0,.65-.16,1.32.37,1.82-.85.78-1.57-.24-2.29.1" transform="translate(-443.29 -318)" fill="none" stroke="#000" stroke-linecap="round" stroke-linejoin="round" stroke-width="2" class="ZVeKiPbR_25"></path><path d="M893.4,566.68l-3.36-.24" transform="translate(-443.29 -318)" fill="none" stroke="#000" stroke-linecap="round" stroke-linejoin="round" stroke-width="2" class="ZVeKiPbR_26"></path><path d="M877.56,611.56l-3.36-.24" transform="translate(-443.29 -318)" fill="none" stroke="#000" stroke-linecap="round" stroke-linejoin="round" stroke-width="2" class="ZVeKiPbR_27"></path><path d="M449.4,485.8c-1.13-.07-2.18-.73-3.36-.48" transform="translate(-443.29 -318)" fill="none" stroke="#000" stroke-linecap="round" stroke-linejoin="round" stroke-width="2" class="ZVeKiPbR_28"></path><path d="M840.12,670.6l-3.36-.24" transform="translate(-443.29 -318)" fill="none" stroke="#000" stroke-linecap="round" stroke-linejoin="round" stroke-width="2" class="ZVeKiPbR_29"></path><path d="M770.28,746a8.33,8.33,0,0,1,.48,3.12" transform="translate(-443.29 -318)" fill="none" stroke="#000" stroke-linecap="round" stroke-linejoin="round" stroke-width="2" class="ZVeKiPbR_30"></path><path d="M562,749.32a8.33,8.33,0,0,0-.48,3.12" transform="translate(-443.29 -318)" fill="none" stroke="#000" stroke-linecap="round" stroke-linejoin="round" stroke-width="2" class="ZVeKiPbR_31"></path><path d="M551.4,346.36a8.33,8.33,0,0,0,.48,3.12" transform="translate(-443.29 -318)" fill="none" stroke="#000" stroke-linecap="round" stroke-linejoin="round" stroke-width="2" class="ZVeKiPbR_32"></path><path d="M575.64,448.6l.24,3.12" transform="translate(-443.29 -318)" fill="none" stroke="#000" stroke-linecap="round" stroke-linejoin="round" stroke-width="2" class="ZVeKiPbR_33"></path><path d="M760.2,750.28a8.33,8.33,0,0,1,.48,3.12" transform="translate(-443.29 -318)" fill="none" stroke="#000" stroke-linecap="round" stroke-linejoin="round" stroke-width="2" class="ZVeKiPbR_34"></path><path d="M680.52,457.48a8.33,8.33,0,0,0-.48,3.12" transform="translate(-443.29 -318)" fill="none" stroke="#000" stroke-linecap="round" stroke-linejoin="round" stroke-width="2" class="ZVeKiPbR_35"></path><path d="M602.28,757.72a8.33,8.33,0,0,1-.48,3.12" transform="translate(-443.29 -318)" fill="none" stroke="#000" stroke-linecap="round" stroke-linejoin="round" stroke-width="2" class="ZVeKiPbR_36"></path><path d="M754.68,436.6c.7.84.11,2.21,1.2,2.88" transform="translate(-443.29 -318)" fill="none" stroke="#000" stroke-linecap="round" stroke-linejoin="round" stroke-width="2" class="ZVeKiPbR_37"></path><style data-made-with="vivus-instant">.ZVeKiPbR_0{stroke-dasharray:307 309;stroke-dashoffset:308;animation:ZVeKiPbR_draw 55ms linear 0ms forwards;}.ZVeKiPbR_1{stroke-dasharray:743 745;stroke-dashoffset:744;animation:ZVeKiPbR_draw 135ms linear 55ms forwards;}.ZVeKiPbR_2{stroke-dasharray:312 314;stroke-dashoffset:313;animation:ZVeKiPbR_draw 56ms linear 190ms forwards;}.ZVeKiPbR_3{stroke-dasharray:206 208;stroke-dashoffset:207;animation:ZVeKiPbR_draw 37ms linear 247ms forwards;}.ZVeKiPbR_4{stroke-dasharray:209 211;stroke-dashoffset:210;animation:ZVeKiPbR_draw 38ms linear 285ms forwards;}.ZVeKiPbR_5{stroke-dasharray:241 243;stroke-dashoffset:242;animation:ZVeKiPbR_draw 43ms linear 323ms forwards;}.ZVeKiPbR_6{stroke-dasharray:328 330;stroke-dashoffset:329;animation:ZVeKiPbR_draw 59ms linear 367ms forwards;}.ZVeKiPbR_7{stroke-dasharray:210 212;stroke-dashoffset:211;animation:ZVeKiPbR_draw 38ms linear 427ms forwards;}.ZVeKiPbR_8{stroke-dasharray:129 131;stroke-dashoffset:130;animation:ZVeKiPbR_draw 23ms linear 465ms forwards;}.ZVeKiPbR_9{stroke-dasharray:115 117;stroke-dashoffset:116;animation:ZVeKiPbR_draw 21ms linear 489ms forwards;}.ZVeKiPbR_10{stroke-dasharray:71 73;stroke-dashoffset:72;animation:ZVeKiPbR_draw 13ms linear 510ms forwards;}.ZVeKiPbR_11{stroke-dasharray:46 48;stroke-dashoffset:47;animation:ZVeKiPbR_draw 8ms linear 523ms forwards;}.ZVeKiPbR_12{stroke-dasharray:134 136;stroke-dashoffset:135;animation:ZVeKiPbR_draw 24ms linear 531ms forwards;}.ZVeKiPbR_13{stroke-dasharray:55 57;stroke-dashoffset:56;animation:ZVeKiPbR_draw 10ms linear 556ms forwards;}.ZVeKiPbR_14{stroke-dasharray:52 54;stroke-dashoffset:53;animation:ZVeKiPbR_draw 9ms linear 566ms forwards;}.ZVeKiPbR_15{stroke-dasharray:9 11;stroke-dashoffset:10;animation:ZVeKiPbR_draw 1ms linear 576ms forwards;}.ZVeKiPbR_16{stroke-dasharray:6 8;stroke-dashoffset:7;animation:ZVeKiPbR_draw 1ms linear 577ms forwards;}.ZVeKiPbR_17{stroke-dasharray:6 8;stroke-dashoffset:7;animation:ZVeKiPbR_draw 1ms linear 579ms forwards;}.ZVeKiPbR_18{stroke-dasharray:5 7;stroke-dashoffset:6;animation:ZVeKiPbR_draw 1ms linear 580ms forwards;}.ZVeKiPbR_19{stroke-dasharray:5 7;stroke-dashoffset:6;animation:ZVeKiPbR_draw 1ms linear 581ms forwards;}.ZVeKiPbR_20{stroke-dasharray:5 7;stroke-dashoffset:6;animation:ZVeKiPbR_draw 1ms linear 582ms forwards;}.ZVeKiPbR_21{stroke-dasharray:5 7;stroke-dashoffset:6;animation:ZVeKiPbR_draw 1ms linear 583ms forwards;}.ZVeKiPbR_22{stroke-dasharray:5 7;stroke-dashoffset:6;animation:ZVeKiPbR_draw 1ms linear 584ms forwards;}.ZVeKiPbR_23{stroke-dasharray:5 7;stroke-dashoffset:6;animation:ZVeKiPbR_draw 1ms linear 585ms forwards;}.ZVeKiPbR_24{stroke-dasharray:5 7;stroke-dashoffset:6;animation:ZVeKiPbR_draw 1ms linear 586ms forwards;}.ZVeKiPbR_25{stroke-dasharray:5 7;stroke-dashoffset:6;animation:ZVeKiPbR_draw 1ms linear 588ms forwards;}.ZVeKiPbR_26{stroke-dasharray:4 6;stroke-dashoffset:5;animation:ZVeKiPbR_draw 0ms linear 589ms forwards;}.ZVeKiPbR_27{stroke-dasharray:4 6;stroke-dashoffset:5;animation:ZVeKiPbR_draw 0ms linear 590ms forwards;}.ZVeKiPbR_28{stroke-dasharray:4 6;stroke-dashoffset:5;animation:ZVeKiPbR_draw 0ms linear 590ms forwards;}.ZVeKiPbR_29{stroke-dasharray:4 6;stroke-dashoffset:5;animation:ZVeKiPbR_draw 0ms linear 591ms forwards;}.ZVeKiPbR_30{stroke-dasharray:4 6;stroke-dashoffset:5;animation:ZVeKiPbR_draw 0ms linear 592ms forwards;}.ZVeKiPbR_31{stroke-dasharray:4 6;stroke-dashoffset:5;animation:ZVeKiPbR_draw 0ms linear 593ms forwards;}.ZVeKiPbR_32{stroke-dasharray:4 6;stroke-dashoffset:5;animation:ZVeKiPbR_draw 0ms linear 594ms forwards;}.ZVeKiPbR_33{stroke-dasharray:4 6;stroke-dashoffset:5;animation:ZVeKiPbR_draw 0ms linear 595ms forwards;}.ZVeKiPbR_34{stroke-dasharray:4 6;stroke-dashoffset:5;animation:ZVeKiPbR_draw 0ms linear 596ms forwards;}.ZVeKiPbR_35{stroke-dasharray:4 6;stroke-dashoffset:5;animation:ZVeKiPbR_draw 0ms linear 597ms forwards;}.ZVeKiPbR_36{stroke-dasharray:4 6;stroke-dashoffset:5;animation:ZVeKiPbR_draw 0ms linear 598ms forwards;}.ZVeKiPbR_37{stroke-dasharray:4 6;stroke-dashoffset:5;animation:ZVeKiPbR_draw 0ms linear 599ms forwards;}@keyframes ZVeKiPbR_draw{100%{stroke-dashoffset:0;}}@keyframes ZVeKiPbR_fade{0%{stroke-opacity:1;}91.66666666666667%{stroke-opacity:1;}100%{stroke-opacity:0;}}</style></svg>