<svg id="Layer_1" data-name="Layer 1" xmlns="http://www.w3.org/2000/svg" viewBox="0 0 659.18 494.93"><title>camera</title><path d="M231.07,36.33c.22-.58.35-1.6.68-1.67,6.94-1.5,13.93-2.12,20.31,1.7,3.84,2.29,3.69,6.16,2,9.75-4.13,8.7-10.13,15.22-20.37,16.41-2,.23-4.29.24-3.76,3.29s2.84,1.52,4.41,1.66c9.65.85,16.88-4.6,23.66-10.09C275.79,43,292.29,27.28,306.19,9c3.58-4.7,8.57-5.06,13.49-4.79,16.94.94,33.86,2.26,50.78,3.51a9.79,9.79,0,0,1,6.36,2.61c5.86,5.86,13.46,7.68,21.18,9.06,7,1.26,14.13,2.2,21.19,3.32A14.2,14.2,0,0,1,429.48,29c8.59,12.88,17.51,25.53,26,38.46,2.22,3.37,4.68,5.23,8.71,5.66,19.23,2,38.48,3.26,57.84,2.68,1.54,0,4.3-1.55,4.56,1.06s-2.59,2.52-4.54,2.55a367.36,367.36,0,0,1-51.87-2.34,51.24,51.24,0,0,0-5.47-.55c-5.26-.09-8.95-2.38-11.91-6.85C444.06,56.5,435,43.57,426.06,30.5a8.38,8.38,0,0,0-5.64-3.76c-11.42-2-22.86-4-34.67-6a88.53,88.53,0,0,0,11.93,16.16c10.36,11.36,21.2,22.85,24.29,38.36,2.75,13.8,9.16,25.57,16,37.36,3.44,5.94,6.53,12,8,18.73.67,3.06,2.23,4.49,5.58,4.05,5.61-.73,11.25-1.26,16.89-1.68,3.39-.25,3.4-1.48,1.85-4-5.26-8.68-10.61-17.33-14.13-26.93-.54-1.49-2-3-.78-4.67,1.36-1.81,3.34-1,5.09-.6,12.66,2.84,25.22,6.15,38,8.46,16.19,2.93,32.4,5.69,49.11,3.95,11.76-1.23,23.62.46,35.4,1.52,2.35.21,4.92.51,6.61,2,3.61,3.15,6.57,2.84,10.58.42a34.39,34.39,0,0,1,14.72-4.44c10.16-.91,19.52-5.6,29.74-6.17,3.49-.19,6.71-1.67,10.52.67,2.15,1.32,3.15-3.31,4.91-5,1.12-1.09,1.91-3,.12-3.82-5.52-2.39-9.85-7.61-16.65-7.25,1.8,5.84,1.5,6.64-4.55,8.35-6.25,1.77-12.38,3.82-18.45,6.14-11.84,4.54-24.22,4-36.54,2.9-16.91-1.55-33.74-4-50.73-4.7a39.34,39.34,0,0,1-14-3.41c-2.87-1.24-4.27-3.3-1.15-5.48,10.47-7.32,13.11-17.81,12.53-29.69-.22-4.49,2.07-7.33,5.4-10,9-7.26,18.95-11.48,30.78-10.95a113.35,113.35,0,0,0,19.94-1.07c14.53-1.92,27.58,1.46,37.57,12.62a22.34,22.34,0,0,1,5.82,15.06c-.15,4.49,1.92,6.95,4.1,10,3.11,4.35,6.36,7.39,12.41,7.63s10.75,4.9,16,7.7A3.94,3.94,0,0,1,664,98.86c-2.13,3.12-3.66,6.66-6.77,9.09-3,2.3-1.26,5.52-1,8.22A251.61,251.61,0,0,1,655.17,170c-1.47,12.28-2.66,24.64-1.14,36.89,5.27,42.56,4.06,85.34,5,128.05a156.65,156.65,0,0,1-2,27.38c-1.5,9.67-.37,19.29-.17,28.93.23,11.2-2.1,13.49-13,16.42-16,4.31-32.39,6.23-48.77,7.54a119.31,119.31,0,0,1-28.39-.62c-19.69-3.15-39.57-2.05-59.38-1.94a179.68,179.68,0,0,1-41.63-4.23c-3.41-.79-5,.06-6.54,3.07-4.34,8.55-11.07,15.37-17,22.77-1.44,1.79-2.85,3.6-4.66,5.88,5.72,1.4,11,0,16.17.82,10.72,1.61,21.18,4.38,31.76,6.58,16.31,3.39,32.32,1.62,48.53-1.21,15.92-2.79,32-3.68,48.12.08,13.09,3,26.53,1.69,39.84.9,4-.24,8-.5,12-.68,8.5-.38,14.48-6.22,15.2-14.82.33-4-.1-8,1.31-13.27-9,9.13-19.39,9.89-30.09,10.43-21.46,1.07-42.92,2.33-64.33,4.19-13.42,1.17-26.12-2.19-39.08-4.19q-14.31-2.21-28.64-4.33c-6.37-.94-12.61.63-18.87,1.33a68.71,68.71,0,0,1-13.46.06c-1.1-.09-2.66-.12-2.67-1.63,0-1.93,1.67-1.56,3-1.68,26.39-2.42,52.41.09,78.17,5.92,9.59,2.17,19.28,1.12,28.89.64q32.19-1.61,64.34-3.92c10.37-.74,19.38-4,22-15.78.24-1.06.48-2.5,2.06-2.35,1.29.12,1,1.52,1.48,2.34.16.29.47.6.44.88-.89,9.7,1,19.79-3.11,29a17.07,17.07,0,0,1-15.66,10.71c-17.12.65-34.26,2.91-51.38.18-9-1.44-18-3.68-27.24-2.87-10.94,1-22,1.23-32.7,3.87-16.13,4-31.79.75-47.38-2.73-12.52-2.79-24.86-6.26-37.9-5.25-2.58.2-4.44.79-5.82,3-7.27,11.62-19,17.58-30.06,24.78-14.58,9.46-31.48,13.25-46.48,21.46-7.31,4-15.89,3.23-23.92,4.42-21.48,3.18-42.81,3.15-63.71-3.73a32.72,32.72,0,0,1-6.91-2.86c-13.8-8.46-29-14-43.43-21.18a70.05,70.05,0,0,1-22.39-18.06q-12.21-14.55-24.38-29.13c-1.36-1.64-2.37-3.38-4.15-.22-1.41,2.5-4.2,2.29-6.72,2.37-14.31.41-28.13-2.61-41.89-6-4.12-1-8.29-1.6-12.38-.77-19.77,4-39.1,1.21-58.39-3.18-6.65-1.51-13.37-2.75-20.1-3.81-6.06-1-9.4-4.36-10.77-10.2a57.52,57.52,0,0,1-1.85-11.81c-.48-20.48-.42-41-5.7-61a16.91,16.91,0,0,1-.26-4.48c.71-49.33-1.11-98.64-1.2-148,0-6.74.46-13.47.17-20.21q-.47-11-.57-22c-.07-7.16,0-14.33.17-21.5s.29-14.33.81-21.47c.16-2.19-1.36-2.77-2.6-4.44,2.63-.52,4-3.67,7.29.51,2.27,2.9,8,2.24,12.33,2.79,23.11,2.94,46.28.12,69.4.91,2.32.08,4.64.41,6.95.71,1,.12,2.21.25,2.13,1.58-.1,1.66-1.53,1.51-2.66,1.43-2.82-.21-5.63-.75-8.45-.77-8.33-.06-16.69-.37-25,.22-15.9,1.12-31.6-.81-47.35-2.2a22.3,22.3,0,0,1-3-.43c-7.12-1.61-7.2-1.62-7.42,6-.65,22.34.81,44.64,1,67,0,2.52.87,3.45,3.46,3.61,30.41,1.81,60.76,5.6,91.3,3.07,11.31-.94,22.15,2.09,33.22,3,14.25,1.18,28.58,1.22,42.56,4.8,3,.77,5.87.35,6.92-3.73,2.08,4.79,1,6.73-3.36,6.81-7.07.12-13.82-2-20.7-3.17-10.06-1.78-20.38.32-30.37-2-10.51-2.41-21.11-2.67-31.79-2-28.55,1.69-56.9-1.08-85.22-4.14-4.59-.5-5.93.59-5.89,5.41.4,49,2,98,.81,147-.2,8.24,3,16,3.88,24.1,1.15,10.79,1.52,21.6,1.64,32.43,0,3.09.81,4.6,4.1,5.55A287.16,287.16,0,0,0,116.29,395c11.95-.61,24,.37,36,.82,3.24.12,3.58-.8,2.52-3.6-7.27-19.36-10.36-39.55-11.53-60.07a68.76,68.76,0,0,1,4.5-28.88c6.48-16.91,11.35-34.45,21-50.05,4-6.52,7.8-13.21,13.2-18.73,4.26-4.36,5.68-9.45,6.21-15.52,2.48-28.17,4.72-56.46,15.83-83,4.24-10.12,8.77-20.13,13.33-30.12,1.82-4,1.06-5.45-3.53-5.76-21.63-1.47-42.79-6.26-64.2-9.34a49.76,49.76,0,0,0-14.93.22c-10.35,1.64-20.66,3.48-30.86,5.93-1.53.37-3.12,1.13-5.44-.53a375.54,375.54,0,0,1,43.34-9.87c-6.23-2-6-5.25-4.77-9.17A88.47,88.47,0,0,0,139,67c.2-1.13.07-2.82,1.48-2.72,2,.14,1.34,2,1.14,3.2a76.18,76.18,0,0,1-2.18,10.75c-1,3.06,0,4,2.78,4.93,18,6,36,7.74,54.47,2.27,8.74-2.59,18-3.46,26.05-8.26,3.21-1.91,4.51-3.73,4.12-7.9-.72-7.72-.21-15.56-.21-24.14-9.48,3.83-18,7-27,8.7-18.92,3.61-37.93,6.41-56.82.47-5.89-1.85-11.07-3.44-17.38-1.25-5,1.73-10.61.36-15.79-.93-2.55-.64-3.4-.13-4.13,2.42-2.43,8.47-4.71,16.92-4.32,26.17-2.74-.73-2.2-2.6-2.21-4,0-6.75,1.89-13.14,3.7-19.54s1.82-6.37-2-10.94c6.93,5.27,14.85,6,23.06,5.41a17.49,17.49,0,0,0,8.08-2.32c1.77-1.09,2.46-2.42,1-4.53-3.61-5.32-10.81-6.79-16.69-3,2.89,1.64,5.75-1,8.79.06-4.66,5.41-11.15,0-15.93,3.77-1.18-5.63,3-5.7,6.07-7,6.81-2.91,15-2.34,17.93,3.8C138.62,54,149,53.68,158.52,54.23c21,1.2,41.45-2.48,61.12-10.1a8.21,8.21,0,0,0,.91-.42c2.6-1.4,6.4-2.41,6.12-5.78s-4.23-3.17-6.83-3.88c-7-1.93-13.9-4.46-21.09-6-18.64-4.06-35.91,1-53.11,7-2.69.94-4.83,2.91-6.88,4.89-1,.93-2.1,2.05-3.34.52-1-1.21.11-2.14.89-3,4.93-5.43,11.5-7.94,18.3-9.63a240.17,240.17,0,0,1,28-5.07c7.49-.95,14.58,1.14,21.66,2.87s14,4.14,21,6.2c2.54.74,3.93,2.95,5.92,4.38-3.42,6.46-.88,13.3-1.33,19.95-.23,3.41,1.35,3.86,4.21,3.43,7-1.06,11.69-5.34,15.31-11,4.79-7.49,2.9-10.75-6.06-11.33C239.25,37,235,38.49,231.07,36.33ZM466,288.44c-.6,2.29.69,4.22,1.31,6.23,3.11,10,5.72,20.13,6.57,30.66,1.71,21.21-4.71,40.78-11.81,60.22-2.86,7.82-6,15.57-12,21.71-9.42,9.75-17.38,20.65-24.73,32-6.54,10.07-14.31,18.71-24.33,25.41-5,3.32-9.45,7.32-14.15,11,10.71-6.16,22.47-10.3,32.16-18a22.52,22.52,0,0,0,3.66-3.39c15-18.6,30.47-36.83,42.38-57.68a24.4,24.4,0,0,0,2.81-6.89c4.65-22.1,10.07-44.06,10.1-66.91,0-10.72-.26-21.3-3.44-31.62a32.73,32.73,0,0,1-1.12-8.88,50.08,50.08,0,0,0-2.76-15.26c-1.43,6.08-.4,12.27-1.62,18.31-.4,2-.57,3.66-3.18,3.17,1.36-13.37,3.31-26.74,1-40.2-1.83-10.62-6.82-20.12-11.09-29.81-4.7-10.67-5-22.33-8.44-33.26-.82-2.6-1.93-3.81-4.52-4.37a127.06,127.06,0,0,0-16.23-2.56c-14.59-1.25-28.78,2.44-43.2,3.4-2.4.16-5.2.69-7.15,2.95a7.65,7.65,0,0,0,1.32,1.07c22.17,10.11,40.61,25,56.59,43.29,10,11.45,19.42,23.09,23.74,38.17A107.55,107.55,0,0,0,466,288.44Zm-6.58-187.65c.93,2.46,1.31,3.55,1.75,4.61,3.5,8.51,8.64,16.12,13.19,24.06,2.8,4.89,2.2,6.16-3.38,7.4a86,86,0,0,1-17.86,1.82c-3.45,0-5.07.76-3.42,4.56,1,2.27,1.37,4.8,2.18,7.15,3.32,9.66,5.18,19.72,7.8,30.65,8.52-11.4,20.17-11.47,31.76-11.28,8,.13,16,.79,24,1.21,16,.84,32,1.15,47.82,3.46,6.55,1,13.18,2.09,19.85.86.93-.17,1.84-2.2,2.74-.26.67,1.46-.44,2.65-1.75,3.1-2.56.89-5.27.72-7.93.51-15.77-1.23-31.46-3.55-47.3-3.63-16.65-.09-33.18-2.93-49.88-1.9-7.19.44-12.65,3.55-17.11,9a5.52,5.52,0,0,0-1.47,4.93c1.79,10.67,3.15,21.4,5,32.05,4.83,27.5,9.85,55,14.76,82.45a48.52,48.52,0,0,1,.7,5.94,231.69,231.69,0,0,1-6.59,67.79c-2.08,8.51-2.39,17.56-7.71,25.08-4.43,6.27-4.42,6.28,3.24,7.18.5.06,1,0,1.49.13,19.2,3.28,38.56,1.68,57.86,1.93,11.16.14,22.37-.46,33.42,1.42a137.39,137.39,0,0,0,26.38,1.46c3.69-.09,4.93-1.58,4.9-5.13-.06-7,.26-14,.26-21,0-23.47-.19-46.95-.14-70.42,0-5.14,1.11-10.29,1.08-15.43-.2-32.82-3.41-65.56-3.06-98.4,0-3-1.08-3.6-3.81-3.49a115,115,0,0,1-23.42-1.18C554,195.65,543,197,532.41,195c-10.83-2.08-21.74-3.05-32.64-4.38-11.26-1.37-21.49.78-30.83,7.25-1.09.75-2.16,2.31-4.58.79,9.09-6.31,18-11.17,29.39-10.6,23,1.14,45.56,5.61,68.52,6.6,8.3.36,16.56,1.63,24.9,1.79,3.66.07,4.65-1.14,4.92-4.84.49-6.68-.34-13.32,1.09-20.09,3.16-15,4.89-30.28.6-45.51-2.37-8.41-4.8-10.74-13.51-11.35-11.13-.78-22.29-2-33.45-1.11-22.08,1.69-43.41-2.46-64.66-7.54C474.95,104.23,467.69,102.66,459.41,100.79ZM309.51,496.5c9.47-1.23,21.66,0,33.18-5.8,8.7-4.36,19.46-3.64,28-8.75,20.26-12.19,40.63-24.5,53.08-45.71,4.48-7.63,12-13.18,14.07-22.62.63-2.93,4.56-5.54,6-8.93,7-16.2,10.36-33.57,11.67-50.79,1.78-23.36-1.49-46.5-12.65-67.88-9-17.25-17.22-35.18-31.09-49.08-16.95-17-35.31-32.39-58.56-40.62-17.41-6.16-35-9.33-53.36-5.15-7.6,1.73-15.16,4.42-23.1,3.3A49,49,0,0,0,250,198.24c-8.57,3.65-17.36,6.74-25.13,12-11.52,7.88-23.72,14.66-35.34,22.41a50.6,50.6,0,0,0-14.29,14c-14,20.57-20.25,44.33-28.08,67.45a14.08,14.08,0,0,0-.46,3c-2,18.44.27,36.57,4.43,54.47,4.09,17.64,10.29,34.47,21.78,48.82,7.5,9.36,15.35,18.43,23,27.68a84,84,0,0,0,25,20.31c8.81,4.83,18.9,6.67,27.26,12.25C266,492.6,285.89,496.73,309.51,496.5ZM651.44,171.28c-6.22,2.8-11.72,5.54-17.93,6.31-10.44,1.28-20.82,2.12-31.3.1-5.91-1.14-6.11-.76-6.35,5.39-.15,3.83-.26,7.66-.25,11.49,0,23.82.43,47.61,2.16,71.39,2.18,29.74-1.22,59.49-.19,89.28.6,17.43,1.05,35-.84,52.41-.38,3.53.55,4.7,4.24,4.21,14-1.84,28.06-3.22,41.79-6.88,10.43-2.78,11.77-3.81,11.14-14.6-.59-10-1.2-19.92.26-29.89a199.07,199.07,0,0,0,1.88-30.87c-.27-27.64-1.11-55.27-1.77-82.91-.26-11-1.74-21.93-2-33-.13-6.54-1.69-13.17-1.57-19.83.06-3.12-1.6-3.45-4.08-3.46a109.09,109.09,0,0,0-24.27,2.6,79,79,0,0,1-19.78,2.3c-1.18,0-2.69.09-2.86-1.33-.23-1.92,1.53-1.84,2.81-1.91,5.14-.31,10.3-.16,15.39-1.37a111.1,111.1,0,0,1,29.2-3.16c2.43.07,3.72-.37,3.72-3.15C650.9,180.28,651.22,176.14,651.44,171.28ZM419.05,136.52c2.68-.17,7-.61,11.32-.67,3.06,0,3.73-.83,2.37-3.73C425.4,116.5,419.38,100.26,410,85.6c-3.18-5-7-7.92-12.64-8.48-7.12-.7-14.27-1.17-21.4-1.76-10.09-.83-20.24,1.09-30.33-1.55-25.63-6.7-51.72-6.63-77.87-4.22-4.83.45-9.9,1.7-14.34-.06s-7.24,0-10.29,2.26a107.52,107.52,0,0,0-22.38,22.68c-.68.91-2.26,1.85-.43,3.26,2.89,2.22,1.93,5.11.93,7.74-1.72,4.5-3.67,8.92-5.59,13.34-2.4,5.52-1.63,7.4,4.26,9.18a21.2,21.2,0,0,0,5.91.61c5.33,0,10.66-.26,16-.1q56.95,1.62,113.89,3.4c9.65.3,19.34.45,28.89,2.06A187,187,0,0,0,419.05,136.52Zm18.69,26.37c-2.89,2.3-6,1.44-9,1.09-19.16-2.3-38.4-3.89-57.54-6.5-28-3.83-56.27-1.54-84.37-.33-27.13,1.16-53.92-.31-80.46-5.79-3.95-.81-4.75.52-5.51,3.68-3.23,13.46-4.69,27.22-7.15,40.81-1.66,9.14-2.05,18.36-2.57,28.43,16.51-20.71,36.08-36.47,60-48.94-6.7-1.25-12.65.1-17.67-4.53,4.42-.71,7.73,1.23,11.24,1.62,8.12.92,15.71-1.41,23.54-2.72,16.46-2.75,33.22-2.26,49.8-3.52,19.35-1.48,36,4.58,51.75,14.74,1.38.89,2.73,2.29,4.52,1.42,9.89-4.8,20.88-3.73,31.26-5.93A76.17,76.17,0,0,1,426,175.28c6.26.37,12.35,1.8,18.93,2.88-2.94-11.78-5.94-23-8.44-34.34-.86-3.89-2.7-4.68-6.2-4.37a189.6,189.6,0,0,1-47.29-2c-15.69-2.57-31.58-1.82-47.38-2.42-34.63-1.32-69.27-2.44-103.9-3.54-6.86-.22-14,1.23-19.47-5.52-2.83,6.72-5.16,12.6-7.76,18.35-1.38,3-.36,4.29,2.62,4.74,12.17,1.85,24.27,4.51,36.51,5.43,23.13,1.74,46.3-.15,69.44-.68,17.66-.41,35.31-1,52.94.68,14.08,1.37,28,3.92,42.14,4.86C418,160,427.79,161.91,437.74,162.89ZM253.13,65.73a42.28,42.28,0,0,0,13.52.42c21.76-2.35,43.48-2.59,65.16,1.13,9.16,1.57,18.09,5,27.51,4.43,13.06-.82,25.93,1,38.87,1.88,4.94.35,9.94,2.07,12.38,6.5,5.36,9.74,12.24,18.62,16.22,29.15,3.05,8.08,6.8,15.89,10,23.93,1.27,3.23,3.7,2.63,5.75,2.13,2.9-.71.64-2.77.33-4C440,120,433.06,110.64,427.5,100.65a57.75,57.75,0,0,1-6.73-17.06c-2-10.09-5.66-19.5-12-27.68-10.71-13.79-22.55-26.69-32.62-41a8.57,8.57,0,0,0-6.28-3.58c-16.68-2.24-33.54-1.8-50.26-3.59-3.83-.41-7.9-.07-10.72,3.81C301.34,22,292.33,31.13,283.07,40,273.6,49,264.28,58.34,253.13,65.73ZM446.71,406.35c6.26-5.94,9.05-12.52,11.55-19.22,6.81-18.27,13.78-36.64,12.68-56.56-1.55-28.25-11.22-54.56-24.23-79-9.91-18.61-25.85-33.28-42.92-46.07-13.77-10.32-29.61-17.18-44.15-26.24-12.95-8.06-27.31-10.82-42.59-9.5-10.94.95-21.95,1.25-32.93,1.61a83.74,83.74,0,0,0-39.82,11.48c-12.93,7.44-24.49,16.51-35.88,26-6,5-8.39,12.46-14.31,17.36,7.76-6.21,17.09-9.66,25-15.22,10.23-7.18,21.47-11.83,32.9-16.47a41,41,0,0,1,21.47-2.75,46.84,46.84,0,0,0,19.74-1.72c33.22-9.7,62.62,1,89.89,18.48,12.9,8.25,24.21,19.28,34.87,30.58a29.39,29.39,0,0,1,4.31,5.47c8.86,15.6,19.06,30.4,26.16,47.06,9.2,21.6,11.86,44.18,9.37,67A195.28,195.28,0,0,1,446.71,406.35ZM653.52,144.13c.89-11.53-.33-23-1.36-34.4-.28-3.09-1.12-3.86-4.24-3.45-13.71,1.78-26.9,6-40.46,8.47-3.18.58-6.16,2.44-9.16,3.86-1.59.75-2.49,1.8-1.78,4,5.14,15.71,3.56,31.57.69,47.41-.48,2.63-.92,4.62,3,5.17,16.8,2.38,33.16,2,48.74-5.79,2.19-1.1,3.42-2.3,3.53-4.79C652.74,157.77,653.15,151,653.52,144.13ZM154.76,420.87c2,0,4,0,6,0,5.11-.08,6.68-2.88,4.24-7.4-2.13-3.95-4.3-7.88-6.18-11.95a4.28,4.28,0,0,0-4.51-2.9c-15.81,0-31.62-.41-47.42-.26-26.42.25-52.41-2.3-77.82-10.06-12.64-3.86-12.72-6-10.22,9.4,1,5.88,3.88,9.47,10.3,10.18a189.83,189.83,0,0,1,19.13,3.43c18,3.88,36,6.89,54.37,3.21a42.9,42.9,0,0,1,18.74.77C132.35,417.91,143.32,420.87,154.76,420.87Zm417-334.33c7.19-1,13.75-.41,19.55-3.3,10.66-5.3,22.21-7.9,33.4-11.58,1.88-.62,2.39-1.35,2.25-3.07-.34-4.26-2.62-7.86-4-11.75a1.37,1.37,0,0,0-1.93-1c-10.72,4.39-22.46,2.42-33.4,5.36-8.6,2.31-17.31,3.65-26.17,2.22-5.07-.82-10-2.51-15-3.42-12.13-2.17-12.66-1.62-13.26,10.66-.12,2.44.68,4.43,2.73,5.46C547.44,81.89,560.14,83.84,571.73,86.54Zm25.88,15.87c2-.09,4.32-.18,6.65-.3,12.22-.6,22.74-7.24,34.45-9.69,2.79-.58,1.63-2.21.5-3.6-2.94-3.62-6-7.13-8.76-10.9-2.14-3-4.61-3.34-7.81-2.21-5.17,1.83-10.3,3.91-15.62,5.12-7.37,1.67-13.51,6.29-21,7.78-16.3,3.26-31.29-1.61-46.17-6.94-4.27-1.53-7.66-3.45-10.67,1.87-1.43,2.53-4.05,4.37-6.07,6.59-3.68,4-3.67,4.11,1.63,5.5,9,2.35,18.2,1.57,27.3,2.47C567.12,99.61,582.12,101.81,597.61,102.41ZM536.23,54.48c6.92,1.36,12.87,2.09,18.55,3.74a49.74,49.74,0,0,0,26.58.67c4.34-1.09,8.82-1.64,13.23-2.47,6.71-1.27,13.65-.67,20.3-2.41,1.24-.32,3.09-.17,3.43-1.61.41-1.71-1.45-2.42-2.57-3.24-8.1-5.9-17.39-7.42-27-6.46A208,208,0,0,1,562.8,44C552.93,43.77,544.85,48,536.23,54.48ZM461.77,224.86l1.47-.14c-1.43-9.16-3-18.3-4.27-27.49a332.1,332.1,0,0,0-12.51-54.86c-1.18-3.76-3.53-3.72-6.07-3-2.91.83-.81,3.15-.43,4.48,4,14.05,6.45,28.52,11,42.42a53.68,53.68,0,0,1,2.84,12.61C454.58,208.15,458.55,216.39,461.77,224.86ZM183,91.85c10.4,3.41,20.39,3.58,30.25,4.63a3.07,3.07,0,0,0,3.07-1.18c6.79-8.94,13.89-17.61,23.18-25.28-5,0-9.27-.72-9.71,5.4-.14,2-2.49,3-4.2,4a55.25,55.25,0,0,1-17.51,7C200,88.06,191.92,89.91,183,91.85Z" transform="translate(-5.69 -4.16)"/><path d="M181.16,156.09c-11.11,1.14-22.5,2.92-33.94,3.35-27.6,1-55.12.54-82.51-4.23-14-2.45-28.45-2.7-42.48-5.67a18.35,18.35,0,0,1-9.41-5.24c-.62-.61-1.16-1.39-.66-2.18a1.34,1.34,0,0,1,2.16-.12c7.78,7.37,18.11,6.56,27.35,7.25,21.25,1.6,42.15,6.2,63.43,7,18.93.72,37.88,1.68,56.79-.92,9.33-1.28,18.76-1.8,28.14-2.69.68-.06,1.41-.23,1.66.52.3.9-.3,1.55-1,2.08C187.77,157.41,184.51,155.47,181.16,156.09Z" transform="translate(-5.69 -4.16)"/><path d="M99.8,50.33c2.29.08,3.68.67,2,3.25a9.63,9.63,0,0,1-4.36,3.95c-6.32,2.62-12.67,5.15-19.58,5.6A149.29,149.29,0,0,1,43.56,60.9a21.18,21.18,0,0,1-5.22-1.62c-5.31-2.42-5.77-5.82-1.65-10,9.47-9.64,21.23-11.25,34-10.72,10.61.44,19.49,4.94,28.4,9.78A1.92,1.92,0,0,1,100,50.5a9.25,9.25,0,0,1-6.58-1.89c-10-7-21.36-6.47-32.7-6.45a29.32,29.32,0,0,0-20,7.85c-1.41,1.25-3.91,2.2-3.31,4.47.55,2.07,3,2.53,4.9,3,9.46,2.21,19.12,2.36,28.78,2.65,8.52.25,16.47-1.82,24.24-5C97.58,54.17,99.57,53.11,99.8,50.33Z" transform="translate(-5.69 -4.16)"/><path d="M105.16,130.92c.45,5.68-2.26,8-6.91,8.42-1.27.11-2.95.49-3.26-1.33-.27-1.54,1.24-1.93,2.34-2,5-.32,5-3.24,3.86-7-.73-2.46-2-4.6-.08-7.62,1.33-2.12.7-5.74-3.93-5.12a66.79,66.79,0,0,1-8.48.28c-1.07,0-2.7.35-2.66-1.34,0-1.48,1.56-1.47,2.71-1.54,3.49-.19,7-.32,10.47-.52,4.07-.24,4.67,3,6.23,7.35,3.22-3.63,5.8-6.76,8.63-9.64,1.12-1.14,2.57-3.6,4.4-1.64,1.53,1.63-.75,2.88-1.83,4-3.39,3.44-6.79,6.86-10.31,10.17-2,1.88-2.24,3.28.61,4.3,6.21,2.22,11.47,8,19.08,5a1.42,1.42,0,0,1,1.95,1c.34,1.24-.5,1.91-1.45,2.24-3.52,1.22-7,1.91-10.64.07C112.53,134.39,109.1,132.82,105.16,130.92Z" transform="translate(-5.69 -4.16)"/><path d="M17.25,71.68c6.7-3.76,8.68-10.79,13.81-15.21,1.48,2.2,0,3.56-.88,4.77-2.08,3-.75,3.61,2.09,4.5,8.4,2.65,16.82,2.88,25.58,2.4,12.88-.7,25.75-1.58,38.7-2.87,0,3.31-2.08,3.19-3.83,3.42-12.37,1.65-24.85,1.81-37.27,2.77a57.47,57.47,0,0,1-24-3.15c-3.15-1.12-5.62-1.2-7.78,1.87C22.46,71.9,20.72,73.47,17.25,71.68Z" transform="translate(-5.69 -4.16)"/><path d="M159.09,127.91c2.37.5,4.57,1.76,4.66,4.62.13,3.78-3.09,4.46-5.79,4.66-2.87.21-5-1.22-5.11-4.63C152.72,128.17,156.31,128.78,159.09,127.91Z" transform="translate(-5.69 -4.16)"/><path d="M173.86,126.81c-.32-1.47-4.13-2.33-.78-4.09,1.53-.8,3.32.1,4.34,1.61,1.5,2.22.6,4.19-1.12,5.75a17.51,17.51,0,0,1-4.45,3.1c-1.52.68-3.35.72-4.46-1a3.56,3.56,0,0,1,.31-4.19c1.26-1.82,2.39-1.79,4-.14C173,129.31,173.46,127.78,173.86,126.81Z" transform="translate(-5.69 -4.16)"/><path d="M147.81,131.47c-.92,1.57,1.4,5.89-2.11,5.48-3.18-.37-1.29-4.38-1.31-6.83a10.2,10.2,0,0,1,.36-1.94c.22-1.16.46-2.5,2-2.32s1.41,1.57,1.36,2.73C148,129.42,147.93,130.23,147.81,131.47Z" transform="translate(-5.69 -4.16)"/><path d="M327.36,475.71c-11-1.9-21.95,1.81-33.14,3.15-17,2-33,.76-48.84-7.57-15-7.91-29.09-16.76-41.85-27.81-21-18.16-32.66-41-35.68-68.67a299,299,0,0,1-.8-58.81c2.24-25.42,14.2-46.16,33.81-62.36,6.29-5.2,12.77-10.16,18.94-15.52,7.33-6.37,16.58-8.21,25.69-10.22,22.37-4.93,44.81-5.92,67.41-1.4a95.19,95.19,0,0,1,16.71,5c31.31,12.52,57.3,32,77.35,59.26,8.32,11.33,10.64,24.54,13.3,37.77a166.86,166.86,0,0,1,.08,64.95c-4.31,22.69-16.63,39.91-32.75,55.23-3,2.87-6.44,5.37-9.14,8.51C365,472.82,347.33,476.58,327.36,475.71Zm92.82-109.64c.25-19.19-2.78-34.36-6.12-49.49-1.85-8.36-4.65-16.25-9.76-23.29-19.92-27.44-46-46.72-77.47-59A79.42,79.42,0,0,0,314,230.4a158.19,158.19,0,0,0-65.91.74c-8.8,1.9-17.66,3.49-25.11,9.07-16.05,12-30.51,25.59-41.44,42.65-3,4.67-5.75,9.32-7.09,14.74a235.63,235.63,0,0,0-4.63,26.53c-2.23,17.51-.48,34.91,1.32,52.32,2.58,25,13.34,45.7,31.9,62.53,16.73,15.17,35.82,26.4,56.71,34.81a36.57,36.57,0,0,0,12.61,2.66,128.25,128.25,0,0,0,24.9-1.56,172.07,172.07,0,0,1,35.2-2.59c14.34.59,28.2-2.22,39.11-13,4.73-4.69,9.8-9,14.54-13.71,13.51-13.36,25.67-27.58,29.66-47C418.16,386.66,420.84,374.78,420.18,366.07Z" transform="translate(-5.69 -4.16)"/><path d="M256.13,106.88a18.49,18.49,0,0,1,5.87,5.55c.65,1,1.41,2,.19,3a1.82,1.82,0,0,1-3-.63c-2.54-5.31-8.09-4.58-12.38-6.31-3-1.22-2.16,1.33-2.31,2.78-.13,1.25.39,3.05-1.53,3.09s-1.64-1.81-1.69-3c-.18-4.48-.21-9-.34-13.44-.08-2.85,1.37-4.06,4.09-4.61a86.19,86.19,0,0,1,13.86-1.22,7,7,0,0,1,7.53,5.34c1,3.88-2.08,5.55-5,7C259.88,105.23,258.2,105.94,256.13,106.88Zm1-11.35c-3,.3-5.93.8-8.9.84-4,.05-3.87,2.64-4,5.42-.13,3.93,2.8,2.52,4.53,2.46a23.78,23.78,0,0,0,9.56-2.41c1.76-.87,4.88-1,4.21-3.89C262,95.48,259.38,95.45,257.14,95.53Z" transform="translate(-5.69 -4.16)"/><path d="M301,104.35c0,2.59,0,5.19,0,7.78a1.51,1.51,0,1,1-3,.13A77,77,0,0,0,296.11,99a1.76,1.76,0,0,1,.76-2.16c1.45-.71,2.56.08,3.56,1,4.24,4,8.46,8,12.71,11.93.78.73,1.24,2.35,2.62,1.75,1.17-.51,1-2,1.08-3.14.31-3.31.53-6.62.89-9.92.14-1.34.56-2.9,2.29-2.66,1.54.21,1.24,1.68,1.13,2.83-.41,4.3-.78,8.59-1.23,12.88-.21,2-.4,4.22-2.62,5-2.5.84-4-1.13-5.42-2.71-3.12-3.45-6.14-7-9.2-10.48Z" transform="translate(-5.69 -4.16)"/><path d="M378.75,109.89c-.14,1.76-1,3.19-2.47,2.2-4.71-3.17-10.77-.83-15.51-4.19-1.52-1.07-2.41,2-3.77,2.93s-1.91,3.45-3.88,1.79.2-2.94,1.1-4.11c2.93-3.82,6-7.5,9-11.34,2.22-2.93,4.34-3.48,6.69-.27,2.55,3.49,5.1,7,7.59,10.5A19.05,19.05,0,0,1,378.75,109.89Zm-6.32-3.5c-2.21-2.63-3-6.27-5.71-6.56-2.19-.23-3.36,3-4.39,5.44C365.53,105.7,368.33,107,372.43,106.38Z" transform="translate(-5.69 -4.16)"/><path d="M335.59,274.29c.06-1.59-3-2.67-1.18-4.25s3,.61,4.14,1.6c30,25,44,56.64,36.95,95.43C372.6,383.14,362,395.46,346.24,402a114.79,114.79,0,0,1-38.23,8.9,60.7,60.7,0,0,1-22.58-3.51A151.81,151.81,0,0,1,245,387.06c-11.3-8.15-16.93-20.17-18-33.77-1.6-20,3.27-39,13.06-56.12,8.61-15.11,23.21-22.23,40.28-24.59a217.81,217.81,0,0,1,24.86-2.18c1.94,0,5.07.47,5.46-1.9.3-1.86-2.6-2.75-4.43-3.38-10.49-3.63-21.2-5.9-32.34-3.73-11,2.13-21.72,4.78-31.71,10.14a44,44,0,0,0-17.69,17.13,131.11,131.11,0,0,1-10.17,15.41c-8.4,10.7-10.46,23.53-12.39,36.41-.37,2.47-.54,5-1,7.42-2.23,11.63,1,22,6.92,31.91,9.32,15.69,19.68,30.51,34,42.16,4.21,3.43,8.73,6,14.15,7,19.17,3.3,38.1,7.95,57.51,9.84,9.92,1,18.81-1.48,27.75-6.13,10.81-5.63,21-11.41,27.59-22.14,6.41-10.48,11.49-21.29,11.49-34,0-13.32,1.11-26.62.55-40-.21-5.12-.52-9.94-3.79-14.14-.8-1-2-2.39-.49-3.45s2.32.58,3.16,1.54a16.08,16.08,0,0,1,4.38,9.85c.95,18.49,1.85,37.22-1.61,55.29-3.89,20.34-14,37.73-34.36,46.78-6.66,3-12.46,7.73-19.87,9.13-10.71,2-21.35.86-31.74-1.43-13.34-2.93-26.86-4.76-40.2-7.57A35.9,35.9,0,0,1,240.23,425c-18.41-15.39-31.45-34.69-41.14-56.4-3.27-7.34-1.74-15.1-1-22.7,1.72-18.49,5.62-36.22,18.29-50.8a16.78,16.78,0,0,0,2.36-3.82c7.93-16.68,22.17-24.93,39.13-30,15.56-4.62,31-6,46.58-.56a26.15,26.15,0,0,1,7.17,3.45c1.66,1.23,3.17,4.56,5.46.57.13-.23,1.25-.24,1.32-.09a2.81,2.81,0,0,1,.31,1.84c-1.28,3.74-4.21,5.49-7.92,5.93-8.75,1.05-17.53,1.91-26.28,3-3.46.43-6.84,1.49-10.3,1.87-12.74,1.42-18.45,10.1-21.32,21.14-6.32,24.36,1.42,45.93,14.35,66.13,4.42,6.9,10.65,12.25,17.08,17.4,10.22,8.2,21.73,10.88,34.22,8.22,15.1-3.22,30.41-6,44.12-13.77,1-.59,2.15-1.4,3,0,.74,1.21-.05,2.27-1.08,3a30,30,0,0,1-3.47,2c-14.38,7-29.88,10.27-45.45,12.91-15.76,2.67-28.56-4.08-39.79-14.51-20.17-18.72-28.56-42.41-28.77-69.32-.05-7.06,2.2-14,5.23-21.5-6.72,4.07-9.75,9.66-12.15,15.5-5.08,12.34-9.21,24.94-9.95,38.47-1.07,19.76,5.37,35.43,23.18,45.66,8.39,4.82,17.11,8.9,25.87,13,19.85,9.19,39.36,5.94,59.36,0,20.54-6.14,35.52-28.07,35.6-49.06.11-28.26-11.17-51.22-29.56-71.49a29,29,0,0,0-9.19-6.8Z" transform="translate(-5.69 -4.16)"/><path d="M388,312.44c-14.77-15.8-29.74-31.31-44.44-47.07s-33.19-21.73-54-20.65a362.77,362.77,0,0,0-39.16,4.67,53.81,53.81,0,0,0-28,13.41c-6.27,5.71-13.64,10.26-18.66,17.28-16.45,23-24.27,48-19.82,76.63,2.34,15,4.63,29.92,10,44.18a35.93,35.93,0,0,0,3.57,7.66c15.13,22.13,36,37,60.46,47.17,8.24,3.42,17.31,3.42,26,4.2,14.71,1.33,29.41,3.36,44.3.87a51.62,51.62,0,0,0,25.89-12c8.45-7.29,16.69-14.83,25.1-22.17,6.33-5.53,10.19-12.38,12.89-20.36,7-20.73,8.43-41.93,6.83-63.53a36.6,36.6,0,0,0-2.22-10.21,46.66,46.66,0,0,1-3-12.59,22.19,22.19,0,0,0-5.14-12.76c-.78-.93-2.7-1.64-1.14-3.09,1.38-1.28,2.91-.22,3.91.92a19.82,19.82,0,0,1,5.27,10.58c.78,6.31,2.5,12.34,4.17,18.45,2.89,10.56,2.89,21.5,1.74,32.27-1.52,14.17-2.06,28.5-7.6,42.08-3.15,7.73-6.75,14.78-13.05,20.32-8.51,7.48-17,15-25.47,22.51-9.22,8.1-20.13,11.86-32.24,13.21-16.09,1.79-31.89-.82-47.75-2.44-5.6-.57-11.4-.46-16.75-2.46-26.74-10-49.28-25.85-64.77-50-6.89-10.76-9.53-23.7-11.32-36.46-2.2-15.64-5.79-31.34-2.62-47.15,4.28-21.33,11.93-41.24,28.4-56.55,10-9.33,20.38-18.14,34-22.14,9.7-2.86,19.77-2.63,29.61-4.22,12.55-2,25.17-3.14,37.72-.31,12.38,2.79,23.44,8.14,32.6,17.28C357,273.48,369.15,288.26,382,302.46,384.65,305.38,387,308.51,388,312.44Z" transform="translate(-5.69 -4.16)"/><path d="M335.45,274.13l.18,1.39c-5.55-.64-11.23-.62-16.56-2.45l.2-1.23,16.33,2.45Z" transform="translate(-5.69 -4.16)"/></svg>