<svg id="Layer_1" data-name="Layer 1" xmlns="http://www.w3.org/2000/svg" viewBox="0 0 647.42 141.33" style=""><title>city</title><path d="M903.6,599c.14-.15.37-.13.38-.48.1-3.81,0-7.6-.23-11.4s-.61-7.59-.81-11.4c-.11-2.08-.18-4.17-.25-6.24-.05-1.67.06-3.36.06-5,0-4.2.08-8.4,0-12.6a44,44,0,0,1,.27-8.64c.32-1.85.74-3.68,1.07-5.52a23.68,23.68,0,0,0,.23-7.2,6,6,0,0,0-.6-1.91c-.92-1.82-2.56-2.19-4.42-2.05s-3.76-.19-5.64-.21a22.6,22.6,0,0,0-5.89.29,2.06,2.06,0,0,0-1.67,1.84,20,20,0,0,0-.08,5.64c.19,2.4.1,4.81.22,7.2.35,7,.18,13.92.2,20.88,0,.32.44,1-.45,1" transform="translate(-351.86 -464.47)" fill="none" stroke="#000" stroke-linecap="round" stroke-linejoin="round" stroke-width="2" class="mTrJQQYC_0"></path><path d="M617,599.76a60.56,60.56,0,0,0,0-9.36c-.13-3-.07-6,0-9,.1-2.8.3-5.59.18-8.4-.21-4.8.22-9.6.23-14.4a23.11,23.11,0,0,0-.36-3.48c-.08-.52-.32-.81-.85-.84-4.16-.21-8.3-.83-12.48-.84-1.62,0-1.66.11-1.82,1.68-.3,3-.68,5.93-1.07,8.88a81,81,0,0,0-.94,9.48c0,3,.07,6.08,0,9.12-.2,6.12,0,12.24-.1,18.36" transform="translate(-351.86 -464.47)" fill="none" stroke="#000" stroke-linecap="round" stroke-linejoin="round" stroke-width="2" class="mTrJQQYC_1"></path><path d="M716.16,591a7,7,0,0,1-.6-4.92.18.18,0,0,0,0-.12c-1.1-1.84-.27-3.76-.22-5.64a6.65,6.65,0,0,0-.87-3.71,16.63,16.63,0,0,1-1.31-3.73,7.38,7.38,0,0,1-.23-.72c-.16-.77-.48-1.47-1.33-1.53s-1.05.77-1.32,1.41a8,8,0,0,1-6.6,4.44,3.23,3.23,0,0,1-3.36-2.88c-.31-1.54-.48-1.73-1.8-2a2.36,2.36,0,0,0-.69,1.33,7.77,7.77,0,0,1-1.72,3.23,13.83,13.83,0,0,0-3.12,9.12c0,.78,0,.78-.48,1" transform="translate(-351.86 -464.47)" fill="none" stroke="#000" stroke-linecap="round" stroke-linejoin="round" stroke-width="2" class="mTrJQQYC_2"></path><path d="M430.32,549.72c.44-2.23-.39-3.37-2.76-3.37a9.64,9.64,0,0,1-4.8-1.32,14.26,14.26,0,0,0-3.73-1.3c-1-.23-1.36.07-1.43,1.07-.22,3.12-.41,6.24-.61,9.36-.28,4.6-.57,9.2-.83,13.8-.06,1.12,0,2.24,0,3.36a2.78,2.78,0,0,1-1.33,2.39,5.85,5.85,0,0,0-1.69,1.8c-.41.67-.86,1.25-1.91,1-1.79-.43-2.37,0-2.85,1.89s-.83,3.83-1.21,5.76a2.28,2.28,0,0,1-1.45,1.92" transform="translate(-351.86 -464.47)" fill="none" stroke="#000" stroke-linecap="round" stroke-linejoin="round" stroke-width="2" class="mTrJQQYC_3"></path><path d="M484.8,550.92a44.49,44.49,0,0,1-.49-4.8,1.68,1.68,0,0,0-.83-1.8c-.55-.27-.61-.78-.6-1.32s0-1.36,0-2c0-.85-.06-1.64-1.09-1.79a1.8,1.8,0,0,0-1.91,1.67,10.56,10.56,0,0,1-.14,1.44c-.19.7,0,1.62-1.3,1.62-.61,0-.82.76-.72,1.39a25.58,25.58,0,0,1,.11,5.16,2.53,2.53,0,0,1-.13.84,1.11,1.11,0,0,1-1.31.73c-.7-.11-.84-.58-.85-1.2a3.06,3.06,0,0,0-.21-1.57c-.32-.58-.67-1-1.34-.94s-1.08.67-1.18,1.32a14.49,14.49,0,0,0,0,1.8c0,1.19-.39,1.58-1.56,1.54-1,0-1.16.44-1.51,1.31-.76,1.84-.1,3.63-.23,5.43-.23,3.11-.11,6.24-.19,9.36,0,1.19.26,2.51-1.23,3.22-.37.17-.23.88-.19,1.34.08,1,.34,1.87-.43,2.81-.37.45-.22,1.4-.16,2.11a12.84,12.84,0,0,1-.44,5.42,13.09,13.09,0,0,0-.29,3.58c0,.92-.11,1.85-.08,2.76a1.46,1.46,0,0,1-1.37,1.67,21.56,21.56,0,0,1-2.76.36,1,1,0,0,1-1.2-.95,9.84,9.84,0,0,1-.11-1.08c0-3.68,0-7.36,0-11,0-4.2.15-8.4.23-12.6q.11-5.58.24-11.16c0-1,.12-2.08.11-3.12,0-1.58-.68-2.11-1.9-1.76s-2.56-.23-3.85-.19c-.52,0-.85-.54-1.08-1a6.15,6.15,0,0,0-2.88-2.88,1.47,1.47,0,0,0-1.92.24c-.31.33-.65.63-1,1a4.69,4.69,0,0,1-3.12,1.84c-.88.08-1.44.93-1.91,1.65a7.05,7.05,0,0,1-4.1,3.09c-1.18.32-2,.73-2.07,2.18a1.53,1.53,0,0,1-1.88,1.32,1.89,1.89,0,0,1-1.68-1.68c-.14-1.46.3-2.87.25-4.32a1.93,1.93,0,0,0-2.16-1.94c-2.86,0-5.64,1-8.52.75-.76-.07-1,.32-1.24,1.06-.93,2.79.17,5.46.32,8.17a52.76,52.76,0,0,1-.39,8.28c-.14,1.36-.3,2.72-.35,4.08-.19,4.72-.34,9.44-.49,14.16a22.45,22.45,0,0,0,.23,3.84c.16,1.16-.37,1.54-1.55,1.59a13.59,13.59,0,0,1-4.55-.67,2.81,2.81,0,0,0-3.49,1.35c-.6.88-1.23,1.74-1.79,2.65a1.4,1.4,0,0,1-1.21.73c-3,.32-5.92.39-8.88.45-2.8.06-5.6.15-8.4.11-3.52-.05-7.05-.09-10.55-.41a13.1,13.1,0,0,1-4.23-.84,7.77,7.77,0,0,0-8.73,2.24,28.43,28.43,0,0,1-1.92,2.28,2,2,0,0,1-1.93.46c-2-.45-3.93-.93-5.88-1.43-1.19-.3-2.42.3-3.36,1.68a7.65,7.65,0,0,0-.85,2c-.24.76-.24,1.75-1.42,1.83-.11,0-.2.37-.3.57" transform="translate(-351.86 -464.47)" fill="none" stroke="#000" stroke-linecap="round" stroke-linejoin="round" stroke-width="2" class="mTrJQQYC_4"></path><path d="M791.52,534.84c-1.6.12-3.08.8-4.68,1a32,32,0,0,1-7.92-.49c-3.48-.48-6.83-1.6-10.32-2.06-1.63-.22-2.14.18-1.9,1.81a10.51,10.51,0,0,1,.09,1.44q.07,5.7.12,11.4a2.72,2.72,0,0,1-.24,1.56" transform="translate(-351.86 -464.47)" fill="none" stroke="#000" stroke-linecap="round" stroke-linejoin="round" stroke-width="2" class="mTrJQQYC_5"></path><path d="M493.2,477.72c1.06,1.28.69,2.87.93,4.32a23.63,23.63,0,0,1,.15,3.24c0,.76-.17,1.54.82,2a1.36,1.36,0,0,1,.58,1.15c-.33,2,1.15,3.18,2.24,4.41a6.76,6.76,0,0,1,1.66,3.87,48.3,48.3,0,0,1-.24,10.2q-.59,6.7-.52,13.44c0,3.24-.14,6.48-.21,9.72a2.87,2.87,0,0,0,.11.6" transform="translate(-351.86 -464.47)" fill="none" stroke="#000" stroke-linecap="round" stroke-linejoin="round" stroke-width="2" class="mTrJQQYC_6"></path><path d="M652.08,577.92a1.27,1.27,0,0,0-1.08.36c-1.81,1.71-4.24,2.24-6.37,3.34a1.35,1.35,0,0,1-1.08.18,2.41,2.41,0,0,0-1.68.19c-1.4.64-2.12.16-2.15-1.42s0-3.12,0-4.68c0-1-.13-2-.1-3s-.31-1.27-1.21-1.34c-1.92-.15-3.85-.34-5.76-.6s-1.79.1-2.05-2.15a61.84,61.84,0,0,1,.12-10.56c.15-2.84.2-5.68.24-8.52a1.6,1.6,0,0,0-1.9-1.77,19.56,19.56,0,0,0-2,.11c-1,.24-1.21-.32-1.2-1.1a19.12,19.12,0,0,1,.14-2.88,24.19,24.19,0,0,0,.22-4c0-1.91-.77-2.54-2.64-2.15-.61.13-1.19.35-1.8.47a1.23,1.23,0,0,1-1.68-1.07c-.41-1.61-.65-1.81-2.28-1.8a20.12,20.12,0,0,1-5.76-1c-1.37-.4-1.64-.16-1.8,1.31a5.53,5.53,0,0,1-.13,1.08c-.17.55-.4,1-1.19.74a4.58,4.58,0,0,0-4.47.65c-2.56,1.73-5.59,1.81-8.6,1.5" transform="translate(-351.86 -464.47)" fill="none" stroke="#000" stroke-linecap="round" stroke-linejoin="round" stroke-width="2" class="mTrJQQYC_7"></path><path d="M593.16,561.54c-.62.23-.48-.24-.47-.54,0-1,.11-1.92.11-2.88,0-2.28,0-4.56-.12-6.84a41.72,41.72,0,0,1,1.11-11.16,30.12,30.12,0,0,0,.58-8.4,4.1,4.1,0,0,0-4.31-4.09c-3.12-.07-6.24-.24-9.36-.34a14.39,14.39,0,0,0-2.28.12c-1.68.22-2.48,1.09-2.49,3.11,0,3,.12,6,.22,9,.05,1.64.2,3.28.23,4.92,0,3.16.09,6.32.21,9.48s-.15,6.16-.19,9.24c0,3.32,0,6.64-.22,10-.16,2.43-.06,4.88-.12,7.32-.12,5.28-.11,10.56-.15,15.84" transform="translate(-351.86 -464.47)" fill="none" stroke="#000" stroke-linecap="round" stroke-linejoin="round" stroke-width="2" class="mTrJQQYC_8"></path><path d="M388.5,572a13.53,13.53,0,0,1-2.47,5.27,13.47,13.47,0,0,0-3,9.49,28.42,28.42,0,0,1-.12,3.48,4,4,0,0,1-2,3.36,2.41,2.41,0,0,0-1.2,1.81" transform="translate(-351.86 -464.47)" fill="none" stroke="#000" stroke-linecap="round" stroke-linejoin="round" stroke-width="2" class="mTrJQQYC_9"></path><path d="M486.24,497.4a18.79,18.79,0,0,1-.29,6.11c-.6,4.26-1.6,8.47-2.19,12.73-.5,3.62-1.06,7.25-1.25,10.91a70.9,70.9,0,0,1-.54,7.43c-.17,1.11.18,2.09.07,3.13,0,.44-.08.88-.12,1.32" transform="translate(-351.86 -464.47)" fill="none" stroke="#000" stroke-linecap="round" stroke-linejoin="round" stroke-width="2" class="mTrJQQYC_10"></path><path d="M526.44,568.74c.76.77.72,1.73-.25,2.2a1.92,1.92,0,0,0-1.22,2.67,2.54,2.54,0,0,1-.81,3.11,1.89,1.89,0,0,0-.58,1.68,66.17,66.17,0,0,0,0,8.4,6.32,6.32,0,0,1-.08,1.92c-.1.46-.28,1-.63,1-1.13.16-1.36,1-1.55,1.84-.16.72-.77.83-1.33.94s-.69-.33-1-.68a4.72,4.72,0,0,1-1-4.47,20.77,20.77,0,0,0,.28-3.95,1.62,1.62,0,0,0-1.31-1.92c-.84-.18-1.06-.78-1.09-1.56a43.42,43.42,0,0,1,.35-5.28,73.34,73.34,0,0,1,1.29-7.81c.35-1.76-.22-3.59-.31-5.39a77.36,77.36,0,0,1-.28-9.24,17.89,17.89,0,0,0-.46-3.54c-.43-.18-.86-.37-1.31-.54a.93.93,0,0,1-.59-1c-.05-2.31-.33-2.69-2.41-3a6.05,6.05,0,0,1-2.19-.43c-.55-.29-1.41.08-2.13,0-2.61-.12-3.29.77-3.46,3.37a2.44,2.44,0,0,1-.61,1.8.9.9,0,0,0-.25.72c.1,4.17-.79,8.3-.59,12.48.16,3.36.44,6.72.58,10.08a30.5,30.5,0,0,1-.7,6.48,10.59,10.59,0,0,0-.12,1.56c0,1.38-.73,1.82-1.92,1.2a3.85,3.85,0,0,1-.48-.36" transform="translate(-351.86 -464.47)" fill="none" stroke="#000" stroke-linecap="round" stroke-linejoin="round" stroke-width="2" class="mTrJQQYC_11"></path><path d="M492.72,477.72c-1,.77-.93,1.93-1.07,3a77,77,0,0,1-1.19,8.76c-.23.9-.47,1.42-1.57,1.49a2.28,2.28,0,0,0-2.05,1.86,14.53,14.53,0,0,0-.49,3.6c0,.29.3.89-.46.78" transform="translate(-351.86 -464.47)" fill="none" stroke="#000" stroke-linecap="round" stroke-linejoin="round" stroke-width="2" class="mTrJQQYC_12"></path><path d="M829.44,591.48c-1.74-1.7-1.82-3.78-1.45-6a26.28,26.28,0,0,0,.25-2.88,1.75,1.75,0,0,0-1.31-2.05c-1-.29-1-1.19-1.08-2a44,44,0,0,1,.5-6.12,44.52,44.52,0,0,1,1.24-6.74,8.82,8.82,0,0,0-.2-3.46,51.76,51.76,0,0,1-.43-6.84,28.21,28.21,0,0,1,0-4.21,20.25,20.25,0,0,0-.25-2.87c0-.59-.52-.69-1-.84-.73-.26-1.23-.66-1.09-1.56.28-1.87-.91-2.44-2.63-2.63a5.16,5.16,0,0,1-1.57-.33,7.26,7.26,0,0,0-3.22-.1c-2.13.1-2.63.79-2.77,2.94a4.9,4.9,0,0,1-.68,2.42,3.35,3.35,0,0,0-.27,1.66c-.06,4.08-.66,8.14-.51,12.24.13,3.52.71,7,.48,10.56-.16,2.41-.49,4.81-.84,7.2-.17,1.15-.85,1.23-2.26.36" transform="translate(-351.86 -464.47)" fill="none" stroke="#000" stroke-linecap="round" stroke-linejoin="round" stroke-width="2" class="mTrJQQYC_13"></path><path d="M784,546.84c.09.21.13.4.42.49,1,.35,1.14,1.23,1.08,2.15s0,1.42,1.08,1.45,1.12-.48,1.23-1.33c.24-1.77-.16-3.52,0-5.29,0-.7,0-1.32,1-1.45s.91-.93.93-1.55a14.57,14.57,0,0,1,.3-1.8,2.48,2.48,0,0,1,2-1.44,1.93,1.93,0,0,1,.94,2,12.33,12.33,0,0,0-.1,1.93,1.23,1.23,0,0,0,.6,1.19,1.74,1.74,0,0,1,.83,1.93,9.66,9.66,0,0,0,.3,3,5.7,5.7,0,0,1,.06,2.29,2,2,0,0,0,.72,2.41c.41.28.38.75.36,1.19-.05,1.2.06,2.4-.09,3.6-.1.77-.16,1.59.93,1.94s.73,1.38.82,2.14c.11.93,0,1.85.7,2.68.33.37.27,1.16.26,1.76s.29,1.1.86,1.17a.87.87,0,0,1,.82,1c0,3.94,1,7.8.75,11.76-.22,2.92-.45,5.84-.46,8.76s-.08,5.83.9,8.65c.24.69.58,1,1.23.95,1.77,0,3.52.12,5.28.23,1.35.09,1.57-.17,1.56-1.55q-.05-7-.12-14c0-.4-.1-.8-.11-1.2,0-.64,0-1.25.83-1.46a.84.84,0,0,0,.62-.94c0-1.92-.16-3.84-.23-5.76-.13-3.93-.62-7.84-.88-11.76-.21-3.2-.53-6.4-.69-9.6-.13-2.56-.12-5.12-.13-7.68,0-3.88-.05-7.76,0-11.64.06-4.24.36-8.48.3-12.72,0-2.36.15-4.72.07-7.08a80.93,80.93,0,0,1,.57-8.64c.24-3.36.56-6.72-.1-10.08a4.55,4.55,0,0,0-1.08-2.29c-.42-.46-.83-.95-1.25-1.4a4.78,4.78,0,0,1-1.51-3.4c0-.36,0-.82-.26-.93-1.36-.63-.93-1.91-1-2.91-.16-1.59-.17-3.2-.39-4.8a3.51,3.51,0,0,0-1-2.51c-1.43,1.26-1.22,3.07-1.41,4.68-.3,2.56-.49,5.14-1,7.67a1.51,1.51,0,0,1-1.43,1.34,2.32,2.32,0,0,0-2.38,2.15,23.17,23.17,0,0,0-.42,4.44,40.43,40.43,0,0,1-.69,8.4c-.6,3.56-1.21,7.12-1.8,10.68-.53,3.22-1,6.46-1.2,9.72-.2,2.68-.21,5.39-.67,8-.27,1.57.4,3.06,0,4.57" transform="translate(-351.86 -464.47)" fill="none" stroke="#000" stroke-linecap="round" stroke-linejoin="round" stroke-width="2" class="mTrJQQYC_14"></path><path d="M771.3,549.12c-.16.51-.58.49-1,.64-1.47.51-2.9,0-4.33-.08-.76,0-1.1-.87-1.44-1.52a6.06,6.06,0,0,0-2.16-2.28,1.9,1.9,0,0,0-2.88.36c-.43.49-.89,1-1.32,1.44a2.11,2.11,0,0,1-1.56.73,2.75,2.75,0,0,0-2.17,1.3,8.34,8.34,0,0,1-4.9,3.63,2.05,2.05,0,0,0-1.83,2,1.48,1.48,0,0,1-1.65,1.32,1.58,1.58,0,0,1-1.66-1.68c0-1.12.24-2.24.33-3.36a3.76,3.76,0,0,0-.25-1.91,2.27,2.27,0,0,0-2.51-1.09c-1.34.16-1.49,0-1.68-1.2-.23-1.51-.8-2-2.28-2a12.35,12.35,0,0,1-5.17-1.3,12.71,12.71,0,0,0-3.95-1.38c-.87-.1-1.13.19-1.2.89-.15,1.64-.25,3.28-.37,4.92-.2,3-.39,5.93-.69,8.88-.26,2.59-.29,5.2-.38,7.8q-.1,2.7-.12,5.4a2.8,2.8,0,0,1-1.35,2.25,4.29,4.29,0,0,0-1.56,1.7,1.83,1.83,0,0,1-2,1c-2.05-.16-2.43.11-2.88,2.17s-1,4.07-1.29,6.13a3,3,0,0,1-1.35,2" transform="translate(-351.86 -464.47)" fill="none" stroke="#000" stroke-linecap="round" stroke-linejoin="round" stroke-width="2" class="mTrJQQYC_15"></path><path d="M928,557.22c-.34.19-.44,0-.48-.3-.06-.44-.07-.88-.13-1.32-.31-2.23,0-2.24-2.52-2.39-2.68-.17-5.35-.55-8-.65-1.24,0-2.48,0-3.72-.07-.79,0-1.06.45-1.09,1.19a52,52,0,0,1-.58,6c-.4,2.67-.74,5.36-1.09,8A89.59,89.59,0,0,0,910,579c0,1,0,1.92,0,2.88,0,.3.15.77-.48.54" transform="translate(-351.86 -464.47)" fill="none" stroke="#000" stroke-linecap="round" stroke-linejoin="round" stroke-width="2" class="mTrJQQYC_16"></path><path d="M829.44,591.84s0-.11,0-.12c1.24-.34,2.2-.91,2.18-2.4,0-.12.29-.32.46-.35,1.43-.18,1.43-1.23,1.44-2.29,0-3.2-.3-6.4.1-9.6.08-.61.08-1.17.62-1.56,1-.72,1-1.7.73-2.76-.39-1.6-.25-2,1.21-2.85a1.39,1.39,0,0,0,.81-1.58c-.15-.89-.3-1.73.5-2.4a.45.45,0,0,0,.11-.48c-.53-3.35-.08-6.72-.24-10.08a25.18,25.18,0,0,1-.12-4.18c.27-2.1.15-4.18.23-6.26.1-2.84.09-5.68.14-8.52,0-2.36.21-4.73.09-7.08-.18-3.73.17-7.44.15-11.16,0-2.64,1.08-3.44,3.72-2.9a18.82,18.82,0,0,1,3.47,1.11,18,18,0,0,0,6.36,1.19,1.82,1.82,0,0,1,1.49.4c.06.84.17,1.84.18,2.84.06,6.12.13,12.24.11,18.36,0,4.2-.15,8.4-.23,12.6" transform="translate(-351.86 -464.47)" fill="none" stroke="#000" stroke-linecap="round" stroke-linejoin="round" stroke-width="2" class="mTrJQQYC_17"></path><path d="M485.4,550.92c-.24.12-.72-.3-.73.36s-.46,1.67.16,2.12c1.27.91.92,2.14.9,3.28,0,.67,0,1.36-.09,2a1.76,1.76,0,0,0,1,2.06c.83.4.84,1.18.75,2a2.49,2.49,0,0,0,.58,2.39c.48.41.36.94.35,1.44,0,.81.17,1.44,1.08,1.7a1.12,1.12,0,0,1,.73,1.3c-.21,3,.67,6,.65,9,0,2.6-.16,5.2-.21,7.8,0,1,0,1.92-.08,2.88,0,.3.14.77-.48.54" transform="translate(-351.86 -464.47)" fill="none" stroke="#000" stroke-linecap="round" stroke-linejoin="round" stroke-width="2" class="mTrJQQYC_18"></path><path d="M683.64,582.24c-.25-1.68-1.49-2.42-2.88-3-.67-.27-1.36-.48-2-.73a7.11,7.11,0,0,1-3.13-2,7,7,0,0,0-2.26-1.82c-1.41-.7-2.15-2.15-3.34-3.14a8.15,8.15,0,0,0-4.47-1.62A5.88,5.88,0,0,0,663,570a1.29,1.29,0,0,1-1.54-.34c-.54-.8-1.41-.54-2-.54-1.84,0-3.77-.52-5.52.54" transform="translate(-351.86 -464.47)" fill="none" stroke="#000" stroke-linecap="round" stroke-linejoin="round" stroke-width="2" class="mTrJQQYC_19"></path><path d="M784.08,547.2a1.55,1.55,0,0,0-1.32,1.8c0,.28,0,.56,0,.84.09,1.8,0,2.11-1.92,2.16-.43,0-.76.08-.85.6-.2,1.16-.78,2.25-.6,3.48.35,2.44-.09,4.88,0,7.32a46.46,46.46,0,0,1-.09,5.64c-.06.7-.06,1.55-.64,1.87s-.67.89-.7,1.49c0,1.11.18,2.2-.55,3.27a3,3,0,0,0-.05,2.37c.08.28.24.07.36.06" transform="translate(-351.86 -464.47)" fill="none" stroke="#000" stroke-linecap="round" stroke-linejoin="round" stroke-width="2" class="mTrJQQYC_20"></path><path d="M732,589.56c-.08,1-.69,1.33-1.68,1.34a18.8,18.8,0,0,1-4.44-.64,2.82,2.82,0,0,0-3.37,1.33c-.52.83-1.15,1.58-1.66,2.41a1.82,1.82,0,0,1-1.57.83c-3.15.31-6.32.32-9.48.49-4.08.22-8.16,0-12.24,0-2.12,0-4.25-.13-6.36-.37a12.26,12.26,0,0,1-5.86-1.78,5,5,0,0,1-2.18.6,8.8,8.8,0,0,0-5.64,3.85c-1.26,1.71-1.71,1.72-3.73,1.24a29.45,29.45,0,0,0-6.71-1.24" transform="translate(-351.86 -464.47)" fill="none" stroke="#000" stroke-linecap="round" stroke-linejoin="round" stroke-width="2" class="mTrJQQYC_21"></path><path d="M936.24,547.44c.67-.58,3.71-.71,4.18-.1a2.31,2.31,0,0,1,.52,1.42c0,3.85-.27,7.68-.46,11.52a60.33,60.33,0,0,0,.1,8.16c.08.94.59,1.34,1.66,1.5,2.08.31,4.19.15,6.26.63.72.17,1,.35,1.09,1.11.21,2.32.07,4.64.09,7a3.54,3.54,0,0,0,.88,2.71,21.9,21.9,0,0,0,10.54-4,1.25,1.25,0,0,1,.84-.36" transform="translate(-351.86 -464.47)" fill="none" stroke="#000" stroke-linecap="round" stroke-linejoin="round" stroke-width="2" class="mTrJQQYC_22"></path><path d="M490.32,590c0,1.36,0,2.72.13,4.08a24,24,0,0,0,.66,4.21,1.26,1.26,0,0,0,1.37,1.05q2.82.18,5.64.24c1,0,1.22-.29,1.21-1.31,0-2.28.11-4.57,0-6.84-.17-2.44.11-4.89-.2-7.32-.07-.59,0-1.2,0-1.8,0-.28,0-.61.25-.7,1.71-.68,1.21-2.18,1.16-3.37-.15-3.52-.43-7-.69-10.56-.18-2.4-.41-4.8-.59-7.2s-.4-4.72-.47-7.08c-.13-4.48-.2-9-.25-13.44,0-1.92,0-3.85.14-5.76a14.82,14.82,0,0,0,0-2.64c0-.4-.18-.91.47-1" transform="translate(-351.86 -464.47)" fill="none" stroke="#000" stroke-linecap="round" stroke-linejoin="round" stroke-width="2" class="mTrJQQYC_23"></path><path d="M976.8,574.68c3.28,0,5.6,2.14,8.16,3.72a31.06,31.06,0,0,0,6.6,3,4,4,0,0,0,2-.13" transform="translate(-351.86 -464.47)" fill="none" stroke="#000" stroke-linecap="round" stroke-linejoin="round" stroke-width="2" class="mTrJQQYC_24"></path><path d="M889.2,595.44c.28.52.58,1,.83,1.56a2.23,2.23,0,0,0,1.54,1.46,1.55,1.55,0,0,1,2.57,0,2,2,0,0,0,2.48.13,2.87,2.87,0,0,1,4.21.87c1.89,2.46,4.46,2.07,6.82,1.36a5.52,5.52,0,0,1,4.82.32,5.24,5.24,0,0,0,3.95.44,16.33,16.33,0,0,1,4.69,0,16,16,0,0,0,5.28-.3c2.44-.67,4.89-.37,7.32-.2a82.68,82.68,0,0,1,9.36,1.06,69.79,69.79,0,0,0,9.6.81,89.76,89.76,0,0,0,9.36-.07,6.58,6.58,0,0,0,1.2-.37" transform="translate(-351.86 -464.47)" fill="none" stroke="#000" stroke-linecap="round" stroke-linejoin="round" stroke-width="2" class="mTrJQQYC_25"></path><path d="M777.36,578.28c-.34.64.07,1.27,0,1.92a5.86,5.86,0,0,1-.48,2.41,3.15,3.15,0,0,0-.25,1.31c-.06,1.8-.11,3.6-.12,5.4,0,.79-.24,1.28-1.09,1.45a19.86,19.86,0,0,1-2.64.47c-.27,0-.7-.2-.72.35" transform="translate(-351.86 -464.47)" fill="none" stroke="#000" stroke-linecap="round" stroke-linejoin="round" stroke-width="2" class="mTrJQQYC_26"></path><path d="M857.52,552.72c0,.32.07.64.12,1,.11.69.32,1.09,1.2.86,1.64-.42,2.26-.13,2.27,2a7.66,7.66,0,0,1,0,1c-.16,1.33,0,2.28,1.68,2.57a1.93,1.93,0,0,1,1.46,2.23c-.18,3.44-.41,6.88-.45,10.32,0,1.63,0,3.28,0,4.92a72.48,72.48,0,0,1-.19,10.32c0,.3.14.77-.48.54" transform="translate(-351.86 -464.47)" fill="none" stroke="#000" stroke-linecap="round" stroke-linejoin="round" stroke-width="2" class="mTrJQQYC_27"></path><path d="M666.72,570.24a19,19,0,0,0-.33,4.44.92.92,0,0,0,.93,1.08,8.78,8.78,0,0,1,5.15,2.06,36.49,36.49,0,0,0,8.53,4.42,2.85,2.85,0,0,0,2.16.13c.52-.22.91.15,1.31.36.76.41,1.45,1,2.4.53" transform="translate(-351.86 -464.47)" fill="none" stroke="#000" stroke-linecap="round" stroke-linejoin="round" stroke-width="2" class="mTrJQQYC_28"></path><path d="M982.08,590.28c3.88.17,7.78-.06,11.63.42,1.52.19,3.1,0,4.57.54" transform="translate(-351.86 -464.47)" fill="none" stroke="#000" stroke-linecap="round" stroke-linejoin="round" stroke-width="2" class="mTrJQQYC_29"></path><path d="M457.32,534.12a38.31,38.31,0,0,1,5.52,1c4.16.89,8.29,1.95,12.6,1.82a24.1,24.1,0,0,0,5.64-1.09,1.89,1.89,0,0,1,.48,0" transform="translate(-351.86 -464.47)" fill="none" stroke="#000" stroke-linecap="round" stroke-linejoin="round" stroke-width="2" class="mTrJQQYC_30"></path><path d="M803.28,475.8a1.82,1.82,0,0,0,.51-1.81,13.49,13.49,0,0,1,0-2.75c.08-1.89-.45-3.75-.2-5.62a2.11,2.11,0,0,0-1.44,0c-.19,2.38.08,4.74.11,7.1a6.79,6.79,0,0,1,0,1.44,2.15,2.15,0,0,0,.59,1.8" transform="translate(-351.86 -464.47)" fill="none" stroke="#000" stroke-linecap="round" stroke-linejoin="round" stroke-width="2" class="mTrJQQYC_31"></path><path d="M909.84,582.6a8.06,8.06,0,0,1,.11,2.52c0,2.68-.08,5.36,0,8,0,2.27,0,4.56-.06,6.84" transform="translate(-351.86 -464.47)" fill="none" stroke="#000" stroke-linecap="round" stroke-linejoin="round" stroke-width="2" class="mTrJQQYC_32"></path><path d="M936.24,547.08c-.61-.38-.51-1-.47-1.56.1-1.6.14-3.22.39-4.79a10.8,10.8,0,0,0-.07-2.52,1.53,1.53,0,0,0-1.89-1.32c-.92.14-1.84.35-2.76.47-.77.1-1.24-.11-1.35-1.07-.14-1.25-.82-1.8-2.36-1.77a26.9,26.9,0,0,1-5.88-.88c-1.39-.28-1.66-.07-1.68,1.32,0,.73.11,1.5-.72,1.92" transform="translate(-351.86 -464.47)" fill="none" stroke="#000" stroke-linecap="round" stroke-linejoin="round" stroke-width="2" class="mTrJQQYC_33"></path><path d="M643.08,591.72c1.26,2.48,1.21,5.13,1,7.8a30.33,30.33,0,0,0-.11,3.24c0,.9-.48,1.09-1.21,1.08-4.76-.09-9.44-.92-14.17-1.39-4.38-.43-8.79-1.27-13.2-.07a13.86,13.86,0,0,1-4.31.11,22.69,22.69,0,0,0-4.68,0,6,6,0,0,1-4.43-.75c-1.7-1.14-3.29-.18-4.93.13a8,8,0,0,1-3.73.18,7.13,7.13,0,0,1-2-1.27,8.77,8.77,0,0,1-1.09-1.06c-1-1-1.79-1.15-3-.46a2.87,2.87,0,0,1-3.5-.13c-.71-.53-.75-.48-2.27.23-1.46-.53-1.44-2.08-2.26-3.13a2.45,2.45,0,0,0-1.93,1.1,4.07,4.07,0,0,1-3.61,1.79q-2.22,0-4.44-.12c-1.29,0-2.13-.91-2.37-2.76a6,6,0,0,0-1.25-3.22,1,1,0,0,1-.2-1,8.63,8.63,0,0,0,.22-2.53,1.73,1.73,0,0,0-1.68-1.79c-2.29-.1-4.39.23-5.78,2.38a3.93,3.93,0,0,1-3.46,1.08,1.73,1.73,0,0,1-1.08-2,40.07,40.07,0,0,0,.35-6.6c0-1.4-.07-2.8-.11-4.2" transform="translate(-351.86 -464.47)" fill="none" stroke="#000" stroke-linecap="round" stroke-linejoin="round" stroke-width="2" class="mTrJQQYC_34"></path><path d="M889.44,594.72c-.08.2-.17.58-.24.57-1.21-.08-1.72.91-2.39,1.6a4.22,4.22,0,0,1-3.25,1.31c-1.4,0-2.8-.12-4.2-.1a2.16,2.16,0,0,1-2.28-1.93,10.69,10.69,0,0,0-1.69-4.43c-.27-.33,0-.57,0-.85,0-.76.22-1.52.21-2.28a1.69,1.69,0,0,0-1.54-1.78c-2.12-.07-4.26-.12-5.65,2a3.15,3.15,0,0,1-3,1.34c-1.53-.06-1.66-.12-1.92-1.57" transform="translate(-351.86 -464.47)" fill="none" stroke="#000" stroke-linecap="round" stroke-linejoin="round" stroke-width="2" class="mTrJQQYC_35"></path><path d="M528.12,527.7c-.62.23-.48-.24-.48-.54,0-2,0-3.93.15-5.88.08-1,0-2,.08-3,0-1.26.56-1.79,1.8-2.06a6.08,6.08,0,0,1,3.71.53,20.31,20.31,0,0,0,8.05,1.77c1,0,1.41.38,1.47,1.44.14,2.88.18,5.76.27,8.64.12,3.81-.17,7.6,0,11.4.15,4.28-.25,8.56-.14,12.84" transform="translate(-351.86 -464.47)" fill="none" stroke="#000" stroke-linecap="round" stroke-linejoin="round" stroke-width="2" class="mTrJQQYC_36"></path><path d="M740.28,548.52a14.74,14.74,0,0,1-5.76.81c-.43,0-.88,0-1.32-.08a.69.69,0,0,0-.81.6c.06,1.27-.66,2.43-.4,3.72a51,51,0,0,1,.82,7.44,34.39,34.39,0,0,1-.47,6.24c-.26,2-.22,3.92-.32,5.88-.2,4.12-.29,8.24-.37,12.36,0,1.2.14,2.4.23,3.6,0,.27.13.49.47.3" transform="translate(-351.86 -464.47)" fill="none" stroke="#000" stroke-linecap="round" stroke-linejoin="round" stroke-width="2" class="mTrJQQYC_37"></path><path d="M883.8,533c-.78.32-1.43-.24-2.16-.32-1.73-.2-2.22-.4-2.85,1.71a2.71,2.71,0,0,1-2.19,2.06,12.31,12.31,0,0,1-4.33.45" transform="translate(-351.86 -464.47)" fill="none" stroke="#000" stroke-linecap="round" stroke-linejoin="round" stroke-width="2" class="mTrJQQYC_38"></path><path d="M592.8,566a31.31,31.31,0,0,0-.09,5.76c.1,2.56.16,5.13.42,7.68.3,3,.41,6,.63,9a82.55,82.55,0,0,1,.12,11.4" transform="translate(-351.86 -464.47)" fill="none" stroke="#000" stroke-linecap="round" stroke-linejoin="round" stroke-width="2" class="mTrJQQYC_39"></path><path d="M573.78,534.72c-.81-1.2-2.12-1.17-3.3-1.16-1,0-1.5.81-1.68,1.76a2.54,2.54,0,0,1-2,2.08c-2.06.64-4.17.42-6.25.68h-.24c-2.25.13-2.48.23-2.53,2.52-.08,3.55.47,7,.69,10.56a22.58,22.58,0,0,1,.07,4.92c-.11.74-.38,1.12-1.11,1.2a26.55,26.55,0,0,1-4.08.36" transform="translate(-351.86 -464.47)" fill="none" stroke="#000" stroke-linecap="round" stroke-linejoin="round" stroke-width="2" class="mTrJQQYC_40"></path><path d="M867.84,541.8a27.51,27.51,0,0,0,.39,6.12,53.34,53.34,0,0,1,.32,7.08,1.09,1.09,0,0,1-1.07,1.22,21.54,21.54,0,0,1-4.2.34" transform="translate(-351.86 -464.47)" fill="none" stroke="#000" stroke-linecap="round" stroke-linejoin="round" stroke-width="2" class="mTrJQQYC_41"></path><path d="M963,590.28c-.08,2.24-.25,4.48-.21,6.72,0,1.4,0,2.81.11,4.2.09,1.22.67,1.63,1.9,1.43,2.11-.34,4.25-.3,6.36-.52,1.8-.2,3.62-.32,5.41-.66" transform="translate(-351.86 -464.47)" fill="none" stroke="#000" stroke-linecap="round" stroke-linejoin="round" stroke-width="2" class="mTrJQQYC_42"></path><path d="M857.76,552.6a1.54,1.54,0,0,0-2,.35c-.32.36-.74.62-1.07,1a4.09,4.09,0,0,1-2.88,1.35c-1.71.12-2.36,1-2.15,2.72a7.1,7.1,0,0,1-.26,3.6,2.59,2.59,0,0,0,.14,1.92c.67,1.84.47,2.15-1.45,2.17-2.76,0-5.52.07-8.28.12-.48,0-1.08-.16-1.2.6" transform="translate(-351.86 -464.47)" fill="none" stroke="#000" stroke-linecap="round" stroke-linejoin="round" stroke-width="2" class="mTrJQQYC_43"></path><path d="M657,591.24a7.29,7.29,0,0,0-.36,2.64q0,4.62,0,9.24" transform="translate(-351.86 -464.47)" fill="none" stroke="#000" stroke-linecap="round" stroke-linejoin="round" stroke-width="2" class="mTrJQQYC_44"></path><path d="M952.92,590.64c1.26,2,1.31,4.14,1.2,6.36-.09,1.84-.16,3.68-.24,5.52" transform="translate(-351.86 -464.47)" fill="none" stroke="#000" stroke-linecap="round" stroke-linejoin="round" stroke-width="2" class="mTrJQQYC_45"></path><path d="M509.88,543.6a42.14,42.14,0,0,0,1.82-8,8.58,8.58,0,0,0,0-2.28c-.21-1.1-.54-1.41-1.56-1.19a52.9,52.9,0,0,1-11,1" transform="translate(-351.86 -464.47)" fill="none" stroke="#000" stroke-linecap="round" stroke-linejoin="round" stroke-width="2" class="mTrJQQYC_46"></path><path d="M865,541.44c-.64-.73-1.54-.43-2.28-.44a53.24,53.24,0,0,0-8.52.19,1.89,1.89,0,0,1-.6-.11" transform="translate(-351.86 -464.47)" fill="none" stroke="#000" stroke-linecap="round" stroke-linejoin="round" stroke-width="2" class="mTrJQQYC_47"></path><path d="M808.92,532.08a61,61,0,0,0,10.92-.95c1.45-.31,1.87.15,1.93,1.67.1,2.91-.73,5.64-1.45,8.4-.11.44-.24.88-.36,1.32" transform="translate(-351.86 -464.47)" fill="none" stroke="#000" stroke-linecap="round" stroke-linejoin="round" stroke-width="2" class="mTrJQQYC_48"></path><path d="M540.36,565.86a3,3,0,0,1-2.64.83c-2.88-.06-5.76.07-8.64.23a10,10,0,0,1-1.44-.16" transform="translate(-351.86 -464.47)" fill="none" stroke="#000" stroke-linecap="round" stroke-linejoin="round" stroke-width="2" class="mTrJQQYC_49"></path><path d="M771,549.84a2.45,2.45,0,0,1,.62,1.8c-.15,6-.18,11.92-.4,17.88-.2,5.6-.22,11.2-.2,16.8,0,.33-.32.93.47.9" transform="translate(-351.86 -464.47)" fill="none" stroke="#000" stroke-linecap="round" stroke-linejoin="round" stroke-width="2" class="mTrJQQYC_50"></path><path d="M919.44,537.12A3.7,3.7,0,0,0,915,537a10.42,10.42,0,0,1-6.49,1.91c-1.47,0-3,.31-4.32-.49" transform="translate(-351.86 -464.47)" fill="none" stroke="#000" stroke-linecap="round" stroke-linejoin="round" stroke-width="2" class="mTrJQQYC_51"></path><path d="M835.44,536.16c-1-.24-2.07-.53-3.12-.7s-1.44.41-1.42,1.54c0,1.4.2,2.8.22,4.2,0,3.1,0,6.2,0,9.3" transform="translate(-351.86 -464.47)" fill="none" stroke="#000" stroke-linecap="round" stroke-linejoin="round" stroke-width="2" class="mTrJQQYC_52"></path><path d="M972.24,575.76l-.48-.24c-1.22-.64-1.37-.35-2.21.81-1.26,1.75-.93,3.68-1.15,5.56-.11,1-.15,2-.25,3a2.06,2.06,0,0,1-1.91,1.3c-.78-.08-1.57.12-2.28.07a27.16,27.16,0,0,0-3.85.34c-2.4.14-4.8.4-7.2.56-.47,0-1.14.34-1.38-.46" transform="translate(-351.86 -464.47)" fill="none" stroke="#000" stroke-linecap="round" stroke-linejoin="round" stroke-width="2" class="mTrJQQYC_53"></path><path d="M547.32,552.36a7.16,7.16,0,0,0,.5,2.64c.14.58.59.61,1.19.51,1.65-.27,2.15.21,2.16,1.89a2.94,2.94,0,0,1,0,.72c-.44,1.71.13,2.75,1.92,3.15a1.61,1.61,0,0,1,1.19,1.89c-.37,3.39-.28,6.8-.45,10.2-.07,1.48,0,3,0,4.44,0,.69.42.44.74.48" transform="translate(-351.86 -464.47)" fill="none" stroke="#000" stroke-linecap="round" stroke-linejoin="round" stroke-width="2" class="mTrJQQYC_54"></path><path d="M652,573.12c-.73,0-1.15.49-1.55,1a21.43,21.43,0,0,1-5.27,4.59c-1.1.66-2.34,1.39-2.42,3" transform="translate(-351.86 -464.47)" fill="none" stroke="#000" stroke-linecap="round" stroke-linejoin="round" stroke-width="2" class="mTrJQQYC_55"></path><path d="M662.88,591.72c-.06,2.24-.34,4.47-.25,6.72a6.16,6.16,0,0,0,1.09,3.6" transform="translate(-351.86 -464.47)" fill="none" stroke="#000" stroke-linecap="round" stroke-linejoin="round" stroke-width="2" class="mTrJQQYC_56"></path><path d="M963.84,568.32c-.56,1.24-1.09,2.49-1.69,3.71-.3.6-1.11.44-1.57.95a25.67,25.67,0,0,1-6.44,5.34,2.7,2.7,0,0,0-1.58,2.36" transform="translate(-351.86 -464.47)" fill="none" stroke="#000" stroke-linecap="round" stroke-linejoin="round" stroke-width="2" class="mTrJQQYC_57"></path><path d="M976.68,568.92c.08-.36.19-.72.23-1.08.11-.9-.19-1.4-1.19-1.59a40.34,40.34,0,0,0-4.33-.3c-1.55-.12-3.12,0-4.68,0-2.41,0-2-.38-2.88,2.16" transform="translate(-351.86 -464.47)" fill="none" stroke="#000" stroke-linecap="round" stroke-linejoin="round" stroke-width="2" class="mTrJQQYC_58"></path><path d="M886.32,563.4c.31,2.2-.08,4.4,0,6.6s-.17,4.16-.2,6.24c-.07,3.56-.12,7.12-.12,10.68,0,2.6-.35,5.2,0,7.8a.56.56,0,0,1-.24.54" transform="translate(-351.86 -464.47)" fill="none" stroke="#000" stroke-linecap="round" stroke-linejoin="round" stroke-width="2" class="mTrJQQYC_59"></path><path d="M927.36,572.76a8.38,8.38,0,0,0-.09,3c0,3.76-.33,7.51-.21,11.28a83.52,83.52,0,0,1,.06,11,3.47,3.47,0,0,1-.12.48" transform="translate(-351.86 -464.47)" fill="none" stroke="#000" stroke-linecap="round" stroke-linejoin="round" stroke-width="2" class="mTrJQQYC_60"></path><path d="M547.2,553.32a1.82,1.82,0,0,0-1.57.71c-1.28,1.23-2.58,2.37-4.55,2.45-1.16,0-1.85,1.68-1.31,2.71,0,0,.23,0,.35-.05" transform="translate(-351.86 -464.47)" fill="none" stroke="#000" stroke-linecap="round" stroke-linejoin="round" stroke-width="2" class="mTrJQQYC_61"></path><path d="M527.76,527.88c-.25.29-.11.64-.11,1-.08,4,.07,8-.11,12-.12,2.63,0,5.28,0,7.92a12.6,12.6,0,0,1-.31,3c-.13.51.19,1.11.19,1.67,0,3.84,0,7.68,0,11.52a24.08,24.08,0,0,1-.63,3.84" transform="translate(-351.86 -464.47)" fill="none" stroke="#000" stroke-linecap="round" stroke-linejoin="round" stroke-width="2" class="mTrJQQYC_62"></path><path d="M388.68,572.64c1.06-.1,1.44.66,1.53,1.44a3.3,3.3,0,0,0,2.3,3.15,4.73,4.73,0,0,0,4.78-.9c1.31-1.05,2.79-2,3.2-3.91.23-1.09,1.46-1.05,2.09,0a5.29,5.29,0,0,1,.6,1.55,27.14,27.14,0,0,0,1.79,4.81,7.28,7.28,0,0,1,.13,4.43,3.29,3.29,0,0,0,.28,2.27,2.82,2.82,0,0,1,0,2.53" transform="translate(-351.86 -464.47)" fill="none" stroke="#000" stroke-linecap="round" stroke-linejoin="round" stroke-width="2" class="mTrJQQYC_63"></path><path d="M666.48,586.56a7,7,0,0,0,4.08,1.33c2.08.08,4.16.23,6.24.35" transform="translate(-351.86 -464.47)" fill="none" stroke="#000" stroke-linecap="round" stroke-linejoin="round" stroke-width="2" class="mTrJQQYC_64"></path><path d="M652.44,568.26a7.13,7.13,0,0,1,.83.55c.42.36.67.73.26,1.32a13.18,13.18,0,0,0-1.09,2,2.5,2.5,0,0,0-.08,1.57c.22,1.2.91,2.49,0,3.72a1,1,0,0,0-.12.71c.62,2.77.22,5.61.59,8.4a2.05,2.05,0,0,0,.12.36" transform="translate(-351.86 -464.47)" fill="none" stroke="#000" stroke-linecap="round" stroke-linejoin="round" stroke-width="2" class="mTrJQQYC_65"></path><path d="M661.92,570.12a18.61,18.61,0,0,0-2.14,2.06c-1.23,1.61-3.07,2.38-4.61,3.54-.52.39-1.41.28-2.13.4" transform="translate(-351.86 -464.47)" fill="none" stroke="#000" stroke-linecap="round" stroke-linejoin="round" stroke-width="2" class="mTrJQQYC_66"></path><path d="M666.6,570c.83-2.36-.06-2.74-2-2.85-2.59-.15-5.2-.11-7.8-.15a1.31,1.31,0,0,1-.36,0,2.2,2.2,0,0,0-3.12,1.68" transform="translate(-351.86 -464.47)" fill="none" stroke="#000" stroke-linecap="round" stroke-linejoin="round" stroke-width="2" class="mTrJQQYC_67"></path><path d="M950.4,581.64c-1,.79-.89,1.94-.94,3-.07,1.4-.06,2.8,0,4.2,0,1,.62,2,.35,3.12" transform="translate(-351.86 -464.47)" fill="none" stroke="#000" stroke-linecap="round" stroke-linejoin="round" stroke-width="2" class="mTrJQQYC_68"></path><path d="M554.88,542.16a66.57,66.57,0,0,0-11.4,0" transform="translate(-351.86 -464.47)" fill="none" stroke="#000" stroke-linecap="round" stroke-linejoin="round" stroke-width="2" class="mTrJQQYC_69"></path><path d="M976.8,569.28a12.79,12.79,0,0,0-.24,5.16c.14.71-.3,1.32-.27,2,.11,2.68.11,5.36.14,8,0,.32.14.67-.11,1" transform="translate(-351.86 -464.47)" fill="none" stroke="#000" stroke-linecap="round" stroke-linejoin="round" stroke-width="2" class="mTrJQQYC_70"></path><path d="M971.76,569.28a29.73,29.73,0,0,1-6.47,5.41c-.77.47-1.66.18-2.41.59" transform="translate(-351.86 -464.47)" fill="none" stroke="#000" stroke-linecap="round" stroke-linejoin="round" stroke-width="2" class="mTrJQQYC_71"></path><path d="M871.8,537.12c-1.05-.33-2.08.08-3.12.14a.85.85,0,0,0-.82.7c-.09,1.16-.11,2.32-.12,3.48,0,.19.22.35.46.18" transform="translate(-351.86 -464.47)" fill="none" stroke="#000" stroke-linecap="round" stroke-linejoin="round" stroke-width="2" class="mTrJQQYC_72"></path><path d="M539.76,559.32a12.11,12.11,0,0,1-.46,3.73c-.29,1,.55,1.89.7,2.87" transform="translate(-351.86 -464.47)" fill="none" stroke="#000" stroke-linecap="round" stroke-linejoin="round" stroke-width="2" class="mTrJQQYC_73"></path><path d="M973,572.28a3.6,3.6,0,0,1-.17,2.5,5.4,5.4,0,0,0-.3,2.3c.11,2.44-.24,4.88.09,7.32.11.81.47,1.15,1.22,1.19a5.36,5.36,0,0,0,1,0,6.36,6.36,0,0,1,3.48.84,7.41,7.41,0,0,0,3.12.48,48,48,0,0,1,5.28.36" transform="translate(-351.86 -464.47)" fill="none" stroke="#000" stroke-linecap="round" stroke-linejoin="round" stroke-width="2" class="mTrJQQYC_74"></path><path d="M692.88,586.44a10,10,0,0,1-.35,4.44c-.15.64-.65.94-1.09,1.32-.74.63-1.66,1.12-1.68,2.28" transform="translate(-351.86 -464.47)" fill="none" stroke="#000" stroke-linecap="round" stroke-linejoin="round" stroke-width="2" class="mTrJQQYC_75"></path><path d="M653,591.24a72.83,72.83,0,0,0-.22,7.68,22,22,0,0,0,.34,4.32" transform="translate(-351.86 -464.47)" fill="none" stroke="#000" stroke-linecap="round" stroke-linejoin="round" stroke-width="2" class="mTrJQQYC_76"></path><path d="M977.28,590.52a45.94,45.94,0,0,0-.46,8,19.53,19.53,0,0,0,0,3.6" transform="translate(-351.86 -464.47)" fill="none" stroke="#000" stroke-linecap="round" stroke-linejoin="round" stroke-width="2" class="mTrJQQYC_77"></path><path d="M667.2,591.48a33.13,33.13,0,0,0-.24,5.88,1.09,1.09,0,0,1-.24.72,4.56,4.56,0,0,0-.8,2.16,1.61,1.61,0,0,1-1.49,1.65,2.05,2.05,0,0,0-1,.6c-1,.82-2.36.69-3.58.7a3,3,0,0,0-1.56.16c-.08,0-.17.13-.24.11-1.52-.43-3,.46-4.57,0-.83-.24-1.64.28-2.52.26-2,0-3.92.12-5.88.2a2,2,0,0,1-1.2-.36" transform="translate(-351.86 -464.47)" fill="none" stroke="#000" stroke-linecap="round" stroke-linejoin="round" stroke-width="2" class="mTrJQQYC_78"></path><path d="M492.24,471.36c0,1.44,0,2.88,0,4.32a4.17,4.17,0,0,0,.7,2.09,3,3,0,0,0,.88-2.09c0-2.52-.05-5-.25-7.56,0-.52.27-1,0-1.62h-1.48a15.72,15.72,0,0,0,.08,3.54c0,.4.16.8,0,1.2" transform="translate(-351.86 -464.47)" fill="none" stroke="#000" stroke-linecap="round" stroke-linejoin="round" stroke-width="2" class="mTrJQQYC_79"></path><path d="M520.68,545.22c.83.23.5.93.45,1.38-.15,1.32,0,2.64-.1,4,0,.81.26,1.26,1.09,1.19,1.61-.13,3.19.29,4.8.25" transform="translate(-351.86 -464.47)" fill="none" stroke="#000" stroke-linecap="round" stroke-linejoin="round" stroke-width="2" class="mTrJQQYC_80"></path><path d="M659.52,591.72c-.81,1.65-.46,3.44-.56,5.16-.12,2,0,4.08.08,6.12" transform="translate(-351.86 -464.47)" fill="none" stroke="#000" stroke-linecap="round" stroke-linejoin="round" stroke-width="2" class="mTrJQQYC_81"></path><path d="M640.32,582.6a2.61,2.61,0,0,0-.85,2.16c0,1.24,0,2.48-.12,3.72A6.85,6.85,0,0,0,640,592" transform="translate(-351.86 -464.47)" fill="none" stroke="#000" stroke-linecap="round" stroke-linejoin="round" stroke-width="2" class="mTrJQQYC_82"></path><path d="M655.68,577c-1.13,1.51-1.15,3.29-1.06,5,.08,1.6.37,3.19.34,4.8" transform="translate(-351.86 -464.47)" fill="none" stroke="#000" stroke-linecap="round" stroke-linejoin="round" stroke-width="2" class="mTrJQQYC_83"></path><path d="M525.24,536.94c-1-.14-1.93-.23-2.88-.44s-1.23.21-1.32,1a26,26,0,0,0,.09,4.44,11.6,11.6,0,0,1-.09,3.36" transform="translate(-351.86 -464.47)" fill="none" stroke="#000" stroke-linecap="round" stroke-linejoin="round" stroke-width="2" class="mTrJQQYC_84"></path><path d="M927.6,557.4a20.43,20.43,0,0,0-.12,3.36c-.08,2.32-.2,4.64-.23,7a31.37,31.37,0,0,1,0,4.08c0,.28-.3.89.46.78" transform="translate(-351.86 -464.47)" fill="none" stroke="#000" stroke-linecap="round" stroke-linejoin="round" stroke-width="2" class="mTrJQQYC_85"></path><path d="M655.44,587c2,.27,2.8-.46,2.83-2.4,0-1.52.09-3,.18-4.56.08-1.28,1.07-2.18,1.46-3.35.14-.4.67-.9,1.15-.58s1.51.49,1.47,1.53a27.81,27.81,0,0,1,0,3c-.25,1.65.13,3.28,0,4.92a1,1,0,0,0,1,1,6.82,6.82,0,0,0,2.88-.06,19.12,19.12,0,0,0,0-4.21c0-1.8,0-3.6,0-5.4a1.64,1.64,0,0,1,.37-1.2" transform="translate(-351.86 -464.47)" fill="none" stroke="#000" stroke-linecap="round" stroke-linejoin="round" stroke-width="2" class="mTrJQQYC_86"></path><path d="M962,572.4c.51.85.36,1.87.72,2.76a.14.14,0,0,1,0,.12c-1.27,1.69.09,3.44-.08,5.17a23,23,0,0,0,.08,5,3.87,3.87,0,0,1,0,.48" transform="translate(-351.86 -464.47)" fill="none" stroke="#000" stroke-linecap="round" stroke-linejoin="round" stroke-width="2" class="mTrJQQYC_87"></path><path d="M670.92,591.12c1.88.12,3.76.28,5.64.35,2.48.1,5-.2,7.44.25.73.13,1.43.33,1.32,1.32" transform="translate(-351.86 -464.47)" fill="none" stroke="#000" stroke-linecap="round" stroke-linejoin="round" stroke-width="2" class="mTrJQQYC_88"></path><path d="M973,590.76a30.76,30.76,0,0,1-.29,4.08,40.12,40.12,0,0,0,.41,6.72" transform="translate(-351.86 -464.47)" fill="none" stroke="#000" stroke-linecap="round" stroke-linejoin="round" stroke-width="2" class="mTrJQQYC_89"></path><path d="M662.76,570.24a6.56,6.56,0,0,1,.32,3.48c0,.56,0,1.12-.08,1.68s.18.42.48.3" transform="translate(-351.86 -464.47)" fill="none" stroke="#000" stroke-linecap="round" stroke-linejoin="round" stroke-width="2" class="mTrJQQYC_90"></path><path d="M966.84,590.28c-.08,1.56-.15,3.12-.25,4.68,0,.28.24.84-.47.66" transform="translate(-351.86 -464.47)" fill="none" stroke="#000" stroke-linecap="round" stroke-linejoin="round" stroke-width="2" class="mTrJQQYC_91"></path><path d="M670.74,590.76c.18.71-.39.5-.66.46a21,21,0,0,0-5.75.09c-1.5.22-3,.11-4.46.23a12.8,12.8,0,0,1-3.23-.58,5,5,0,0,0-3.12.06c-.61.28-1-.16-1.57-.15a68.34,68.34,0,0,0-7.55.21c-1.35.18-2.74.36-4.09.64" transform="translate(-351.86 -464.47)" fill="none" stroke="#000" stroke-linecap="round" stroke-linejoin="round" stroke-width="2" class="mTrJQQYC_92"></path><path d="M972.6,585c-1.41,1-2.85,1.57-4.44.36" transform="translate(-351.86 -464.47)" fill="none" stroke="#000" stroke-linecap="round" stroke-linejoin="round" stroke-width="2" class="mTrJQQYC_93"></path><path d="M969.24,590.76a45.31,45.31,0,0,0,0,11.16" transform="translate(-351.86 -464.47)" fill="none" stroke="#000" stroke-linecap="round" stroke-linejoin="round" stroke-width="2" class="mTrJQQYC_94"></path><path d="M965.52,575.88c-1.28,2.3-.9,4.77-.7,7.2.07.92.22,1.83.22,2.76" transform="translate(-351.86 -464.47)" fill="none" stroke="#000" stroke-linecap="round" stroke-linejoin="round" stroke-width="2" class="mTrJQQYC_95"></path><path d="M457.14,533.64c-.75,1.51-.24,3.12-.42,4.68" transform="translate(-351.86 -464.47)" fill="none" stroke="#000" stroke-linecap="round" stroke-linejoin="round" stroke-width="2" class="mTrJQQYC_96"></path><path d="M456.36,538.26c.65.11.48.62.48,1,0,2.4,0,4.8,0,7.2,0,1.24.36,2.49-.13,3.72" transform="translate(-351.86 -464.47)" fill="none" stroke="#000" stroke-linecap="round" stroke-linejoin="round" stroke-width="2" class="mTrJQQYC_97"></path><path d="M655.32,587.88V587c-4.63.57-9.14,1-13.68,1.16" transform="translate(-351.86 -464.47)" fill="none" stroke="#000" stroke-linecap="round" stroke-linejoin="round" stroke-width="2" class="mTrJQQYC_98"></path><path d="M669.84,598.2a6.29,6.29,0,0,0,.48,2.28.63.63,0,0,0,.71.47.73.73,0,0,0,.59-.59c.11-.55.17-1.12.25-1.68" transform="translate(-351.86 -464.47)" fill="none" stroke="#000" stroke-linecap="round" stroke-linejoin="round" stroke-width="2" class="mTrJQQYC_99"></path><path d="M966.48,595.8q.12,2.46.24,4.92a3.27,3.27,0,0,0,.12,1.32" transform="translate(-351.86 -464.47)" fill="none" stroke="#000" stroke-linecap="round" stroke-linejoin="round" stroke-width="2" class="mTrJQQYC_100"></path><path d="M968.28,577.92c-.77-.86-1.27-2-2.64-2.18-.24,0-.44-.38-.48-.7" transform="translate(-351.86 -464.47)" fill="none" stroke="#000" stroke-linecap="round" stroke-linejoin="round" stroke-width="2" class="mTrJQQYC_101"></path><path d="M655.2,576c.16.28.32.8.48.8,1.59,0,1.85,1.54,2.76,2.32" transform="translate(-351.86 -464.47)" fill="none" stroke="#000" stroke-linecap="round" stroke-linejoin="round" stroke-width="2" class="mTrJQQYC_102"></path><path d="M359.76,599.16c.33.93,0,2.13,1,2.78,1.33-.28.74-1.47,1.13-2.18" transform="translate(-351.86 -464.47)" fill="none" stroke="#000" stroke-linecap="round" stroke-linejoin="round" stroke-width="2" class="mTrJQQYC_103"></path><path d="M827.16,551.16a27.73,27.73,0,0,1,9.84,0" transform="translate(-351.86 -464.47)" fill="none" stroke="#000" stroke-linecap="round" stroke-linejoin="round" stroke-width="2" class="mTrJQQYC_104"></path><path d="M771.12,587.4a6,6,0,0,0,.1,3c.14.42.23.78.74.83" transform="translate(-351.86 -464.47)" fill="none" stroke="#000" stroke-linecap="round" stroke-linejoin="round" stroke-width="2" class="mTrJQQYC_105"></path><path d="M997.44,581.82a2.72,2.72,0,0,1-4.08-1.38,4,4,0,0,0-2.29-2,5.68,5.68,0,0,0-1.08-.47,11.67,11.67,0,0,1-5.32-3.21c-1.54-1.45-3.23-2.75-4.79-4.21-1.72-1.6-4-1.8-6.21-1.57a2.61,2.61,0,0,1-2.18-.36c-.84-.66-2-.53-3-.59-1.55-.1-3.12,0-4.68.08" transform="translate(-351.86 -464.47)" fill="none" stroke="#000" stroke-linecap="round" stroke-linejoin="round" stroke-width="2" class="mTrJQQYC_106"></path><path d="M592.8,561.72a23.62,23.62,0,0,0-.11,3.84c0,.26.13.49.47.3" transform="translate(-351.86 -464.47)" fill="none" stroke="#000" stroke-linecap="round" stroke-linejoin="round" stroke-width="2" class="mTrJQQYC_107"></path><style data-made-with="vivus-instant">.mTrJQQYC_0{stroke-dasharray:126 128;stroke-dashoffset:127;animation:mTrJQQYC_draw 18ms linear 0ms forwards;}.mTrJQQYC_1{stroke-dasharray:108 110;stroke-dashoffset:109;animation:mTrJQQYC_draw 16ms linear 18ms forwards;}.mTrJQQYC_2{stroke-dasharray:57 59;stroke-dashoffset:58;animation:mTrJQQYC_draw 8ms linear 34ms forwards;}.mTrJQQYC_3{stroke-dasharray:64 66;stroke-dashoffset:65;animation:mTrJQQYC_draw 9ms linear 43ms forwards;}.mTrJQQYC_4{stroke-dasharray:297 299;stroke-dashoffset:298;animation:mTrJQQYC_draw 43ms linear 52ms forwards;}.mTrJQQYC_5{stroke-dasharray:42 44;stroke-dashoffset:43;animation:mTrJQQYC_draw 6ms linear 96ms forwards;}.mTrJQQYC_6{stroke-dasharray:55 57;stroke-dashoffset:56;animation:mTrJQQYC_draw 8ms linear 102ms forwards;}.mTrJQQYC_7{stroke-dasharray:104 106;stroke-dashoffset:105;animation:mTrJQQYC_draw 15ms linear 111ms forwards;}.mTrJQQYC_8{stroke-dasharray:120 122;stroke-dashoffset:121;animation:mTrJQQYC_draw 17ms linear 126ms forwards;}.mTrJQQYC_9{stroke-dasharray:26 28;stroke-dashoffset:27;animation:mTrJQQYC_draw 3ms linear 144ms forwards;}.mTrJQQYC_10{stroke-dasharray:42 44;stroke-dashoffset:43;animation:mTrJQQYC_draw 6ms linear 148ms forwards;}.mTrJQQYC_11{stroke-dasharray:128 130;stroke-dashoffset:129;animation:mTrJQQYC_draw 18ms linear 154ms forwards;}.mTrJQQYC_12{stroke-dasharray:23 25;stroke-dashoffset:24;animation:mTrJQQYC_draw 3ms linear 173ms forwards;}.mTrJQQYC_13{stroke-dasharray:100 102;stroke-dashoffset:101;animation:mTrJQQYC_draw 14ms linear 177ms forwards;}.mTrJQQYC_14{stroke-dasharray:283 285;stroke-dashoffset:284;animation:mTrJQQYC_draw 41ms linear 191ms forwards;}.mTrJQQYC_15{stroke-dasharray:108 110;stroke-dashoffset:109;animation:mTrJQQYC_draw 16ms linear 233ms forwards;}.mTrJQQYC_16{stroke-dasharray:50 52;stroke-dashoffset:51;animation:mTrJQQYC_draw 7ms linear 249ms forwards;}.mTrJQQYC_17{stroke-dasharray:130 132;stroke-dashoffset:131;animation:mTrJQQYC_draw 19ms linear 257ms forwards;}.mTrJQQYC_18{stroke-dasharray:43 45;stroke-dashoffset:44;animation:mTrJQQYC_draw 6ms linear 276ms forwards;}.mTrJQQYC_19{stroke-dasharray:35 37;stroke-dashoffset:36;animation:mTrJQQYC_draw 5ms linear 282ms forwards;}.mTrJQQYC_20{stroke-dasharray:35 37;stroke-dashoffset:36;animation:mTrJQQYC_draw 5ms linear 288ms forwards;}.mTrJQQYC_21{stroke-dasharray:71 73;stroke-dashoffset:72;animation:mTrJQQYC_draw 10ms linear 293ms forwards;}.mTrJQQYC_22{stroke-dasharray:59 61;stroke-dashoffset:60;animation:mTrJQQYC_draw 8ms linear 303ms forwards;}.mTrJQQYC_23{stroke-dasharray:87 89;stroke-dashoffset:88;animation:mTrJQQYC_draw 12ms linear 312ms forwards;}.mTrJQQYC_24{stroke-dasharray:19 21;stroke-dashoffset:20;animation:mTrJQQYC_draw 2ms linear 325ms forwards;}.mTrJQQYC_25{stroke-dasharray:79 81;stroke-dashoffset:80;animation:mTrJQQYC_draw 11ms linear 328ms forwards;}.mTrJQQYC_26{stroke-dasharray:17 19;stroke-dashoffset:18;animation:mTrJQQYC_draw 2ms linear 340ms forwards;}.mTrJQQYC_27{stroke-dasharray:41 43;stroke-dashoffset:42;animation:mTrJQQYC_draw 6ms linear 343ms forwards;}.mTrJQQYC_28{stroke-dasharray:28 30;stroke-dashoffset:29;animation:mTrJQQYC_draw 4ms linear 349ms forwards;}.mTrJQQYC_29{stroke-dasharray:17 19;stroke-dashoffset:18;animation:mTrJQQYC_draw 2ms linear 353ms forwards;}.mTrJQQYC_30{stroke-dasharray:25 27;stroke-dashoffset:26;animation:mTrJQQYC_draw 3ms linear 356ms forwards;}.mTrJQQYC_31{stroke-dasharray:23 25;stroke-dashoffset:24;animation:mTrJQQYC_draw 3ms linear 359ms forwards;}.mTrJQQYC_32{stroke-dasharray:18 20;stroke-dashoffset:19;animation:mTrJQQYC_draw 2ms linear 363ms forwards;}.mTrJQQYC_33{stroke-dasharray:31 33;stroke-dashoffset:32;animation:mTrJQQYC_draw 4ms linear 366ms forwards;}.mTrJQQYC_34{stroke-dasharray:130 132;stroke-dashoffset:131;animation:mTrJQQYC_draw 19ms linear 370ms forwards;}.mTrJQQYC_35{stroke-dasharray:39 41;stroke-dashoffset:40;animation:mTrJQQYC_draw 5ms linear 390ms forwards;}.mTrJQQYC_36{stroke-dasharray:61 63;stroke-dashoffset:62;animation:mTrJQQYC_draw 9ms linear 396ms forwards;}.mTrJQQYC_37{stroke-dasharray:49 51;stroke-dashoffset:50;animation:mTrJQQYC_draw 7ms linear 405ms forwards;}.mTrJQQYC_38{stroke-dasharray:14 16;stroke-dashoffset:15;animation:mTrJQQYC_draw 2ms linear 412ms forwards;}.mTrJQQYC_39{stroke-dasharray:34 36;stroke-dashoffset:35;animation:mTrJQQYC_draw 5ms linear 414ms forwards;}.mTrJQQYC_40{stroke-dasharray:42 44;stroke-dashoffset:43;animation:mTrJQQYC_draw 6ms linear 419ms forwards;}.mTrJQQYC_41{stroke-dasharray:20 22;stroke-dashoffset:21;animation:mTrJQQYC_draw 3ms linear 426ms forwards;}.mTrJQQYC_42{stroke-dasharray:26 28;stroke-dashoffset:27;animation:mTrJQQYC_draw 3ms linear 429ms forwards;}.mTrJQQYC_43{stroke-dasharray:31 33;stroke-dashoffset:32;animation:mTrJQQYC_draw 4ms linear 433ms forwards;}.mTrJQQYC_44{stroke-dasharray:12 14;stroke-dashoffset:13;animation:mTrJQQYC_draw 1ms linear 437ms forwards;}.mTrJQQYC_45{stroke-dasharray:13 15;stroke-dashoffset:14;animation:mTrJQQYC_draw 2ms linear 439ms forwards;}.mTrJQQYC_46{stroke-dasharray:24 26;stroke-dashoffset:25;animation:mTrJQQYC_draw 3ms linear 441ms forwards;}.mTrJQQYC_47{stroke-dasharray:12 14;stroke-dashoffset:13;animation:mTrJQQYC_draw 1ms linear 445ms forwards;}.mTrJQQYC_48{stroke-dasharray:25 27;stroke-dashoffset:26;animation:mTrJQQYC_draw 3ms linear 447ms forwards;}.mTrJQQYC_49{stroke-dasharray:13 15;stroke-dashoffset:14;animation:mTrJQQYC_draw 2ms linear 451ms forwards;}.mTrJQQYC_50{stroke-dasharray:38 40;stroke-dashoffset:39;animation:mTrJQQYC_draw 5ms linear 453ms forwards;}.mTrJQQYC_51{stroke-dasharray:17 19;stroke-dashoffset:18;animation:mTrJQQYC_draw 2ms linear 459ms forwards;}.mTrJQQYC_52{stroke-dasharray:20 22;stroke-dashoffset:21;animation:mTrJQQYC_draw 3ms linear 461ms forwards;}.mTrJQQYC_53{stroke-dasharray:30 32;stroke-dashoffset:31;animation:mTrJQQYC_draw 4ms linear 464ms forwards;}.mTrJQQYC_54{stroke-dasharray:31 33;stroke-dashoffset:32;animation:mTrJQQYC_draw 4ms linear 469ms forwards;}.mTrJQQYC_55{stroke-dasharray:13 15;stroke-dashoffset:14;animation:mTrJQQYC_draw 2ms linear 474ms forwards;}.mTrJQQYC_56{stroke-dasharray:11 13;stroke-dashoffset:12;animation:mTrJQQYC_draw 1ms linear 476ms forwards;}.mTrJQQYC_57{stroke-dasharray:18 20;stroke-dashoffset:19;animation:mTrJQQYC_draw 2ms linear 477ms forwards;}.mTrJQQYC_58{stroke-dasharray:17 19;stroke-dashoffset:18;animation:mTrJQQYC_draw 2ms linear 480ms forwards;}.mTrJQQYC_59{stroke-dasharray:32 34;stroke-dashoffset:33;animation:mTrJQQYC_draw 4ms linear 483ms forwards;}.mTrJQQYC_60{stroke-dasharray:26 28;stroke-dashoffset:27;animation:mTrJQQYC_draw 3ms linear 488ms forwards;}.mTrJQQYC_61{stroke-dasharray:11 13;stroke-dashoffset:12;animation:mTrJQQYC_draw 1ms linear 492ms forwards;}.mTrJQQYC_62{stroke-dasharray:42 44;stroke-dashoffset:43;animation:mTrJQQYC_draw 6ms linear 493ms forwards;}.mTrJQQYC_63{stroke-dasharray:36 38;stroke-dashoffset:37;animation:mTrJQQYC_draw 5ms linear 500ms forwards;}.mTrJQQYC_64{stroke-dasharray:11 13;stroke-dashoffset:12;animation:mTrJQQYC_draw 1ms linear 505ms forwards;}.mTrJQQYC_65{stroke-dasharray:20 22;stroke-dashoffset:21;animation:mTrJQQYC_draw 3ms linear 507ms forwards;}.mTrJQQYC_66{stroke-dasharray:12 14;stroke-dashoffset:13;animation:mTrJQQYC_draw 1ms linear 510ms forwards;}.mTrJQQYC_67{stroke-dasharray:17 19;stroke-dashoffset:18;animation:mTrJQQYC_draw 2ms linear 512ms forwards;}.mTrJQQYC_68{stroke-dasharray:11 13;stroke-dashoffset:12;animation:mTrJQQYC_draw 1ms linear 515ms forwards;}.mTrJQQYC_69{stroke-dasharray:12 14;stroke-dashoffset:13;animation:mTrJQQYC_draw 1ms linear 516ms forwards;}.mTrJQQYC_70{stroke-dasharray:17 19;stroke-dashoffset:18;animation:mTrJQQYC_draw 2ms linear 518ms forwards;}.mTrJQQYC_71{stroke-dasharray:11 13;stroke-dashoffset:12;animation:mTrJQQYC_draw 1ms linear 521ms forwards;}.mTrJQQYC_72{stroke-dasharray:9 11;stroke-dashoffset:10;animation:mTrJQQYC_draw 1ms linear 523ms forwards;}.mTrJQQYC_73{stroke-dasharray:7 9;stroke-dashoffset:8;animation:mTrJQQYC_draw 1ms linear 524ms forwards;}.mTrJQQYC_74{stroke-dasharray:28 30;stroke-dashoffset:29;animation:mTrJQQYC_draw 4ms linear 525ms forwards;}.mTrJQQYC_75{stroke-dasharray:10 12;stroke-dashoffset:11;animation:mTrJQQYC_draw 1ms linear 530ms forwards;}.mTrJQQYC_76{stroke-dasharray:13 15;stroke-dashoffset:14;animation:mTrJQQYC_draw 2ms linear 531ms forwards;}.mTrJQQYC_77{stroke-dasharray:12 14;stroke-dashoffset:13;animation:mTrJQQYC_draw 1ms linear 533ms forwards;}.mTrJQQYC_78{stroke-dasharray:33 35;stroke-dashoffset:34;animation:mTrJQQYC_draw 4ms linear 535ms forwards;}.mTrJQQYC_79{stroke-dasharray:25 27;stroke-dashoffset:26;animation:mTrJQQYC_draw 3ms linear 540ms forwards;}.mTrJQQYC_80{stroke-dasharray:13 15;stroke-dashoffset:14;animation:mTrJQQYC_draw 2ms linear 544ms forwards;}.mTrJQQYC_81{stroke-dasharray:12 14;stroke-dashoffset:13;animation:mTrJQQYC_draw 1ms linear 546ms forwards;}.mTrJQQYC_82{stroke-dasharray:10 12;stroke-dashoffset:11;animation:mTrJQQYC_draw 1ms linear 548ms forwards;}.mTrJQQYC_83{stroke-dasharray:11 13;stroke-dashoffset:12;animation:mTrJQQYC_draw 1ms linear 550ms forwards;}.mTrJQQYC_84{stroke-dasharray:13 15;stroke-dashoffset:14;animation:mTrJQQYC_draw 2ms linear 551ms forwards;}.mTrJQQYC_85{stroke-dasharray:16 18;stroke-dashoffset:17;animation:mTrJQQYC_draw 2ms linear 553ms forwards;}.mTrJQQYC_86{stroke-dasharray:40 42;stroke-dashoffset:41;animation:mTrJQQYC_draw 6ms linear 556ms forwards;}.mTrJQQYC_87{stroke-dasharray:14 16;stroke-dashoffset:15;animation:mTrJQQYC_draw 2ms linear 562ms forwards;}.mTrJQQYC_88{stroke-dasharray:16 18;stroke-dashoffset:17;animation:mTrJQQYC_draw 2ms linear 564ms forwards;}.mTrJQQYC_89{stroke-dasharray:11 13;stroke-dashoffset:12;animation:mTrJQQYC_draw 1ms linear 567ms forwards;}.mTrJQQYC_90{stroke-dasharray:7 9;stroke-dashoffset:8;animation:mTrJQQYC_draw 1ms linear 568ms forwards;}.mTrJQQYC_91{stroke-dasharray:6 8;stroke-dashoffset:7;animation:mTrJQQYC_draw 1ms linear 570ms forwards;}.mTrJQQYC_92{stroke-dasharray:32 34;stroke-dashoffset:33;animation:mTrJQQYC_draw 4ms linear 571ms forwards;}.mTrJQQYC_93{stroke-dasharray:5 7;stroke-dashoffset:6;animation:mTrJQQYC_draw 0ms linear 575ms forwards;}.mTrJQQYC_94{stroke-dasharray:12 14;stroke-dashoffset:13;animation:mTrJQQYC_draw 1ms linear 576ms forwards;}.mTrJQQYC_95{stroke-dasharray:11 13;stroke-dashoffset:12;animation:mTrJQQYC_draw 1ms linear 578ms forwards;}.mTrJQQYC_96{stroke-dasharray:5 7;stroke-dashoffset:6;animation:mTrJQQYC_draw 0ms linear 580ms forwards;}.mTrJQQYC_97{stroke-dasharray:13 15;stroke-dashoffset:14;animation:mTrJQQYC_draw 2ms linear 581ms forwards;}.mTrJQQYC_98{stroke-dasharray:15 17;stroke-dashoffset:16;animation:mTrJQQYC_draw 2ms linear 583ms forwards;}.mTrJQQYC_99{stroke-dasharray:6 8;stroke-dashoffset:7;animation:mTrJQQYC_draw 1ms linear 585ms forwards;}.mTrJQQYC_100{stroke-dasharray:7 9;stroke-dashoffset:8;animation:mTrJQQYC_draw 1ms linear 586ms forwards;}.mTrJQQYC_101{stroke-dasharray:5 7;stroke-dashoffset:6;animation:mTrJQQYC_draw 0ms linear 587ms forwards;}.mTrJQQYC_102{stroke-dasharray:5 7;stroke-dashoffset:6;animation:mTrJQQYC_draw 0ms linear 588ms forwards;}.mTrJQQYC_103{stroke-dasharray:6 8;stroke-dashoffset:7;animation:mTrJQQYC_draw 1ms linear 589ms forwards;}.mTrJQQYC_104{stroke-dasharray:10 12;stroke-dashoffset:11;animation:mTrJQQYC_draw 1ms linear 590ms forwards;}.mTrJQQYC_105{stroke-dasharray:5 7;stroke-dashoffset:6;animation:mTrJQQYC_draw 0ms linear 592ms forwards;}.mTrJQQYC_106{stroke-dasharray:39 41;stroke-dashoffset:40;animation:mTrJQQYC_draw 5ms linear 593ms forwards;}.mTrJQQYC_107{stroke-dasharray:5 7;stroke-dashoffset:6;animation:mTrJQQYC_draw 0ms linear 599ms forwards;}@keyframes mTrJQQYC_draw{100%{stroke-dashoffset:0;}}@keyframes mTrJQQYC_fade{0%{stroke-opacity:1;}91.66666666666667%{stroke-opacity:1;}100%{stroke-opacity:0;}}</style></svg>