<svg xmlns="http://www.w3.org/2000/svg" viewBox="0 0 812.66 532.77" style=""><title>Asset 1</title><g id="Layer_2" data-name="Layer 2"><g id="Layer_1-2" data-name="Layer 1"><path d="M802,382c-12.5-2.83-25-5.74-37.5-8.48-9.64-2.11-19.29-4.24-29-6-12.46-2.22-25-4.19-37.5-6-6.79-1-13.66-1.35-20.49-2.07-5.84-.61-11.68-1.22-17.5-2-9.18-1.25-18.36-2.53-27.5-4-8.19-1.33-16.33-3-24.51-4.45-9.15-1.58-18.35-2.92-27.49-4.55-6.53-1.16-13-3.2-19.52-3.79-5.59-.51-11.32.41-17,.87a61.62,61.62,0,0,0-6.8,1.34c-6-18-15.95-33.61-20.72-51.38-4.7-17.5-13.3-33.27-21.92-49-2.25-4.11-3.57-8.71-5.59-13-4.4-9.22-9.11-18.28-13.44-27.53-8.55-18.25-15.23-37.18-21.25-56.42-2.68-8.58-7.68-16.45-11.8-24.56a417,417,0,0,1-24.85-60.55c-2.82-8.7-12.48-15.11-21.7-10.07C389.4,54,382.09,54.7,374.5,54.76c-5.68,0-11.32,2.5-17,3.72-9.65,2.07-19.39,3.76-29,6.08-14.83,3.58-30,5-45,7.07-6.6.92-13,3.41-19.53,4.82-8.62,1.87-17.34,3.31-26,5.07-13.92,2.82-28.11,3.6-42.11,6.48-15.18,3.13-30.44,7.63-46.41,6.69-4.09-.24-8.29,2-12.5,2.77-6.47,1.17-13,1.9-19.48,3.1-3.72.69-7.3,2.18-11,2.89-6.3,1.2-12.77,1.6-19,3.17-7.13,1.82-14.48,3.71-20.9,7.12-6.17,3.28-12.51,5.16-19.12,6.79-4.71,1.17-9.27,3-14,3.85-4.91.84-10.1,1.61-15,.92-7.83-1.12-14.2,7.58-11.56,15.2,4.13,12,7.82,24.06,12.08,36,8.44,23.59,18.72,46.38,29.18,69.14,7.3,15.89,13.18,32.5,18.55,49.29C72.56,313,80.54,330.32,87.49,348q11.57,29.47,23,59c1.94,5.06,3.37,10.32,5,15.48" transform="translate(-5.36 -47.61)" fill="none" stroke="#000" stroke-linecap="round" stroke-linejoin="round" stroke-width="2" class="nZruEyBP_0"></path><path d="M777.5,414.5c3.67-1.67,7.29-3.44,11-5,11-4.57,19.35-9.75,28.51-21.16-3.23-2-6.23-4.25-9.6-5.66a4.29,4.29,0,0,0-5.1,1.14c-4.77,5-10.48,9.17-15.82,13.67-11.61,9.79-25.47,15.63-39,22-19,8.91-38.59,16.75-56.56,27.91-6.67,4.14-14.25,6.81-21.42,10.13-8.66,4-17.45,7.76-26,12.08-7.18,3.64-13.83,8.35-21.08,11.83-13.85,6.65-28,12.59-41.94,19.13-20.24,9.51-40.26,19.5-60.56,28.87-9.76,4.51-20.07,7.83-29.93,12.16-11.46,5-22.63,10.75-34.07,15.85-4.11,1.83-8.84,2.3-12.91,4.19-5.06,2.36-9.65,5.68-14.59,8.32a14.05,14.05,0,0,1-6,1.51c-10.44.34-20.16-3-30-5.87-12.41-3.63-25.22-6-37.42-10.25-15.25-5.26-29.87-12.37-45.11-17.67-15.43-5.36-31.3-9.41-46.94-14.19-6.9-2.11-14-4-20.45-7.09-14.64-7-30.19-11.12-45.55-15.89-10.37-3.22-20.67-6.66-31-10-2-.63-4-1.07-6-1.62.2-3.45,3.44-3.23,5.55-4.39,9.24-5.07,19.75-6.48,29.46-10.11,19.47-7.29,38.71-15.23,58-22.89,12.66-5,25.29-10.12,38-15,9.26-3.53,18.72-6.52,28-10.08,16.06-6.18,32-12.78,48-18.91,14.58-5.56,29.42-10.44,44-16.11,26.3-10.25,52.44-20.89,77.52-33.95,5.69-3,11.12-6.53,17.05-8.86,8.13-3.19,16.61-5.48,25-8.11,1.46-.46,3-.68,4.49-1" transform="translate(-5.36 -47.61)" fill="none" stroke="#000" stroke-linecap="round" stroke-linejoin="round" stroke-width="2" class="nZruEyBP_1"></path><path d="M687.5,375.5c-7.62,5.58-16.85,7-25.48,10.06-9.25,3.25-18.51,6.58-27.46,10.57-6,2.66-11.21,6.9-17.09,9.8-12.38,6.08-25,11.71-37.46,17.59-6.2,2.92-12.19,6.36-18.54,8.9-10.71,4.3-21.65,8-32.46,12.1-5.53,2.08-11,4.29-16.5,6.49-7.84,3.14-15.91,5.85-23.45,9.6-13.4,6.66-26.84,13-41,18C430.16,485,412.7,492.6,395,499.45c-6,2.33-12.47,3.68-18.44,6.14a230.35,230.35,0,0,0-23.46,11c-4.73,2.61-8.86,6.39-13,9.9-4.36,3.65-8.54,4.35-14.09,2.1-15.34-6.22-30.84-12.12-46.48-17.53-11.65-4-23.58-7.28-35.49-10.5-3.71-1-8.08,1.08-11.66-2.24,12.23-8.88,24.69-16.91,39.11-22.06,13.67-4.89,26.62-11.77,40.11-17.2,11.48-4.62,23.35-8.29,34.94-12.65,6.28-2.36,12.23-5.63,18.55-7.87,13.75-4.9,27.68-9.28,41.45-14.13,5.62-2,11-4.79,16.53-6.91,20.91-7.92,41.72-16.07,62.91-23.25,13.23-4.49,25.61-11.44,38.61-16.69,14.18-5.72,28.65-10.7,43-16.12,3.76-1.43,7.35-3.3,11-5" transform="translate(-5.36 -47.61)" fill="none" stroke="#000" stroke-linecap="round" stroke-linejoin="round" stroke-width="2" class="nZruEyBP_2"></path><path d="M408.5,70.5c-.67.5-1.37,1.48-2,1.43C389.86,70.68,374,75.27,358,78.5c-4.17.84-8.4,1.43-12.48,2.56-5.07,1.41-9.94,3.55-15,4.89-15.13,4-30.22,8.19-45.52,11.38-9.3,1.94-19,1.92-28.45,3.27-5.58.8-11,2.77-16.52,3.85s-11.43,1.28-17,2.66c-9.26,2.3-18.26,5.64-27.55,7.78-8.87,2-18,3.06-27,4.64-6,1.06-12,2.5-18,3.43-6.8,1-13.66,1.74-20.49,2.54-7.83.92-15.49,2.1-23.08,4.77-6.94,2.44-14.67,2.56-21.9,4.31-12.26,3-25.43,2.19-36.62,9.77-4.36,3-10.68,2.2-14.9,6.15" transform="translate(-5.36 -47.61)" fill="none" stroke="#000" stroke-linecap="round" stroke-linejoin="round" stroke-width="2" class="nZruEyBP_3"></path><path d="M520.5,538.5c-3.83,1.67-7.69,3.28-11.5,5-8,3.63-16,7.42-24,11-6.43,2.82-13,5.23-19.47,8.07s-13.13,5.3-18.9,9.14a37.94,37.94,0,0,1-21.12,6.87c-9.17.14-18.34,1-27.5.8-4.69-.1-9.36-1.74-14-2.86-12.18-2.94-24.43-5.66-36.48-9.07-10.79-3.05-21.45-6.65-32-10.47-16.42-5.94-32.65-12.39-49-18.41s-32.62-11.79-49-17.51a264.28,264.28,0,0,0-44-11.54c-3.68-.61-7.33-1.32-11-2" transform="translate(-5.36 -47.61)" fill="none" stroke="#000" stroke-linecap="round" stroke-linejoin="round" stroke-width="2" class="nZruEyBP_4"></path><path d="M514.5,318.5c-5.67,2-11.37,3.91-17,6-10,3.76-20.11,7.41-30,11.54-12.38,5.17-24.62,10.5-37.44,14.69-14.52,4.75-28.29,11.76-42.63,17.12-8.23,3.07-17.06,4.47-25.42,7.22-10.61,3.49-21.2,7.16-31.49,11.52-14.73,6.24-30,10.21-45.5,14.05a223.9,223.9,0,0,0-30,10c-6.87,2.79-13.57,5.37-21.05,6a47.18,47.18,0,0,0-11.49,2.92c-15.15,5.27-30.86,9-45,17" transform="translate(-5.36 -47.61)" fill="none" stroke="#000" stroke-linecap="round" stroke-linejoin="round" stroke-width="2" class="nZruEyBP_5"></path><path d="M36.5,151.5c10.53,17.92,18.67,37,25.3,56.57,3.5,10.33,5.28,21.35,10.79,30.88,8.6,14.87,11.92,31.46,17.07,47.5,4.9,15.25,11.3,30,16.79,45.07,4.22,11.59,7.06,23.78,12.28,34.87,7.41,15.74,13.33,32,19.76,48.11,2.39,6,4.68,12,7,18" transform="translate(-5.36 -47.61)" fill="none" stroke="#000" stroke-linecap="round" stroke-linejoin="round" stroke-width="2" class="nZruEyBP_6"></path><path d="M406.5,72.5c5.61,7.11,7.57,15.89,11.05,24,3.77,8.77,8.11,17.28,11.87,26.06,1.63,3.8,2.19,8,3.63,11.95,2.66,7.23,6.06,14.21,8.33,21.55,2.5,8.09,6.35,15.46,9.87,23.08,5.74,12.42,9.46,25.75,14.88,38.33,4.63,10.73,7.67,22.14,15.11,31.76,3.49,4.51,4.22,11.15,6.26,16.8,3.31,9.18,7.5,18.13,9.76,27.56A182.81,182.81,0,0,0,506,321" transform="translate(-5.36 -47.61)" fill="none" stroke="#000" stroke-linecap="round" stroke-linejoin="round" stroke-width="2" class="nZruEyBP_7"></path><path d="M775.5,415.5c-7.83,4.17-15.66,8.35-23.5,12.5-15.49,8.18-30.86,16.62-46.54,24.42-15.48,7.7-31.31,14.72-47,22.09-10.52,5-21.62,9-31.35,15.23-13.37,8.51-28.53,13-42.19,20.69-8.43,4.76-17.21,8.91-26,13-5,2.34-10.3,4.06-15.47,6.06" transform="translate(-5.36 -47.61)" fill="none" stroke="#000" stroke-linecap="round" stroke-linejoin="round" stroke-width="2" class="nZruEyBP_8"></path><path d="M561.5,439.5c-9,8.63-21.14,11.07-32,16-6.4,2.88-13.21,4.93-19.43,8.14a221.34,221.34,0,0,1-32,13.19c-8.15,2.71-15.43,8-23.1,12.21" transform="translate(-5.36 -47.61)" fill="none" stroke="#000" stroke-linecap="round" stroke-linejoin="round" stroke-width="2" class="nZruEyBP_9"></path><path d="M682,378q-16.5-3.75-33-7.5-15.25-3.48-30.5-7l-26-6" transform="translate(-5.36 -47.61)" fill="none" stroke="#000" stroke-linecap="round" stroke-linejoin="round" stroke-width="2" class="nZruEyBP_10"></path><path d="M453.5,489.5c3.83,1,7.61,2.36,11.51,2.93,9.8,1.43,19.5,3,29,5.89,6.38,1.94,13.28,2.18,19.95,3.18l6.5,1" transform="translate(-5.36 -47.61)" fill="none" stroke="#000" stroke-linecap="round" stroke-linejoin="round" stroke-width="2" class="nZruEyBP_11"></path><path d="M425,434.5c-8.33,3.33-16.78,6.41-25,10.06-11.54,5.14-23.77,7.44-36,10.13-7.4,1.63-14.39,5.12-21.54,7.83-1.88.71-3.67,1.65-5.51,2.48" transform="translate(-5.36 -47.61)" fill="none" stroke="#000" stroke-linecap="round" stroke-linejoin="round" stroke-width="2" class="nZruEyBP_12"></path><path d="M116.5,424.5c2,6.67,3.41,13.59,6.15,19.93,3.36,7.78,7.7,15.15,11.89,22.54s8.62,14.36,13,21.52" transform="translate(-5.36 -47.61)" fill="none" stroke="#000" stroke-linecap="round" stroke-linejoin="round" stroke-width="2" class="nZruEyBP_13"></path><path d="M383,460c-4.5,1.33-9.16,2.28-13.46,4.1-5.34,2.26-10.11,6.35-15.6,7.64-8.15,1.91-15.17,6.2-22.93,8.8a21,21,0,0,0-3.51,2" transform="translate(-5.36 -47.61)" fill="none" stroke="#000" stroke-linecap="round" stroke-linejoin="round" stroke-width="2" class="nZruEyBP_14"></path><path d="M397,469c-7.67,2.83-15.3,5.75-23,8.43a8.83,8.83,0,0,1-5,0c-4.72-1.31-9.35-2.93-14-4.43" transform="translate(-5.36 -47.61)" fill="none" stroke="#000" stroke-linecap="round" stroke-linejoin="round" stroke-width="2" class="nZruEyBP_15"></path><path d="M654.5,380.5,614,398" transform="translate(-5.36 -47.61)" fill="none" stroke="#000" stroke-linecap="round" stroke-linejoin="round" stroke-width="2" class="nZruEyBP_16"></path><path d="M336.5,466c-4.33,1.33-8.76,2.42-13,4.05-7.73,3-15.45,5.87-23.47,8.12A55,55,0,0,0,279,490" transform="translate(-5.36 -47.61)" fill="none" stroke="#000" stroke-linecap="round" stroke-linejoin="round" stroke-width="2" class="nZruEyBP_17"></path><path d="M616.5,448.5c-12.12-2.41-24.65-2.34-36.54-6.39-5.28-1.8-11-2.44-16.46-3.61" transform="translate(-5.36 -47.61)" fill="none" stroke="#000" stroke-linecap="round" stroke-linejoin="round" stroke-width="2" class="nZruEyBP_18"></path><path d="M292.5,502.5l4.72-4.13L333,511" transform="translate(-5.36 -47.61)" fill="none" stroke="#000" stroke-linecap="round" stroke-linejoin="round" stroke-width="2" class="nZruEyBP_19"></path><path d="M534.5,433c-7.5,3.17-14.81,7-22.54,9.36-12.94,4-25.44,9.41-38.93,11.81-6.51,1.16-12.58,4.66-19.06,6.22-12.31,3-23.88,8.06-36,11.61" transform="translate(-5.36 -47.61)" fill="none" stroke="#000" stroke-linecap="round" stroke-linejoin="round" stroke-width="2" class="nZruEyBP_20"></path><path d="M435,457l-32,10" transform="translate(-5.36 -47.61)" fill="none" stroke="#000" stroke-linecap="round" stroke-linejoin="round" stroke-width="2" class="nZruEyBP_21"></path><path d="M500,420c-7.33,2.83-14.64,5.74-22,8.48q-15.71,5.85-31.52,11.45a6.7,6.7,0,0,1-4.44,0c-6-2.57-12-5.21-18.53-6.42" transform="translate(-5.36 -47.61)" fill="none" stroke="#000" stroke-linecap="round" stroke-linejoin="round" stroke-width="2" class="nZruEyBP_22"></path><path d="M413,450c-4.5,1.17-9.06,2.16-13.49,3.55-5.23,1.64-10.35,3.62-15.51,5.45" transform="translate(-5.36 -47.61)" fill="none" stroke="#000" stroke-linecap="round" stroke-linejoin="round" stroke-width="2" class="nZruEyBP_23"></path><path d="M442,440.5c-6.83,2.33-13.89,4.17-20.44,7.13C414,451,408,447.11,401.5,445" transform="translate(-5.36 -47.61)" fill="none" stroke="#000" stroke-linecap="round" stroke-linejoin="round" stroke-width="2" class="nZruEyBP_24"></path><path d="M552,416c-9.15,3.29-18.77,5.43-27,11" transform="translate(-5.36 -47.61)" fill="none" stroke="#000" stroke-linecap="round" stroke-linejoin="round" stroke-width="2" class="nZruEyBP_25"></path><path d="M592,371c9.33,4,18.65,8,28,12,3.79,1.6,7.66,3,11.49,4.52" transform="translate(-5.36 -47.61)" fill="none" stroke="#000" stroke-linecap="round" stroke-linejoin="round" stroke-width="2" class="nZruEyBP_26"></path><path d="M512.5,402c-4.83,2-9.63,4.1-14.51,6-13.14,5.06-26.29,10.11-39.5,15-9.44,3.49-19,6.7-28.49,10" transform="translate(-5.36 -47.61)" fill="none" stroke="#000" stroke-linecap="round" stroke-linejoin="round" stroke-width="2" class="nZruEyBP_27"></path><path d="M505,443c-7-6.49-14-4.38-21.57-.64-5.14,2.55-10.93,3.8-16.43,5.64" transform="translate(-5.36 -47.61)" fill="none" stroke="#000" stroke-linecap="round" stroke-linejoin="round" stroke-width="2" class="nZruEyBP_28"></path><path d="M417,473a268.71,268.71,0,0,0-56,21" transform="translate(-5.36 -47.61)" fill="none" stroke="#000" stroke-linecap="round" stroke-linejoin="round" stroke-width="2" class="nZruEyBP_29"></path><path d="M370,479c-5.5,2.17-11.07,4.18-16.47,6.57-2.24,1-4.13,2.79-6.53,4.47l-20.68-7.72c-10.69,3.21-20.51,7.21-27.82,15.67" transform="translate(-5.36 -47.61)" fill="none" stroke="#000" stroke-linecap="round" stroke-linejoin="round" stroke-width="2" class="nZruEyBP_30"></path><path d="M565.5,421.5c-1.17,0-2.48-.35-3.48.06-8.71,3.56-17.37,7.25-26,10.9L488,413" transform="translate(-5.36 -47.61)" fill="none" stroke="#000" stroke-linecap="round" stroke-linejoin="round" stroke-width="2" class="nZruEyBP_31"></path><path d="M588,371c-8.67,3.17-17.35,6.29-26,9.52-6,2.25-12.07,4.51-18,7-10.38,4.39-20.68,9-31,13.47" transform="translate(-5.36 -47.61)" fill="none" stroke="#000" stroke-linecap="round" stroke-linejoin="round" stroke-width="2" class="nZruEyBP_32"></path><path d="M613.5,399c-3.58-.65-5.7,2.26-8.5,3.51q-19.52,8.72-39,17.49" transform="translate(-5.36 -47.61)" fill="none" stroke="#000" stroke-linecap="round" stroke-linejoin="round" stroke-width="2" class="nZruEyBP_33"></path><path d="M358,495.5a93,93,0,0,0-23,16" transform="translate(-5.36 -47.61)" fill="none" stroke="#000" stroke-linecap="round" stroke-linejoin="round" stroke-width="2" class="nZruEyBP_34"></path><path d="M473,453.5c-7.19-7.41-14.92-3-22.49-1-3.56.94-7,2.52-10.53,3.36a11.13,11.13,0,0,1-5.46-.46c-5-1.51-10-3.28-15-4.94" transform="translate(-5.36 -47.61)" fill="none" stroke="#000" stroke-linecap="round" stroke-linejoin="round" stroke-width="2" class="nZruEyBP_35"></path><path d="M530,408l-22.5,9.5" transform="translate(-5.36 -47.61)" fill="none" stroke="#000" stroke-linecap="round" stroke-linejoin="round" stroke-width="2" class="nZruEyBP_36"></path><path d="M520,428l-22,9" transform="translate(-5.36 -47.61)" fill="none" stroke="#000" stroke-linecap="round" stroke-linejoin="round" stroke-width="2" class="nZruEyBP_37"></path><path d="M575.5,387c4.17,1.17,8.34,2.32,12.5,3.5,4,1.14,8,2.33,12,3.5" transform="translate(-5.36 -47.61)" fill="none" stroke="#000" stroke-linecap="round" stroke-linejoin="round" stroke-width="2" class="nZruEyBP_38"></path><path d="M552,414c-9.27-4.8-18.9-8.34-29.5-8.5" transform="translate(-5.36 -47.61)" fill="none" stroke="#000" stroke-linecap="round" stroke-linejoin="round" stroke-width="2" class="nZruEyBP_39"></path><path d="M621,385c-5.67,3.17-11.31,6.39-17,9.45-1,.52-2.31.38-3.47.55" transform="translate(-5.36 -47.61)" fill="none" stroke="#000" stroke-linecap="round" stroke-linejoin="round" stroke-width="2" class="nZruEyBP_40"></path><path d="M402.5,468c-3-.83-6.08-1.45-9-2.56-3.26-1.25-6.36-2.94-9.52-4.44" transform="translate(-5.36 -47.61)" fill="none" stroke="#000" stroke-linecap="round" stroke-linejoin="round" stroke-width="2" class="nZruEyBP_41"></path><path d="M269.5,488.5c3.67,1,7.43,1.73,11,3.07,4.6,1.73,9,3.91,13.51,6a12,12,0,0,1,2,1.48" transform="translate(-5.36 -47.61)" fill="none" stroke="#000" stroke-linecap="round" stroke-linejoin="round" stroke-width="2" class="nZruEyBP_42"></path><path d="M569.5,408.5c-4,1.67-8,3.38-12,5-1.61.64-3.32,1-5,1.52" transform="translate(-5.36 -47.61)" fill="none" stroke="#000" stroke-linecap="round" stroke-linejoin="round" stroke-width="2" class="nZruEyBP_43"></path><path d="M493,438l-16-7" transform="translate(-5.36 -47.61)" fill="none" stroke="#000" stroke-linecap="round" stroke-linejoin="round" stroke-width="2" class="nZruEyBP_44"></path><path d="M446,440.5l16,8" transform="translate(-5.36 -47.61)" fill="none" stroke="#000" stroke-linecap="round" stroke-linejoin="round" stroke-width="2" class="nZruEyBP_45"></path><path d="M600,396l-16,7" transform="translate(-5.36 -47.61)" fill="none" stroke="#000" stroke-linecap="round" stroke-linejoin="round" stroke-width="2" class="nZruEyBP_46"></path><path d="M324,482.5c-4.78-3.48-10.63-3.14-16-4.5" transform="translate(-5.36 -47.61)" fill="none" stroke="#000" stroke-linecap="round" stroke-linejoin="round" stroke-width="2" class="nZruEyBP_47"></path><path d="M387,483.5l15.5,6" transform="translate(-5.36 -47.61)" fill="none" stroke="#000" stroke-linecap="round" stroke-linejoin="round" stroke-width="2" class="nZruEyBP_48"></path><path d="M346,490.5l-14.5,8" transform="translate(-5.36 -47.61)" fill="none" stroke="#000" stroke-linecap="round" stroke-linejoin="round" stroke-width="2" class="nZruEyBP_49"></path><path d="M632.5,452.5l-14-3" transform="translate(-5.36 -47.61)" fill="none" stroke="#000" stroke-linecap="round" stroke-linejoin="round" stroke-width="2" class="nZruEyBP_50"></path><path d="M572.5,490.5l-14,8" transform="translate(-5.36 -47.61)" fill="none" stroke="#000" stroke-linecap="round" stroke-linejoin="round" stroke-width="2" class="nZruEyBP_51"></path><path d="M562.5,398.5l-5.65-2.16L541.5,403.5" transform="translate(-5.36 -47.61)" fill="none" stroke="#000" stroke-linecap="round" stroke-linejoin="round" stroke-width="2" class="nZruEyBP_52"></path><path d="M555.5,396.5,542,390" transform="translate(-5.36 -47.61)" fill="none" stroke="#000" stroke-linecap="round" stroke-linejoin="round" stroke-width="2" class="nZruEyBP_53"></path><path d="M380,459.5,368.5,455" transform="translate(-5.36 -47.61)" fill="none" stroke="#000" stroke-linecap="round" stroke-linejoin="round" stroke-width="2" class="nZruEyBP_54"></path><path d="M589.5,380.5l-11.5,6" transform="translate(-5.36 -47.61)" fill="none" stroke="#000" stroke-linecap="round" stroke-linejoin="round" stroke-width="2" class="nZruEyBP_55"></path><path d="M472,429l-11.5-3.5" transform="translate(-5.36 -47.61)" fill="none" stroke="#000" stroke-linecap="round" stroke-linejoin="round" stroke-width="2" class="nZruEyBP_56"></path><path d="M175.5,437.5l-11,5" transform="translate(-5.36 -47.61)" fill="none" stroke="#000" stroke-linecap="round" stroke-linejoin="round" stroke-width="2" class="nZruEyBP_57"></path><path d="M349,491l19.5,9.5" transform="translate(-5.36 -47.61)" fill="none" stroke="#000" stroke-linecap="round" stroke-linejoin="round" stroke-width="2" class="nZruEyBP_58"></path><path d="M349,471l-10.5-3.5" transform="translate(-5.36 -47.61)" fill="none" stroke="#000" stroke-linecap="round" stroke-linejoin="round" stroke-width="2" class="nZruEyBP_59"></path><path d="M384,483.5,374,479" transform="translate(-5.36 -47.61)" fill="none" stroke="#000" stroke-linecap="round" stroke-linejoin="round" stroke-width="2" class="nZruEyBP_60"></path><path d="M413,473.5,403,469" transform="translate(-5.36 -47.61)" fill="none" stroke="#000" stroke-linecap="round" stroke-linejoin="round" stroke-width="2" class="nZruEyBP_61"></path><path d="M590.5,356.5h-10" transform="translate(-5.36 -47.61)" fill="none" stroke="#000" stroke-linecap="round" stroke-linejoin="round" stroke-width="2" class="nZruEyBP_62"></path><path d="M579,403l-9.5-2.5" transform="translate(-5.36 -47.61)" fill="none" stroke="#000" stroke-linecap="round" stroke-linejoin="round" stroke-width="2" class="nZruEyBP_63"></path><path d="M547.5,504.5c-2.78,1.82-5,4.94-9,4" transform="translate(-5.36 -47.61)" fill="none" stroke="#000" stroke-linecap="round" stroke-linejoin="round" stroke-width="2" class="nZruEyBP_64"></path><path d="M276,490.5l-8.5,7" transform="translate(-5.36 -47.61)" fill="none" stroke="#000" stroke-linecap="round" stroke-linejoin="round" stroke-width="2" class="nZruEyBP_65"></path><path d="M148.5,490.5l6,9" transform="translate(-5.36 -47.61)" fill="none" stroke="#000" stroke-linecap="round" stroke-linejoin="round" stroke-width="2" class="nZruEyBP_66"></path><path d="M575,386l-8.5-3.5" transform="translate(-5.36 -47.61)" fill="none" stroke="#000" stroke-linecap="round" stroke-linejoin="round" stroke-width="2" class="nZruEyBP_67"></path><path d="M604.5,475.5l-8,4" transform="translate(-5.36 -47.61)" fill="none" stroke="#000" stroke-linecap="round" stroke-linejoin="round" stroke-width="2" class="nZruEyBP_68"></path><path d="M146.5,434.5l3,8" transform="translate(-5.36 -47.61)" fill="none" stroke="#000" stroke-linecap="round" stroke-linejoin="round" stroke-width="2" class="nZruEyBP_69"></path><path d="M333.5,512l10,3.5" transform="translate(-5.36 -47.61)" fill="none" stroke="#000" stroke-linecap="round" stroke-linejoin="round" stroke-width="2" class="nZruEyBP_70"></path><path d="M632.5,379.5,625,383" transform="translate(-5.36 -47.61)" fill="none" stroke="#000" stroke-linecap="round" stroke-linejoin="round" stroke-width="2" class="nZruEyBP_71"></path><path d="M566.5,392.5,559,396" transform="translate(-5.36 -47.61)" fill="none" stroke="#000" stroke-linecap="round" stroke-linejoin="round" stroke-width="2" class="nZruEyBP_72"></path><path d="M560,380.5l-7.5-3" transform="translate(-5.36 -47.61)" fill="none" stroke="#000" stroke-linecap="round" stroke-linejoin="round" stroke-width="2" class="nZruEyBP_73"></path><path d="M520.5,404.5,513,403" transform="translate(-5.36 -47.61)" fill="none" stroke="#000" stroke-linecap="round" stroke-linejoin="round" stroke-width="2" class="nZruEyBP_74"></path><path d="M475.5,407.5,483,411" transform="translate(-5.36 -47.61)" fill="none" stroke="#000" stroke-linecap="round" stroke-linejoin="round" stroke-width="2" class="nZruEyBP_75"></path><path d="M440,457l7,3" transform="translate(-5.36 -47.61)" fill="none" stroke="#000" stroke-linecap="round" stroke-linejoin="round" stroke-width="2" class="nZruEyBP_76"></path><path d="M563,420.5l-7-4.5" transform="translate(-5.36 -47.61)" fill="none" stroke="#000" stroke-linecap="round" stroke-linejoin="round" stroke-width="2" class="nZruEyBP_77"></path><path d="M322.5,549.5h-6" transform="translate(-5.36 -47.61)" fill="none" stroke="#000" stroke-linecap="round" stroke-linejoin="round" stroke-width="2" class="nZruEyBP_78"></path><path d="M590,408.5l-6-3.5" transform="translate(-5.36 -47.61)" fill="none" stroke="#000" stroke-linecap="round" stroke-linejoin="round" stroke-width="2" class="nZruEyBP_79"></path><path d="M156.5,500.5l6,4" transform="translate(-5.36 -47.61)" fill="none" stroke="#000" stroke-linecap="round" stroke-linejoin="round" stroke-width="2" class="nZruEyBP_80"></path><path d="M454,423.5l-5.5-2" transform="translate(-5.36 -47.61)" fill="none" stroke="#000" stroke-linecap="round" stroke-linejoin="round" stroke-width="2" class="nZruEyBP_81"></path><path d="M416.5,430.5l5,2" transform="translate(-5.36 -47.61)" fill="none" stroke="#000" stroke-linecap="round" stroke-linejoin="round" stroke-width="2" class="nZruEyBP_82"></path><path d="M609,398l-5-2" transform="translate(-5.36 -47.61)" fill="none" stroke="#000" stroke-linecap="round" stroke-linejoin="round" stroke-width="2" class="nZruEyBP_83"></path><path d="M527.5,504.5l-5-1" transform="translate(-5.36 -47.61)" fill="none" stroke="#000" stroke-linecap="round" stroke-linejoin="round" stroke-width="2" class="nZruEyBP_84"></path><path d="M626.5,465.5l-5,3" transform="translate(-5.36 -47.61)" fill="none" stroke="#000" stroke-linecap="round" stroke-linejoin="round" stroke-width="2" class="nZruEyBP_85"></path><path d="M538.5,531.5l-5,2" transform="translate(-5.36 -47.61)" fill="none" stroke="#000" stroke-linecap="round" stroke-linejoin="round" stroke-width="2" class="nZruEyBP_86"></path><path d="M575,388l-4.5,2.5" transform="translate(-5.36 -47.61)" fill="none" stroke="#000" stroke-linecap="round" stroke-linejoin="round" stroke-width="2" class="nZruEyBP_87"></path><path d="M579,405l-4.5,1.5" transform="translate(-5.36 -47.61)" fill="none" stroke="#000" stroke-linecap="round" stroke-linejoin="round" stroke-width="2" class="nZruEyBP_88"></path><path d="M162.5,443.5l-4,2" transform="translate(-5.36 -47.61)" fill="none" stroke="#000" stroke-linecap="round" stroke-linejoin="round" stroke-width="2" class="nZruEyBP_89"></path><path d="M333,513l-3.5,3.5" transform="translate(-5.36 -47.61)" fill="none" stroke="#000" stroke-linecap="round" stroke-linejoin="round" stroke-width="2" class="nZruEyBP_90"></path><path d="M329.5,499.5l-4,1" transform="translate(-5.36 -47.61)" fill="none" stroke="#000" stroke-linecap="round" stroke-linejoin="round" stroke-width="2" class="nZruEyBP_91"></path><path d="M640.5,453.5h-4" transform="translate(-5.36 -47.61)" fill="none" stroke="#000" stroke-linecap="round" stroke-linejoin="round" stroke-width="2" class="nZruEyBP_92"></path><path d="M526.5,536.5l-4,1" transform="translate(-5.36 -47.61)" fill="none" stroke="#000" stroke-linecap="round" stroke-linejoin="round" stroke-width="2" class="nZruEyBP_93"></path><path d="M421.5,474.5,418,474" transform="translate(-5.36 -47.61)" fill="none" stroke="#000" stroke-linecap="round" stroke-linejoin="round" stroke-width="2" class="nZruEyBP_94"></path><path d="M601,376l-3.5,1.5" transform="translate(-5.36 -47.61)" fill="none" stroke="#000" stroke-linecap="round" stroke-linejoin="round" stroke-width="2" class="nZruEyBP_95"></path><path d="M539.5,404.5,536,406" transform="translate(-5.36 -47.61)" fill="none" stroke="#000" stroke-linecap="round" stroke-linejoin="round" stroke-width="2" class="nZruEyBP_96"></path><path d="M531.5,534.5l-3,1" transform="translate(-5.36 -47.61)" fill="none" stroke="#000" stroke-linecap="round" stroke-linejoin="round" stroke-width="2" class="nZruEyBP_97"></path><path d="M589.5,482.5l-3,1" transform="translate(-5.36 -47.61)" fill="none" stroke="#000" stroke-linecap="round" stroke-linejoin="round" stroke-width="2" class="nZruEyBP_98"></path><path d="M617.5,470.5l-3,1" transform="translate(-5.36 -47.61)" fill="none" stroke="#000" stroke-linecap="round" stroke-linejoin="round" stroke-width="2" class="nZruEyBP_99"></path><path d="M609.5,473.5l-3,1" transform="translate(-5.36 -47.61)" fill="none" stroke="#000" stroke-linecap="round" stroke-linejoin="round" stroke-width="2" class="nZruEyBP_100"></path><path d="M505.5,400.5l-3-1" transform="translate(-5.36 -47.61)" fill="none" stroke="#000" stroke-linecap="round" stroke-linejoin="round" stroke-width="2" class="nZruEyBP_101"></path><path d="M323.5,501.5l-3,1" transform="translate(-5.36 -47.61)" fill="none" stroke="#000" stroke-linecap="round" stroke-linejoin="round" stroke-width="2" class="nZruEyBP_102"></path><path d="M556.5,499.5l-3,2" transform="translate(-5.36 -47.61)" fill="none" stroke="#000" stroke-linecap="round" stroke-linejoin="round" stroke-width="2" class="nZruEyBP_103"></path><path d="M588,369l-2.5-.5" transform="translate(-5.36 -47.61)" fill="none" stroke="#000" stroke-linecap="round" stroke-linejoin="round" stroke-width="2" class="nZruEyBP_104"></path><path d="M397,444l-2.5-.5" transform="translate(-5.36 -47.61)" fill="none" stroke="#000" stroke-linecap="round" stroke-linejoin="round" stroke-width="2" class="nZruEyBP_105"></path><path d="M362,454l-2.5-.5" transform="translate(-5.36 -47.61)" fill="none" stroke="#000" stroke-linecap="round" stroke-linejoin="round" stroke-width="2" class="nZruEyBP_106"></path><path d="M630.5,463.5l-2,1" transform="translate(-5.36 -47.61)" fill="none" stroke="#000" stroke-linecap="round" stroke-linejoin="round" stroke-width="2" class="nZruEyBP_107"></path><path d="M325.5,461.5l2,1" transform="translate(-5.36 -47.61)" fill="none" stroke="#000" stroke-linecap="round" stroke-linejoin="round" stroke-width="2" class="nZruEyBP_108"></path><path d="M647.5,455.5v2" transform="translate(-5.36 -47.61)" fill="none" stroke="#000" stroke-linecap="round" stroke-linejoin="round" stroke-width="2" class="nZruEyBP_109"></path><path d="M593.5,368.5l-1.5.5" transform="translate(-5.36 -47.61)" fill="none" stroke="#000" stroke-linecap="round" stroke-linejoin="round" stroke-width="2" class="nZruEyBP_110"></path><path d="M615.5,400.5,614,400" transform="translate(-5.36 -47.61)" fill="none" stroke="#000" stroke-linecap="round" stroke-linejoin="round" stroke-width="2" class="nZruEyBP_111"></path></g></g><style data-made-with="vivus-instant">.nZruEyBP_0{stroke-dasharray:1315 1317;stroke-dashoffset:1316;animation:nZruEyBP_draw 149ms ease-in 0ms forwards;}.nZruEyBP_1{stroke-dasharray:1171 1173;stroke-dashoffset:1172;animation:nZruEyBP_draw 133ms ease-in 149ms forwards;}.nZruEyBP_2{stroke-dasharray:869 871;stroke-dashoffset:870;animation:nZruEyBP_draw 98ms ease-in 282ms forwards;}.nZruEyBP_3{stroke-dasharray:386 388;stroke-dashoffset:387;animation:nZruEyBP_draw 43ms ease-in 381ms forwards;}.nZruEyBP_4{stroke-dasharray:378 380;stroke-dashoffset:379;animation:nZruEyBP_draw 43ms ease-in 425ms forwards;}.nZruEyBP_5{stroke-dasharray:358 360;stroke-dashoffset:359;animation:nZruEyBP_draw 40ms ease-in 468ms forwards;}.nZruEyBP_6{stroke-dasharray:302 304;stroke-dashoffset:303;animation:nZruEyBP_draw 34ms ease-in 508ms forwards;}.nZruEyBP_7{stroke-dasharray:269 271;stroke-dashoffset:270;animation:nZruEyBP_draw 30ms ease-in 543ms forwards;}.nZruEyBP_8{stroke-dasharray:259 261;stroke-dashoffset:260;animation:nZruEyBP_draw 29ms ease-in 574ms forwards;}.nZruEyBP_9{stroke-dasharray:118 120;stroke-dashoffset:119;animation:nZruEyBP_draw 13ms ease-in 603ms forwards;}.nZruEyBP_10{stroke-dasharray:92 94;stroke-dashoffset:93;animation:nZruEyBP_draw 10ms ease-in 617ms forwards;}.nZruEyBP_11{stroke-dasharray:69 71;stroke-dashoffset:70;animation:nZruEyBP_draw 7ms ease-in 627ms forwards;}.nZruEyBP_12{stroke-dasharray:94 96;stroke-dashoffset:95;animation:nZruEyBP_draw 10ms ease-in 635ms forwards;}.nZruEyBP_13{stroke-dasharray:72 74;stroke-dashoffset:73;animation:nZruEyBP_draw 8ms ease-in 646ms forwards;}.nZruEyBP_14{stroke-dasharray:61 63;stroke-dashoffset:62;animation:nZruEyBP_draw 7ms ease-in 654ms forwards;}.nZruEyBP_15{stroke-dasharray:45 47;stroke-dashoffset:46;animation:nZruEyBP_draw 5ms ease-in 661ms forwards;}.nZruEyBP_16{stroke-dasharray:45 47;stroke-dashoffset:46;animation:nZruEyBP_draw 5ms ease-in 666ms forwards;}.nZruEyBP_17{stroke-dasharray:63 65;stroke-dashoffset:64;animation:nZruEyBP_draw 7ms ease-in 672ms forwards;}.nZruEyBP_18{stroke-dasharray:55 57;stroke-dashoffset:56;animation:nZruEyBP_draw 6ms ease-in 679ms forwards;}.nZruEyBP_19{stroke-dasharray:45 47;stroke-dashoffset:46;animation:nZruEyBP_draw 5ms ease-in 685ms forwards;}.nZruEyBP_20{stroke-dasharray:124 126;stroke-dashoffset:125;animation:nZruEyBP_draw 14ms ease-in 690ms forwards;}.nZruEyBP_21{stroke-dasharray:34 36;stroke-dashoffset:35;animation:nZruEyBP_draw 3ms ease-in 705ms forwards;}.nZruEyBP_22{stroke-dasharray:82 84;stroke-dashoffset:83;animation:nZruEyBP_draw 9ms ease-in 709ms forwards;}.nZruEyBP_23{stroke-dasharray:31 33;stroke-dashoffset:32;animation:nZruEyBP_draw 3ms ease-in 718ms forwards;}.nZruEyBP_24{stroke-dasharray:43 45;stroke-dashoffset:44;animation:nZruEyBP_draw 4ms ease-in 722ms forwards;}.nZruEyBP_25{stroke-dasharray:30 32;stroke-dashoffset:31;animation:nZruEyBP_draw 3ms ease-in 727ms forwards;}.nZruEyBP_26{stroke-dasharray:43 45;stroke-dashoffset:44;animation:nZruEyBP_draw 4ms ease-in 730ms forwards;}.nZruEyBP_27{stroke-dasharray:89 91;stroke-dashoffset:90;animation:nZruEyBP_draw 10ms ease-in 735ms forwards;}.nZruEyBP_28{stroke-dasharray:41 43;stroke-dashoffset:42;animation:nZruEyBP_draw 4ms ease-in 745ms forwards;}.nZruEyBP_29{stroke-dasharray:60 62;stroke-dashoffset:61;animation:nZruEyBP_draw 6ms ease-in 750ms forwards;}.nZruEyBP_30{stroke-dasharray:81 83;stroke-dashoffset:82;animation:nZruEyBP_draw 9ms ease-in 757ms forwards;}.nZruEyBP_31{stroke-dasharray:84 86;stroke-dashoffset:85;animation:nZruEyBP_draw 9ms ease-in 766ms forwards;}.nZruEyBP_32{stroke-dasharray:81 83;stroke-dashoffset:82;animation:nZruEyBP_draw 9ms ease-in 776ms forwards;}.nZruEyBP_33{stroke-dasharray:53 55;stroke-dashoffset:54;animation:nZruEyBP_draw 6ms ease-in 785ms forwards;}.nZruEyBP_34{stroke-dasharray:29 31;stroke-dashoffset:30;animation:nZruEyBP_draw 3ms ease-in 792ms forwards;}.nZruEyBP_35{stroke-dasharray:57 59;stroke-dashoffset:58;animation:nZruEyBP_draw 6ms ease-in 795ms forwards;}.nZruEyBP_36{stroke-dasharray:25 27;stroke-dashoffset:26;animation:nZruEyBP_draw 2ms ease-in 802ms forwards;}.nZruEyBP_37{stroke-dasharray:24 26;stroke-dashoffset:25;animation:nZruEyBP_draw 2ms ease-in 804ms forwards;}.nZruEyBP_38{stroke-dasharray:26 28;stroke-dashoffset:27;animation:nZruEyBP_draw 3ms ease-in 807ms forwards;}.nZruEyBP_39{stroke-dasharray:31 33;stroke-dashoffset:32;animation:nZruEyBP_draw 3ms ease-in 810ms forwards;}.nZruEyBP_40{stroke-dasharray:23 25;stroke-dashoffset:24;animation:nZruEyBP_draw 2ms ease-in 814ms forwards;}.nZruEyBP_41{stroke-dasharray:20 22;stroke-dashoffset:21;animation:nZruEyBP_draw 2ms ease-in 817ms forwards;}.nZruEyBP_42{stroke-dasharray:29 31;stroke-dashoffset:30;animation:nZruEyBP_draw 3ms ease-in 819ms forwards;}.nZruEyBP_43{stroke-dasharray:19 21;stroke-dashoffset:20;animation:nZruEyBP_draw 2ms ease-in 823ms forwards;}.nZruEyBP_44{stroke-dasharray:18 20;stroke-dashoffset:19;animation:nZruEyBP_draw 2ms ease-in 825ms forwards;}.nZruEyBP_45{stroke-dasharray:18 20;stroke-dashoffset:19;animation:nZruEyBP_draw 2ms ease-in 827ms forwards;}.nZruEyBP_46{stroke-dasharray:18 20;stroke-dashoffset:19;animation:nZruEyBP_draw 2ms ease-in 829ms forwards;}.nZruEyBP_47{stroke-dasharray:17 19;stroke-dashoffset:18;animation:nZruEyBP_draw 2ms ease-in 831ms forwards;}.nZruEyBP_48{stroke-dasharray:17 19;stroke-dashoffset:18;animation:nZruEyBP_draw 2ms ease-in 833ms forwards;}.nZruEyBP_49{stroke-dasharray:17 19;stroke-dashoffset:18;animation:nZruEyBP_draw 2ms ease-in 835ms forwards;}.nZruEyBP_50{stroke-dasharray:15 17;stroke-dashoffset:16;animation:nZruEyBP_draw 1ms ease-in 837ms forwards;}.nZruEyBP_51{stroke-dasharray:17 19;stroke-dashoffset:18;animation:nZruEyBP_draw 2ms ease-in 839ms forwards;}.nZruEyBP_52{stroke-dasharray:23 25;stroke-dashoffset:24;animation:nZruEyBP_draw 2ms ease-in 841ms forwards;}.nZruEyBP_53{stroke-dasharray:15 17;stroke-dashoffset:16;animation:nZruEyBP_draw 1ms ease-in 844ms forwards;}.nZruEyBP_54{stroke-dasharray:13 15;stroke-dashoffset:14;animation:nZruEyBP_draw 1ms ease-in 846ms forwards;}.nZruEyBP_55{stroke-dasharray:13 15;stroke-dashoffset:14;animation:nZruEyBP_draw 1ms ease-in 847ms forwards;}.nZruEyBP_56{stroke-dasharray:13 15;stroke-dashoffset:14;animation:nZruEyBP_draw 1ms ease-in 849ms forwards;}.nZruEyBP_57{stroke-dasharray:13 15;stroke-dashoffset:14;animation:nZruEyBP_draw 1ms ease-in 851ms forwards;}.nZruEyBP_58{stroke-dasharray:22 24;stroke-dashoffset:23;animation:nZruEyBP_draw 2ms ease-in 852ms forwards;}.nZruEyBP_59{stroke-dasharray:12 14;stroke-dashoffset:13;animation:nZruEyBP_draw 1ms ease-in 855ms forwards;}.nZruEyBP_60{stroke-dasharray:11 13;stroke-dashoffset:12;animation:nZruEyBP_draw 1ms ease-in 856ms forwards;}.nZruEyBP_61{stroke-dasharray:11 13;stroke-dashoffset:12;animation:nZruEyBP_draw 1ms ease-in 858ms forwards;}.nZruEyBP_62{stroke-dasharray:10 12;stroke-dashoffset:11;animation:nZruEyBP_draw 1ms ease-in 859ms forwards;}.nZruEyBP_63{stroke-dasharray:10 12;stroke-dashoffset:11;animation:nZruEyBP_draw 1ms ease-in 860ms forwards;}.nZruEyBP_64{stroke-dasharray:11 13;stroke-dashoffset:12;animation:nZruEyBP_draw 1ms ease-in 861ms forwards;}.nZruEyBP_65{stroke-dasharray:12 14;stroke-dashoffset:13;animation:nZruEyBP_draw 1ms ease-in 863ms forwards;}.nZruEyBP_66{stroke-dasharray:11 13;stroke-dashoffset:12;animation:nZruEyBP_draw 1ms ease-in 864ms forwards;}.nZruEyBP_67{stroke-dasharray:10 12;stroke-dashoffset:11;animation:nZruEyBP_draw 1ms ease-in 866ms forwards;}.nZruEyBP_68{stroke-dasharray:9 11;stroke-dashoffset:10;animation:nZruEyBP_draw 1ms ease-in 867ms forwards;}.nZruEyBP_69{stroke-dasharray:9 11;stroke-dashoffset:10;animation:nZruEyBP_draw 1ms ease-in 868ms forwards;}.nZruEyBP_70{stroke-dasharray:11 13;stroke-dashoffset:12;animation:nZruEyBP_draw 1ms ease-in 869ms forwards;}.nZruEyBP_71{stroke-dasharray:9 11;stroke-dashoffset:10;animation:nZruEyBP_draw 1ms ease-in 871ms forwards;}.nZruEyBP_72{stroke-dasharray:9 11;stroke-dashoffset:10;animation:nZruEyBP_draw 1ms ease-in 872ms forwards;}.nZruEyBP_73{stroke-dasharray:9 11;stroke-dashoffset:10;animation:nZruEyBP_draw 1ms ease-in 873ms forwards;}.nZruEyBP_74{stroke-dasharray:8 10;stroke-dashoffset:9;animation:nZruEyBP_draw 1ms ease-in 874ms forwards;}.nZruEyBP_75{stroke-dasharray:9 11;stroke-dashoffset:10;animation:nZruEyBP_draw 1ms ease-in 875ms forwards;}.nZruEyBP_76{stroke-dasharray:8 10;stroke-dashoffset:9;animation:nZruEyBP_draw 1ms ease-in 876ms forwards;}.nZruEyBP_77{stroke-dasharray:9 11;stroke-dashoffset:10;animation:nZruEyBP_draw 1ms ease-in 877ms forwards;}.nZruEyBP_78{stroke-dasharray:6 8;stroke-dashoffset:7;animation:nZruEyBP_draw 0ms ease-in 878ms forwards;}.nZruEyBP_79{stroke-dasharray:7 9;stroke-dashoffset:8;animation:nZruEyBP_draw 0ms ease-in 879ms forwards;}.nZruEyBP_80{stroke-dasharray:8 10;stroke-dashoffset:9;animation:nZruEyBP_draw 1ms ease-in 880ms forwards;}.nZruEyBP_81{stroke-dasharray:6 8;stroke-dashoffset:7;animation:nZruEyBP_draw 0ms ease-in 881ms forwards;}.nZruEyBP_82{stroke-dasharray:6 8;stroke-dashoffset:7;animation:nZruEyBP_draw 0ms ease-in 882ms forwards;}.nZruEyBP_83{stroke-dasharray:6 8;stroke-dashoffset:7;animation:nZruEyBP_draw 0ms ease-in 883ms forwards;}.nZruEyBP_84{stroke-dasharray:6 8;stroke-dashoffset:7;animation:nZruEyBP_draw 0ms ease-in 883ms forwards;}.nZruEyBP_85{stroke-dasharray:6 8;stroke-dashoffset:7;animation:nZruEyBP_draw 0ms ease-in 884ms forwards;}.nZruEyBP_86{stroke-dasharray:6 8;stroke-dashoffset:7;animation:nZruEyBP_draw 0ms ease-in 885ms forwards;}.nZruEyBP_87{stroke-dasharray:6 8;stroke-dashoffset:7;animation:nZruEyBP_draw 0ms ease-in 886ms forwards;}.nZruEyBP_88{stroke-dasharray:5 7;stroke-dashoffset:6;animation:nZruEyBP_draw 0ms ease-in 887ms forwards;}.nZruEyBP_89{stroke-dasharray:5 7;stroke-dashoffset:6;animation:nZruEyBP_draw 0ms ease-in 887ms forwards;}.nZruEyBP_90{stroke-dasharray:5 7;stroke-dashoffset:6;animation:nZruEyBP_draw 0ms ease-in 888ms forwards;}.nZruEyBP_91{stroke-dasharray:5 7;stroke-dashoffset:6;animation:nZruEyBP_draw 0ms ease-in 889ms forwards;}.nZruEyBP_92{stroke-dasharray:4 6;stroke-dashoffset:5;animation:nZruEyBP_draw 0ms ease-in 889ms forwards;}.nZruEyBP_93{stroke-dasharray:5 7;stroke-dashoffset:6;animation:nZruEyBP_draw 0ms ease-in 890ms forwards;}.nZruEyBP_94{stroke-dasharray:4 6;stroke-dashoffset:5;animation:nZruEyBP_draw 0ms ease-in 891ms forwards;}.nZruEyBP_95{stroke-dasharray:4 6;stroke-dashoffset:5;animation:nZruEyBP_draw 0ms ease-in 891ms forwards;}.nZruEyBP_96{stroke-dasharray:4 6;stroke-dashoffset:5;animation:nZruEyBP_draw 0ms ease-in 892ms forwards;}.nZruEyBP_97{stroke-dasharray:4 6;stroke-dashoffset:5;animation:nZruEyBP_draw 0ms ease-in 892ms forwards;}.nZruEyBP_98{stroke-dasharray:4 6;stroke-dashoffset:5;animation:nZruEyBP_draw 0ms ease-in 893ms forwards;}.nZruEyBP_99{stroke-dasharray:4 6;stroke-dashoffset:5;animation:nZruEyBP_draw 0ms ease-in 893ms forwards;}.nZruEyBP_100{stroke-dasharray:4 6;stroke-dashoffset:5;animation:nZruEyBP_draw 0ms ease-in 894ms forwards;}.nZruEyBP_101{stroke-dasharray:4 6;stroke-dashoffset:5;animation:nZruEyBP_draw 0ms ease-in 895ms forwards;}.nZruEyBP_102{stroke-dasharray:4 6;stroke-dashoffset:5;animation:nZruEyBP_draw 0ms ease-in 895ms forwards;}.nZruEyBP_103{stroke-dasharray:4 6;stroke-dashoffset:5;animation:nZruEyBP_draw 0ms ease-in 896ms forwards;}.nZruEyBP_104{stroke-dasharray:3 5;stroke-dashoffset:4;animation:nZruEyBP_draw 0ms ease-in 896ms forwards;}.nZruEyBP_105{stroke-dasharray:3 5;stroke-dashoffset:4;animation:nZruEyBP_draw 0ms ease-in 897ms forwards;}.nZruEyBP_106{stroke-dasharray:3 5;stroke-dashoffset:4;animation:nZruEyBP_draw 0ms ease-in 897ms forwards;}.nZruEyBP_107{stroke-dasharray:3 5;stroke-dashoffset:4;animation:nZruEyBP_draw 0ms ease-in 898ms forwards;}.nZruEyBP_108{stroke-dasharray:3 5;stroke-dashoffset:4;animation:nZruEyBP_draw 0ms ease-in 898ms forwards;}.nZruEyBP_109{stroke-dasharray:2 4;stroke-dashoffset:3;animation:nZruEyBP_draw 0ms ease-in 898ms forwards;}.nZruEyBP_110{stroke-dasharray:2 4;stroke-dashoffset:3;animation:nZruEyBP_draw 0ms ease-in 899ms forwards;}.nZruEyBP_111{stroke-dasharray:2 4;stroke-dashoffset:3;animation:nZruEyBP_draw 0ms ease-in 899ms forwards;}@keyframes nZruEyBP_draw{100%{stroke-dashoffset:0;}}@keyframes nZruEyBP_fade{0%{stroke-opacity:1;}92.15686274509804%{stroke-opacity:1;}100%{stroke-opacity:0;}}</style></svg>