<svg id="Layer_1" data-name="Layer 1" xmlns="http://www.w3.org/2000/svg" viewBox="0 0 1276.65 1830.52"><title>sun</title><path d="M1130.54,569.07c-4.9-10.46-15.36-10.7-24.35-11.9-19.39-2.59-37.69-9.3-56.12-14.84-22.66-6.82-43.41-19.1-66.6-25.47-16.31-4.47-23.31-20.18-29.28-34.28-16-37.73-36.81-71-70.33-96.29-21-15.89-42.11-31.81-64.58-45.19-26.63-15.86-56.77-22.52-88-22.16-14.51.17-29-.8-43.53,1.1-18.3,2.4-35.36,7.78-49.82,19.41-12.72,10.23-25,21-37.11,32-9,8.25-18,16-30.76,18a25.06,25.06,0,0,0-18,12.61c-7.85,13.34-16.56,26.31-21.55,41a99.53,99.53,0,0,1-16.67,30.77c-15.71,19.68-20.31,43.33-24.95,67.62-7.36,38.52,8.39,69.48,27.54,99.81,9.22,14.6,16.06,30.38,25,45.14C556,710.33,579.31,721.87,602,734.77c14.44,8.21,30.11,14.75,43.23,24.69a115.26,115.26,0,0,0,63,23.45c27.16,1.78,54.49,6.31,81.89.6,39-8.13,73.64-23.48,98.62-56.32,11.57-15.21,24.31-29.49,36.06-44.62,15.56-20,23.24-42.7,27.57-66.85,1.44-8,4.05-15.52,6.81-22.93,9.39-25.2,11.05-50.81,4.72-76.78-1-4.27-.69-7.11,1.54-10.3" transform="translate(97.75 -76)" fill="none" stroke="#000" stroke-linecap="round" stroke-linejoin="round" stroke-width="2"/><path d="M502.18,983.07c10.51-18.32,18.69-37.78,25.39-57.66,14.5-43,30-85.69,38.8-130.43,1.56-8,6.8-15.17,8.54-23.12,3.5-16-8.61-27.05-24-21.53-32,11.46-65.91,12.73-98.65,20.09-3.55.8-8.42,2-11.9-3a99.18,99.18,0,0,1,16.9-20c17-15.7,34.44-31.37,41-54.88,1.39-5,2.58-10.24,2.46-15.33-.21-8.53-2.64-14.93-13.91-14.26-32.35,1.91-62.19-11.42-93.45-16.21-17.28-2.65-35-2.06-52.41-4.28-19.82-2.53-39.83-4.65-58.89-11.32" transform="translate(97.75 -76)" fill="none" stroke="#000" stroke-linecap="round" stroke-linejoin="round" stroke-width="2"/><path d="M904,217.77c-4.35,21.78-15,41.73-18.11,64-2.78,19.63-4.86,39.11-2.44,58.9a68.8,68.8,0,0,1,0,12.79c-1.17,17.84,7.26,22.43,20.19,17.13,23.43-9.61,48.85-8,72-17,17.49-6.82,33.27-17,50.94-23.68,14.37-5.43,29.26-7,43.8-10.62,12.52-3.09,20.7-11.84,30.55-18.4,11.51-7.66,21-18.7,35.9-20.44,3.86-.45,2.21-4,2.57-6.32" transform="translate(97.75 -76)" fill="none" stroke="#000" stroke-linecap="round" stroke-linejoin="round" stroke-width="2"/><path d="M682.63,77c5.7,4.7,5.69,12.54,5.84,17.93.77,27.89,12.6,52.45,21,78.05,12.17,37,26.6,73,44.82,107.49a60.69,60.69,0,0,0,3.84,6.39c9.88,14.15,17.35,16.06,31.93,7.61A145.67,145.67,0,0,0,806.73,283c20.2-15.82,40.36-31.61,64-42.24,7.05-3.17,12.56-8.58,17.94-14,3.54-3.58,7-7.29,12.8-6.4" transform="translate(97.75 -76)" fill="none" stroke="#000" stroke-linecap="round" stroke-linejoin="round" stroke-width="2"/><path d="M1134.38,568.43c-30.33,9.22-61.17,16.36-92.13,23.12-18.13,4-35.58,10.19-51.13,20.51-10.48,7-11,12.62-1.25,18.93,27,17.52,53.37,36.6,82.13,50.68,27,13.22,50.46,29.43,70.12,51.81,7.94,9,19.72,12.61,29.4,19.21,2.93,2,7.31,2.6,6.2,8.64-8.79,4.37-18.81,1.82-26.53-1.34-45.85-18.79-94.22-27.65-142.25-37.85-19.47-4.13-39.19-7.15-58.86-10.27-9.25-1.46-15.36,7.16-11.36,16.48A296.21,296.21,0,0,0,954,759c8.73,15.21,13.09,31.9,16.17,48.76,1.54,8.43,10,14.72,6.76,24.25" transform="translate(97.75 -76)" fill="none" stroke="#000" stroke-linecap="round" stroke-linejoin="round" stroke-width="2"/><path d="M982.09,837.18c-31.41-16.58-54.27-45.29-86.9-60.42-18.71-8.67-28.38-5.93-27.76,14.33,1.21,39.7-2,79.27-.58,119.08,1.23,33.51,7.53,65.71,11.57,98.49.32,2.58-.31,4.12-4.22,10.91-11.91-9-16-22.61-21.27-35.27-4.73-11.32-8.93-22.9-12.82-34.54a136.48,136.48,0,0,0-22.9-42.37c-13.91-17.48-20.26-39.3-30.95-58.69-5-9-9.78-18.22-15.44-26.82-7.55-11.47-13-11.5-17.52,1.31-10.58,29.84-29,56.2-37.39,86.92a25.41,25.41,0,0,1-8.41,13.41c-7-7.6-4.37-17.69-6.91-26.22-6.7-22.52-9.54-46.08-19-67.92A36,36,0,0,0,671,815.58c-5.43-4.46-11.8-6.44-17.8-.17-2.5,2.61-5.24,5-7.65,7.71C617.06,855,588,886.21,563,921.24c-13,18.18-25.76,37.74-45.54,50.26-1.82,1.15-3.55,4.34-6.37,1.33" transform="translate(97.75 -76)" fill="none" stroke="#000" stroke-linecap="round" stroke-linejoin="round" stroke-width="2"/><path d="M311.5,297.12c14.93,14.5,30.07,28.8,44.74,43.56,18.3,18.42,41,32.1,56.5,53.6,6.7,9.29,16.75,15.26,26.8,20.46,14.08,7.29,26.93,16.36,39.55,25.79,4.12,3.07,8.88,6.12,7.77,12.73-1.23,7.39-7.33,9.11-12.87,10.06A212.3,212.3,0,0,1,417.7,465c-22.61-2.14-45.4-3.82-67.75,1.55-.36,4.71,2.51,6.24,4.94,8.61,25.45,24.85,56,41.38,88.46,54.81,11.89,4.93,24.14,11.22,24.87,24.45.71,12.9-13.14,17.57-22.32,24.32-14.52,10.68-32.19,11.09-48.67,15.26-32.8,8.3-65.63,16.47-98.56,24.25-9.76,2.31-16.55,8.87-24.29,14.2" transform="translate(97.75 -76)" fill="none" stroke="#000" stroke-linecap="round" stroke-linejoin="round" stroke-width="2"/><path d="M680.07,77c-8.45,13.84-6.54,29.84-8.64,44.84-4.89,34.95-6.21,70.32-14.1,105-4.19,18.4-5,37.54-8.08,56.23-3.12,19-13,25.08-29.13,16.3-15.46-8.38-30.9-17.71-42.36-31.7a164.19,164.19,0,0,0-37.18-33.22" transform="translate(97.75 -76)" fill="none" stroke="#000" stroke-linecap="round" stroke-linejoin="round" stroke-width="2"/><path d="M538,230.57c3.28,30.59,19.13,57,28.29,85.7,4.18,13.06,3.49,26.46,3.73,42.66-3,5.57-11,4.83-17.9,3.26-23.72-5.37-47.16-12-70.63-18.23-45.5-12-89.93-27.38-135.29-39.77-15.43-4.21-31.85-6.73-46.24-14.75" transform="translate(97.75 -76)" fill="none" stroke="#000" stroke-linecap="round" stroke-linejoin="round" stroke-width="2"/><path d="M1135.66,283c.43,1.28,1.63,3.15,1.17,3.75-22.34,29.46-44.63,58.88-73.95,82.2-9.59,7.63-17.39,17.56-25.73,26.7-17.1,18.74-32.79,38.68-50.94,56.56-10.75,10.59-16.09,25.45-22,39.39" transform="translate(97.75 -76)" fill="none" stroke="#000" stroke-linecap="round" stroke-linejoin="round" stroke-width="2"/><path d="M-53.24,1889.14c-.12,4.23,1.08,11-6.28,7.44-10.55-5.11-18.15.8-25.49,5.69-4.21,2.8-7.22,4.43-11.74,2.23" transform="translate(97.75 -76)" fill="none" stroke="#000" stroke-linecap="round" stroke-linejoin="round" stroke-width="2"/></svg>