<svg xmlns="http://www.w3.org/2000/svg" viewBox="0 0 1007 1026" style=""><title>Asset 1</title><g id="Layer_2" data-name="Layer 2"><g id="Layer_1-2" data-name="Layer 1"><path d="M811.5,197.5A231.81,231.81,0,0,0,788,200.91c-25.38,5.25-47.75,16.61-67.43,33.16-25.88,21.77-44.69,49.16-61.08,78.42C638.67,349.62,626.11,389.68,617,431a410,410,0,0,0-8.77,55c-2,24.75-3.36,49.58-1.43,74.5.67,8.6.56,17.39,1.44,26a363.25,363.25,0,0,0,6.72,43c4.73,21,10.9,41.48,21.16,60.44a292.36,292.36,0,0,0,40.45,56.51,353.61,353.61,0,0,0,65.93,57.08A377.59,377.59,0,0,0,814,841a372.34,372.34,0,0,0,63.51,18.42c10.38,2.1,21,3,31.48,4.62,16.76,2.54,33.62,2.49,50.5,2.52,11.61,0,23.08-1.65,34.47-3.23A418.77,418.77,0,0,0,1075,844c47.14-16.51,88.17-42.33,122.11-79.37A338.24,338.24,0,0,0,1250.42,688a301.38,301.38,0,0,0,24.23-68.42c6.64-28.91,8-58.17,6.67-87.52a277.56,277.56,0,0,0-20.81-94c-16.74-40.56-41.61-75.61-72-107a443.18,443.18,0,0,0-77-63,518.6,518.6,0,0,0-99.46-51.1,493.12,493.12,0,0,0-50.56-16.33c-18.54-4.83-37.49-4.17-56.48-3.78-14.4.29-28.63,2.41-43,2.73-7,.15-14,.66-21,1-9.81.43-19.36-1.7-29-3" transform="translate(-454.75 -25)" fill="none" stroke="#000" stroke-linecap="round" stroke-linejoin="round" stroke-width="2" class="ZPhWuJpy_0"></path><path d="M1083.75,26c2.16,5.48-.7,10.4-1.78,15.49-5,23.32-11.73,46.17-18.69,68.94-1.46,4.76,1.8,7.05,2.47,10.57" transform="translate(-454.75 -25)" fill="none" stroke="#000" stroke-linecap="round" stroke-linejoin="round" stroke-width="2" class="ZPhWuJpy_1"></path><path d="M898.75,957.5c4.4,6.43,4.35,12.94,2.5,20.56-3.44,14.21-5.1,28.81-6.31,43.43-.48,5.86-1.48,11.69-2.49,17.5-.67,3.86-.64,7.51,1.29,11" transform="translate(-454.75 -25)" fill="none" stroke="#000" stroke-linecap="round" stroke-linejoin="round" stroke-width="2" class="ZPhWuJpy_2"></path><path d="M1085,948c-4,3.69-1.18,8.31-.66,12,1,6.69.83,13.42,1.4,20.07,1.07,12.42.59,25,.76,37.48" transform="translate(-454.75 -25)" fill="none" stroke="#000" stroke-linecap="round" stroke-linejoin="round" stroke-width="2" class="ZPhWuJpy_3"></path><path d="M526,641c-.41,1.88-1.35,2.71-3.48,3.09-18.86,3.35-37.67,7-56.52,10.36-5,.9-5.79,5.14-7.74,8.55" transform="translate(-454.75 -25)" fill="none" stroke="#000" stroke-linecap="round" stroke-linejoin="round" stroke-width="2" class="ZPhWuJpy_4"></path><path d="M1396,536.5c15.77,2.51,31.61,2.31,47.51,1.63,4-.17,7.95-1.51,12-1.11,3.79.37,3.75-3.1,5.25-5" transform="translate(-454.75 -25)" fill="none" stroke="#000" stroke-linecap="round" stroke-linejoin="round" stroke-width="2" class="ZPhWuJpy_5"></path><path d="M1344,734.75c12.25-4.92,12.16-4.75,24,1.21a441.81,441.81,0,0,1,44,26,8,8,0,0,1,4,7.07c.11,3.17.62,6.34,1,9.5" transform="translate(-454.75 -25)" fill="none" stroke="#000" stroke-linecap="round" stroke-linejoin="round" stroke-width="2" class="ZPhWuJpy_6"></path><path d="M679.25,71.5c-.25,5.13,1.9,9.72,3.23,14.51a246.77,246.77,0,0,0,16.07,42,7.34,7.34,0,0,1,.45,6q-2,5.75-4,11.5" transform="translate(-454.75 -25)" fill="none" stroke="#000" stroke-linecap="round" stroke-linejoin="round" stroke-width="2" class="ZPhWuJpy_7"></path><path d="M1240.5,853.5a13.53,13.53,0,0,1,0,2c-1.89,12.52,6,19.71,13.83,27.68,9.52,9.68,18.57,20,26.18,31.33,2.27,3.4,5.18,5.4,9.5,5.6,2.86.13,5.67,1.23,8.5,1.9" transform="translate(-454.75 -25)" fill="none" stroke="#000" stroke-linecap="round" stroke-linejoin="round" stroke-width="2" class="ZPhWuJpy_8"></path><path d="M473.5,324c3.06-1.16,6.34-.26,9.56-1.32s6.49-.06,9.49,2.25c14.22,11,28.63,21.72,42.94,32.58a6.5,6.5,0,0,0,6,1.08c3.58-.86,7.31-1.09,11-1.59" transform="translate(-454.75 -25)" fill="none" stroke="#000" stroke-linecap="round" stroke-linejoin="round" stroke-width="2" class="ZPhWuJpy_9"></path><path d="M1246,131.5c.33,1.17.38,2.54,1,3.47,5.61,7.81,2.84,14.89-1.52,22.05a272.93,272.93,0,0,1-24.46,34.54c-4.23,5-9.57,3.08-14.58,3.29a11.79,11.79,0,0,1-3-.35" transform="translate(-454.75 -25)" fill="none" stroke="#000" stroke-linecap="round" stroke-linejoin="round" stroke-width="2" class="ZPhWuJpy_10"></path><path d="M894.25,43c6.06,5.58,4.15,12.82,3.63,19.49-.83,10.7-1.72,21.42.29,32a16.38,16.38,0,0,1-3.42,14" transform="translate(-454.75 -25)" fill="none" stroke="#000" stroke-linecap="round" stroke-linejoin="round" stroke-width="2" class="ZPhWuJpy_11"></path><path d="M455.75,471.5c1.08.66.82,2.4,2.74,2.57,13.65,1.15,27.08,3.85,40.48,6.55a9.11,9.11,0,0,0,6.51-1.15c2.08-1.1,4-2.47,6-3.72" transform="translate(-454.75 -25)" fill="none" stroke="#000" stroke-linecap="round" stroke-linejoin="round" stroke-width="2" class="ZPhWuJpy_12"></path><path d="M556.5,170.5c-1.33,4.67-4.54,9.79-3.54,13.89,1.31,5.35,6.25,9.65,10,14.14A246.71,246.71,0,0,0,592.49,228c1.06.91,1.74,1.53,3.54,1.12,4.4-1,9.07-.27,13.47-1.64" transform="translate(-454.75 -25)" fill="none" stroke="#000" stroke-linecap="round" stroke-linejoin="round" stroke-width="2" class="ZPhWuJpy_13"></path><path d="M702.5,881.5c0,15.27.09,15.38-12,25a228.4,228.4,0,0,1-27.48,19c-3.21,1.85-5.32,4.17-6.09,8-.69,3.43-2.23,6.69-3.4,10" transform="translate(-454.75 -25)" fill="none" stroke="#000" stroke-linecap="round" stroke-linejoin="round" stroke-width="2" class="ZPhWuJpy_14"></path><path d="M1417.5,319c-4.17-1.17-8.39-2.16-12.47-3.58-1.8-.63-2.9-.24-4.57.48-11.92,5.18-24,10.06-35.94,15.14a6.61,6.61,0,0,0-4,4c-1.07,3.48-2,7-3,10.49" transform="translate(-454.75 -25)" fill="none" stroke="#000" stroke-linecap="round" stroke-linejoin="round" stroke-width="2" class="ZPhWuJpy_15"></path><path d="M585,762.5c-.67,4.33-1.35,8.66-2,13-.3,2.07-2,2.6-3.5,3.52-9.89,6.18-19.43,12.94-30,18a7.7,7.7,0,0,0-4.7,5.9c-.64,3.52-2.92,6.72-2.83,10.53" transform="translate(-454.75 -25)" fill="none" stroke="#000" stroke-linecap="round" stroke-linejoin="round" stroke-width="2" class="ZPhWuJpy_16"></path><path d="M1430.5,761.5l-15,2.5" transform="translate(-454.75 -25)" fill="none" stroke="#000" stroke-linecap="round" stroke-linejoin="round" stroke-width="2" class="ZPhWuJpy_17"></path><path d="M583,777c4.68,1.76,9.87,1,14.5,3" transform="translate(-454.75 -25)" fill="none" stroke="#000" stroke-linecap="round" stroke-linejoin="round" stroke-width="2" class="ZPhWuJpy_18"></path><path d="M487,307.5l1.5,14.5" transform="translate(-454.75 -25)" fill="none" stroke="#000" stroke-linecap="round" stroke-linejoin="round" stroke-width="2" class="ZPhWuJpy_19"></path><path d="M1361,333l-14.5-4.5" transform="translate(-454.75 -25)" fill="none" stroke="#000" stroke-linecap="round" stroke-linejoin="round" stroke-width="2" class="ZPhWuJpy_20"></path><path d="M537.5,180c4.87,1.38,9.34,4.06,14.5,4.5" transform="translate(-454.75 -25)" fill="none" stroke="#000" stroke-linecap="round" stroke-linejoin="round" stroke-width="2" class="ZPhWuJpy_21"></path><path d="M594.5,230l1.5,14.5" transform="translate(-454.75 -25)" fill="none" stroke="#000" stroke-linecap="round" stroke-linejoin="round" stroke-width="2" class="ZPhWuJpy_22"></path><path d="M1407,300.5l-4,14" transform="translate(-454.75 -25)" fill="none" stroke="#000" stroke-linecap="round" stroke-linejoin="round" stroke-width="2" class="ZPhWuJpy_23"></path><path d="M1218,195c-.92,4.54,2.25,8.93.5,13.5" transform="translate(-454.75 -25)" fill="none" stroke="#000" stroke-linecap="round" stroke-linejoin="round" stroke-width="2" class="ZPhWuJpy_24"></path><path d="M1283.5,919l-3.5,13.5" transform="translate(-454.75 -25)" fill="none" stroke="#000" stroke-linecap="round" stroke-linejoin="round" stroke-width="2" class="ZPhWuJpy_25"></path><path d="M702.5,896.5h13" transform="translate(-454.75 -25)" fill="none" stroke="#000" stroke-linecap="round" stroke-linejoin="round" stroke-width="2" class="ZPhWuJpy_26"></path><path d="M545.5,799l-13-3.5" transform="translate(-454.75 -25)" fill="none" stroke="#000" stroke-linecap="round" stroke-linejoin="round" stroke-width="2" class="ZPhWuJpy_27"></path><path d="M1240.5,868.5h-13" transform="translate(-454.75 -25)" fill="none" stroke="#000" stroke-linecap="round" stroke-linejoin="round" stroke-width="2" class="ZPhWuJpy_28"></path><path d="M700.5,131c4.32,1.36,8.43,3.42,13,4" transform="translate(-454.75 -25)" fill="none" stroke="#000" stroke-linecap="round" stroke-linejoin="round" stroke-width="2" class="ZPhWuJpy_29"></path><path d="M658,928.5l-12.5-4" transform="translate(-454.75 -25)" fill="none" stroke="#000" stroke-linecap="round" stroke-linejoin="round" stroke-width="2" class="ZPhWuJpy_30"></path><path d="M1350.5,717.5,1356,730" transform="translate(-454.75 -25)" fill="none" stroke="#000" stroke-linecap="round" stroke-linejoin="round" stroke-width="2" class="ZPhWuJpy_31"></path><path d="M1263,141.25l-11.5,4.25" transform="translate(-454.75 -25)" fill="none" stroke="#000" stroke-linecap="round" stroke-linejoin="round" stroke-width="2" class="ZPhWuJpy_32"></path></g></g><style data-made-with="vivus-instant">.ZPhWuJpy_0{stroke-dasharray:2139 2141;stroke-dashoffset:2140;animation:ZPhWuJpy_draw 576ms linear 0ms forwards;}.ZPhWuJpy_1{stroke-dasharray:99 101;stroke-dashoffset:100;animation:ZPhWuJpy_draw 26ms linear 576ms forwards;}.ZPhWuJpy_2{stroke-dasharray:95 97;stroke-dashoffset:96;animation:ZPhWuJpy_draw 25ms linear 603ms forwards;}.ZPhWuJpy_3{stroke-dasharray:71 73;stroke-dashoffset:72;animation:ZPhWuJpy_draw 19ms linear 629ms forwards;}.ZPhWuJpy_4{stroke-dasharray:75 77;stroke-dashoffset:76;animation:ZPhWuJpy_draw 20ms linear 648ms forwards;}.ZPhWuJpy_5{stroke-dasharray:68 70;stroke-dashoffset:69;animation:ZPhWuJpy_draw 18ms linear 669ms forwards;}.ZPhWuJpy_6{stroke-dasharray:95 97;stroke-dashoffset:96;animation:ZPhWuJpy_draw 25ms linear 687ms forwards;}.ZPhWuJpy_7{stroke-dasharray:79 81;stroke-dashoffset:80;animation:ZPhWuJpy_draw 21ms linear 713ms forwards;}.ZPhWuJpy_8{stroke-dasharray:96 98;stroke-dashoffset:97;animation:ZPhWuJpy_draw 26ms linear 734ms forwards;}.ZPhWuJpy_9{stroke-dasharray:92 94;stroke-dashoffset:93;animation:ZPhWuJpy_draw 25ms linear 761ms forwards;}.ZPhWuJpy_10{stroke-dasharray:89 91;stroke-dashoffset:90;animation:ZPhWuJpy_draw 24ms linear 786ms forwards;}.ZPhWuJpy_11{stroke-dasharray:68 70;stroke-dashoffset:69;animation:ZPhWuJpy_draw 18ms linear 810ms forwards;}.ZPhWuJpy_12{stroke-dasharray:59 61;stroke-dashoffset:60;animation:ZPhWuJpy_draw 16ms linear 828ms forwards;}.ZPhWuJpy_13{stroke-dasharray:92 94;stroke-dashoffset:93;animation:ZPhWuJpy_draw 25ms linear 845ms forwards;}.ZPhWuJpy_14{stroke-dasharray:85 87;stroke-dashoffset:86;animation:ZPhWuJpy_draw 23ms linear 870ms forwards;}.ZPhWuJpy_15{stroke-dasharray:74 76;stroke-dashoffset:75;animation:ZPhWuJpy_draw 20ms linear 893ms forwards;}.ZPhWuJpy_16{stroke-dasharray:73 75;stroke-dashoffset:74;animation:ZPhWuJpy_draw 19ms linear 913ms forwards;}.ZPhWuJpy_17{stroke-dasharray:16 18;stroke-dashoffset:17;animation:ZPhWuJpy_draw 4ms linear 933ms forwards;}.ZPhWuJpy_18{stroke-dasharray:15 17;stroke-dashoffset:16;animation:ZPhWuJpy_draw 4ms linear 938ms forwards;}.ZPhWuJpy_19{stroke-dasharray:15 17;stroke-dashoffset:16;animation:ZPhWuJpy_draw 4ms linear 942ms forwards;}.ZPhWuJpy_20{stroke-dasharray:16 18;stroke-dashoffset:17;animation:ZPhWuJpy_draw 4ms linear 946ms forwards;}.ZPhWuJpy_21{stroke-dasharray:16 18;stroke-dashoffset:17;animation:ZPhWuJpy_draw 4ms linear 951ms forwards;}.ZPhWuJpy_22{stroke-dasharray:15 17;stroke-dashoffset:16;animation:ZPhWuJpy_draw 4ms linear 955ms forwards;}.ZPhWuJpy_23{stroke-dasharray:15 17;stroke-dashoffset:16;animation:ZPhWuJpy_draw 4ms linear 960ms forwards;}.ZPhWuJpy_24{stroke-dasharray:14 16;stroke-dashoffset:15;animation:ZPhWuJpy_draw 4ms linear 964ms forwards;}.ZPhWuJpy_25{stroke-dasharray:14 16;stroke-dashoffset:15;animation:ZPhWuJpy_draw 4ms linear 968ms forwards;}.ZPhWuJpy_26{stroke-dasharray:13 15;stroke-dashoffset:14;animation:ZPhWuJpy_draw 3ms linear 972ms forwards;}.ZPhWuJpy_27{stroke-dasharray:14 16;stroke-dashoffset:15;animation:ZPhWuJpy_draw 4ms linear 976ms forwards;}.ZPhWuJpy_28{stroke-dasharray:13 15;stroke-dashoffset:14;animation:ZPhWuJpy_draw 3ms linear 980ms forwards;}.ZPhWuJpy_29{stroke-dasharray:14 16;stroke-dashoffset:15;animation:ZPhWuJpy_draw 4ms linear 984ms forwards;}.ZPhWuJpy_30{stroke-dasharray:14 16;stroke-dashoffset:15;animation:ZPhWuJpy_draw 4ms linear 988ms forwards;}.ZPhWuJpy_31{stroke-dasharray:14 16;stroke-dashoffset:15;animation:ZPhWuJpy_draw 4ms linear 992ms forwards;}.ZPhWuJpy_32{stroke-dasharray:13 15;stroke-dashoffset:14;animation:ZPhWuJpy_draw 3ms linear 996ms forwards;}@keyframes ZPhWuJpy_draw{100%{stroke-dashoffset:0;}}@keyframes ZPhWuJpy_fade{0%{stroke-opacity:1;}92.3076923076923%{stroke-opacity:1;}100%{stroke-opacity:0;}}</style></svg>