<svg id="Layer_1" data-name="Layer 1" xmlns="http://www.w3.org/2000/svg" viewBox="0 0 1350 1080"><title>young</title><path d="M93.87-7.42H1216.46V1089.75H93.87Q93.87,541.17,93.87-7.42ZM368.39,688a11.93,11.93,0,0,1,.81,1.12c11,19.23,29.15,25.55,49.73,28.18,12.15,1.55,24.78,2.73,36.08,7,37.93,14.42,61.57,41.75,67.75,82.39,1.9,12.47.91,25.36,1.54,38,.82,16.52,6.25,30.92,20.17,41,14.58,10.61,31.65,14.38,49,16.17,18.12,1.87,36.41,2.4,54.63,2.85,47.07,1.15,94.18,2.48,141.13-2.56,18.09-1.94,36.23-4,54.11-7.28a332.75,332.75,0,0,0,45.74-11.65,520.22,520.22,0,0,0,50.07-20.22c10.83-5,15.91-14.61,13.81-26.57-2.62-14.88-6.34-29.56-9.3-44.38a80.32,80.32,0,0,1,1.82-40.08c5.85-18.84,17.25-34.31,30.61-48.24,23.78-24.8,48.08-49.1,72.19-73.58,9.6-9.75,19.29-19.41,28.83-29.22,1.08-1.11,1.49-2.87,2.22-4.33l-1.59-.84c-1.29,1.19-2.62,2.33-3.85,3.57-21.56,21.75-43.33,43.3-64.59,65.34-17.06,17.68-34.33,35.26-50,54.15-17,20.56-24.47,44.78-19.5,71.68,2.51,13.61,6,27,8.94,40.56,3.36,15.76-.58,24.89-15.4,31.15-18.1,7.65-36.4,15.17-55.21,20.75-41.62,12.34-84.58,17-127.81,18.52a1425.8,1425.8,0,0,1-154.87-2.91,109.42,109.42,0,0,1-38.22-9.5c-13.88-6.45-24.13-16.24-27.35-31.65-1.55-7.44-1.9-15.16-2.35-22.78-.55-9.42.44-19.05-1.09-28.29C519.25,763,494,734.45,452.69,719.74c-1.2-.43-2.32-1.07-3.48-1.62,18.33-2.07,36.38-2.89,54.39-4.25a136.71,136.71,0,0,0,22-3.66c4.61-1.13,8.75-3.82,11.73-9.59-2.15.42-3.41.28-4,.84-7.53,7.27-17.13,8.25-26.78,8.84-21.14,1.29-42.29,2.61-63.46,3.48a204.2,204.2,0,0,1-27.81-.64c-22.43-2.16-38.94-13-47.44-34.48-2.93-7.41-5.67-14.92-8-22.53-10.48-33.69-10.95-68.38-9.51-103.16a67,67,0,0,1,4.21-21.48c9.26-23.46,19.27-46.62,29.17-69.82.52-1.23,2.7-1.75,4.11-2.59.58,1.37,1.58,2.71,1.65,4.1a32.65,32.65,0,0,1-.73,6l2.11.53c.78-2.05,2.16-4.09,2.23-6.16.21-6.63,1-7.47,7.45-4.93,9.32,3.68,19,4.51,28.81,4,1.57-.09,3.1-.91,4.65-1.4l-.36-1.65c-1.86-.13-3.72-.41-5.58-.35-8.7.28-17.29-.17-25.46-3.52-4.68-1.92-9.24-2.61-13.72.85a8.45,8.45,0,0,1-1.08-1.46c-11-27.54-8.11-48.64,14.89-65.75,9.23-6.87,19.46-12.44,29.42-18.29,18.1-10.63,32-24.92,40.25-44.46,4.22-10,4.26-19.91-1-29.65-4.94-9.1-12.47-15.79-20.34-22.16-.8-.65-2.29-.44-3.45-.64l-.57,1.29c1.37,1.29,2.76,2.56,4.1,3.89,4.29,4.22,8.9,8.18,12.77,12.75,9.3,11,10.27,23.1,4.11,36-8,16.69-20.13,29.42-35.9,38.91-10.31,6.2-20.82,12.14-30.71,19-20.6,14.26-27.87,35.8-20.57,59.66,1.68,5.49,2.76,9.85-.5,15.94-7.43,13.87-13,28.73-19.35,43.18C354,520.58,347,536.56,346.77,554.13c-.23,19.85.76,39.71,1.26,59.57.08,3,.41,6,.74,10.77-6.23-2.28-11.68-3.48-16.28-6.14a41.63,41.63,0,0,1-19-22.61c-3.59,2.67-2.8,5.5-.59,8.27,3.48,4.39,7.1,8.67,11.17,13.61-2.7.45-4.59,1.05-6.46,1-3.57-.05-7.14-.56-10.71-.66-.87,0-1.76.77-2.64,1.18.72.75,1.32,2,2.17,2.16,1.54.37,3.24,0,4.85.21,2.52.29,5,.76,8.83,1.37-15.83,8.83-15.83,8.83-14.6,11.92l12.85-6.4c3.49,3.83,7.51,7.25,10.28,11.48,4.35,6.65,9.54,11.86,17.11,14.56,3.83,1.37,5.73,4.28,6.89,8.2,1.28,4.33,3.43,8.4,5.14,12.61a107.6,107.6,0,0,1,4,10.4C363.07,689.83,364.18,690.44,368.39,688ZM1022.81,539.1c2.74-.43,5-.23,6.66-1.14,4.65-2.59,9.76-4.94,13.42-8.64,10.29-10.41,20.52-21,29.72-32.32,23.37-28.84,38.05-61.73,41.21-98.87,2.21-26,1.4-52-4.29-77.71-6.32-28.64-19.39-53.59-38.64-75.51-20.27-23.08-44.25-41.73-69.78-58.49-18.76-12.31-37.84-24.15-56.59-36.48-11.41-7.5-22.14-16.1-33.78-23.2-21.92-13.37-46.59-18.88-71.64-21.94-24.86-3-49.88-5.17-74.89-6.55-27.63-1.53-55.4-2.61-82.95,1.19a510.42,510.42,0,0,0-51.68,9.45c-26.26,6.43-49.65,19.3-71,35.74-23.54,18.16-41.84,40.55-52.09,68.79-7.46,20.56-5.9,40.18,8.52,57.52,10,12,22.77,20.42,36.62,27.18,57.14,27.89,117.76,43.25,180.76,50.2,18.27,2,36.87,3.29,54.56,7.85,40.82,10.54,81.28,22.57,121.69,34.61,28.49,8.49,56.27,19,80.24,37.27,29.17,22.19,44.06,50.84,38.1,88.29C1025.89,523.52,1024.38,530.66,1022.81,539.1ZM774.07,52.1l0,.41c-5.86-.29-11.72-.48-17.57-.88-41.89-2.89-83.25-.82-123.58,12.28C577,82.07,530.65,114,494.39,160.28,461.65,202.09,442.74,249.65,436,302.2c-2.94,23.09-5.22,46.37-19,66.39-.49.72-.17,2-.23,3,1.06-.45,2.54-.59,3.12-1.39a67.67,67.67,0,0,0,5.17-8.27c9.06-17.25,11.64-36.2,13.89-55.14,4-33.3,12.45-65.25,27.45-95.33,27.95-56,69.74-98.58,125.47-127.08,39.16-20,81-30.75,125-30.14,40.06.55,80.09,3.1,120.14,4.55,26.69,1,52.34,6.63,76.49,17.78,48,22.16,92.32,50.09,132,85.15,35.49,31.35,61.9,68.79,76.27,114.24a520.45,520.45,0,0,1,18.05,80.39c6.14,41.24,7,82.37-1.9,123.39-6,27.91-15.82,54.29-31.47,78.3-4.08,6.26-8.67,12.18-12.9,18.36-.56.81-.3,2.19-.42,3.3a19.42,19.42,0,0,0,3.08-1.32,7.56,7.56,0,0,0,1.57-1.85c28.52-36.41,42.73-78.44,48.24-123.77,3.2-26.31,2.74-52.72-.31-79a547.41,547.41,0,0,0-19.42-94.89c-13.53-44.94-38.33-82.53-72.45-114.34-35.52-33.12-76.09-58.87-118.73-81.58-26.63-14.18-54.73-24.3-85-26.75C824.88,54.16,799.45,53.42,774.07,52.1ZM313.28,802.83c1.35-2.34,2.1-3.73,2.94-5.06,1.91-3,4-6,5.72-9.09.57-1,.31-2.5.43-3.77-1.11.68-2.24,1.33-3.31,2.07a5.41,5.41,0,0,0-.92,1.13c-4.5,5.57-6.05,13.44-13.2,17-.44.22-.31,1.47-.54,2.21a23.45,23.45,0,0,1-1.66,4.86c-10.18,17.54-23.72,32.14-39.4,44.88-9.58,7.78-18.4,16.66-30.48,20.73-10.65,3.59-19.75,9.6-28.46,16.65a72.69,72.69,0,0,1-17.58,10c-6.78,2.84-7.91,4-5.85,11.1.32,1.09.51,2.21.82,3.3,5.14,18.09,9.39,36.49,15.65,54.19,8.8,24.89,22.81,46.69,43.6,63.59,13.69,11.13,29.15,18.78,46.78,20.14,27.21,2.09,51.67-10.31,61.68-39.09,8.23-23.67,23.5-41.16,45.14-53.66,14.2-8.2,28.59-16.37,41.58-26.28,26.59-20.29,45.65-46.64,57.53-78,12.92-34.14,11.43-67.7-4.86-100.37-3.46-6.94-8.32-13.19-12.71-19.64-.62-.91-2.22-1.15-3.37-1.69a16.25,16.25,0,0,0,.81,3.81,26.29,26.29,0,0,0,2.57,3.55c20.23,28.71,27.69,60.45,19.55,94.62-11.37,47.77-40,83.32-81.56,108.77-11.37,7-23.2,13.26-34.13,20.85-17.63,12.25-27.75,30.06-35.23,49.83-8.06,21.3-27.19,33.9-50,34.05-16.54.11-31.26-5.41-44.75-14.56-20.41-13.86-34.19-33.14-44.54-55.13-10.6-22.53-16.18-46.62-21.7-70.73-.65-2.86.26-4.23,3.06-4.84,7.7-1.66,14-6,19.77-11a84.8,84.8,0,0,1,26.55-16,69.67,69.67,0,0,0,17-9.21c22.87-17,43.5-36.27,57.86-61.4a9.37,9.37,0,0,1,5.07-4c4-1.14,8.31-1.37,12.45-2.2a48.56,48.56,0,0,0,5.93-2l-.49-2.35Zm570-289.12.65,1.38a46.82,46.82,0,0,0,5.74-1.36c17.26-6.39,34.47-12.91,51.74-19.26,7-2.57,14-2.68,20.83.88,15,7.81,27.56,17.91,33.12,34.76,1.12,3.39,2.84,6.57,4.14,9.91,4.41,11.38,7.73,23,4.29,35.25-6.62,23.57-18.56,44.15-39.07,57.87-15.48,10.36-32.53,18.39-49,27.19-12.12,6.46-24.75,11.62-38.47,13.77-15.13,2.37-30.3,4.57-45.33,7.48-25.52,4.94-42.7-18.16-40.08-38.66.8-6.29,1.69-12.66,1.45-18.95-.16-4.22-2.12-8.41-3.53-12.52-.23-.67-1.76-.9-2.68-1.34-.18.86-.79,2-.46,2.53,5.29,9.28,3.3,19.06,1.81,28.67-3.44,22.09,14.39,50.12,46.09,43.39,9.06-1.92,18.32-2.93,27.44-4.59,9.91-1.81,20.42-2.34,29.53-6.16,21.41-9,42.42-19,63.06-29.7,17.87-9.24,31.62-23.29,41.4-41,7.2-13.08,14.47-26.44,12.28-41.88-1.42-10-5.19-19.67-8.25-29.39-5.83-18.52-18.45-31-35.58-39.45-7-3.45-14.12-4.57-21.29-2-19.18,6.76-38.21,14-57.27,21.09C884.79,511.91,884.08,513,883.25,513.71ZM378.7,500.17,381.81,490l-2-.77-19.69,34.08,1.8,1.32a21.48,21.48,0,0,0,3.23-3.31c2.52-4,4.56-8.3,7.34-12.08a13.13,13.13,0,0,1,6.27-4.77c13.38-3.89,25.81-1.66,36.82,7.06,10.46,8.28,16.84,19.35,22.32,32.77a53.32,53.32,0,0,1-5.78-3.13c-13.47-10.09-28.49-11.64-44.51-8.53a5.68,5.68,0,0,1-4.72-2c-2.63-4-4.71-8.29-7.52-13.42-3.34,7.64,3.89,11.5,4.67,17.34-7.9,3.28-16.09,6.16-20.09,14.52-3.59,7.51-5.2,15.51-6.58,24.63,5.66-3.54,10-3.23,16.13.45-7.7,4.78-13.44,11-15.23,20.27,4.25-4.06,7.54-9,11.58-13.18A24.67,24.67,0,0,1,383.51,574c6.19-.12,12.4.67,19.52,1.12l-3.7-5.32a15.22,15.22,0,0,1,2.48-.23c8.87.66,17.36,2.57,25,7.52a28.53,28.53,0,0,0,5,2.06l.86-1.7a38.41,38.41,0,0,0-3.44-2.87c-13.25-8.74-27.61-10-42.62-6-7.79,2.1-15.5,2.27-23-.55-1.86-.7-4.54-3.46-4.3-4.81,1.51-8.41,3.78-16.73,12.33-21C387.88,534,404.66,531.79,422,539c2.89,1.2,7,1.76,3.39,7.69,5.21-3.17,7.81-.93,10.39,1.91q8.22,9,16.7,17.81c1.14,1.17,2.9,1.74,5.15,3L454.36,560c-3.38-3.22-6.39-5.64-8.8-8.56-1.72-2.08-2.6-4.84-3.9-7.28-4.19-7.88-7.7-16.24-12.76-23.51-11-15.77-26.21-23.45-45.82-20.92C381.69,499.91,380.3,500,378.7,500.17Zm567.33,44c-3.1,2.36-4.91,4-6.92,5.22s-4,2.94-5.94,2.78a65.44,65.44,0,0,1-15.69-2.83c-5.4-1.83-7.22-6.35-5.27-11.85a83.18,83.18,0,0,1,6.14-13.23c5.29-9.33,13.79-12.88,24-11.1a80.15,80.15,0,0,1,18,5.92c9.61,4.2,14.56,12,15.89,22.38,5,39-16.06,75.79-52.15,90.74-17.89,7.41-36,12.36-55.92,11.43-15.18-.71-30.52,1.9-45.77,3.16-1.21.1-2.34,1.15-3.5,1.76l.45,1.52c3.68-.17,7.37-.31,11-.5,17.06-.89,34.12-1.75,51.18-2.72,4.37-.25,8.88-.22,13-1.39,9.85-2.77,19.68-5.77,29.22-9.44,16.84-6.47,31.82-15.39,41.24-31.85,10.81-18.91,16-39,14.79-60.74-.65-11.56-5.25-20.87-15.78-26.27a88.55,88.55,0,0,0-17.64-6.91c-12.2-3.21-23.64.74-29.85,10.26a81,81,0,0,0-7.7,15.73c-2.73,7.26.32,13.86,7.64,16.59,4.21,1.57,8.83,2,13.28,2.95,7.16,1.44,11.5-3.31,16-7.53C946.23,547.79,945.91,546.54,946,544.13Zm-601.82,24c-1.88-1.46-2.78-2.73-3.8-2.83-2.55-.24-5.63-.81-7.65.29-5.48,3-11.16,2.85-17,2.79a31.77,31.77,0,0,0-8.19,1.15c-15.22,3.94-28.49,12-41.32,20.66a70.66,70.66,0,0,0-15.66,15.14c-6.55,8.36-8.73,18.31-5.18,28.56,5.2,15,10.48,30.06,16.71,44.67,9.55,22.39,20.17,44.31,29.89,66.63,6.85,15.72,11.53,32.08,11.42,49.51,0,2.19.89,4.38,1.37,6.57.75-2.18,2.15-4.35,2.16-6.53,0-19.44-5.82-37.51-13.41-55.1-13.33-30.89-26.86-61.68-40-92.63-2.59-6.09-4.91-12.57-5.73-19.08-1.71-13.54,5.29-24,15.63-31.21A241.75,241.75,0,0,1,301,575.29c13.88-6.3,28-6.18,39.58,6.1.43.46,1.41.39,2.95.77-1.21-7.06-7.55-8.39-12.67-13Zm584-2.23-2-1.69a24.61,24.61,0,0,0-3.74,3.26c-4.66,6-6.1,6.24-11.61.74a42.45,42.45,0,0,1-5.79-7.21c-4.44-7-8.64-14.17-13-21.24a26.81,26.81,0,0,0-1.92-2.61c-1.33,9.6-2.56,19.36-4.06,29.07-.84,5.47-2.35,10.84-3.12,16.31-.4,2.82-.75,6.26.46,8.59a197.3,197.3,0,0,0,12.95,21.76c2.84,4.1,7.67,4.77,12.4,3.13,4.26-1.48,6.67-5.8,6.56-11,0-1,.12-2.07.21-3.53a16.31,16.31,0,0,1,2.67.84c9.18,5.08,13.8,2.22,13.9-8.32,0-3.85,1-7.68,1.42-11.53a13.07,13.07,0,0,0-.38-3.05c-1,.59-2.65,1-2.8,1.8-.84,4.1-1.17,8.3-1.93,12.41-.48,2.58-1.42,5.07-2.15,7.61a62.39,62.39,0,0,0-6.5-2.1c-2.09-.45-4.67-1.21-6.3-.38-1.25.63-2,3.57-1.83,5.4.3,3.83-.43,6.89-4.14,8.47-3.9,1.66-7.14.11-9.4-3.07-2.72-3.84-4.93-8.05-7.6-11.93-3.9-5.67-5.68-11.53-3.45-18.41,1.09-3.38,1.34-7,2.05-10.53,1.24-6.12,2.54-12.23,4.08-19.6,2.1,3.21,3.45,5.54,5.05,7.67,4,5.3,7.71,10.9,12.34,15.59,2,2.07,6.95,3.93,8.92,2.87C923.07,573.31,925.37,569.11,928.18,565.87ZM819.69,628l1.72,0c.11-1.46.68-3.09.24-4.36-2.22-6.41.46-11.43,4.95-15.26a74.56,74.56,0,0,0,19.65-25.77c2.18-4.71,6.94-6.85,10.79-5.59,4.88,1.59,4.87,5.71,4.55,9.65-1.09,13.29,3.61,24.19,13.09,33.31,1.19,1.15,1.83,2.88,2.72,4.34-3.32-1-5.76-3.42-8.32-3.56-9.86-.55-19.78-.62-29.65-.26-2.32.08-4.55,2.54-6.82,3.91l1,1.93,3.62-1.16c2.13-.69,4.25-1.92,6.4-2a182,182,0,0,1,21,.24c2.74.23,5.3,2.51,8,3.83,1.67.83,4,2.71,4.89,2.18,1.64-1,3.38-3.43,3.32-5.21-.07-2.14-1.73-4.4-3.12-6.3-2.48-3.4-5.59-6.37-7.87-9.88-4.56-7-4.9-15-4.5-23.07.24-4.84-1.25-9.12-6.22-11.13-4.45-1.8-10.41-.12-13.77,3.79a16,16,0,0,0-2.64,4.07c-3.82,9-9.76,16.41-17.08,22.88a32.63,32.63,0,0,0-6.78,8.81C816.08,618.42,817.41,623.37,819.69,628ZM442.76,913.82l2.14-.17c0-2.29.16-4.59,0-6.86-1-12.49-4.15-24.57-10.81-35.13-6.12-9.7-14.49-18-20.41-27.81s-15.59-13.23-24.91-17.64c-.45-.21-1.18.14-1.77.23l-.66,1.14a43.82,43.82,0,0,0,3.93,2.94c6.33,3.76,14.05,5.28,18.35,12.24a61.29,61.29,0,0,0,7.4,9.63c15.09,16.11,24,35,25.78,57.05A30.72,30.72,0,0,0,442.76,913.82Zm.6-460.36c-3.37,1.83-3.55,3-.94,6,9.15,10.51,28,6.91,33-6.31,3.07-8.22,1.81-16.36-.94-24.32-.63-1.82-2.39-3.24-3.63-4.84.07,1.87-.22,3.84.27,5.59,2.17,7.77,4,15.48.49,23.35a16,16,0,0,1-15.3,9.29C449.84,461.95,445.32,458.89,443.36,453.47Zm22.18,305.25.93-1.07c-1.47-1.17-2.78-2.66-4.42-3.45-5.73-2.75-9.94-6-11.67-13-1.39-5.65-5.72-10.63-9-15.7-.58-.89-2.67-.78-4.07-1.14.56,1.17.83,2.66,1.72,3.46a27.22,27.22,0,0,1,8.44,15C449.22,751.14,456.33,757.46,465.54,758.72ZM356.16,678.89c-3.45-2.57-16.15,1.08-17.72,5.46a2.42,2.42,0,0,0,.37,2.13,2.33,2.33,0,0,0,2.14.25C346,684.21,351,681.57,356.16,678.89Z" fill="#fff"/><path d="M368.39,688c-4.21,2.4-5.32,1.79-6.53-2.39a107.6,107.6,0,0,0-4-10.4c-1.72-4.21-3.86-8.28-5.14-12.61-1.16-3.92-3.06-6.83-6.89-8.2-7.57-2.7-12.76-7.91-17.11-14.56-2.77-4.24-6.79-7.66-10.28-11.48l-12.85,6.4c-1.22-3.09-1.22-3.09,14.6-11.92-3.82-.6-6.31-1.08-8.83-1.37-1.61-.18-3.31.17-4.85-.21-.85-.2-1.46-1.41-2.17-2.16.88-.42,1.77-1.21,2.64-1.18,3.57.11,7.14.61,10.71.66,1.88,0,3.76-.57,6.46-1-4.06-4.94-7.68-9.22-11.17-13.61-2.21-2.78-3-5.61.59-8.27a41.63,41.63,0,0,0,19,22.61c4.6,2.67,10,3.86,16.28,6.14-.33-4.73-.66-7.75-.74-10.77-.5-19.86-1.49-39.72-1.26-59.57.2-17.57,7.2-33.55,14.15-49.38,6.34-14.45,11.92-29.31,19.35-43.18,3.27-6.1,2.18-10.45.5-15.94-7.3-23.86,0-45.4,20.57-59.66,9.88-6.84,20.39-12.78,30.71-19,15.77-9.49,27.94-22.22,35.9-38.91,6.16-12.91,5.19-25-4.11-36-3.87-4.57-8.48-8.53-12.77-12.75-1.34-1.32-2.73-2.59-4.1-3.89l.57-1.29c1.17.19,2.66,0,3.45.64,7.87,6.37,15.4,13.07,20.34,22.16,5.29,9.74,5.25,19.61,1,29.65-8.21,19.53-22.15,33.83-40.25,44.46-10,5.85-20.19,11.42-29.42,18.29-23,17.11-25.92,38.22-14.89,65.75a8.45,8.45,0,0,0,1.08,1.46c4.48-3.46,9-2.77,13.72-.85,8.17,3.35,16.76,3.81,25.46,3.52,1.85-.06,3.72.23,5.58.35l.36,1.65c-1.55.48-3.08,1.31-4.65,1.4-9.85.55-19.49-.28-28.81-4-6.43-2.54-7.24-1.69-7.45,4.93-.07,2.07-1.45,4.11-2.23,6.16l-2.11-.53a32.65,32.65,0,0,0,.73-6c-.07-1.39-1.07-2.74-1.65-4.1-1.41.85-3.59,1.37-4.11,2.59-9.9,23.2-19.91,46.36-29.17,69.82A67,67,0,0,0,350.36,553c-1.44,34.78-1,69.46,9.51,103.16,2.37,7.61,5.1,15.12,8,22.53,8.5,21.47,25,32.32,47.44,34.48a204.2,204.2,0,0,0,27.81.64c21.16-.87,42.31-2.19,63.46-3.48,9.65-.59,19.26-1.57,26.78-8.84.58-.56,1.84-.42,4-.84-3,5.77-7.12,8.46-11.73,9.59a136.71,136.71,0,0,1-22,3.66c-18,1.37-36.07,2.18-54.39,4.25,1.16.54,2.28,1.19,3.48,1.62C494,734.45,519.25,763,526.44,806.5c1.53,9.23.54,18.86,1.09,28.29.44,7.62.79,15.34,2.35,22.78,3.22,15.41,13.47,25.2,27.35,31.65a109.42,109.42,0,0,0,38.22,9.5,1425.8,1425.8,0,0,0,154.87,2.91c43.22-1.48,86.19-6.18,127.81-18.52,18.81-5.58,37.11-13.1,55.21-20.75,14.82-6.26,18.76-15.4,15.4-31.15-2.89-13.54-6.43-27-8.94-40.56-5-26.9,2.47-51.13,19.5-71.68,15.65-18.89,32.92-36.47,50-54.15,21.26-22,43-43.59,64.59-65.34,1.23-1.24,2.56-2.38,3.85-3.57l1.59.84c-.72,1.46-1.13,3.22-2.22,4.33-9.54,9.8-19.23,19.47-28.83,29.22-24.1,24.49-48.41,48.78-72.19,73.58-13.36,13.94-24.76,29.41-30.61,48.24a80.32,80.32,0,0,0-1.82,40.08c3,14.82,6.68,29.5,9.3,44.38,2.1,12-3,21.62-13.81,26.57a520.22,520.22,0,0,1-50.07,20.22A332.75,332.75,0,0,1,843.31,895c-17.88,3.3-36,5.34-54.11,7.28-47,5-94.06,3.72-141.13,2.56-18.23-.45-36.52-1-54.63-2.85-17.31-1.79-34.38-5.56-49-16.17-13.92-10.13-19.35-24.53-20.17-41-.63-12.68.36-25.58-1.54-38-6.19-40.64-29.82-68-67.75-82.39-11.29-4.29-23.92-5.47-36.08-7-20.59-2.62-38.72-8.95-49.73-28.18A11.93,11.93,0,0,0,368.39,688Zm-9.74-18.59,1.29-.24a7.57,7.57,0,0,0,0-1.84c-3.3-12.71-6.6-25.43-10-38.11a3.83,3.83,0,0,0-2.06-2.35c-7.46-2.45-15-4.73-23-7.21-1.66,1.83-1.72,7.91.5,10.44a60.84,60.84,0,0,1,6.44,7.94c3.7,6,8.36,10.66,15.18,13.1,5.32,1.9,8.4,5.84,9.33,11.55C356.71,665,357.85,667.21,358.65,669.45Z"/><path d="M1022.81,539.1c1.57-8.44,3.08-15.58,4.22-22.78,6-37.46-8.93-66.1-38.1-88.29-24-18.24-51.75-28.78-80.24-37.27-40.42-12-80.87-24.07-121.69-34.61-17.69-4.57-36.29-5.84-54.56-7.85-63-7-123.62-22.31-180.76-50.2-13.85-6.76-26.67-15.21-36.62-27.18-14.42-17.34-16-37-8.52-57.52,10.24-28.24,28.54-50.63,52.09-68.79,21.31-16.44,44.7-29.31,71-35.74a510.42,510.42,0,0,1,51.68-9.45c27.54-3.8,55.31-2.71,82.95-1.19,25,1.38,50,3.51,74.89,6.55,25.05,3.06,49.72,8.57,71.64,21.94,11.64,7.1,22.37,15.7,33.78,23.2,18.75,12.33,37.83,24.17,56.59,36.48,25.54,16.76,49.52,35.41,69.78,58.49,19.25,21.92,32.31,46.87,38.64,75.51,5.68,25.74,6.49,51.75,4.29,77.71-3.15,37.14-17.84,70-41.21,98.87-9.2,11.35-19.44,21.92-29.72,32.32-3.66,3.7-8.77,6.05-13.42,8.64C1027.82,538.87,1025.55,538.67,1022.81,539.1Zm4.74-4.91,1.24,1c3.86-2.74,8.31-4.92,11.47-8.3,11.86-12.73,24.12-25.22,34.72-39a169,169,0,0,0,33.92-79,252.7,252.7,0,0,0-1.37-80.76c-5.18-29.91-17.89-56.22-37.69-79.19-20.5-23.79-45.06-42.76-71-60-23-15.31-46.37-30.16-69.24-45.7-12.27-8.34-24.38-16.79-38.29-22.24A207.52,207.52,0,0,0,832,107.69c-31-2.51-62-5.22-93-6.7-31.3-1.5-62.52.36-93.27,7.06-32,7-61.08,20.25-86.66,40.74-22.13,17.72-39.69,39.07-49.25,66.16-7.58,21.48-4.93,41.27,11.88,57.63a124.09,124.09,0,0,0,20.7,16.17c18.69,11.67,39.29,19.32,59.9,26.83a514,514,0,0,0,92.24,24c20.2,3.34,40.7,4.8,61,7.32,8.55,1.06,17.18,2.07,25.5,4.16,14.48,3.64,28.75,8.12,43.11,12.23,31.69,9.06,63.49,17.75,95,27.27,22.16,6.69,43.43,15.77,63,28.41,15.65,10.12,29.19,22.42,38.39,38.89,11.92,21.35,14.11,44,8.37,67.54C1028.21,528.26,1028,531.25,1027.55,534.18Z"/><path d="M774.07,52.1c25.38,1.32,50.8,2.06,76.12,4.12,30.23,2.45,58.32,12.57,85,26.75,42.64,22.71,83.22,48.46,118.73,81.58,34.12,31.81,58.92,69.4,72.45,114.34a547.41,547.41,0,0,1,19.42,94.89c3.05,26.28,3.51,52.69.31,79-5.51,45.33-19.71,87.36-48.24,123.77a7.56,7.56,0,0,1-1.57,1.85,19.42,19.42,0,0,1-3.08,1.32c.12-1.11-.14-2.48.42-3.3,4.22-6.17,8.81-12.1,12.9-18.36,15.65-24,25.45-50.39,31.47-78.3,8.85-41,8-82.15,1.9-123.39A520.45,520.45,0,0,0,1121.82,276c-14.36-45.45-40.77-82.9-76.27-114.24-39.69-35.05-84.05-63-132-85.15-24.14-11.15-49.8-16.82-76.49-17.78-40-1.45-80.08-4-120.14-4.55-44-.61-85.83,10.12-125,30.14-55.74,28.49-97.52,71-125.47,127.08-15,30.08-23.49,62-27.45,95.33-2.25,18.94-4.84,37.89-13.89,55.14a67.67,67.67,0,0,1-5.17,8.27c-.58.8-2.05.94-3.12,1.39.06-1-.27-2.3.23-3,13.76-20,16-43.3,19-66.39,6.7-52.55,25.62-100.11,58.35-141.92C530.65,114,577,82.07,632.9,63.91c40.33-13.1,81.69-15.17,123.58-12.28,5.85.4,11.71.59,17.57.88Z"/><path d="M313.28,802.83l17.81-2.69.49,2.35a48.56,48.56,0,0,1-5.93,2c-4.14.82-8.41,1.06-12.45,2.2a9.37,9.37,0,0,0-5.07,4c-14.36,25.13-35,44.36-57.86,61.4a69.67,69.67,0,0,1-17,9.21,84.8,84.8,0,0,0-26.55,16c-5.8,5.1-12.07,9.39-19.77,11-2.81.6-3.72,2-3.06,4.84,5.52,24.1,11.09,48.2,21.7,70.73,10.35,22,24.13,41.28,44.54,55.13,13.49,9.15,28.21,14.68,44.75,14.56,22.77-.15,41.91-12.76,50-34.05,7.48-19.77,17.6-37.58,35.23-49.83,10.93-7.59,22.75-13.9,34.13-20.85,41.59-25.45,70.19-61,81.56-108.77,8.13-34.16.67-65.91-19.55-94.62a26.29,26.29,0,0,1-2.57-3.55,16.25,16.25,0,0,1-.81-3.81c1.15.55,2.76.78,3.37,1.69,4.39,6.45,9.25,12.7,12.71,19.64,16.29,32.66,17.78,66.23,4.86,100.37-11.87,31.37-30.94,57.71-57.53,78-13,9.91-27.38,18.08-41.58,26.28-21.64,12.5-36.9,30-45.14,53.66-10,28.78-34.47,41.18-61.68,39.09-17.62-1.35-33.09-9-46.78-20.14-20.79-16.9-34.8-38.7-43.6-63.59-6.25-17.7-10.51-36.1-15.65-54.19-.31-1.09-.51-2.21-.82-3.3-2.06-7.12-.93-8.26,5.85-11.1a72.69,72.69,0,0,0,17.58-10c8.71-7,17.81-13.06,28.46-16.65,12.08-4.07,20.9-13,30.48-20.73,15.69-12.73,29.22-27.34,39.4-44.88a23.45,23.45,0,0,0,1.66-4.86c.23-.74.1-2,.54-2.21,7.15-3.56,8.7-11.43,13.2-17a5.41,5.41,0,0,1,.92-1.13c1.07-.74,2.2-1.39,3.31-2.07-.12,1.27.14,2.75-.43,3.77-1.74,3.12-3.82,6.06-5.72,9.09C315.38,799.1,314.63,800.49,313.28,802.83Z"/><path d="M883.25,513.71c.83-.74,1.54-1.79,2.52-2.16,19.06-7.11,38.08-14.33,57.27-21.09,7.16-2.53,14.32-1.4,21.29,2C981.45,501,994.07,513.43,999.9,532c3.06,9.71,6.83,19.4,8.25,29.39,2.19,15.44-5.07,28.8-12.28,41.88-9.78,17.75-23.52,31.81-41.4,41C933.83,654.93,912.82,665,891.41,674c-9.1,3.82-19.62,4.35-29.53,6.16-9.12,1.66-18.38,2.67-27.44,4.59-31.7,6.73-49.54-21.3-46.09-43.39,1.5-9.61,3.49-19.39-1.81-28.67-.33-.57.29-1.68.46-2.53.93.43,2.45.66,2.68,1.34,1.41,4.12,3.37,8.3,3.53,12.52.23,6.29-.65,12.66-1.45,18.95-2.62,20.5,14.56,43.6,40.08,38.66,15-2.91,30.2-5.11,45.33-7.48,13.72-2.15,26.35-7.31,38.47-13.77,16.5-8.8,33.55-16.83,49-27.19,20.51-13.73,32.45-34.31,39.07-57.87,3.44-12.23.12-23.87-4.29-35.25-1.29-3.34-3-6.52-4.14-9.91-5.56-16.85-18.08-27-33.12-34.76-6.87-3.57-13.84-3.45-20.83-.88-17.27,6.35-34.48,12.87-51.74,19.26a46.82,46.82,0,0,1-5.74,1.36Z"/><path d="M378.7,500.17c1.61-.16,3-.26,4.37-.44,19.61-2.53,34.83,5.14,45.82,20.92,5.07,7.27,8.57,15.63,12.76,23.51,1.3,2.44,2.18,5.2,3.9,7.28,2.41,2.92,5.43,5.34,8.8,8.56l3.25,9.45c-2.25-1.29-4-1.85-5.15-3q-8.5-8.76-16.7-17.81c-2.58-2.84-5.18-5.08-10.39-1.91,3.63-5.93-.5-6.48-3.39-7.69-17.33-7.22-34.1-5-50.42,3.24-8.55,4.32-10.82,12.64-12.33,21-.24,1.36,2.44,4.12,4.3,4.81,7.52,2.81,15.23,2.65,23,.55,15-4,29.37-2.76,42.62,6a38.41,38.41,0,0,1,3.44,2.87l-.86,1.7a28.53,28.53,0,0,1-5-2.06c-7.61-5-16.09-6.87-25-7.52a15.22,15.22,0,0,0-2.48.23l3.7,5.32c-7.12-.45-13.33-1.24-19.52-1.12a24.67,24.67,0,0,0-17.65,7.29c-4,4.19-7.33,9.13-11.58,13.18,1.78-9.28,7.52-15.49,15.23-20.27-6.12-3.68-10.47-4-16.13-.45,1.38-9.12,3-17.12,6.58-24.63,4-8.36,12.18-11.24,20.09-14.52-.78-5.83-8-9.7-4.67-17.34,2.81,5.13,4.89,9.46,7.52,13.42a5.68,5.68,0,0,0,4.72,2c16-3.11,31-1.56,44.51,8.53a53.32,53.32,0,0,0,5.78,3.13c-5.48-13.41-11.86-24.48-22.32-32.77-11-8.72-23.44-11-36.82-7.06a13.13,13.13,0,0,0-6.27,4.77c-2.78,3.79-4.82,8.1-7.34,12.08a21.48,21.48,0,0,1-3.23,3.31l-1.8-1.32,19.69-34.08,2,.77Z"/><path d="M946,544.13c-.11,2.4.21,3.66-.25,4.09-4.5,4.22-8.84,9-16,7.53-4.45-.9-9.08-1.37-13.28-2.95-7.32-2.74-10.37-9.34-7.64-16.59a81,81,0,0,1,7.7-15.73C922.75,511,934.2,507,946.4,510.22A88.55,88.55,0,0,1,964,517.13c10.53,5.4,15.13,14.7,15.78,26.27,1.22,21.75-4,41.82-14.79,60.74-9.41,16.47-24.39,25.39-41.24,31.85-9.55,3.67-19.37,6.66-29.22,9.44-4.15,1.17-8.67,1.14-13,1.39-17.06,1-34.12,1.83-51.18,2.72-3.68.19-7.37.33-11,.5l-.45-1.52c1.17-.61,2.3-1.66,3.5-1.76,15.26-1.26,30.6-3.87,45.77-3.16,19.92.93,38-4,55.92-11.43,36.09-15,57.18-51.78,52.15-90.74-1.34-10.36-6.29-18.18-15.89-22.38a80.15,80.15,0,0,0-18-5.92c-10.21-1.78-18.71,1.77-24,11.1a83.18,83.18,0,0,0-6.14,13.23c-1.95,5.51-.13,10,5.27,11.85a65.44,65.44,0,0,0,15.69,2.83c1.9.15,4.07-1.61,5.94-2.78S942.92,546.49,946,544.13Z"/><path d="M344.2,568.1l-13.31,1.07c5.13,4.6,11.46,5.93,12.67,13-1.53-.38-2.51-.31-2.95-.77C329,569.11,314.93,569,301,575.29a241.75,241.75,0,0,0-37.68,21.39C253,603.84,246,614.35,247.74,627.88c.82,6.51,3.14,13,5.73,19.08,13.18,30.95,26.71,61.75,40,92.63,7.59,17.6,13.46,35.66,13.41,55.1,0,2.18-1.4,4.35-2.16,6.53-.48-2.19-1.38-4.38-1.37-6.57.11-17.42-4.57-33.78-11.42-49.51-9.72-22.32-20.34-44.24-29.89-66.63-6.23-14.61-11.51-29.65-16.71-44.67-3.55-10.26-1.37-20.21,5.18-28.56a70.66,70.66,0,0,1,15.66-15.14c12.83-8.61,26.09-16.71,41.32-20.66a31.77,31.77,0,0,1,8.19-1.15c5.86.06,11.54.2,17-2.79,2-1.1,5.1-.53,7.65-.29C341.42,565.36,342.32,566.64,344.2,568.1Z"/><path d="M928.18,565.87c-2.81,3.24-5.11,7.44-8.64,9.35-2,1.07-6.88-.8-8.92-2.87-4.63-4.69-8.35-10.29-12.34-15.59-1.6-2.13-2.95-4.45-5.05-7.67-1.54,7.37-2.84,13.48-4.08,19.6-.71,3.51-1,7.15-2.05,10.53-2.23,6.88-.45,12.74,3.45,18.41,2.67,3.88,4.87,8.09,7.6,11.93,2.26,3.19,5.5,4.73,9.4,3.07,3.71-1.57,4.44-4.64,4.14-8.47-.14-1.83.58-4.77,1.83-5.4,1.63-.83,4.21-.07,6.3.38a62.39,62.39,0,0,1,6.5,2.1c.73-2.53,1.67-5,2.15-7.61.77-4.11,1.1-8.31,1.93-12.41.15-.76,1.83-1.21,2.8-1.8a13.07,13.07,0,0,1,.38,3.05c-.42,3.85-1.39,7.68-1.42,11.53-.1,10.54-4.72,13.4-13.9,8.32a16.31,16.31,0,0,0-2.67-.84c-.09,1.46-.23,2.5-.21,3.53.11,5.16-2.3,9.48-6.56,11-4.73,1.64-9.56,1-12.4-3.13a197.3,197.3,0,0,1-12.95-21.76c-1.21-2.34-.86-5.77-.46-8.59.77-5.47,2.28-10.84,3.12-16.31,1.5-9.71,2.73-19.46,4.06-29.07a26.81,26.81,0,0,1,1.92,2.61c4.34,7.07,8.54,14.24,13,21.24a42.45,42.45,0,0,0,5.79,7.21c5.5,5.51,6.95,5.3,11.61-.74a24.61,24.61,0,0,1,3.74-3.26Z"/><path d="M819.69,628c-2.28-4.67-3.61-9.62-.91-14.58a32.63,32.63,0,0,1,6.78-8.81c7.33-6.47,13.26-13.84,17.08-22.88a16,16,0,0,1,2.64-4.07c3.36-3.91,9.32-5.59,13.77-3.79,5,2,6.46,6.29,6.22,11.13-.4,8.11-.06,16.06,4.5,23.07,2.28,3.51,5.39,6.48,7.87,9.88,1.39,1.9,3.05,4.16,3.12,6.3.06,1.78-1.68,4.21-3.32,5.21-.86.53-3.23-1.35-4.89-2.18-2.65-1.32-5.21-3.6-8-3.83a182,182,0,0,0-21-.24c-2.15.06-4.27,1.29-6.4,2l-3.62,1.16-1-1.93c2.27-1.37,4.5-3.83,6.82-3.91,9.87-.36,19.79-.29,29.65.26,2.57.14,5,2.61,8.32,3.56-.89-1.46-1.53-3.19-2.72-4.34-9.48-9.12-14.18-20-13.09-33.31.32-3.95.33-8.06-4.55-9.65-3.85-1.26-8.61.88-10.79,5.59a74.56,74.56,0,0,1-19.65,25.77c-4.48,3.83-7.17,8.85-4.95,15.26.44,1.27-.13,2.9-.24,4.36Z"/><path d="M442.76,913.82a30.72,30.72,0,0,1-1-4.36c-1.82-22.09-10.69-40.94-25.78-57.05a61.29,61.29,0,0,1-7.4-9.63c-4.3-7-12-8.49-18.35-12.24a43.82,43.82,0,0,1-3.93-2.94l.66-1.14c.6-.09,1.32-.45,1.77-.23,9.32,4.4,19,7.77,24.91,17.64s14.29,18.1,20.41,27.81c6.65,10.56,9.76,22.64,10.81,35.13.19,2.27,0,4.57,0,6.86Z"/><path d="M443.36,453.47c2,5.42,6.48,8.48,12.94,8.76a16,16,0,0,0,15.3-9.29c3.47-7.86,1.68-15.58-.49-23.35-.49-1.75-.2-3.72-.27-5.59,1.24,1.6,3,3,3.63,4.84,2.75,8,4,16.11.94,24.32-4.95,13.23-23.84,16.82-33,6.31C439.8,456.48,440,455.29,443.36,453.47Z"/><path d="M465.54,758.72c-9.21-1.26-16.32-7.58-18.12-15.92a27.22,27.22,0,0,0-8.44-15c-.89-.8-1.16-2.29-1.72-3.46,1.39.35,3.49.25,4.07,1.14,3.33,5.08,7.66,10.05,9,15.7,1.73,7,5.94,10.29,11.67,13,1.65.79,3,2.28,4.42,3.45Z"/><path d="M356.16,678.89C351,681.57,346,684.21,341,686.74a2.33,2.33,0,0,1-2.14-.25,2.42,2.42,0,0,1-.37-2.13C340,680,352.71,676.32,356.16,678.89Z"/><path d="M358.65,669.45c-.79-2.23-1.94-4.41-2.31-6.71-.93-5.71-4-9.65-9.33-11.55-6.82-2.44-11.48-7.06-15.18-13.1a60.84,60.84,0,0,0-6.44-7.94c-2.22-2.53-2.16-8.61-.5-10.44,8,2.48,15.49,4.75,23,7.21a3.83,3.83,0,0,1,2.06,2.35c3.41,12.68,6.71,25.4,10,38.11a7.57,7.57,0,0,1,0,1.84Z" fill="#fff"/><path d="M1027.55,534.18c.44-2.94.66-5.93,1.36-8.8,5.74-23.59,3.56-46.19-8.37-67.54-9.2-16.48-22.73-28.77-38.39-38.89-19.55-12.64-40.82-21.72-63-28.41-31.55-9.53-63.35-18.22-95-27.27-14.36-4.11-28.63-8.59-43.11-12.23-8.33-2.09-17-3.11-25.5-4.16-20.34-2.52-40.84-4-61-7.32a514,514,0,0,1-92.24-24c-20.61-7.51-41.21-15.15-59.9-26.83a124.09,124.09,0,0,1-20.7-16.17c-16.81-16.36-19.47-36.15-11.88-57.63,9.56-27.09,27.12-48.44,49.25-66.16C584.6,128.3,613.7,115,645.68,108c30.76-6.7,62-8.56,93.27-7.06,31,1.48,62,4.19,93,6.7A207.52,207.52,0,0,1,891.27,121c13.91,5.45,26,13.91,38.29,22.24,22.87,15.54,46.21,30.39,69.24,45.7,26,17.27,50.54,36.24,71,60,19.8,23,32.51,49.28,37.69,79.19a252.7,252.7,0,0,1,1.37,80.76A169,169,0,0,1,1075,488c-10.59,13.75-22.85,26.24-34.72,39-3.16,3.39-7.61,5.57-11.47,8.3ZM968,222.31c-3.94-.28-6.64-1.68-5.35-6.64-4.17-1.73-8-3.5-12-4.86-1.36-.46-3.08.13-4.63.24,1,1.41,1.76,3.42,3.15,4.09,2.71,1.3,5.79,1.85,8.71,2.72l-.1.93-23.91-2.34,1.84-7.14-8.73-.66,4.1,8.47-10.58,2.31-.35-2.12,7.39-.94c-.82-1.81-1.29-4.82-2.54-5.19-2.09-.61-4.67.47-7,.84l.7.77-4.17,5,3,3.22-9,15.64,5.24,1-3.33,4.67a16.76,16.76,0,0,0,2.91-.28,11,11,0,0,0,1.75-1,53.86,53.86,0,0,1,3.67,5.1c2.88,5.21,8.93,9,7.5,16.21-.08.4.6,1.17,1.1,1.42,3.28,1.68,6.61,3.26,9.92,4.88L934,273.11c10.68,4.68,23.39,3.75,30.27,15.6l4.92-4.63A9.85,9.85,0,0,0,983,291.32c5.54-2.44,10-1.28,14.21,2.68a36.21,36.21,0,0,0,5.25,4.35c3,1.92,5.84.68,5.8-2.8,0-4.13-1-8.25-1.42-12.39-.33-3-.54-6-.76-9a31.3,31.3,0,0,1-.22-5c.37-4.32.92-8.63,1.41-13l-6.24-.58,2.64-3.22-6.56-11,5.18-1.13c-2.08-4.89-5.26-1.83-7.63-2.26a8.68,8.68,0,0,0-3.67-2c-1.23-.38-2.78-.22-3.72-.92-3.74-2.8-7.3-5.84-10.95-8.81l.29-5.52-1.17-.37-3.79,4.28-3.81-2.36c3.63.54,4.06-1.64,3.54-4.37a9.05,9.05,0,0,0-1.37-3,27.08,27.08,0,0,0-2.08-2.59c-.38,1.25-1.13,2.52-1.07,3.75A46.75,46.75,0,0,0,968,222.31ZM649.4,262.63c-2.93,0-5.87-.06-8.79,0a13.74,13.74,0,0,0-2.84.66c-17.77,4.49-28.29,16.44-34,33.23-2.63,7.7-.47,11.86,7.07,15,5.82,2.43,11.47,5.28,17.15,8,15.49,7.48,30.9,13.26,48.69,7,22.44-7.89,40.89-19.24,49.71-43.1,3.94-10.66,3.54-22.47,9.84-32.41,1.71-2.69.19-5.21-3.79-5.34-14.81-.49-29.61-1.33-44.42-1.68A26.41,26.41,0,0,0,665.56,255C661.2,260.9,656.88,264.45,649.4,262.63Zm178.85-7.49c4.16,5.86,10.44,6.41,14.64,1.2,3.91-4.86,8.76-6.47,14.67-5.62,2.74.4,5.43,1.16,8.17,1.44,4.12.42,6.42-2.53,4.52-6s-4.71-6.9-6.82-10.49c-.76-1.29-.67-3.07-1-4.62-.09-.46-.21-.91-.38-1.65l-2.62.16-4.75-5.8.67-3.33c-2.49-2.36-5.07-3.9-6.3-6.17-2.31-4.24-3.31-4.17-6.57-6.57-2.22-1.63-3.72-2.38-6.22-2.25-.21,0-.88-3-.75-4.56.05-.64,1.66-1.15,3.41-2.27-5.6-3.52-7.35,2.24-10.45,2.62-2.2-1.18-5.56-1.07-6.49-2.51-2.67-4.17-5.32-3.74-7.83-1.57-1.81-2-3-4.63-4.83-5.07-3.09-.77-7.05-1.43-7.89,3.39l-4.87-4.53v5.78c-3.77.2-7.39,3-10.79-1.1-.61-.73-3.05-.11-4.6.16a9.82,9.82,0,0,0-3.63,1.34c-2.34,1.53-4.52,2-7,.31-.32-.21-1.63,1.06-2.49,1.65l3.68,5.24-9.88-2.7-.45,1.33,2.93,3.62L760.22,208l-1.69-4.55-10.85,5.64,4.49,5.31-.65,1.12-8.07-1.5,1.62,10.45L741,226.81l3.92,2.84-1.34,4c5.74,1.37,8.19,4.77,6.59,11l6.27-2.12-1.16,5c7.6-1.29,7.6-1.29,12.66,3.27-1.15-.07-2.16-.7-3.22-.82a3.47,3.47,0,0,0-2.42.81c-.27.24,0,1.55.42,2,1.49,1.76,2.47,3.85,5.85,2,2.17-1.2,5.55-.23,8.4-.23l-.86,4.82,9.12-4.12-2,4.77c8.89,5.81,16.15,2.27,23.26-3.3l-1.58,4.4c4.82,0,9.44.71,13.69-.22C822.11,260.11,828.07,262.38,828.24,255.14ZM671.74,153.25l-1.43,1.13a16.56,16.56,0,0,1,2.62,1.31c6.66,4.93,13.05,10.27,20,14.79,7.87,5.14,16.71,8.77,26.24,7.6,15.33-1.88,29.34-7.41,40.65-18.4,8.05-7.82,15.36-16.06,14.88-28.49-.14-3.68-1.13-5.93-5-6.4a14.7,14.7,0,0,1-3.3-.8c-10.56-3.92-21.55-3.36-32.35-2.26-7,.72-13.94,2.84-19.48,8.1a9.18,9.18,0,0,1-6.77,1.92c-13.69-2-22.81,5.87-31.57,14.37C674.26,148,673.2,150.85,671.74,153.25ZM843.17,302.78a23.8,23.8,0,0,0-25.4,16.9c-1.19,3.77-.46,7,3.76,8.81a89.55,89.55,0,0,1,11,5.25c18.53,11,45.77-3.25,49.79-20.56,1.2-5.18,3.17-10.19,4.79-15.27.83-2.61,0-4.19-2.84-4.31-7.29-.31-14.59-.56-21.88-.83-5.26-.19-9.28,2.18-12.92,5.79C847.68,300.31,845.28,301.4,843.17,302.78ZM664.75,201.11c-3.83.34-7.36.38-7.18-4.63,0-.34-1.4-.64-2-1.1-3-2.12-6-4.28-9.63-6.91-5,1.86-6.08,1.33-7.46-5.47l-16.6,3.38-1.32-3.48C608.32,187.33,599,195,589.83,204.66c2.75,1.13,4.52,1.78,6.23,2.58,1.31.62,3.67,1.51,3.62,2.13-.4,5.14,4.82,6.33,6.6,9.85a2.17,2.17,0,0,0,1.95.8,2.35,2.35,0,0,0,1.26-1.75,25,25,0,0,0-.61-4.42c1.8,1.46,3.86,2.29,4,3.41,1.15,7.5,8.17,6.49,12.44,7.56,6.27,1.58,13.23.41,19.88.57,3.22.08,6,0,4.53-4.56,2.56.49,4.62,1.25,6.64,1.16s4.61-.46,5.84-1.76c3.33-3.5,6.08-7.56,9.48-11.95h-9.24Zm301.62,139c-.91-3.84-2.45-4.27-5.15-2.2-6.14,4.72-12.5,9.16-18.62,13.89a42.69,42.69,0,0,0-4.86,5.12l18.36,11.92,1.76,5.19,3.16-3.75,2.89,4.8c5.54-4.07,10.06.08,14.78,1.22,3.21.78,6.16,2.57,8.45-1.29,2.45,2.45,9.65,3.09,11.36.79,2.82-3.79,6.11-3.47,10-2.57,1.31.3,4.05-.66,4.29-1.55,1.49-5.47,5.42-8.47,10.47-10.78l-9.75-3.18,1.5-5.06-1-1.16-7.16,4c-.4-.65-1.48-1.78-1.26-2.17,3.35-5.82-1.5-4.77-4.43-5.57a31,31,0,0,1-5-2.34l.52-1,3.36-.31c-2.75-3.61-5.37-4.12-8.65-.42-.08-7.35-4-1.66-6.24-2.54l3.23-5.4c-6.33-2.07-11-.57-14.82,3.84l-2.89-5.29Zm20-112.85c-3.48,2.9,3.29,3.9,2.28,6.58l4-1.7-2,.59Zm-68.57,28,.06,1.47c1,.67,2.07,1.28,3,2s1.57,1.43,2.34,2.15l1.39-1c-.93-1.83-1.59-3.89-2.92-5.35C921.18,254,919.1,255,917.75,255.24Z" fill="#fff"/><path d="M649.4,262.63c7.49,1.82,11.8-1.73,16.16-7.64A26.41,26.41,0,0,1,688,244.07c14.81.35,29.61,1.2,44.42,1.68,4,.13,5.49,2.65,3.79,5.34-6.3,9.94-5.91,21.75-9.84,32.41-8.81,23.86-27.26,35.22-49.71,43.1-17.79,6.25-33.2.47-48.69-7-5.68-2.75-11.33-5.6-17.15-8-7.54-3.15-9.71-7.31-7.07-15,5.74-16.79,16.26-28.74,34-33.23a13.74,13.74,0,0,1,2.84-.66C643.53,262.57,646.47,262.63,649.4,262.63Zm82.27-12.84c-3.27-.68-7.57,2.43-9.72,7.45-6.09,14.18-12.86,28.52-26.37,36.64-11.86,7.13-25.3,11.73-38.26,16.91-8,3.19-16.16,2.31-24.28-.78-6.82-2.59-13.92-4.46-20.95-6.47-1.68-.48-3.57-.24-5.36-.33l-.45,1.47c2.29,1.36,4.51,2.88,6.89,4.06,5.94,2.92,12,5.51,17.92,8.54,16.09,8.3,31.94,11.09,50,4.23,23-8.77,38.12-23.47,44.4-47.22C727.55,266.24,729.54,258.16,731.67,249.79Zm-10.2,1-.12-1.25c-9.83-.67-19.67-1.23-29.49-2-10.92-.9-19.45,3.28-25.47,12.17-3.27,4.83-6.88,6.91-13,6.34-20.52-1.9-35.47,7.2-43.91,26.08-.85,1.91-1.45,3.93-2.66,7.24,3.1-1.26,4.84-1.68,6.27-2.59,4.51-2.89,8.67-6.4,13.4-8.84,4.33-2.24,9.23-3.37,13.85-5.06,2.67-1,5.32-2,7.93-3.16,4.1-1.81,8-4.16,12.27-5.49,5.45-1.71,10.8-3.17,15.14-7.31a21.73,21.73,0,0,1,8.07-5.13C696.26,257.89,708.89,254.44,721.47,250.82Zm-50,36.34c-.18,2.92-3.09,4.47-7,4.89-5.09.53-10.17,1.19-15.26,1.67-7.83.73-15.7,1.13-23.5,2.13-3.52.45-6.9,2-10.34,3l.35,2.08c8.26.23,15.13,8.11,24.27,3.66.64-.31,1.62.13,2.41,0,4.67-.62,9.34-1.22,14-2,.64-.11,1-1.41,1.62-2.07,1.39-1.55,2.54-3.69,4.29-4.47,8.4-3.74,18.36-3.3,25.82-9.64a1,1,0,0,1,.46-.14c11.25-1.75,17.37-10.35,24.06-18.14.72-.84.87-2.17,1.49-3.82a14.59,14.59,0,0,0-3,.62C705.09,268,699,271,693,274.23a2.81,2.81,0,0,0-1.3,2.24c.71,3.47-1.37,4.51-4,5.49-2.27.83-4.3,2.37-6.59,3.11C678.35,286,675.45,286.33,671.51,287.16Zm-4.41-10.77c-7.51.94-14.25,2.51-18.91,8.65,4.44,6,9.42,7,17,3.1C670.5,285.43,668.75,281,667.1,276.39Zm2.66-.55c5.24,8.17,5.5,8.24,13.2,4.2,4.91-2.58,6.08-5.8,3.95-10.55-1.31-2.92-3.07-4.18-6-2C677.16,270.27,673.45,273.07,669.76,275.84ZM688,264.94c2,2.11,3.77,5.14,4.87,4.91,3.17-.66,6.16-2.48,9-4.22.56-.34.44-2.51,0-3.54-.28-.62-2-1.09-2.81-.86C695.66,262.19,692.34,263.45,688,264.94Zm-26.81,38.6,1.56,1.74c3.85-1.46,7.74-2.82,11.48-4.51.41-.18-.06-2.3-.13-3.52-3.34.61-6.81.86-10,2C662.85,299.71,662.19,302,661.23,303.54ZM647,291.48c-2-6.71-6.42-4.81-9.89-4.72-.89,0-1.74,1.45-2.61,2.23.83.83,1.59,2.29,2.49,2.38C640.09,291.67,643.22,291.48,647,291.48Zm45.38.24-.85-1.61a10.7,10.7,0,0,0-10.91,8.05Zm12.3-32.19c3.68,3.8,6.12,3.06,8.23-2.33Z"/><path d="M828.24,255.14c-.18,7.24-6.13,5-9.66,5.74-4.25.94-8.87.22-13.69.22l1.58-4.4c-7.11,5.57-14.37,9.12-23.26,3.3l2-4.77-9.12,4.12.86-4.82c-2.85,0-6.22-1-8.4.23-3.38,1.87-4.36-.23-5.85-2-.42-.49-.69-1.8-.42-2a3.47,3.47,0,0,1,2.42-.81c1.06.12,2.07.74,3.22.82-5.06-4.55-5.06-4.55-12.66-3.27l1.16-5-6.27,2.12c1.6-6.18-.85-9.58-6.59-11l1.34-4L741,226.81l4.08-2.29-1.62-10.45,8.07,1.5.65-1.12-4.49-5.31,10.85-5.64,1.69,4.55,4.07-1.51-2.93-3.62.45-1.33,9.88,2.7L768,199c.86-.59,2.17-1.86,2.49-1.65,2.51,1.67,4.69,1.22,7-.31a9.82,9.82,0,0,1,3.63-1.34c1.55-.27,4-.89,4.6-.16,3.4,4.08,7,1.3,10.79,1.1v-5.78l4.87,4.53c.84-4.82,4.8-4.16,7.89-3.39,1.78.44,3,3.07,4.83,5.07,2.5-2.18,5.15-2.6,7.83,1.57.93,1.45,4.29,1.33,6.49,2.51,3.1-.38,4.85-6.14,10.45-2.62-1.75,1.11-3.36,1.62-3.41,2.27-.13,1.56.54,4.57.75,4.56,2.5-.13,4,.62,6.22,2.25,3.26,2.4,4.27,2.33,6.57,6.57,1.24,2.27,3.81,3.81,6.3,6.17l-.67,3.33,4.75,5.8,2.62-.16c.17.73.29,1.19.38,1.65.31,1.55.22,3.33,1,4.62,2.11,3.59,4.84,6.84,6.82,10.49s-.39,6.47-4.52,6c-2.74-.28-5.43-1-8.17-1.44-5.91-.86-10.75.76-14.67,5.62C838.68,261.56,832.41,261,828.24,255.14Zm-63.87-11.51c3.72-3.18,6.6-5.12,8.81-7.64a22.4,22.4,0,0,1,25-6,37.57,37.57,0,0,1,20.66,18.3c.66,1.25,2.33,3,3.36,2.86,9.32-1,18.62-2.35,27.9-3.71a3.58,3.58,0,0,0,2.2-1.64c1.79-3.11,3.41-6.32,5.58-10.42-2.14-2.47-6.16-5.65-8.24-9.8a40,40,0,0,0-15.46-16.36c-17.74-10.86-36.56-11.17-55.81-4.77-9.78,3.25-19.15,7.43-26.17,15.37-5,5.61-4.83,10.86.75,15.76C756.61,238.86,761,241.32,764.37,243.64Zm101.54,4.47,1-1.49c-2-1.48-3.89-3.34-6.13-4.27-1.06-.44-2.86.88-4.33,1.4,1,1.21,1.67,3,2.9,3.49C861.37,248,863.71,247.86,865.91,248.1Z"/><path d="M967.83,222.19l3.82,2.37,3.79-4.28,1.17.37-.29,5.52c3.65,3,7.21,6,10.95,8.81.94.7,2.49.55,3.72.92a8.68,8.68,0,0,1,3.67,2c2.38.43,5.55-2.63,7.63,2.26l-5.18,1.13,6.56,11-2.64,3.22,6.24.58c-.49,4.4-1,8.71-1.41,13a31.3,31.3,0,0,0,.22,5c.22,3,.43,6,.76,9,.46,4.14,1.38,8.26,1.42,12.39,0,3.48-2.79,4.72-5.8,2.8A36.21,36.21,0,0,1,997.2,294c-4.18-4-8.67-5.13-14.21-2.68a9.85,9.85,0,0,1-13.82-7.23l-4.92,4.63c-6.89-11.85-19.6-10.92-30.27-15.6l3.23-4.38c-3.32-1.62-6.64-3.2-9.92-4.88-.5-.26-1.18-1-1.1-1.42,1.42-7.24-4.63-11-7.5-16.21a53.86,53.86,0,0,0-3.67-5.1,11,11,0,0,1-1.75,1,16.76,16.76,0,0,1-2.91.28l3.33-4.67-5.24-1,9-15.64-3-3.22,4.17-5-.7-.77c2.37-.37,5-1.45,7-.84,1.25.36,1.72,3.37,2.54,5.19l-7.39.94.35,2.12L931,217.12l-4.1-8.47,8.73.66-1.84,7.14,23.91,2.34.1-.93c-2.93-.86-6-1.41-8.71-2.72-1.38-.67-2.12-2.68-3.15-4.09,1.55-.11,3.27-.71,4.63-.24,4,1.36,7.83,3.13,12,4.86-1.3,5,1.41,6.37,5.35,6.64Zm33.91,58.53c-.3-2.13-.83-5-1.08-7.87-.74-8.51-2.31-16.76-6.88-24.18-11.23-18.25-28.64-25.79-49-27.92-7.77-.82-15.66-.87-23,2.84-6.14,3.13-7,7.27-3.39,15.31,3.2,7.06,3.67,7.27,11.18,4.32,9.92-3.89,19.5-4.68,27.32,4.12,5.78,6.51,9.51,13.88,8.62,23.2-.26,2.74,1.26,7.3,3.3,8.3,6.66,3.24,13.91,5.29,21,7.61a5,5,0,0,0,3.5-.57C995.94,284.49,998.38,282.82,1001.74,280.73Zm2,14,1.44-1.06a69.8,69.8,0,0,0-4.36-7.14c-.36-.47-2.23.22-3.41.38.17,1,0,2.39.59,3A71.68,71.68,0,0,0,1003.71,294.71Z"/><path d="M671.74,153.25c1.47-2.4,2.52-5.23,4.48-7.13,8.76-8.5,17.89-16.33,31.57-14.37a9.18,9.18,0,0,0,6.77-1.92c5.54-5.26,12.49-7.39,19.48-8.1,10.8-1.1,21.79-1.66,32.35,2.26a14.7,14.7,0,0,0,3.3.8c3.85.47,4.84,2.72,5,6.4.47,12.43-6.83,20.67-14.88,28.49-11.31,11-25.32,16.52-40.65,18.4-9.53,1.17-18.37-2.46-26.24-7.6-6.93-4.52-13.32-9.85-20-14.79a16.56,16.56,0,0,0-2.62-1.31Zm98.53-19.67a3.76,3.76,0,0,0-1.13.22,3.27,3.27,0,0,0-1.08,1c-9.88,16.53-24.6,26-43.28,29.65-8.92,1.76-17.84,4-26.8.4-3.44-1.4-6.76-3.11-10.13-4.68,9.88,10.66,21.2,16.47,36.25,13.54,17.9-3.49,31.77-12.7,42.5-27C769.39,142.91,771.56,138.67,770.27,133.58ZM679.1,148.07l.73,1.62c1.69-.53,3.37-1.06,5.06-1.57a39.43,39.43,0,0,1,5.5-1.59c8.3-1.23,16.63-2.32,24.95-3.48a4.82,4.82,0,0,0,1.38-.44c4.67-2.23,9.2-4.82,14-6.63a136.06,136.06,0,0,1,16.68-4.89c5.42-1.27,11-2,16.47-2.92l-.18-1.55a75,75,0,0,0-30.67-1.05c-4.55.8-9.64,2.06-13.07,4.85-5.17,4.22-10.39,5.18-16.69,4.87C692.67,134.76,686.16,142,679.1,148.07Zm6,3.8-.6,1.82c4.1,2.08,8,5,12.33,6.11,13.6,3.61,25.3-4.52,37.94-7,.14,0,.26-.18.4-.26,7-3.72,13.79-8,21.1-11,4.84-2,6.6-5.6,9.35-9.86-1.66.09-2.58.18-3.5.19-4,0-5.39,4.26-8.27,5.53-8.3,3.69-15.42,9.87-25.07,10.89-6.15.65-12,4.12-18.15,4.58-7.23.55-14.6-.8-21.91-1.28A29.65,29.65,0,0,0,685.1,151.87ZM738.31,155l1.13,1.44,7.71-4.67L746,150C742.69,150.52,739.86,151.77,738.31,155Zm-14.79-11,.53,1.27a17,17,0,0,0,3.92-.55,16.67,16.67,0,0,0,3.94-2.4c.19-.15-.32-1.67-.39-1.66a17.1,17.1,0,0,0-4.41.88A20.92,20.92,0,0,0,723.52,144Zm15.84-1.28,4.59-6.39-.84-1.1-5.87,1.8Zm-28.82,4.73.5,2.46,8.44-1.77-.35-1.92Z"/><path d="M843.17,302.78c2.11-1.39,4.51-2.48,6.26-4.22,3.64-3.61,7.66-6,12.92-5.79,7.29.27,14.59.52,21.88.83,2.83.12,3.67,1.7,2.84,4.31-1.62,5.09-3.58,10.09-4.79,15.27-4,17.31-31.26,31.55-49.79,20.56a89.55,89.55,0,0,0-11-5.25c-4.22-1.78-5-5-3.76-8.81A23.8,23.8,0,0,1,843.17,302.78Zm-21.44,20.35c14.44,12.46,30.08,13.78,45.47,4.69,8.42-5,15.42-19.55,13.95-28.49C868.52,324.27,849.19,333.35,821.73,323.14Zm3-7.78,19.4-8.77C835.91,304.46,827.54,308.79,824.68,315.36Zm17.52-3c3,3,7.76,3.67,9.24,1.39.53-.82,0-3.31-.91-3.92C847.06,307.41,844.81,310.06,842.21,312.4ZM865,297c-5.65-2.39-12.77,1-13.54,6.38ZM855,313.7l1.1,2.14,14.63-7.56L870,306.9Zm20.47-14.63-.31-.72c-3.53,1-7.1,1.9-10.57,3.09-.73.25-1.09,1.57-1.61,2.4,1,.24,2.25,1,2.94.64C869.18,302.84,872.29,300.9,875.46,299.06Z"/><path d="M664.75,201.11l-2.27,7.17h9.24c-3.4,4.39-6.15,8.45-9.48,11.95-1.24,1.3-3.83,1.66-5.84,1.76s-4.08-.67-6.64-1.16c1.49,4.6-1.31,4.63-4.53,4.56-6.66-.16-13.61,1-19.88-.57-4.27-1.08-11.29-.07-12.44-7.56-.17-1.12-2.23-2-4-3.41a25,25,0,0,1,.61,4.42,2.35,2.35,0,0,1-1.26,1.75,2.17,2.17,0,0,1-1.95-.8c-1.78-3.52-7-4.71-6.6-9.85,0-.62-2.31-1.51-3.62-2.13-1.7-.8-3.48-1.45-6.23-2.58,9.14-9.65,18.49-17.33,30.68-21.76l1.32,3.48,16.6-3.38c1.38,6.8,2.49,7.33,7.46,5.47,3.65,2.63,6.63,4.79,9.63,6.91.65.46,2.06.76,2,1.1C657.4,201.49,660.92,201.45,664.75,201.11ZM598,203.85c7.59,4.09,13.57,7.74,19.9,10.61,6.12,2.78,6.7,2.23,9.11-2.67,4.92-10,17.37-12.9,26.59-6.67a26.4,26.4,0,0,0,3,1.54,12.47,12.47,0,0,0-3.59-6.6c-8.36-7.21-18.11-11.33-29.14-9.26-7.08,1.33-13.9,4.33-20.6,7.15C601.22,198.83,599.94,201.61,598,203.85Z"/><path d="M966.37,340.08l4.36-5.86,2.89,5.29c3.8-4.41,8.49-5.91,14.82-3.84l-3.23,5.4c2.21.88,6.16-4.8,6.24,2.54,3.28-3.7,5.9-3.19,8.65.42l-3.36.31-.52,1a31,31,0,0,0,5,2.34c2.93.81,7.78-.25,4.43,5.57-.22.38.87,1.52,1.26,2.17l7.16-4,1,1.16-1.5,5.06,9.75,3.18c-5,2.31-9,5.31-10.47,10.78-.24.89-3,1.85-4.29,1.55-3.92-.9-7.22-1.22-10,2.57-1.71,2.29-8.92,1.66-11.36-.79-2.28,3.86-5.23,2.06-8.45,1.29-4.72-1.14-9.25-5.29-14.78-1.22l-2.89-4.8L957.85,374l-1.76-5.19L937.73,356.9a42.69,42.69,0,0,1,4.86-5.12c6.13-4.74,12.48-9.18,18.62-13.89C963.92,335.81,965.46,336.24,966.37,340.08Zm-5.94,5.33c1.23,2,1.33,2.36,1.57,2.51,9,5.74,9.84,8.08,7.13,18-.27,1,2.18,3.69,2.32,3.62,4.08-2.13,7.15,2,10.6,1.71,7.37-.69,14.71-2,22-3.34,2.89-.55,3.49-2.54,2.25-5.57-5.19-12.59-15.66-17.49-28-18.76C972.74,343,967,344.65,960.43,345.41Z"/><path d="M968,222.31a46.75,46.75,0,0,1-1.11-6.29c-.06-1.23.69-2.5,1.07-3.75a27.08,27.08,0,0,1,2.08,2.59,9.05,9.05,0,0,1,1.37,3c.52,2.73.09,4.91-3.54,4.37Z"/><path d="M986.33,227.23l4.34,5.47,2-.59-4,1.7C989.62,231.13,982.85,230.13,986.33,227.23Z"/><path d="M917.75,255.24c1.35-.27,3.42-1.2,3.9-.68,1.33,1.46,2,3.53,2.92,5.35l-1.39,1c-.78-.72-1.51-1.51-2.34-2.15s-2-1.35-3-2Z"/><path d="M731.67,249.79c-2.13,8.37-4.12,16.45-6.24,24.49C719.15,298,704,312.73,681,321.5c-18,6.87-33.86,4.08-50-4.23-5.88-3-12-5.62-17.92-8.54-2.39-1.17-4.6-2.69-6.89-4.06l.45-1.47c1.79.09,3.68-.15,5.36.33,7,2,14.13,3.87,20.95,6.47,8.12,3.09,16.29,4,24.28.78,13-5.18,26.4-9.78,38.26-16.91,13.51-8.12,20.28-22.46,26.37-36.64C724.1,252.22,728.39,249.11,731.67,249.79Z" fill="#fff"/><path d="M721.47,250.82c-12.58,3.61-25.21,7.06-37.7,11a21.73,21.73,0,0,0-8.07,5.13c-4.34,4.14-9.68,5.6-15.14,7.31-4.24,1.33-8.16,3.68-12.27,5.49-2.6,1.15-5.26,2.18-7.93,3.16-4.62,1.69-9.52,2.82-13.85,5.06-4.73,2.44-8.89,6-13.4,8.84-1.43.92-3.17,1.34-6.27,2.59,1.21-3.31,1.81-5.33,2.66-7.24,8.44-18.88,23.39-28,43.91-26.08,6.07.56,9.69-1.51,13-6.34,6-8.88,14.55-13.06,25.47-12.17,9.82.81,19.66,1.37,29.49,2Z" fill="#fff"/><path d="M671.51,287.16c3.94-.83,6.84-1.2,9.57-2.09,2.29-.74,4.32-2.28,6.59-3.11,2.67-1,4.75-2,4-5.49a2.81,2.81,0,0,1,1.3-2.24c6-3.18,12.07-6.25,18.14-9.29a14.59,14.59,0,0,1,3-.62c-.62,1.65-.77,3-1.49,3.82-6.69,7.79-12.81,16.39-24.06,18.14a1,1,0,0,0-.46.14c-7.46,6.34-17.42,5.9-25.82,9.64-1.75.78-2.91,2.92-4.29,4.47-.59.67-1,2-1.62,2.07-4.64.81-9.31,1.41-14,2-.79.1-1.77-.34-2.41,0-9.14,4.45-16-3.43-24.27-3.66l-.35-2.08c3.44-1,6.82-2.57,10.34-3,7.8-1,15.67-1.39,23.5-2.13,5.09-.48,10.17-1.14,15.26-1.67C668.42,291.64,671.33,290.09,671.51,287.16Z" fill="#fff"/><path d="M667.1,276.39c1.65,4.64,3.4,9-1.87,11.75-7.62,3.93-12.6,2.92-17-3.1C652.85,278.9,659.59,277.33,667.1,276.39Z" fill="#fff"/><path d="M669.76,275.84c3.69-2.77,7.41-5.58,11.14-8.36,2.94-2.18,4.7-.92,6,2,2.13,4.75,1,8-3.95,10.55C675.25,284.09,675,284,669.76,275.84Z" fill="#fff"/><path d="M688,264.94c4.31-1.48,7.63-2.74,11-3.7.84-.24,2.53.24,2.81.86.47,1,.59,3.19,0,3.54-2.83,1.74-5.83,3.56-9,4.22C691.81,270.07,690,267,688,264.94Z" fill="#fff"/><path d="M661.23,303.54c1-1.49,1.63-3.83,3-4.3,3.15-1.13,6.62-1.38,10-2,.06,1.22.53,3.33.13,3.52-3.74,1.69-7.63,3.05-11.48,4.51Z" fill="#fff"/><path d="M647,291.48c-3.79,0-6.92.18-10-.11-.9-.09-1.66-1.55-2.49-2.38.87-.78,1.72-2.2,2.61-2.23C640.59,286.67,645,284.78,647,291.48Z" fill="#fff"/><path d="M692.39,291.73l-11.76,6.44a10.7,10.7,0,0,1,10.91-8.05Z" fill="#fff"/><path d="M704.69,259.53l8.23-2.33C710.8,262.59,708.37,263.34,704.69,259.53Z" fill="#fff"/><path d="M764.37,243.64c-3.36-2.31-7.77-4.77-11.47-8-5.58-4.9-5.7-10.15-.75-15.76,7-7.94,16.39-12.12,26.17-15.37,19.25-6.41,38.07-6.1,55.81,4.77A40,40,0,0,1,849.6,225.6c2.08,4.15,6.1,7.33,8.24,9.8-2.17,4.1-3.79,7.31-5.58,10.42a3.58,3.58,0,0,1-2.2,1.64c-9.28,1.36-18.57,2.69-27.9,3.71-1,.11-2.7-1.61-3.36-2.86A37.57,37.57,0,0,0,798.14,230a22.4,22.4,0,0,0-25,6C771,238.52,768.09,240.46,764.37,243.64Z" fill="#fff"/><path d="M865.91,248.1c-2.2-.25-4.54-.12-6.55-.88-1.23-.46-2-2.28-2.9-3.49,1.47-.52,3.26-1.84,4.33-1.4,2.25.94,4.11,2.79,6.13,4.27Z" fill="#fff"/><path d="M1001.74,280.73c-3.36,2.1-5.8,3.76-8.38,5.15a5,5,0,0,1-3.5.57c-7.08-2.33-14.34-4.37-21-7.61-2-1-3.56-5.56-3.3-8.3.89-9.32-2.83-16.69-8.62-23.2-7.81-8.79-17.4-8-27.32-4.12-7.51,2.95-8,2.74-11.18-4.32-3.64-8-2.75-12.18,3.39-15.31,7.29-3.71,15.19-3.66,23-2.84,20.33,2.13,37.74,9.67,49,27.92,4.57,7.42,6.14,15.67,6.88,24.18C1000.91,275.74,1001.44,278.6,1001.74,280.73Z" fill="#fff"/><path d="M1003.71,294.71a71.68,71.68,0,0,1-5.73-4.83c-.6-.6-.42-2-.59-3,1.18-.16,3.05-.85,3.41-.38a69.8,69.8,0,0,1,4.36,7.14Z" fill="#fff"/><path d="M770.27,133.58c1.29,5.09-.88,9.33-3.67,13.06-10.73,14.33-24.6,23.54-42.5,27-15,2.93-26.37-2.88-36.25-13.54,3.37,1.57,6.69,3.29,10.13,4.68,9,3.64,17.88,1.37,26.8-.4,18.68-3.7,33.4-13.12,43.28-29.65a3.27,3.27,0,0,1,1.08-1A3.76,3.76,0,0,1,770.27,133.58Z" fill="#fff"/><path d="M679.1,148.07c7.06-6,13.57-13.31,24.2-12.78,6.3.31,11.51-.65,16.69-4.87,3.42-2.79,8.52-4,13.07-4.85a75,75,0,0,1,30.67,1.05l.18,1.55c-5.5.95-11.05,1.65-16.47,2.92A136.06,136.06,0,0,0,730.75,136c-4.83,1.8-9.36,4.4-14,6.63a4.82,4.82,0,0,1-1.38.44c-8.32,1.16-16.64,2.25-24.95,3.48a39.43,39.43,0,0,0-5.5,1.59c-1.69.51-3.38,1-5.06,1.57Z" fill="#fff"/><path d="M685.1,151.87a29.65,29.65,0,0,1,3.64-.2c7.31.47,14.68,1.82,21.91,1.28,6.13-.47,12-3.93,18.15-4.58,9.65-1,16.77-7.21,25.07-10.89,2.87-1.28,4.23-5.49,8.27-5.53.92,0,1.84-.1,3.5-.19-2.75,4.26-4.51,7.91-9.35,9.86-7.32,3-14.1,7.24-21.1,11-.14.07-.26.23-.4.26-12.65,2.45-24.34,10.58-37.94,7-4.35-1.15-8.24-4-12.33-6.11Z" fill="#fff"/><path d="M738.31,155c1.55-3.25,4.38-4.5,7.7-5l1.15,1.78-7.71,4.67Z" fill="#fff"/><path d="M723.52,144a20.92,20.92,0,0,1,3.59-2.45,17.1,17.1,0,0,1,4.41-.88c.07,0,.58,1.52.39,1.66a16.67,16.67,0,0,1-3.94,2.4,17,17,0,0,1-3.92.55Z" fill="#fff"/><path d="M739.36,142.7,737.25,137l5.87-1.8.84,1.1Z" fill="#fff"/><path d="M710.54,147.44l8.59-1.24.35,1.92L711,149.89Z" fill="#fff"/><path d="M821.73,323.14c27.45,10.21,46.79,1.14,59.42-23.8,1.48,8.94-5.53,23.52-13.95,28.49C851.81,336.91,836.17,335.59,821.73,323.14Z" fill="#fff"/><path d="M824.68,315.36c2.86-6.57,11.22-10.9,19.4-8.77Z" fill="#fff"/><path d="M842.21,312.4c2.6-2.34,4.85-5,8.34-2.53.86.61,1.44,3.1.91,3.92C850,316.07,845.19,315.4,842.21,312.4Z" fill="#fff"/><path d="M865,297l-13.54,6.38C852.22,298,859.34,294.62,865,297Z" fill="#fff"/><path d="M855,313.7l15-6.79.73,1.38-14.63,7.56Z" fill="#fff"/><path d="M875.46,299.06c-3.17,1.84-6.29,3.78-9.55,5.42-.7.35-1.95-.4-2.94-.64.53-.83.89-2.15,1.61-2.4,3.47-1.19,7-2.09,10.57-3.09Z" fill="#fff"/><path d="M598,203.85c1.94-2.24,3.22-5,5.3-5.9,6.69-2.83,13.52-5.83,20.6-7.15,11-2.07,20.78,2.05,29.14,9.26a12.47,12.47,0,0,1,3.59,6.6,26.4,26.4,0,0,1-3-1.54c-9.22-6.23-21.67-3.35-26.59,6.67-2.41,4.9-3,5.45-9.11,2.67C611.58,211.59,605.6,207.94,598,203.85Z" fill="#fff"/><path d="M960.43,345.41c6.54-.76,12.3-2.44,17.83-1.87,12.38,1.27,22.85,6.18,28,18.76,1.25,3,.64,5-2.25,5.57-7.28,1.39-14.62,2.65-22,3.34-3.45.32-6.52-3.84-10.6-1.71-.15.08-2.59-2.65-2.32-3.62,2.71-9.88,1.87-12.22-7.13-18C961.76,347.78,961.66,347.41,960.43,345.41Z" fill="#fff"/></svg>